<svg width="18" height="17" viewBox="0 0 18 17" fill="none" xmlns="http://www.w3.org/2000/svg">
<path d="M17.6868 8.01422C17.6866 8.16094 17.6281 8.30157 17.5242 8.40519C17.4733 8.45687 17.4126 8.49792 17.3457 8.52594C17.2788 8.55395 17.207 8.56838 17.1345 8.56838C17.0619 8.56838 16.9901 8.55395 16.9232 8.52594C16.8563 8.49792 16.7956 8.45687 16.7448 8.40519L16.3014 7.96223V14.9947C16.3009 15.4154 16.1336 15.8187 15.8361 16.1162C15.5387 16.4137 15.1353 16.581 14.7146 16.5814H10.5017V11.1212C10.5017 10.9557 10.436 10.797 10.319 10.68C10.202 10.563 10.0433 10.4973 9.87786 10.4973H7.80656C7.64109 10.4973 7.48241 10.563 7.3654 10.68C7.2484 10.797 7.18267 10.9557 7.18267 11.1212L7.18558 15.1365H7.18267V16.5806H2.96687C2.54634 16.5796 2.14332 16.4121 1.84596 16.1147C1.54861 15.8174 1.38111 15.4144 1.38012 14.9938V7.96888L0.943821 8.40519C0.892319 8.45628 0.83123 8.49669 0.764064 8.52409C0.696898 8.5515 0.624978 8.56537 0.552437 8.5649C0.479895 8.56537 0.407975 8.5515 0.340809 8.52409C0.273643 8.49669 0.212555 8.45628 0.161053 8.40519C0.0578809 8.30105 0 8.16039 0 8.0138C0 7.86721 0.0578809 7.72655 0.161053 7.62242L7.03419 0.745957C7.51471 0.268182 8.16479 0 8.84241 0C9.52004 0 10.1701 0.268182 10.6506 0.745957L17.5238 7.62242C17.6272 7.72668 17.6856 7.86736 17.6864 8.01422" fill="#ED1C29"/>
</svg>
