<?xml version="1.0" encoding="UTF-8" standalone="no" ?>
<!DOCTYPE svg PUBLIC "-//W3C//DTD SVG 1.1//EN" "http://www.w3.org/Graphics/SVG/1.1/DTD/svg11.dtd">
<svg xmlns="http://www.w3.org/2000/svg" xmlns:xlink="http://www.w3.org/1999/xlink" version="1.1" width="1080" height="1080" viewBox="0 0 1080 1080" xml:space="preserve">
<desc>Created with Fabric.js 5.2.4</desc>
<defs>
</defs>
<g transform="matrix(1 0 0 1 540 540)" id="07a2609e-0934-4e96-bcac-2c0987924711"  >
<rect style="stroke: none; stroke-width: 1; stroke-dasharray: none; stroke-linecap: butt; stroke-dashoffset: 0; stroke-linejoin: miter; stroke-miterlimit: 4; fill: rgb(255,255,255); fill-rule: nonzero; opacity: 1; visibility: hidden;" vector-effect="non-scaling-stroke"  x="-540" y="-540" rx="0" ry="0" width="1080" height="1080" />
</g>
<g transform="matrix(1 0 0 1 540 540)" id="bc7449ab-a357-49aa-91f9-e67a887c9290"  >
</g>
<g transform="matrix(2.61 0 0 2.61 539.89 545.03)"  >
<path style="stroke: none; stroke-width: 1; stroke-dasharray: none; stroke-linecap: butt; stroke-dashoffset: 0; stroke-linejoin: miter; stroke-miterlimit: 4; fill: rgb(255,255,255); fill-rule: evenodd; opacity: 1;" vector-effect="non-scaling-stroke"  transform=" translate(-200, -199.97)" d="M 40.9 0.292 C 39.745 0.375 38.8 0.612 38.8 0.821 C 38.8 1.029 38.08 1.2 37.2 1.2 C 36.32 1.2 35.6 1.38 35.6 1.6 C 35.6 1.82 35.251 2 34.824 2 C 34.397 2 33.936 2.18 33.8 2.4 C 33.664 2.62 33.113 2.8 32.576 2.8 C 32.039 2.8 31.6 2.98 31.6 3.2 C 31.6 3.42 31.24 3.6 30.8 3.6 C 30.36 3.6 30 3.78 30 4 C 30 4.22 29.651 4.4 29.224 4.4 C 28.797 4.4 28.336 4.58 28.2 4.8 C 28.064 5.02 27.603 5.2 27.176 5.2 C 26.749 5.2 26.4 5.35 26.4 5.532 C 26.4 5.715 25.905 6.119 25.3 6.43 C 24.695 6.74 23.909 7.311 23.553 7.697 C 23.197 8.084 22.655 8.4 22.349 8.4 C 22.043 8.4 21.307 8.85 20.713 9.4 C 20.12 9.95 19.462 10.4 19.251 10.4 C 18.61 10.4 11.499 17.649 9.834 20 C 8.978 21.21 8.124 22.26 7.938 22.333 C 7.752 22.407 7.6 22.812 7.6 23.233 C 7.6 23.655 7.464 24 7.298 24 C 7.131 24 6.741 24.585 6.43 25.3 C 6.119 26.015 5.76 26.69 5.632 26.8 C 5.16 27.206 4.4 28.808 4.4 29.395 C 4.4 29.728 4.22 30 4 30 C 3.78 30 3.6 30.36 3.6 30.8 C 3.6 31.24 3.42 31.6 3.2 31.6 C 2.98 31.6 2.8 32.14 2.8 32.8 C 2.8 33.46 2.62 34 2.4 34 C 2.18 34 2 34.439 2 34.976 C 2 35.513 1.82 36.064 1.6 36.2 C 1.38 36.336 1.2 37.031 1.2 37.744 C 1.2 38.457 0.975 39.265 0.7 39.54 C -0.036 40.276 -0.036 360.855 0.7 361.1 C 0.975 361.192 1.2 361.871 1.2 362.61 C 1.2 363.348 1.38 364.064 1.6 364.2 C 1.82 364.336 2 364.797 2 365.224 C 2 365.651 2.18 366 2.4 366 C 2.62 366 2.8 366.54 2.8 367.2 C 2.8 367.86 2.98 368.4 3.2 368.4 C 3.42 368.4 3.6 368.76 3.6 369.2 C 3.6 369.64 3.78 370 4 370 C 4.22 370 4.4 370.349 4.4 370.776 C 4.4 371.203 4.58 371.664 4.8 371.8 C 5.02 371.936 5.2 372.397 5.2 372.824 C 5.2 373.251 5.38 373.6 5.6 373.6 C 5.82 373.6 6 373.87 6 374.2 C 6 374.53 6.18 374.8 6.4 374.8 C 6.62 374.8 6.8 375.07 6.8 375.4 C 6.8 375.73 6.98 376 7.2 376 C 7.42 376 7.6 376.278 7.6 376.617 C 7.6 376.956 7.783 377.451 8.007 377.717 C 9.56 379.558 10 380.163 10 380.457 C 10 380.894 19.106 390 19.543 390 C 19.727 390 20.293 390.36 20.8 390.8 C 21.307 391.24 22.015 391.6 22.373 391.6 C 22.731 391.6 23.283 391.96 23.6 392.4 C 23.917 392.84 24.497 393.2 24.888 393.2 C 25.28 393.2 25.6 393.38 25.6 393.6 C 25.6 393.82 25.87 394 26.2 394 C 26.53 394 26.8 394.18 26.8 394.4 C 26.8 394.62 27.16 394.8 27.6 394.8 C 28.04 394.8 28.4 394.98 28.4 395.2 C 28.4 395.42 28.76 395.6 29.2 395.6 C 29.64 395.6 30 395.78 30 396 C 30 396.22 30.36 396.4 30.8 396.4 C 31.24 396.4 31.6 396.58 31.6 396.8 C 31.6 397.02 32.14 397.2 32.8 397.2 C 33.46 397.2 34 397.38 34 397.6 C 34 397.82 34.349 398 34.776 398 C 35.203 398 35.664 398.18 35.8 398.4 C 35.936 398.62 36.832 398.8 37.79 398.8 C 38.829 398.8 39.601 399.002 39.7 399.3 C 39.945 400.036 360.055 400.036 360.3 399.3 C 360.399 399.002 361.171 398.8 362.21 398.8 C 363.168 398.8 364.064 398.62 364.2 398.4 C 364.336 398.18 364.797 398 365.224 398 C 365.651 398 366 397.82 366 397.6 C 366 397.38 366.54 397.2 367.2 397.2 C 367.86 397.2 368.4 397.02 368.4 396.8 C 368.4 396.58 368.76 396.4 369.2 396.4 C 369.64 396.4 370 396.22 370 396 C 370 395.78 370.36 395.6 370.8 395.6 C 371.24 395.6 371.6 395.42 371.6 395.2 C 371.6 394.98 371.96 394.8 372.4 394.8 C 372.84 394.8 373.2 394.664 373.2 394.498 C 373.2 394.331 373.785 393.94 374.5 393.628 C 375.215 393.316 376.091 392.732 376.447 392.33 C 376.803 391.929 377.36 391.6 377.686 391.6 C 378.011 391.6 378.693 391.24 379.2 390.8 C 379.707 390.36 380.273 390 380.457 390 C 380.894 390 390 380.894 390 380.457 C 390 380.273 390.36 379.707 390.8 379.2 C 391.24 378.693 391.6 377.985 391.6 377.627 C 391.6 377.269 391.96 376.717 392.4 376.4 C 392.84 376.083 393.2 375.593 393.2 375.312 C 393.2 375.03 393.38 374.8 393.6 374.8 C 393.82 374.8 394 374.44 394 374 C 394 373.56 394.18 373.2 394.4 373.2 C 394.62 373.2 394.8 372.84 394.8 372.4 C 394.8 371.96 394.98 371.6 395.2 371.6 C 395.42 371.6 395.6 371.24 395.6 370.8 C 395.6 370.36 395.78 370 396 370 C 396.22 370 396.4 369.64 396.4 369.2 C 396.4 368.76 396.58 368.4 396.8 368.4 C 397.02 368.4 397.2 367.86 397.2 367.2 C 397.2 366.54 397.38 366 397.6 366 C 397.82 366 398 365.561 398 365.024 C 398 364.487 398.18 363.936 398.4 363.8 C 398.62 363.664 398.8 362.969 398.8 362.256 C 398.8 361.543 399.025 360.735 399.3 360.46 C 400.036 359.724 400.036 39.876 399.3 39.14 C 399.025 38.865 398.8 38.147 398.8 37.544 C 398.8 36.941 398.62 36.336 398.4 36.2 C 398.18 36.064 398 35.513 398 34.976 C 398 34.439 397.82 34 397.6 34 C 397.38 34 397.2 33.46 397.2 32.8 C 397.2 32.14 397.02 31.6 396.8 31.6 C 396.58 31.6 396.4 31.24 396.4 30.8 C 396.4 30.36 396.22 30 396 30 C 395.78 30 395.6 29.64 395.6 29.2 C 395.6 28.76 395.42 28.4 395.2 28.4 C 394.98 28.4 394.8 28.04 394.8 27.6 C 394.8 27.16 394.654 26.8 394.475 26.8 C 394.296 26.8 393.902 26.17 393.6 25.4 C 393.298 24.63 392.948 24 392.823 24 C 392.698 24 392.354 23.456 392.06 22.791 C 391.766 22.126 391.311 21.361 391.049 21.091 C 390.788 20.821 390.134 19.97 389.597 19.2 C 388.395 17.478 381.279 10.4 380.749 10.4 C 380.538 10.4 379.88 9.95 379.287 9.4 C 378.693 8.85 377.931 8.4 377.592 8.4 C 377.254 8.4 376.717 8.04 376.4 7.6 C 376.083 7.16 375.593 6.8 375.312 6.8 C 375.03 6.8 374.8 6.62 374.8 6.4 C 374.8 6.18 374.53 6 374.2 6 C 373.87 6 373.6 5.82 373.6 5.6 C 373.6 5.38 373.15 5.2 372.6 5.2 C 372.05 5.2 371.6 5.02 371.6 4.8 C 371.6 4.58 371.24 4.4 370.8 4.4 C 370.36 4.4 370 4.22 370 4 C 370 3.78 369.64 3.6 369.2 3.6 C 368.76 3.6 368.4 3.42 368.4 3.2 C 368.4 2.98 367.961 2.8 367.424 2.8 C 366.887 2.8 366.336 2.62 366.2 2.4 C 366.064 2.18 365.603 2 365.176 2 C 364.749 2 364.4 1.82 364.4 1.6 C 364.4 1.38 363.695 1.2 362.833 1.2 C 361.936 1.2 361.196 0.987 361.1 0.7 C 360.944 0.232 47.361 -0.167 40.9 0.292 M 358.394 10.195 C 358.766 10.531 359.803 10.8 360.731 10.8 C 361.649 10.8 362.401 10.935 362.403 11.1 C 362.407 11.51 364.389 12.4 365.296 12.4 C 365.702 12.4 366.42 12.76 366.892 13.2 C 367.364 13.64 368.004 14 368.312 14 C 368.621 14 369.331 14.36 369.891 14.8 C 370.45 15.24 371.154 15.6 371.454 15.6 C 371.754 15.6 372 15.78 372 16 C 372 16.22 372.248 16.4 372.551 16.4 C 372.854 16.4 373.342 16.689 373.635 17.042 C 373.927 17.395 374.58 17.84 375.084 18.032 C 375.588 18.223 376 18.655 376 18.99 C 376 19.326 376.245 19.6 376.544 19.6 C 377.093 19.6 382 24.613 382 25.174 C 382 25.34 382.36 25.802 382.8 26.2 C 383.24 26.598 383.6 27.095 383.6 27.304 C 383.6 27.513 384.14 28.484 384.8 29.462 C 385.46 30.44 386.004 31.366 386.009 31.52 C 386.014 31.674 386.37 32.25 386.8 32.8 C 387.23 33.35 387.586 34.169 387.591 34.62 C 387.602 35.602 388.477 37.592 388.9 37.597 C 389.065 37.599 389.2 38.196 389.2 38.925 C 389.2 39.696 389.534 40.608 390 41.108 C 391.265 42.465 391.265 357.855 390 359 C 389.56 359.398 389.2 360.232 389.2 360.852 C 389.2 361.473 388.841 362.57 388.401 363.29 C 387.962 364.011 387.598 364.96 387.593 365.4 C 387.587 365.84 387.23 366.65 386.8 367.2 C 386.37 367.75 386.014 368.327 386.009 368.482 C 386.004 368.637 385.538 369.445 384.974 370.276 C 384.41 371.107 383.67 372.375 383.329 373.094 C 382.988 373.812 382.549 374.4 382.354 374.4 C 382.159 374.4 382 374.603 382 374.851 C 382 375.326 375.497 382 375.035 382 C 374.887 382 374.38 382.36 373.908 382.8 C 373.436 383.24 372.813 383.6 372.525 383.6 C 372.236 383.6 372 383.78 372 384 C 372 384.22 371.775 384.404 371.5 384.409 C 371.225 384.414 370.55 384.77 370 385.2 C 369.45 385.63 368.713 385.986 368.362 385.991 C 368.011 385.996 367.398 386.36 367 386.8 C 366.602 387.24 365.899 387.601 365.438 387.601 C 364.977 387.602 364.011 387.962 363.29 388.401 C 362.57 388.841 361.338 389.2 360.553 389.2 C 359.732 389.2 358.695 389.539 358.109 390 C 356.501 391.265 42.945 391.265 41.8 390 C 41.288 389.434 40.568 389.2 39.338 389.2 C 38.382 389.2 37.599 389.065 37.597 388.9 C 37.592 388.465 35.586 387.6 34.582 387.6 C 34.11 387.6 33.398 387.24 33 386.8 C 32.602 386.36 32.017 386 31.701 386 C 31.385 386 30.669 385.64 30.109 385.2 C 29.55 384.76 28.846 384.4 28.546 384.4 C 28.246 384.4 28 384.22 28 384 C 28 383.78 27.758 383.6 27.462 383.6 C 27.166 383.6 26.598 383.24 26.2 382.8 C 25.802 382.36 25.246 382 24.965 382 C 24.684 382 24.34 381.64 24.2 381.2 C 24.06 380.76 23.721 380.4 23.446 380.4 C 22.857 380.4 18 375.418 18 374.814 C 18 374.586 17.841 374.4 17.647 374.4 C 17.453 374.4 16.819 373.429 16.238 372.241 C 15.657 371.054 14.916 369.862 14.591 369.592 C 14.266 369.323 13.996 368.899 13.991 368.651 C 13.986 368.403 13.63 367.75 13.2 367.2 C 12.77 366.65 12.414 365.8 12.409 365.312 C 12.404 364.824 12.04 363.783 11.6 363 C 11.16 362.217 10.8 361.171 10.8 360.677 C 10.8 360.182 10.527 359.389 10.194 358.913 C 9.265 357.586 9.259 42.422 10.188 41.096 C 10.525 40.615 10.8 39.818 10.8 39.323 C 10.8 38.829 11.16 37.783 11.6 37 C 12.04 36.217 12.4 35.131 12.4 34.588 C 12.4 34.045 12.536 33.6 12.702 33.6 C 12.869 33.6 13.254 33.015 13.559 32.3 C 13.864 31.585 14.419 30.64 14.791 30.2 C 15.163 29.76 15.765 28.75 16.127 27.955 C 16.489 27.16 17.059 26.283 17.393 26.006 C 17.727 25.729 18 25.36 18 25.187 C 18 24.633 22.891 19.6 23.429 19.6 C 23.713 19.6 24.06 19.24 24.2 18.8 C 24.34 18.36 24.684 18 24.965 18 C 25.246 18 25.802 17.64 26.2 17.2 C 26.598 16.76 27.095 16.4 27.304 16.4 C 27.513 16.4 28.484 15.86 29.462 15.2 C 30.44 14.54 31.59 14 32.017 14 C 32.444 14 33.018 13.64 33.293 13.2 C 33.568 12.76 34.163 12.4 34.616 12.4 C 35.593 12.4 37.592 11.528 37.597 11.1 C 37.599 10.935 38.388 10.8 39.351 10.8 C 40.387 10.8 41.297 10.565 41.58 10.224 C 42.3 9.356 34.021 9.394 200.962 9.495 C 340.286 9.579 357.799 9.656 358.394 10.195 M 137.8 77.792 C 137.58 77.889 135.87 78.145 134 78.363 C 123.003 79.641 111.738 83.872 102.054 90.362 C 100.873 91.153 99.613 91.98 99.254 92.2 C 98.894 92.42 98.51 92.702 98.4 92.828 C 98.29 92.953 96.76 94.283 95 95.783 C 81.542 107.253 73.356 121.47 69.782 139.577 L 68.8 144.554 L 68.8 196.011 C 68.8 253.106 68.628 249.146 71.329 254.2 C 80.669 271.675 106.232 271.29 114.89 253.544 C 117.327 248.548 117.221 250.997 117.317 197.733 C 117.415 143.52 117.191 148.211 119.985 141.8 C 122.496 136.038 131.544 128 135.52 128 C 135.931 128 136.399 127.868 136.56 127.706 C 137.782 126.485 149.941 125.971 154 126.97 C 160.215 128.498 164.299 130.759 168.271 134.87 C 170.149 136.814 173.6 142.217 173.6 143.215 C 173.6 143.573 173.732 143.999 173.893 144.16 C 175.313 145.579 175.345 146.608 175.595 197.8 C 175.817 243.375 175.899 247.973 176.517 249.755 C 184.451 272.626 215.169 273.051 223.257 250.4 L 224.185 247.8 L 224.41 197.8 L 224.635 147.8 L 225.546 145.4 C 230.383 132.655 239.428 126.453 253.233 126.414 C 258.107 126.4 262.599 126.95 263.38 127.656 C 263.589 127.845 264.102 128 264.519 128 C 267.305 128 275.056 133.811 277.913 138.04 C 282.986 145.55 282.794 143.175 282.797 198.445 C 282.8 249.975 282.73 248.354 285.176 253.381 C 294.898 273.36 322.65 271.287 330.448 250 L 331.4 247.4 L 331.4 196 C 331.4 158.422 331.275 144.062 330.936 142.6 C 330.681 141.5 330.264 139.52 330.01 138.2 C 329.531 135.708 328.134 130.393 327.592 129 C 327.421 128.56 327.061 127.57 326.793 126.8 C 323.024 115.969 313.872 102.807 305.416 96.055 C 303.884 94.832 302.339 93.554 301.981 93.216 C 301.623 92.877 301.054 92.42 300.717 92.2 C 300.381 91.98 298.776 90.901 297.152 89.803 C 270.383 71.695 226.414 74.035 203.107 94.808 C 200.857 96.814 199.19 97.354 198.52 96.294 C 194.623 90.133 172.846 80.082 159.6 78.332 C 156.779 77.959 138.454 77.505 137.8 77.792 M 74.994 282.578 L 73.6 284.057 L 73.6 302.937 L 73.6 321.818 L 74.829 323.309 C 77.378 326.401 83.155 324.99 83.762 321.128 C 83.877 320.398 84.047 314.76 84.139 308.6 C 84.389 291.993 85.929 288.797 93.448 289.275 C 98.703 289.61 98.917 290.297 99.186 307.619 C 99.446 324.431 99.551 324.761 104.6 324.787 C 109.514 324.812 110 323.477 110 309.945 C 110 293.281 111.698 289.2 118.633 289.2 C 124.112 289.2 124.489 290.335 124.772 307.68 L 125.004 321.96 L 126.381 323.38 C 129.046 326.13 133.9 325.22 135.23 321.721 C 136.032 319.611 135.68 292.345 134.815 289.542 C 131.935 280.221 118.205 278.212 110.601 285.999 L 109.067 287.569 L 106.969 285.386 C 101.657 279.857 92.779 279.778 86.24 285.201 C 83.919 287.127 83.634 287.095 82.968 284.837 C 81.847 281.043 77.582 279.835 74.994 282.578 M 159.6 281.832 C 140.211 286.934 138.631 316.051 157.329 323.683 C 162.805 325.918 172.485 325.237 177.553 322.26 C 191.247 314.218 190.661 290.467 176.6 283.591 C 171.755 281.222 164.694 280.491 159.6 281.832 M 198.8 281.695 C 196.646 282.833 196.61 283.15 196.478 302.2 C 196.324 324.221 196.456 324.815 201.482 324.787 C 206.353 324.761 206.8 323.497 206.8 309.76 C 206.8 298.702 207.445 293.6 208.843 293.6 C 209.039 293.6 209.2 293.367 209.2 293.082 C 209.2 289.915 218.738 287.933 221.606 290.504 C 224.066 292.71 224.4 294.776 224.402 307.828 C 224.405 323.376 224.862 324.8 229.839 324.8 C 234.769 324.8 234.892 324.316 234.717 305.6 C 234.588 291.792 234.558 291.338 233.651 289.137 C 229.973 280.221 216.712 278.361 209.034 285.684 C 206.724 287.887 206.491 287.963 206.208 286.6 C 205.696 284.134 205.537 283.734 204.637 282.645 C 203.513 281.285 200.503 280.795 198.8 281.695 M 260.2 281.476 C 250.063 283.797 244.553 291.558 244.634 303.4 C 244.73 317.489 252.21 324.919 266.227 324.849 C 275.344 324.804 280.186 322.686 283.667 317.222 C 286.9 312.146 282.737 308.604 278.068 312.458 C 273.333 316.367 272.303 317.077 270.348 317.78 C 263.218 320.344 255.459 315.168 255.413 307.817 L 255.4 305.8 L 268.2 305.587 C 284.445 305.317 285.595 304.894 285.599 299.173 C 285.606 287.289 273.043 278.535 260.2 281.476 M 292.439 281.706 C 290.11 282.903 289.06 286.346 290.264 288.839 C 290.519 289.368 291.569 291.96 292.598 294.6 C 293.627 297.24 294.707 299.94 294.999 300.6 C 295.575 301.901 300.725 314.925 302.811 320.354 C 304.415 324.528 304.412 324.768 302.708 328.418 C 300.556 333.026 299.982 333.4 295.066 333.4 C 289.81 333.4 288.397 334.179 288.402 337.074 C 288.407 340.024 291.019 341.2 297.565 341.2 C 308.488 341.2 309.944 339.342 319.187 313.6 C 319.779 311.95 320.544 309.97 320.887 309.2 C 321.229 308.43 321.907 306.72 322.393 305.4 C 323.462 302.501 323.768 301.703 324.307 300.4 C 324.535 299.85 325.117 298.32 325.6 297 C 326.498 294.546 326.91 293.485 327.581 291.9 C 330.504 284.999 329.389 281.2 324.442 281.2 C 322.61 281.2 321.476 282.124 320.515 284.4 C 320.19 285.17 319.689 286.34 319.402 287 C 319.114 287.66 318.788 288.56 318.676 289 C 318.564 289.44 317.634 292.14 316.609 295 C 313.907 302.54 311.58 309.218 311.167 310.618 C 310.058 314.378 309.335 313.736 307.095 307 C 306.29 304.58 304.441 299.18 302.986 295 C 301.53 290.82 300.197 286.945 300.023 286.389 C 298.595 281.824 295.694 280.033 292.439 281.706 M 268.852 288.783 C 272.473 290.159 274.95 293.721 274.982 297.6 L 275 299.8 L 265.555 299.907 C 254.509 300.032 254.722 300.101 255.584 296.675 C 257.32 289.776 262.833 286.496 268.852 288.783 M 171.23 290.201 C 179.181 295.827 178.979 311.539 170.893 316.286 C 166.896 318.632 161.59 317.712 158.162 314.077 C 152.196 307.752 154.754 291.447 162.059 289.239 C 164.833 288.4 169.354 288.874 171.23 290.201" stroke-linecap="round" />
</g>
</svg>