<?xml version="1.0" encoding="UTF-8" standalone="no" ?>
<!DOCTYPE svg PUBLIC "-//W3C//DTD SVG 1.1//EN" "http://www.w3.org/Graphics/SVG/1.1/DTD/svg11.dtd">
<svg xmlns="http://www.w3.org/2000/svg" xmlns:xlink="http://www.w3.org/1999/xlink" version="1.1" width="1080" height="1080" viewBox="0 0 1080 1080" xml:space="preserve">
<desc>Created with Fabric.js 5.2.4</desc>
<defs>
</defs>
<g transform="matrix(1 0 0 1 540 540)" id="91e7b98c-7513-4bee-adfa-fee12a4736bd"  >
<rect style="stroke: none; stroke-width: 1; stroke-dasharray: none; stroke-linecap: butt; stroke-dashoffset: 0; stroke-linejoin: miter; stroke-miterlimit: 4; fill: rgb(255,255,255); fill-rule: nonzero; opacity: 1; visibility: hidden;" vector-effect="non-scaling-stroke"  x="-540" y="-540" rx="0" ry="0" width="1080" height="1080" />
</g>
<g transform="matrix(1 0 0 1 540 540)" id="9f4a2228-7dcd-42ca-bcec-4864c28fc520"  >
</g>
<g transform="matrix(2.61 0 0 2.61 540 540)"  >
<g style="" vector-effect="non-scaling-stroke"   >
		<g transform="matrix(1 0 0 1 0.08 6.8)" id="path0"  >
<path style="stroke: none; stroke-width: 1; stroke-dasharray: none; stroke-linecap: butt; stroke-dashoffset: 0; stroke-linejoin: miter; stroke-miterlimit: 4; fill: rgb(255,255,255); fill-rule: evenodd; opacity: 1;" vector-effect="non-scaling-stroke"  transform=" translate(-199.98, -200.01)" d="M 196.6 14 C 196.463 14.221 194.663 14.4 192.576 14.4 C 190.325 14.4 188.8 14.562 188.8 14.8 C 188.8 15.02 187.9 15.2 186.8 15.2 C 185.7 15.2 184.8 15.38 184.8 15.6 C 184.8 15.82 184.08 16 183.2 16 C 182.32 16 181.6 16.18 181.6 16.4 C 181.6 16.62 181.06 16.8 180.4 16.8 C 179.74 16.8 179.2 16.98 179.2 17.2 C 179.2 17.42 178.761 17.6 178.224 17.6 C 177.687 17.6 177.136 17.78 177 18 C 176.864 18.22 176.313 18.4 175.776 18.4 C 175.239 18.4 174.8 18.58 174.8 18.8 C 174.8 19.02 174.44 19.2 174 19.2 C 173.56 19.2 173.2 19.38 173.2 19.6 C 173.2 19.82 172.84 20 172.4 20 C 171.96 20 171.6 20.18 171.6 20.4 C 171.6 20.62 171.24 20.8 170.8 20.8 C 170.36 20.8 170 20.98 170 21.2 C 170 21.42 169.64 21.6 169.2 21.6 C 168.76 21.6 168.4 21.78 168.4 22 C 168.4 22.22 168.04 22.4 167.6 22.4 C 167.16 22.4 166.8 22.58 166.8 22.8 C 166.8 23.02 166.53 23.2 166.2 23.2 C 165.87 23.2 165.6 23.38 165.6 23.6 C 165.6 23.82 165.33 24 165 24 C 164.67 24 164.4 24.18 164.4 24.4 C 164.4 24.62 164.125 24.8 163.789 24.8 C 163.454 24.8 162.374 25.605 161.389 26.589 L 159.6 28.379 L 159.6 31.311 C 159.6 35.615 161.938 38 166.157 38 C 168.252 38 171.6 36.724 171.6 35.926 C 171.6 35.747 171.87 35.6 172.2 35.6 C 172.53 35.6 172.8 35.42 172.8 35.2 C 172.8 34.98 173.07 34.8 173.4 34.8 C 173.73 34.8 174 34.62 174 34.4 C 174 34.18 174.27 34 174.6 34 C 174.93 34 175.2 33.82 175.2 33.6 C 175.2 33.38 175.56 33.2 176 33.2 C 176.44 33.2 176.8 33.02 176.8 32.8 C 176.8 32.58 177.16 32.4 177.6 32.4 C 178.04 32.4 178.4 32.22 178.4 32 C 178.4 31.78 178.76 31.6 179.2 31.6 C 179.64 31.6 180 31.42 180 31.2 C 180 30.98 180.54 30.8 181.2 30.8 C 181.86 30.8 182.4 30.62 182.4 30.4 C 182.4 30.18 182.94 30 183.6 30 C 184.26 30 184.8 29.82 184.8 29.6 C 184.8 29.38 185.34 29.2 186 29.2 C 186.66 29.2 187.2 29.02 187.2 28.8 C 187.2 28.58 188.01 28.4 189 28.4 C 189.99 28.4 190.8 28.22 190.8 28 C 190.8 27.771 192 27.6 193.6 27.6 C 195.2 27.6 196.4 27.429 196.4 27.2 C 196.4 26.963 197.867 26.8 200 26.8 C 202.133 26.8 203.6 26.963 203.6 27.2 C 203.6 27.429 204.8 27.6 206.4 27.6 C 208 27.6 209.2 27.771 209.2 28 C 209.2 28.22 210.01 28.4 211 28.4 C 211.99 28.4 212.8 28.58 212.8 28.8 C 212.8 29.02 213.34 29.2 214 29.2 C 214.66 29.2 215.2 29.38 215.2 29.6 C 215.2 29.82 215.74 30 216.4 30 C 217.06 30 217.6 30.18 217.6 30.4 C 217.6 30.62 218.14 30.8 218.8 30.8 C 219.46 30.8 220 30.98 220 31.2 C 220 31.42 220.36 31.6 220.8 31.6 C 221.24 31.6 221.6 31.78 221.6 32 C 221.6 32.22 221.96 32.4 222.4 32.4 C 222.84 32.4 223.2 32.58 223.2 32.8 C 223.2 33.02 223.56 33.2 224 33.2 C 224.44 33.2 224.8 33.38 224.8 33.6 C 224.8 33.82 225.07 34 225.4 34 C 225.73 34 226 34.18 226 34.4 C 226 34.62 226.27 34.8 226.6 34.8 C 226.93 34.8 227.2 34.98 227.2 35.2 C 227.2 35.42 227.47 35.6 227.8 35.6 C 228.13 35.6 228.4 35.75 228.4 35.932 C 228.4 36.115 228.895 36.519 229.5 36.83 C 230.105 37.14 230.87 37.683 231.2 38.034 C 231.53 38.386 232.233 38.904 232.762 39.185 C 233.788 39.728 234.211 40.085 237.5 43.175 C 238.655 44.26 239.6 45.313 239.6 45.515 C 239.6 45.716 240.128 46.434 240.774 47.109 C 241.419 47.785 242.254 48.936 242.629 49.669 C 243.005 50.401 243.422 51.09 243.556 51.2 C 243.942 51.517 245.227 53.73 245.471 54.5 C 245.593 54.885 245.852 55.2 246.047 55.2 C 246.241 55.2 246.4 55.56 246.4 56 C 246.4 56.44 246.58 56.8 246.8 56.8 C 247.02 56.8 247.2 57.149 247.2 57.576 C 247.2 58.003 247.38 58.464 247.6 58.6 C 247.82 58.736 248 59.197 248 59.624 C 248 60.051 248.18 60.4 248.4 60.4 C 248.62 60.4 248.8 60.839 248.8 61.376 C 248.8 61.913 248.98 62.464 249.2 62.6 C 249.42 62.736 249.6 63.276 249.6 63.8 C 249.6 64.324 249.78 64.864 250 65 C 250.22 65.136 250.4 65.766 250.4 66.4 C 250.4 67.034 250.58 67.664 250.8 67.8 C 251.02 67.936 251.2 68.847 251.2 69.824 C 251.2 70.801 251.38 71.6 251.6 71.6 C 251.86 71.6 252 76.933 252 86.8 C 252 103.581 252.031 103.402 249.6 100.8 C 248.983 100.14 248.231 99.6 247.928 99.6 C 247.625 99.6 247.117 99.24 246.8 98.8 C 246.483 98.36 245.943 98 245.6 98 C 245.257 98 244.717 97.64 244.4 97.2 C 244.083 96.76 243.503 96.4 243.112 96.4 C 242.72 96.4 242.399 96.265 242.397 96.1 C 242.395 95.935 241.99 95.602 241.497 95.359 C 241.004 95.117 239.655 94.4 238.5 93.765 L 236.4 92.612 L 236.4 84.93 C 236.4 80.239 236.244 77.151 236 77 C 235.78 76.864 235.6 75.514 235.6 74 C 235.6 72.486 235.42 71.136 235.2 71 C 234.98 70.864 234.8 70.223 234.8 69.576 C 234.8 68.929 234.62 68.4 234.4 68.4 C 234.18 68.4 234 67.86 234 67.2 C 234 66.54 233.82 66 233.6 66 C 233.38 66 233.2 65.651 233.2 65.224 C 233.2 64.797 233.02 64.336 232.8 64.2 C 232.58 64.064 232.4 63.603 232.4 63.176 C 232.4 62.749 232.22 62.4 232 62.4 C 231.78 62.4 231.6 62.13 231.6 61.8 C 231.6 61.47 231.464 61.2 231.298 61.2 C 231.131 61.2 230.745 60.634 230.438 59.941 C 230.132 59.249 229.008 57.791 227.94 56.701 C 226.873 55.611 226 54.467 226 54.159 C 226 53.852 225.852 53.6 225.671 53.6 C 225.49 53.6 224.378 52.7 223.2 51.6 C 222.022 50.5 220.903 49.6 220.713 49.6 C 220.522 49.6 219.98 49.24 219.508 48.8 C 219.036 48.36 218.413 48 218.125 48 C 217.836 48 217.6 47.82 217.6 47.6 C 217.6 47.38 217.24 47.2 216.8 47.2 C 216.36 47.2 216 47.02 216 46.8 C 216 46.58 215.651 46.4 215.224 46.4 C 214.797 46.4 214.336 46.22 214.2 46 C 214.064 45.78 213.513 45.6 212.976 45.6 C 212.439 45.6 212 45.44 212 45.244 C 212 45.048 211.415 44.785 210.7 44.66 C 209.985 44.536 208.41 44.22 207.2 43.959 C 203.352 43.129 191.641 43.468 190.62 44.439 C 190.411 44.637 189.736 44.8 189.12 44.8 C 188.504 44.8 188 44.98 188 45.2 C 188 45.42 187.561 45.6 187.024 45.6 C 186.487 45.6 185.936 45.78 185.8 46 C 185.664 46.22 185.203 46.4 184.776 46.4 C 184.349 46.4 184 46.58 184 46.8 C 184 47.02 183.64 47.2 183.2 47.2 C 182.76 47.2 182.4 47.38 182.4 47.6 C 182.4 47.82 182.164 48 181.875 48 C 181.587 48 180.964 48.36 180.492 48.8 C 180.02 49.24 179.478 49.6 179.287 49.6 C 179.097 49.6 177.978 50.5 176.8 51.6 C 175.622 52.7 174.51 53.6 174.329 53.6 C 174.148 53.6 174 53.852 174 54.159 C 174 54.467 173.127 55.611 172.06 56.701 C 170.992 57.791 169.868 59.249 169.562 59.941 C 169.255 60.634 168.869 61.2 168.702 61.2 C 168.536 61.2 168.4 61.47 168.4 61.8 C 168.4 62.13 168.22 62.4 168 62.4 C 167.78 62.4 167.6 62.749 167.6 63.176 C 167.6 63.603 167.42 64.064 167.2 64.2 C 166.98 64.336 166.8 64.797 166.8 65.224 C 166.8 65.651 166.62 66 166.4 66 C 166.18 66 166 66.439 166 66.976 C 166 67.513 165.82 68.064 165.6 68.2 C 165.38 68.336 165.2 68.966 165.2 69.6 C 165.2 70.234 165.02 70.864 164.8 71 C 164.58 71.136 164.4 72.486 164.4 74 C 164.4 75.514 164.22 76.864 164 77 C 163.756 77.151 163.6 80.239 163.6 84.93 L 163.6 92.612 L 161.5 93.765 C 160.345 94.4 158.996 95.117 158.503 95.359 C 158.01 95.602 157.605 95.935 157.603 96.1 C 157.601 96.265 157.28 96.4 156.888 96.4 C 156.497 96.4 155.917 96.76 155.6 97.2 C 155.283 97.64 154.743 98 154.4 98 C 154.057 98 153.517 98.36 153.2 98.8 C 152.883 99.24 152.375 99.6 152.072 99.6 C 151.769 99.6 151.017 100.14 150.4 100.8 C 147.972 103.399 148 103.561 148 87 C 148 77.267 148.14 72 148.4 72 C 148.62 72 148.8 71.111 148.8 70.024 C 148.8 68.937 148.98 67.936 149.2 67.8 C 149.42 67.664 149.6 67.034 149.6 66.4 C 149.6 65.766 149.78 65.136 150 65 C 150.22 64.864 150.4 64.324 150.4 63.8 C 150.4 63.276 150.58 62.736 150.8 62.6 C 151.02 62.464 151.2 61.913 151.2 61.376 C 151.2 60.839 151.38 60.4 151.6 60.4 C 151.82 60.4 152 60.051 152 59.624 C 152 59.197 152.18 58.736 152.4 58.6 C 152.62 58.464 152.8 58.003 152.8 57.576 C 152.8 57.149 152.98 56.8 153.2 56.8 C 153.42 56.8 153.6 56.44 153.6 56 C 153.6 55.56 153.78 55.2 154 55.2 C 155.172 55.2 154.43 48.588 153.1 47.175 C 151.249 45.208 146.955 43.979 146.2 45.2 C 146.064 45.42 145.625 45.6 145.224 45.6 C 144.29 45.6 142 47.927 142 48.876 C 142 49.274 141.82 49.6 141.6 49.6 C 141.38 49.6 141.2 49.96 141.2 50.4 C 141.2 50.84 141.02 51.2 140.8 51.2 C 140.58 51.2 140.4 51.549 140.4 51.976 C 140.4 52.403 140.22 52.864 140 53 C 139.78 53.136 139.6 53.687 139.6 54.224 C 139.6 54.761 139.42 55.2 139.2 55.2 C 138.98 55.2 138.8 55.74 138.8 56.4 C 138.8 57.06 138.62 57.6 138.4 57.6 C 138.18 57.6 138 58.05 138 58.6 C 138 59.15 137.82 59.6 137.6 59.6 C 137.38 59.6 137.2 60.14 137.2 60.8 C 137.2 61.46 137.02 62 136.8 62 C 136.58 62 136.4 62.709 136.4 63.576 C 136.4 64.443 136.22 65.264 136 65.4 C 135.78 65.536 135.6 66.627 135.6 67.824 C 135.6 69.021 135.42 70 135.2 70 C 134.938 70 134.8 77.933 134.8 93 C 134.8 108.067 134.662 116 134.4 116 C 134.18 116 134 116.272 134 116.604 C 134 116.936 133.46 117.772 132.8 118.463 C 132.14 119.154 131.6 119.922 131.6 120.171 C 131.6 120.42 131.24 120.883 130.8 121.2 C 130.36 121.517 130 122.097 130 122.488 C 130 122.88 129.832 123.2 129.627 123.2 C 129.422 123.2 129.14 123.559 129.001 123.998 C 128.862 124.436 128.529 125.021 128.261 125.298 C 127.532 126.05 124.8 131.759 124.8 132.53 C 124.8 132.898 124.62 133.2 124.4 133.2 C 124.18 133.2 124 133.56 124 134 C 124 134.44 123.82 134.8 123.6 134.8 C 123.38 134.8 123.2 135.149 123.2 135.576 C 123.2 136.003 123.02 136.464 122.8 136.6 C 122.58 136.736 122.4 137.287 122.4 137.824 C 122.4 138.361 122.22 138.8 122 138.8 C 121.78 138.8 121.6 139.34 121.6 140 C 121.6 140.66 121.42 141.2 121.2 141.2 C 120.98 141.2 120.8 141.74 120.8 142.4 C 120.8 143.06 120.62 143.6 120.4 143.6 C 120.18 143.6 120 144.23 120 145 C 120 145.77 119.82 146.4 119.6 146.4 C 119.38 146.4 119.2 147.12 119.2 148 C 119.2 148.88 119.02 149.6 118.8 149.6 C 118.58 149.6 118.4 150.5 118.4 151.6 C 118.4 152.7 118.22 153.6 118 153.6 C 117.767 153.6 117.6 154.925 117.6 156.776 C 117.6 158.523 117.42 160.064 117.2 160.2 C 116.957 160.35 116.8 163.263 116.8 167.6 C 116.8 171.937 116.957 174.85 117.2 175 C 117.42 175.136 117.6 176.677 117.6 178.424 C 117.6 180.275 117.767 181.6 118 181.6 C 118.22 181.6 118.4 182.5 118.4 183.6 C 118.4 184.7 118.58 185.6 118.8 185.6 C 119.02 185.6 119.2 186.32 119.2 187.2 C 119.2 188.08 119.38 188.8 119.6 188.8 C 119.82 188.8 120 189.43 120 190.2 C 120 190.97 120.18 191.6 120.4 191.6 C 120.62 191.6 120.8 192.14 120.8 192.8 C 120.8 193.46 120.98 194 121.2 194 C 121.42 194 121.6 194.54 121.6 195.2 C 121.6 195.86 121.78 196.4 122 196.4 C 122.22 196.4 122.4 196.94 122.4 197.6 C 122.4 198.26 122.58 198.8 122.8 198.8 C 123.02 198.8 123.2 199.16 123.2 199.6 C 123.2 200.04 123.38 200.4 123.6 200.4 C 123.82 200.4 124 200.672 124 201.005 C 124 201.338 124.153 201.923 124.34 202.305 C 124.528 202.687 125.383 204.482 126.24 206.294 C 127.098 208.105 127.935 209.59 128.1 209.594 C 128.265 209.597 128.4 209.878 128.4 210.217 C 128.4 210.556 128.76 211.22 129.2 211.692 C 129.64 212.164 130 212.787 130 213.075 C 130 213.364 130.168 213.6 130.373 213.6 C 130.578 213.6 130.862 213.966 131.004 214.413 C 131.146 214.86 131.698 215.662 132.231 216.195 C 132.764 216.728 133.2 217.37 133.2 217.621 C 133.2 217.873 133.696 218.556 134.301 219.14 C 134.907 219.723 135.882 220.83 136.467 221.6 C 137.053 222.37 137.952 223.4 138.466 223.888 C 140.761 226.07 142.287 227.604 143.406 228.853 C 144.069 229.594 145.059 230.506 145.606 230.879 C 146.544 231.52 144.146 231.559 103.124 231.579 C 74.594 231.593 59.562 231.738 59.4 232 C 59.264 232.22 58.083 232.4 56.776 232.4 C 55.459 232.4 54.4 232.578 54.4 232.8 C 54.4 233.02 53.5 233.2 52.4 233.2 C 51.3 233.2 50.4 233.38 50.4 233.6 C 50.4 233.82 49.871 234 49.224 234 C 48.577 234 47.936 234.18 47.8 234.4 C 47.664 234.62 47.023 234.8 46.376 234.8 C 45.729 234.8 45.2 234.98 45.2 235.2 C 45.2 235.42 44.75 235.6 44.2 235.6 C 43.65 235.6 43.2 235.78 43.2 236 C 43.2 236.22 42.75 236.4 42.2 236.4 C 41.65 236.4 41.2 236.58 41.2 236.8 C 41.2 237.02 40.84 237.2 40.4 237.2 C 39.96 237.2 39.6 237.38 39.6 237.6 C 39.6 237.82 39.184 238 38.675 238 C 38.167 238 37.364 238.36 36.892 238.8 C 36.42 239.24 35.756 239.6 35.417 239.6 C 35.078 239.6 34.8 239.78 34.8 240 C 34.8 240.22 34.44 240.4 34 240.4 C 33.56 240.4 33.2 240.58 33.2 240.8 C 33.2 241.02 32.84 241.2 32.4 241.2 C 31.96 241.2 31.6 241.353 31.6 241.539 C 31.6 241.726 30.88 242.203 30 242.6 C 29.12 242.997 28.4 243.474 28.4 243.661 C 28.4 243.847 28.164 244 27.875 244 C 27.586 244 26.832 244.54 26.2 245.2 C 25.568 245.86 24.897 246.4 24.709 246.4 C 24.209 246.4 13.6 257.17 13.6 257.677 C 13.6 257.913 13.272 258.397 12.872 258.753 C 11.893 259.622 8.983 263.976 8.629 265.1 C 8.474 265.595 8.178 266 7.973 266 C 7.768 266 7.6 266.36 7.6 266.8 C 7.6 267.24 7.42 267.6 7.2 267.6 C 6.98 267.6 6.8 267.96 6.8 268.4 C 6.8 268.84 6.62 269.2 6.4 269.2 C 6.18 269.2 6 269.56 6 270 C 6 270.44 5.82 270.8 5.6 270.8 C 5.38 270.8 5.2 271.16 5.2 271.6 C 5.2 272.04 5.02 272.4 4.8 272.4 C 4.58 272.4 4.4 272.94 4.4 273.6 C 4.4 274.26 4.22 274.8 4 274.8 C 3.78 274.8 3.6 275.149 3.6 275.576 C 3.6 276.003 3.42 276.464 3.2 276.6 C 2.98 276.736 2.8 277.276 2.8 277.8 C 2.8 278.324 2.62 278.864 2.4 279 C 2.18 279.136 2 279.777 2 280.424 C 2 281.071 1.82 281.6 1.6 281.6 C 1.38 281.6 1.2 282.305 1.2 283.167 C 1.2 284.064 0.987 284.805 0.7 284.9 C -0.03 285.144 -0.03 332.13 0.7 332.86 C 0.975 333.135 1.2 333.943 1.2 334.656 C 1.2 335.369 1.38 336.064 1.6 336.2 C 1.82 336.336 2 336.977 2 337.624 C 2 338.271 2.18 338.8 2.4 338.8 C 2.62 338.8 2.8 339.239 2.8 339.776 C 2.8 340.313 2.98 340.864 3.2 341 C 3.42 341.136 3.6 341.687 3.6 342.224 C 3.6 342.761 3.78 343.2 4 343.2 C 4.22 343.2 4.4 343.56 4.4 344 C 4.4 344.44 4.58 344.8 4.8 344.8 C 5.02 344.8 5.2 345.072 5.2 345.405 C 5.2 346.051 5.471 346.686 6.564 348.6 C 6.941 349.26 7.349 350.115 7.471 350.5 C 7.593 350.885 7.852 351.2 8.047 351.2 C 8.241 351.2 8.4 351.535 8.4 351.944 C 8.4 352.353 8.85 353.351 9.4 354.162 C 9.95 354.972 10.4 355.808 10.4 356.018 C 10.4 356.228 10.541 356.4 10.714 356.4 C 10.886 356.4 11.353 356.95 11.75 357.623 C 12.147 358.295 13.086 359.459 13.836 360.209 C 14.586 360.96 15.2 361.752 15.2 361.971 C 15.2 362.507 22.718 370 23.255 370 C 23.488 370 24.156 370.508 24.74 371.129 C 25.323 371.75 26.79 372.919 28 373.728 C 29.21 374.536 30.417 375.378 30.683 375.599 C 30.949 375.819 31.444 376 31.783 376 C 32.122 376 32.4 376.18 32.4 376.4 C 32.4 376.62 32.72 376.8 33.112 376.8 C 33.503 376.8 34.083 377.16 34.4 377.6 C 34.717 378.04 35.297 378.4 35.688 378.4 C 36.08 378.4 36.4 378.58 36.4 378.8 C 36.4 379.02 36.76 379.2 37.2 379.2 C 37.64 379.2 38 379.38 38 379.6 C 38 379.82 38.54 380 39.2 380 C 39.86 380 40.4 380.18 40.4 380.4 C 40.4 380.62 40.76 380.8 41.2 380.8 C 41.64 380.8 42 380.98 42 381.2 C 42 381.42 42.45 381.6 43 381.6 C 43.55 381.6 44 381.78 44 382 C 44 382.22 44.54 382.4 45.2 382.4 C 45.86 382.4 46.4 382.58 46.4 382.8 C 46.4 383.02 46.94 383.2 47.6 383.2 C 48.26 383.2 48.8 383.38 48.8 383.6 C 48.8 383.82 49.52 384 50.4 384 C 51.28 384 52 384.18 52 384.4 C 52 384.62 52.9 384.8 54 384.8 C 55.1 384.8 56 384.98 56 385.2 C 56 385.435 57.392 385.6 59.376 385.6 C 61.233 385.6 62.864 385.78 63 386 C 63.164 386.265 97.796 386.4 165.6 386.4 C 233.404 386.4 268.036 386.265 268.2 386 C 268.336 385.78 268.842 385.6 269.324 385.6 C 270.401 385.599 272.4 383.944 272.4 383.053 C 272.4 382.694 272.58 382.4 272.8 382.4 C 273.03 382.4 273.197 381.171 273.194 379.5 C 273.187 376.581 271.899 374 270.447 374 C 270.201 374 270 373.82 270 373.6 C 270 373.334 235.475 373.2 167.224 373.2 C 99.137 373.2 64.364 373.065 64.2 372.8 C 64.064 372.58 62.613 372.4 60.976 372.4 C 59.259 372.4 58 372.231 58 372 C 58 371.78 57.19 371.6 56.2 371.6 C 55.21 371.6 54.4 371.42 54.4 371.2 C 54.4 370.98 53.871 370.8 53.224 370.8 C 52.577 370.8 51.936 370.62 51.8 370.4 C 51.664 370.18 51.124 370 50.6 370 C 50.076 370 49.536 369.82 49.4 369.6 C 49.264 369.38 48.713 369.2 48.176 369.2 C 47.639 369.2 47.2 369.02 47.2 368.8 C 47.2 368.58 46.84 368.4 46.4 368.4 C 45.96 368.4 45.6 368.22 45.6 368 C 45.6 367.78 45.31 367.6 44.954 367.6 C 44.384 367.6 41.327 366.128 40.8 365.599 C 40.69 365.489 40.06 365.13 39.4 364.802 C 38.74 364.474 37.909 363.889 37.553 363.503 C 37.197 363.116 36.678 362.8 36.4 362.8 C 36.122 362.8 35.603 362.476 35.247 362.081 C 34.891 361.686 33.97 360.925 33.2 360.392 C 31.187 358.997 31.037 358.868 28.081 355.986 C 26.607 354.548 25.049 352.748 24.62 351.986 C 24.191 351.224 23.516 350.251 23.12 349.825 C 22.724 349.398 22.4 348.896 22.4 348.708 C 22.4 348.52 22.04 347.98 21.6 347.508 C 21.16 347.036 20.8 346.413 20.8 346.125 C 20.8 345.836 20.654 345.6 20.475 345.6 C 20.296 345.6 19.902 344.97 19.6 344.2 C 19.298 343.43 18.904 342.8 18.725 342.8 C 18.546 342.8 18.4 342.44 18.4 342 C 18.4 341.56 18.22 341.2 18 341.2 C 17.78 341.2 17.6 340.84 17.6 340.4 C 17.6 339.96 17.42 339.6 17.2 339.6 C 16.98 339.6 16.8 339.24 16.8 338.8 C 16.8 338.36 16.62 338 16.4 338 C 16.18 338 16 337.46 16 336.8 C 16 336.14 15.82 335.6 15.6 335.6 C 15.38 335.6 15.2 335.06 15.2 334.4 C 15.2 333.74 15.02 333.2 14.8 333.2 C 14.58 333.2 14.4 332.581 14.4 331.824 C 14.4 331.067 14.22 330.336 14 330.2 C 13.78 330.064 13.6 329.254 13.6 328.4 C 13.6 327.546 13.42 326.736 13.2 326.6 C 12.975 326.461 12.8 324.537 12.8 322.2 C 12.8 319.863 12.625 317.939 12.4 317.8 C 11.856 317.464 11.856 300 12.4 300 C 12.643 300 12.8 298.2 12.8 295.4 C 12.8 292.6 12.957 290.8 13.2 290.8 C 13.42 290.8 13.6 289.99 13.6 289 C 13.6 288.01 13.78 287.2 14 287.2 C 14.22 287.2 14.4 286.671 14.4 286.024 C 14.4 285.377 14.58 284.736 14.8 284.6 C 15.02 284.464 15.2 283.834 15.2 283.2 C 15.2 282.566 15.38 281.936 15.6 281.8 C 15.82 281.664 16 281.203 16 280.776 C 16 280.349 16.147 280 16.328 280 C 16.508 280 16.9 279.1 17.2 278 C 17.5 276.9 17.848 276 17.975 276 C 18.101 276 18.464 275.415 18.78 274.7 C 19.097 273.985 19.68 273.051 20.078 272.625 C 20.475 272.198 20.8 271.613 20.8 271.325 C 20.8 271.036 20.98 270.8 21.2 270.8 C 21.42 270.8 21.6 270.564 21.6 270.275 C 21.6 269.987 21.936 269.391 22.346 268.95 C 22.756 268.51 23.32 267.722 23.6 267.2 C 24.851 264.862 31.476 258.297 34.903 256 C 35.723 255.45 36.396 254.865 36.397 254.7 C 36.399 254.535 36.636 254.4 36.925 254.4 C 37.213 254.4 37.798 254.075 38.225 253.678 C 38.651 253.28 39.585 252.697 40.3 252.38 C 41.015 252.064 41.6 251.669 41.6 251.502 C 41.6 251.336 41.96 251.2 42.4 251.2 C 42.84 251.2 43.2 251.02 43.2 250.8 C 43.2 250.58 43.56 250.4 44 250.4 C 44.44 250.4 44.8 250.22 44.8 250 C 44.8 249.78 45.16 249.6 45.6 249.6 C 46.04 249.6 46.4 249.42 46.4 249.2 C 46.4 248.98 46.839 248.8 47.376 248.8 C 47.913 248.8 48.464 248.62 48.6 248.4 C 48.736 248.18 49.197 248 49.624 248 C 50.051 248 50.4 247.82 50.4 247.6 C 50.4 247.38 51.019 247.2 51.776 247.2 C 52.533 247.2 53.264 247.02 53.4 246.8 C 53.536 246.58 54.267 246.4 55.024 246.4 C 55.781 246.4 56.4 246.22 56.4 246 C 56.4 245.778 57.467 245.6 58.8 245.6 C 60.133 245.6 61.2 245.422 61.2 245.2 C 61.2 244.934 107.733 244.8 200 244.8 C 292.267 244.8 338.8 244.934 338.8 245.2 C 338.8 245.422 339.867 245.6 341.2 245.6 C 342.533 245.6 343.6 245.778 343.6 246 C 343.6 246.22 344.219 246.4 344.976 246.4 C 345.733 246.4 346.464 246.58 346.6 246.8 C 346.736 247.02 347.467 247.2 348.224 247.2 C 348.981 247.2 349.6 247.38 349.6 247.6 C 349.6 247.82 349.949 248 350.376 248 C 350.803 248 351.264 248.18 351.4 248.4 C 351.536 248.62 352.087 248.8 352.624 248.8 C 353.161 248.8 353.6 248.98 353.6 249.2 C 353.6 249.42 353.96 249.6 354.4 249.6 C 354.84 249.6 355.2 249.78 355.2 250 C 355.2 250.22 355.56 250.4 356 250.4 C 356.44 250.4 356.8 250.58 356.8 250.8 C 356.8 251.02 357.16 251.2 357.6 251.2 C 358.04 251.2 358.4 251.336 358.4 251.502 C 358.4 251.669 358.985 252.064 359.7 252.38 C 360.415 252.697 361.349 253.28 361.775 253.678 C 362.202 254.075 362.787 254.4 363.075 254.4 C 363.364 254.4 363.6 254.541 363.6 254.714 C 363.6 254.886 364.095 255.323 364.7 255.685 C 367.446 257.326 375.185 264.838 376.248 266.892 C 376.598 267.57 377.226 268.491 377.643 268.938 C 378.059 269.385 378.4 269.987 378.4 270.275 C 378.4 270.564 378.58 270.8 378.8 270.8 C 379.02 270.8 379.2 271.036 379.2 271.325 C 379.2 271.613 379.525 272.198 379.922 272.625 C 380.32 273.051 380.903 273.985 381.22 274.7 C 381.536 275.415 381.931 276 382.098 276 C 382.264 276 382.4 276.349 382.4 276.776 C 382.4 277.203 382.58 277.664 382.8 277.8 C 383.02 277.936 383.2 278.487 383.2 279.024 C 383.2 279.561 383.38 280 383.6 280 C 383.82 280 384 280.349 384 280.776 C 384 281.203 384.18 281.664 384.4 281.8 C 384.62 281.936 384.8 282.566 384.8 283.2 C 384.8 283.834 384.98 284.464 385.2 284.6 C 385.42 284.736 385.6 285.377 385.6 286.024 C 385.6 286.671 385.78 287.2 386 287.2 C 386.22 287.2 386.4 287.999 386.4 288.976 C 386.4 289.953 386.58 290.864 386.8 291 C 387.027 291.14 387.2 293.137 387.2 295.624 C 387.2 298.275 387.358 300 387.6 300 C 387.855 300 388 303.192 388 308.776 C 388 314.196 387.847 317.647 387.6 317.8 C 387.375 317.939 387.2 319.871 387.2 322.224 C 387.2 324.741 387.041 326.4 386.8 326.4 C 386.58 326.4 386.4 327.199 386.4 328.176 C 386.4 329.153 386.22 330.064 386 330.2 C 385.78 330.336 385.6 331.067 385.6 331.824 C 385.6 332.581 385.42 333.2 385.2 333.2 C 384.98 333.2 384.8 333.74 384.8 334.4 C 384.8 335.06 384.62 335.6 384.4 335.6 C 384.18 335.6 384 336.14 384 336.8 C 384 337.46 383.82 338 383.6 338 C 383.38 338 383.2 338.36 383.2 338.8 C 383.2 339.24 383.02 339.6 382.8 339.6 C 382.58 339.6 382.4 339.96 382.4 340.4 C 382.4 340.84 382.22 341.2 382 341.2 C 381.78 341.2 381.6 341.56 381.6 342 C 381.6 342.44 381.454 342.8 381.275 342.8 C 381.096 342.8 380.702 343.43 380.4 344.2 C 380.098 344.97 379.704 345.6 379.525 345.6 C 379.346 345.6 379.2 345.836 379.2 346.125 C 379.2 346.413 378.84 347.036 378.4 347.508 C 377.96 347.98 377.6 348.509 377.6 348.683 C 377.599 348.957 376.985 349.778 375.208 351.883 C 374.984 352.149 374.8 352.563 374.8 352.802 C 374.8 353.042 373.548 354.445 372.019 355.919 C 368.945 358.882 368.803 359.004 366.8 360.392 C 366.03 360.925 365.109 361.686 364.753 362.081 C 364.397 362.476 363.936 362.8 363.729 362.8 C 363.521 362.8 363.002 363.115 362.575 363.5 C 362.149 363.885 361.26 364.47 360.6 364.799 C 359.94 365.129 359.31 365.489 359.2 365.599 C 358.74 366.061 355.48 367.6 354.962 367.6 C 354.653 367.6 354.4 367.78 354.4 368 C 354.4 368.22 354.04 368.4 353.6 368.4 C 353.16 368.4 352.8 368.58 352.8 368.8 C 352.8 369.02 352.361 369.2 351.824 369.2 C 351.287 369.2 350.736 369.38 350.6 369.6 C 350.464 369.82 349.924 370 349.4 370 C 348.876 370 348.336 370.18 348.2 370.4 C 348.064 370.62 347.423 370.8 346.776 370.8 C 346.129 370.8 345.6 370.98 345.6 371.2 C 345.6 371.42 344.79 371.6 343.8 371.6 C 342.81 371.6 342 371.78 342 372 C 342 372.233 340.667 372.4 338.8 372.4 C 336.933 372.4 335.6 372.567 335.6 372.8 C 335.6 373.062 327.933 373.2 313.4 373.2 C 298.867 373.2 291.2 373.338 291.2 373.6 C 291.2 373.82 290.917 374 290.571 374 C 289.87 374 288.8 374.929 288.8 375.538 C 288.8 375.755 288.601 376 288.358 376.081 C 288.08 376.173 287.923 377.449 287.937 379.507 C 287.961 383.188 289.485 385.6 291.787 385.6 C 292.344 385.6 292.8 385.78 292.8 386 C 292.8 386.551 336.659 386.551 337 386 C 337.136 385.78 338.767 385.6 340.624 385.6 C 342.608 385.6 344 385.435 344 385.2 C 344 384.98 344.9 384.8 346 384.8 C 347.1 384.8 348 384.62 348 384.4 C 348 384.18 348.72 384 349.6 384 C 350.48 384 351.2 383.82 351.2 383.6 C 351.2 383.38 351.74 383.2 352.4 383.2 C 353.06 383.2 353.6 383.02 353.6 382.8 C 353.6 382.58 354.14 382.4 354.8 382.4 C 355.46 382.4 356 382.22 356 382 C 356 381.78 356.324 381.6 356.72 381.6 C 357.614 381.6 359.593 380.706 359.597 380.3 C 359.599 380.135 360.14 380 360.8 380 C 361.46 380 362 379.82 362 379.6 C 362 379.38 362.36 379.2 362.8 379.2 C 363.24 379.2 363.6 379.02 363.6 378.8 C 363.6 378.58 363.836 378.4 364.125 378.4 C 364.413 378.4 365.036 378.04 365.508 377.6 C 365.98 377.16 366.644 376.8 366.983 376.8 C 367.322 376.8 367.6 376.62 367.6 376.4 C 367.6 376.18 367.878 376 368.217 376 C 368.556 376 369.051 375.819 369.317 375.599 C 369.583 375.378 370.79 374.548 372 373.755 C 373.21 372.961 374.674 371.792 375.253 371.156 C 375.832 370.52 376.5 370 376.737 370 C 377.28 370 384.8 362.512 384.8 361.971 C 384.8 361.752 385.414 360.96 386.164 360.209 C 386.914 359.459 387.853 358.295 388.25 357.623 C 388.647 356.95 389.114 356.4 389.286 356.4 C 389.459 356.4 389.6 356.228 389.6 356.018 C 389.6 355.808 390.05 354.972 390.6 354.162 C 391.15 353.351 391.6 352.353 391.6 351.944 C 391.6 351.535 391.78 351.2 392 351.2 C 392.22 351.2 392.404 350.975 392.409 350.7 C 392.414 350.425 392.77 349.75 393.2 349.2 C 393.63 348.65 393.986 347.795 393.991 347.3 C 393.996 346.805 394.18 346.4 394.4 346.4 C 394.62 346.4 394.8 346.04 394.8 345.6 C 394.8 345.16 394.98 344.8 395.2 344.8 C 395.42 344.8 395.6 344.44 395.6 344 C 395.6 343.56 395.78 343.2 396 343.2 C 396.22 343.2 396.4 342.761 396.4 342.224 C 396.4 341.687 396.58 341.136 396.8 341 C 397.02 340.864 397.2 340.313 397.2 339.776 C 397.2 339.239 397.38 338.8 397.6 338.8 C 397.82 338.8 398 338.271 398 337.624 C 398 336.977 398.18 336.336 398.4 336.2 C 398.62 336.064 398.8 335.279 398.8 334.456 C 398.8 333.633 399.025 332.735 399.3 332.46 C 399.689 332.071 399.8 326.737 399.8 308.513 C 399.8 290.112 399.692 285.031 399.3 284.9 C 399.013 284.804 398.8 284.064 398.8 283.167 C 398.8 282.305 398.62 281.6 398.4 281.6 C 398.18 281.6 398 281.071 398 280.424 C 398 279.777 397.82 279.136 397.6 279 C 397.38 278.864 397.2 278.313 397.2 277.776 C 397.2 277.239 397.02 276.8 396.8 276.8 C 396.58 276.8 396.4 276.35 396.4 275.8 C 396.4 275.25 396.22 274.8 396 274.8 C 395.78 274.8 395.6 274.26 395.6 273.6 C 395.6 272.94 395.42 272.4 395.2 272.4 C 394.98 272.4 394.8 272.04 394.8 271.6 C 394.8 271.16 394.62 270.8 394.4 270.8 C 394.18 270.8 394 270.44 394 270 C 394 269.56 393.82 269.2 393.6 269.2 C 393.38 269.2 393.2 268.84 393.2 268.4 C 393.2 267.96 393.02 267.6 392.8 267.6 C 392.58 267.6 392.4 267.24 392.4 266.8 C 392.4 266.36 392.232 266 392.027 266 C 391.822 266 391.526 265.595 391.371 265.1 C 391.018 263.978 388.148 259.713 386.918 258.482 C 386.413 257.977 386 257.397 386 257.193 C 386 256.729 375.746 246.4 375.286 246.4 C 375.101 246.4 374.432 245.86 373.8 245.2 C 373.168 244.54 372.414 244 372.125 244 C 371.836 244 371.6 243.833 371.6 243.629 C 371.6 243.425 370.88 242.94 370 242.552 C 369.12 242.164 368.4 241.701 368.4 241.523 C 368.4 241.345 368.04 241.2 367.6 241.2 C 367.16 241.2 366.8 241.02 366.8 240.8 C 366.8 240.58 366.455 240.4 366.033 240.4 C 365.612 240.4 365.207 240.265 365.133 240.1 C 364.941 239.668 361.628 238 360.962 238 C 360.653 238 360.4 237.82 360.4 237.6 C 360.4 237.38 360.04 237.2 359.6 237.2 C 359.16 237.2 358.8 237.02 358.8 236.8 C 358.8 236.58 358.35 236.4 357.8 236.4 C 357.25 236.4 356.8 236.22 356.8 236 C 356.8 235.78 356.35 235.6 355.8 235.6 C 355.25 235.6 354.8 235.42 354.8 235.2 C 354.8 234.98 354.271 234.8 353.624 234.8 C 352.977 234.8 352.336 234.62 352.2 234.4 C 352.064 234.18 351.423 234 350.776 234 C 350.129 234 349.6 233.82 349.6 233.6 C 349.6 233.38 348.7 233.2 347.6 233.2 C 346.5 233.2 345.6 233.02 345.6 232.8 C 345.6 232.578 344.541 232.4 343.224 232.4 C 341.917 232.4 340.736 232.22 340.6 232 C 340.438 231.738 325.406 231.593 296.876 231.579 C 255.858 231.559 253.456 231.52 254.385 230.879 C 254.926 230.506 256.148 229.39 257.1 228.4 C 258.051 227.41 259.903 225.506 261.215 224.168 C 262.527 222.831 263.6 221.616 263.6 221.469 C 263.6 221.321 264.32 220.459 265.2 219.552 C 266.08 218.645 266.8 217.695 266.8 217.44 C 266.8 217.185 267.16 216.717 267.6 216.4 C 268.04 216.083 268.4 215.569 268.4 215.259 C 268.4 214.948 268.716 214.403 269.103 214.047 C 269.489 213.691 270.06 212.905 270.37 212.3 C 270.681 211.695 271.085 211.2 271.268 211.2 C 271.45 211.2 271.6 210.84 271.6 210.4 C 271.6 209.96 271.759 209.6 271.953 209.6 C 272.148 209.6 272.409 209.285 272.535 208.9 C 272.661 208.515 273.312 207.21 273.982 206 C 274.652 204.79 275.2 203.395 275.2 202.9 C 275.2 202.405 275.38 202 275.6 202 C 275.82 202 276 201.64 276 201.2 C 276 200.76 276.18 200.4 276.4 200.4 C 276.62 200.4 276.8 200.04 276.8 199.6 C 276.8 199.16 276.98 198.8 277.2 198.8 C 277.42 198.8 277.6 198.26 277.6 197.6 C 277.6 196.94 277.78 196.4 278 196.4 C 278.22 196.4 278.4 195.86 278.4 195.2 C 278.4 194.54 278.58 194 278.8 194 C 279.02 194 279.2 193.46 279.2 192.8 C 279.2 192.14 279.38 191.6 279.6 191.6 C 279.82 191.6 280 190.97 280 190.2 C 280 189.43 280.18 188.8 280.4 188.8 C 280.62 188.8 280.8 188.08 280.8 187.2 C 280.8 186.32 280.98 185.6 281.2 185.6 C 281.42 185.6 281.6 184.7 281.6 183.6 C 281.6 182.5 281.78 181.6 282 181.6 C 282.237 181.6 282.4 180.133 282.4 178 C 282.4 175.867 282.563 174.4 282.8 174.4 C 283.051 174.4 283.2 171.808 283.2 167.424 C 283.2 163.204 283.042 160.35 282.8 160.2 C 282.58 160.064 282.4 158.624 282.4 157 C 282.4 155.376 282.22 153.936 282 153.8 C 281.78 153.664 281.6 152.663 281.6 151.576 C 281.6 150.489 281.42 149.6 281.2 149.6 C 280.98 149.6 280.8 148.88 280.8 148 C 280.8 147.12 280.62 146.4 280.4 146.4 C 280.18 146.4 280 145.77 280 145 C 280 144.23 279.82 143.6 279.6 143.6 C 279.38 143.6 279.2 143.06 279.2 142.4 C 279.2 141.74 279.02 141.2 278.8 141.2 C 278.58 141.2 278.4 140.66 278.4 140 C 278.4 139.34 278.22 138.8 278 138.8 C 277.78 138.8 277.6 138.451 277.6 138.024 C 277.6 137.597 277.42 137.136 277.2 137 C 276.98 136.864 276.8 136.313 276.8 135.776 C 276.8 135.239 276.62 134.8 276.4 134.8 C 276.18 134.8 276 134.44 276 134 C 276 133.56 275.82 133.2 275.6 133.2 C 275.38 133.2 275.2 132.898 275.2 132.53 C 275.2 131.759 272.468 126.05 271.739 125.298 C 271.471 125.021 271.138 124.436 270.999 123.998 C 270.86 123.559 270.578 123.2 270.373 123.2 C 270.168 123.2 270 122.88 270 122.488 C 270 122.097 269.64 121.517 269.2 121.2 C 268.76 120.883 268.4 120.42 268.4 120.171 C 268.4 119.922 267.86 119.154 267.2 118.463 C 266.54 117.772 266 116.936 266 116.604 C 266 116.272 265.82 116 265.6 116 C 265.338 116 265.2 108.067 265.2 93 C 265.2 77.933 265.062 70 264.8 70 C 264.578 70 264.4 68.933 264.4 67.6 C 264.4 66.267 264.222 65.2 264 65.2 C 263.78 65.2 263.6 64.48 263.6 63.6 C 263.6 62.72 263.42 62 263.2 62 C 262.98 62 262.8 61.46 262.8 60.8 C 262.8 60.14 262.62 59.6 262.4 59.6 C 262.18 59.6 262 59.161 262 58.624 C 262 58.087 261.82 57.536 261.6 57.4 C 261.38 57.264 261.2 56.713 261.2 56.176 C 261.2 55.639 261.02 55.2 260.8 55.2 C 260.58 55.2 260.4 54.761 260.4 54.224 C 260.4 53.687 260.22 53.136 260 53 C 259.78 52.864 259.6 52.403 259.6 51.976 C 259.6 51.549 259.42 51.2 259.2 51.2 C 258.98 51.2 258.8 50.874 258.8 50.476 C 258.8 50.079 258.17 48.707 257.4 47.428 C 256.63 46.149 256 44.973 256 44.814 C 256 44.654 255.64 44.198 255.2 43.8 C 254.76 43.402 254.4 42.874 254.4 42.626 C 254.4 42.379 254.04 41.917 253.6 41.6 C 253.16 41.283 252.8 40.779 252.8 40.48 C 252.8 40.182 252.08 39.246 251.2 38.4 C 250.32 37.554 249.6 36.69 249.6 36.478 C 249.6 35.951 244.919 31.199 243.229 30.01 C 242.476 29.479 241.376 28.54 240.786 27.923 C 240.196 27.305 239.586 26.8 239.43 26.8 C 239.274 26.8 238.557 26.35 237.836 25.8 C 237.114 25.25 236.316 24.8 236.062 24.8 C 235.808 24.8 235.6 24.62 235.6 24.4 C 235.6 24.18 235.33 24 235 24 C 234.67 24 234.4 23.82 234.4 23.6 C 234.4 23.38 234.13 23.2 233.8 23.2 C 233.47 23.2 233.2 23.02 233.2 22.8 C 233.2 22.58 232.84 22.4 232.4 22.4 C 231.96 22.4 231.6 22.22 231.6 22 C 231.6 21.78 231.24 21.6 230.8 21.6 C 230.36 21.6 230 21.42 230 21.2 C 230 20.98 229.64 20.8 229.2 20.8 C 228.76 20.8 228.4 20.62 228.4 20.4 C 228.4 20.18 228.04 20 227.6 20 C 227.16 20 226.8 19.82 226.8 19.6 C 226.8 19.38 226.44 19.2 226 19.2 C 225.56 19.2 225.2 19.02 225.2 18.8 C 225.2 18.58 224.75 18.4 224.2 18.4 C 223.65 18.4 223.2 18.22 223.2 18 C 223.2 17.78 222.66 17.6 222 17.6 C 221.34 17.6 220.8 17.42 220.8 17.2 C 220.8 16.98 220.26 16.8 219.6 16.8 C 218.94 16.8 218.4 16.62 218.4 16.4 C 218.4 16.18 217.68 16 216.8 16 C 215.92 16 215.2 15.82 215.2 15.6 C 215.2 15.38 214.3 15.2 213.2 15.2 C 212.1 15.2 211.2 15.02 211.2 14.8 C 211.2 14.565 209.808 14.4 207.824 14.4 C 205.967 14.4 204.336 14.22 204.2 14 C 204.064 13.78 202.354 13.6 200.4 13.6 C 198.446 13.6 196.736 13.78 196.6 14 M 204.172 57.184 C 204.847 57.396 206.525 57.88 207.9 58.26 C 209.275 58.64 210.4 59.097 210.4 59.276 C 210.4 59.454 210.67 59.6 211 59.6 C 211.33 59.6 211.6 59.78 211.6 60 C 211.6 60.22 211.804 60.4 212.053 60.4 C 212.302 60.4 212.797 60.716 213.153 61.103 C 213.509 61.489 214.265 62.043 214.832 62.334 C 215.4 62.625 216.178 63.393 216.561 64.042 C 216.944 64.691 217.695 65.659 218.229 66.193 C 218.763 66.727 219.2 67.427 219.2 67.748 C 219.2 68.07 219.335 68.393 219.5 68.467 C 219.999 68.688 221.6 72.022 221.6 72.838 C 221.6 73.257 221.78 73.6 222 73.6 C 222.22 73.6 222.4 74.5 222.4 75.6 C 222.4 76.7 222.58 77.6 222.8 77.6 C 223.046 77.6 223.2 79.6 223.2 82.8 C 223.2 86 223.046 88 222.8 88 C 222.58 88 222.4 87.82 222.4 87.6 C 222.4 87.38 221.68 87.2 220.8 87.2 C 219.92 87.2 219.2 87.02 219.2 86.8 C 219.2 86.58 218.3 86.4 217.2 86.4 C 216.1 86.4 215.2 86.22 215.2 86 C 215.2 85.778 214.133 85.6 212.8 85.6 C 211.467 85.6 210.4 85.422 210.4 85.2 C 210.4 84.944 206.667 84.8 200 84.8 C 193.333 84.8 189.6 84.944 189.6 85.2 C 189.6 85.422 188.533 85.6 187.2 85.6 C 185.867 85.6 184.8 85.778 184.8 86 C 184.8 86.22 183.9 86.4 182.8 86.4 C 181.7 86.4 180.8 86.58 180.8 86.8 C 180.8 87.02 180.08 87.2 179.2 87.2 C 178.32 87.2 177.6 87.38 177.6 87.6 C 177.6 87.82 177.42 88 177.2 88 C 176.954 88 176.8 86 176.8 82.8 C 176.8 79.6 176.954 77.6 177.2 77.6 C 177.42 77.6 177.6 76.7 177.6 75.6 C 177.6 74.5 177.78 73.6 178 73.6 C 178.22 73.6 178.4 73.257 178.4 72.838 C 178.4 72.022 180.001 68.688 180.5 68.467 C 180.665 68.393 180.8 68.07 180.8 67.748 C 180.8 67.427 181.237 66.727 181.771 66.193 C 182.305 65.659 183.064 64.677 183.457 64.011 C 183.851 63.345 184.404 62.8 184.686 62.8 C 184.969 62.8 185.2 62.62 185.2 62.4 C 185.2 62.18 185.43 62 185.712 62 C 185.993 62 186.483 61.64 186.8 61.2 C 187.117 60.76 187.607 60.4 187.888 60.4 C 188.17 60.4 188.4 60.22 188.4 60 C 188.4 59.78 188.67 59.6 189 59.6 C 189.33 59.6 189.602 59.465 189.603 59.3 C 189.605 59.135 190.73 58.676 192.103 58.281 C 193.477 57.886 195.05 57.41 195.6 57.224 C 197.003 56.749 202.697 56.723 204.172 57.184 M 209.2 98.4 C 209.2 98.62 210.19 98.8 211.4 98.8 C 212.61 98.8 213.6 98.98 213.6 99.2 C 213.6 99.42 214.32 99.6 215.2 99.6 C 216.08 99.6 216.8 99.78 216.8 100 C 216.8 100.22 217.52 100.4 218.4 100.4 C 219.28 100.4 220 100.58 220 100.8 C 220 101.02 220.54 101.2 221.2 101.2 C 221.86 101.2 222.4 101.38 222.4 101.6 C 222.4 101.82 222.94 102 223.6 102 C 224.26 102 224.8 102.18 224.8 102.4 C 224.8 102.62 225.16 102.8 225.6 102.8 C 226.04 102.8 226.4 102.98 226.4 103.2 C 226.4 103.42 226.749 103.6 227.176 103.6 C 227.603 103.6 228.064 103.78 228.2 104 C 228.336 104.22 228.797 104.4 229.224 104.4 C 229.651 104.4 230 104.58 230 104.8 C 230 105.02 230.36 105.2 230.8 105.2 C 231.24 105.2 231.601 105.335 231.603 105.5 C 231.605 105.665 232.01 105.993 232.503 106.229 C 235.047 107.447 237.815 109.004 237.933 109.284 C 238.007 109.458 238.339 109.6 238.673 109.6 C 239.006 109.6 239.783 110.14 240.4 110.8 C 241.017 111.46 241.637 112 241.779 112 C 241.92 112 242.456 112.405 242.968 112.9 C 244.23 114.119 245.566 115.2 245.81 115.2 C 246.2 115.2 252.8 121.994 252.8 122.394 C 252.8 122.617 252.95 122.8 253.132 122.8 C 253.315 122.8 253.704 123.247 253.996 123.793 C 254.289 124.34 254.859 124.892 255.264 125.02 C 255.669 125.149 256 125.562 256 125.939 C 256 126.315 256.36 126.883 256.8 127.2 C 257.24 127.517 257.6 128.097 257.6 128.488 C 257.6 128.88 257.753 129.2 257.939 129.2 C 258.126 129.2 258.603 129.92 259 130.8 C 259.397 131.68 259.874 132.4 260.061 132.4 C 260.247 132.4 260.4 132.745 260.4 133.167 C 260.4 133.588 260.537 133.993 260.704 134.067 C 260.871 134.14 261.789 135.82 262.745 137.8 C 263.7 139.78 264.643 141.713 264.841 142.095 C 265.038 142.477 265.2 143.062 265.2 143.395 C 265.2 143.728 265.38 144 265.6 144 C 265.82 144 266 144.54 266 145.2 C 266 145.86 266.18 146.4 266.4 146.4 C 266.62 146.4 266.8 146.94 266.8 147.6 C 266.8 148.26 266.98 148.8 267.2 148.8 C 267.42 148.8 267.6 149.52 267.6 150.4 C 267.6 151.28 267.78 152 268 152 C 268.22 152 268.4 152.799 268.4 153.776 C 268.4 154.753 268.58 155.664 268.8 155.8 C 269.02 155.936 269.2 157.196 269.2 158.6 C 269.2 160.004 269.38 161.264 269.6 161.4 C 269.837 161.546 270 163.996 270 167.4 C 270 170.804 269.837 173.254 269.6 173.4 C 269.38 173.536 269.2 174.897 269.2 176.424 C 269.2 178.008 269.028 179.2 268.8 179.2 C 268.58 179.2 268.4 180.1 268.4 181.2 C 268.4 182.3 268.22 183.2 268 183.2 C 267.78 183.2 267.6 183.92 267.6 184.8 C 267.6 185.68 267.42 186.4 267.2 186.4 C 266.98 186.4 266.8 186.94 266.8 187.6 C 266.8 188.26 266.62 188.8 266.4 188.8 C 266.18 188.8 266 189.34 266 190 C 266 190.66 265.82 191.2 265.6 191.2 C 265.38 191.2 265.2 191.65 265.2 192.2 C 265.2 192.75 265.02 193.2 264.8 193.2 C 264.58 193.2 264.4 193.444 264.4 193.743 C 264.4 194.417 260.34 202.55 259.912 202.733 C 259.74 202.807 259.6 203.212 259.6 203.633 C 259.6 204.055 259.423 204.4 259.208 204.4 C 258.992 204.4 258.693 204.895 258.544 205.5 C 258.394 206.105 257.941 206.891 257.536 207.247 C 257.131 207.603 256.8 208.008 256.8 208.146 C 256.8 208.285 256.08 209.141 255.2 210.048 C 254.32 210.955 253.6 211.86 253.6 212.061 C 253.6 212.85 241.769 224 240.933 224 C 240.64 224 240.4 224.153 240.4 224.339 C 240.4 224.526 239.68 225.003 238.8 225.4 C 237.92 225.797 237.2 226.274 237.2 226.461 C 237.2 226.647 236.964 226.8 236.675 226.8 C 236.387 226.8 235.764 227.16 235.292 227.6 C 234.82 228.04 234.156 228.4 233.817 228.4 C 233.478 228.4 233.2 228.58 233.2 228.8 C 233.2 229.02 232.84 229.2 232.4 229.2 C 231.96 229.2 231.6 229.38 231.6 229.6 C 231.6 229.82 231.24 230 230.8 230 C 230.36 230 230 230.18 230 230.4 C 230 230.62 229.64 230.8 229.2 230.8 C 228.76 230.8 228.4 230.98 228.4 231.2 C 228.4 231.463 218.667 231.6 200 231.6 C 181.333 231.6 171.6 231.463 171.6 231.2 C 171.6 230.98 171.24 230.8 170.8 230.8 C 170.36 230.8 170 230.62 170 230.4 C 170 230.18 169.64 230 169.2 230 C 168.76 230 168.4 229.82 168.4 229.6 C 168.4 229.38 168.04 229.2 167.6 229.2 C 167.16 229.2 166.8 229.041 166.8 228.847 C 166.8 228.652 166.485 228.393 166.1 228.271 C 165.289 228.014 163.243 226.8 162.546 226.163 C 162.283 225.922 161.513 225.495 160.834 225.214 C 160.155 224.933 159.6 224.545 159.6 224.351 C 159.6 224.158 159.345 224 159.033 224 C 158.722 224 158.407 223.858 158.333 223.685 C 158.26 223.512 157.4 222.747 156.423 221.985 C 154.055 220.139 146.4 212.516 146.4 212.005 C 146.4 211.782 146.22 211.6 146 211.6 C 145.78 211.6 145.6 211.402 145.6 211.16 C 145.6 210.919 145.06 210.217 144.4 209.6 C 143.74 208.983 143.2 208.347 143.2 208.186 C 143.2 208.026 142.869 207.603 142.464 207.247 C 142.059 206.891 141.606 206.105 141.456 205.5 C 141.307 204.895 141.008 204.4 140.792 204.4 C 140.577 204.4 140.4 204.055 140.4 203.633 C 140.4 203.212 140.258 202.807 140.085 202.733 C 139.912 202.66 139.281 201.61 138.684 200.4 C 138.086 199.19 137.3 197.66 136.938 197 C 135.827 194.978 135.6 194.434 135.6 193.805 C 135.6 193.472 135.42 193.2 135.2 193.2 C 134.98 193.2 134.8 192.75 134.8 192.2 C 134.8 191.65 134.62 191.2 134.4 191.2 C 134.18 191.2 134 190.66 134 190 C 134 189.34 133.82 188.8 133.6 188.8 C 133.38 188.8 133.2 188.26 133.2 187.6 C 133.2 186.94 133.02 186.4 132.8 186.4 C 132.58 186.4 132.4 185.68 132.4 184.8 C 132.4 183.92 132.22 183.2 132 183.2 C 131.78 183.2 131.6 182.3 131.6 181.2 C 131.6 180.1 131.42 179.2 131.2 179.2 C 130.972 179.2 130.8 178.008 130.8 176.424 C 130.8 174.897 130.62 173.536 130.4 173.4 C 130.163 173.254 130 170.804 130 167.4 C 130 163.996 130.163 161.546 130.4 161.4 C 130.62 161.264 130.8 160.004 130.8 158.6 C 130.8 157.196 130.98 155.936 131.2 155.8 C 131.42 155.664 131.6 154.753 131.6 153.776 C 131.6 152.799 131.78 152 132 152 C 132.22 152 132.4 151.28 132.4 150.4 C 132.4 149.52 132.58 148.8 132.8 148.8 C 133.02 148.8 133.2 148.26 133.2 147.6 C 133.2 146.94 133.38 146.4 133.6 146.4 C 133.82 146.4 134 145.86 134 145.2 C 134 144.54 134.18 144 134.4 144 C 134.62 144 134.8 143.728 134.8 143.395 C 134.8 143.062 134.962 142.477 135.159 142.095 C 135.357 141.713 136.3 139.78 137.255 137.8 C 138.211 135.82 139.129 134.14 139.296 134.067 C 139.463 133.993 139.6 133.588 139.6 133.167 C 139.6 132.745 139.735 132.4 139.9 132.399 C 140.065 132.399 140.733 131.364 141.385 130.099 C 142.036 128.835 142.891 127.509 143.285 127.153 C 143.678 126.797 144 126.212 144 125.853 C 144 125.494 144.167 125.2 144.371 125.2 C 144.825 125.2 145.487 124.544 146.8 122.793 C 147.979 121.22 153.856 115.2 154.211 115.2 C 154.347 115.2 154.695 114.975 154.985 114.7 C 155.276 114.425 156.275 113.57 157.206 112.8 C 158.136 112.03 159.318 110.995 159.831 110.5 C 160.344 110.005 161.042 109.6 161.382 109.6 C 161.722 109.6 162 109.465 162.001 109.3 C 162.001 109.135 163.081 108.474 164.401 107.83 C 165.72 107.187 166.8 106.512 166.8 106.33 C 166.8 106.149 167.16 106 167.6 106 C 168.04 106 168.4 105.82 168.4 105.6 C 168.4 105.38 168.76 105.2 169.2 105.2 C 169.64 105.2 170 105.02 170 104.8 C 170 104.58 170.349 104.4 170.776 104.4 C 171.203 104.4 171.664 104.22 171.8 104 C 171.936 103.78 172.397 103.6 172.824 103.6 C 173.251 103.6 173.6 103.42 173.6 103.2 C 173.6 102.98 173.949 102.8 174.376 102.8 C 174.803 102.8 175.264 102.62 175.4 102.4 C 175.536 102.18 176.087 102 176.624 102 C 177.161 102 177.6 101.82 177.6 101.6 C 177.6 101.38 178.14 101.2 178.8 101.2 C 179.46 101.2 180 101.02 180 100.8 C 180 100.58 180.72 100.4 181.6 100.4 C 182.48 100.4 183.2 100.22 183.2 100 C 183.2 99.78 183.92 99.6 184.8 99.6 C 185.68 99.6 186.4 99.42 186.4 99.2 C 186.4 98.98 187.39 98.8 188.6 98.8 C 189.81 98.8 190.8 98.62 190.8 98.4 C 190.8 98.145 194.133 98 200 98 C 205.867 98 209.2 98.145 209.2 98.4 M 196.6 114 C 196.464 114.22 194.934 114.4 193.2 114.4 C 191.466 114.4 189.936 114.58 189.8 114.8 C 189.664 115.02 188.843 115.2 187.976 115.2 C 187.109 115.2 186.4 115.38 186.4 115.6 C 186.4 115.82 185.68 116 184.8 116 C 183.92 116 183.2 116.18 183.2 116.4 C 183.2 116.62 182.761 116.8 182.224 116.8 C 181.687 116.8 181.136 116.98 181 117.2 C 180.864 117.42 180.403 117.6 179.976 117.6 C 179.549 117.6 179.2 117.78 179.2 118 C 179.2 118.22 178.851 118.4 178.424 118.4 C 177.997 118.4 177.536 118.58 177.4 118.8 C 177.264 119.02 176.803 119.2 176.376 119.2 C 175.949 119.2 175.6 119.38 175.6 119.6 C 175.6 119.82 175.364 120 175.075 120 C 174.787 120 174.164 120.36 173.692 120.8 C 173.22 121.24 172.556 121.6 172.217 121.6 C 171.878 121.6 171.6 121.78 171.6 122 C 171.6 122.22 171.357 122.4 171.059 122.4 C 170.762 122.4 169.954 122.94 169.263 123.6 C 168.572 124.26 167.818 124.8 167.587 124.8 C 166.493 124.8 156.8 134.617 156.8 135.725 C 156.8 135.999 156.44 136.483 156 136.8 C 155.56 137.117 155.2 137.657 155.2 138 C 155.2 138.343 154.84 138.883 154.4 139.2 C 153.96 139.517 153.6 140.097 153.6 140.488 C 153.6 140.88 153.454 141.2 153.275 141.2 C 153.096 141.2 152.702 141.83 152.4 142.6 C 152.098 143.37 151.704 144 151.525 144 C 151.346 144 151.2 144.36 151.2 144.8 C 151.2 145.24 151.02 145.6 150.8 145.6 C 150.58 145.6 150.4 145.949 150.4 146.376 C 150.4 146.803 150.22 147.264 150 147.4 C 149.78 147.536 149.6 148.087 149.6 148.624 C 149.6 149.161 149.42 149.6 149.2 149.6 C 148.98 149.6 148.8 150.129 148.8 150.776 C 148.8 151.423 148.62 152.064 148.4 152.2 C 148.18 152.336 148 153.067 148 153.824 C 148 154.581 147.82 155.2 147.6 155.2 C 147.38 155.2 147.2 156.089 147.2 157.176 C 147.2 158.263 147.02 159.264 146.8 159.4 C 146.555 159.551 146.4 162.73 146.4 167.6 C 146.4 172.47 146.555 175.649 146.8 175.8 C 147.02 175.936 147.2 176.937 147.2 178.024 C 147.2 179.111 147.38 180 147.6 180 C 147.82 180 148 180.72 148 181.6 C 148 182.48 148.18 183.2 148.4 183.2 C 148.62 183.2 148.8 183.74 148.8 184.4 C 148.8 185.06 148.98 185.6 149.2 185.6 C 149.42 185.6 149.6 186.039 149.6 186.576 C 149.6 187.113 149.78 187.664 150 187.8 C 150.22 187.936 150.4 188.397 150.4 188.824 C 150.4 189.251 150.58 189.6 150.8 189.6 C 151.02 189.6 151.2 189.96 151.2 190.4 C 151.2 190.84 151.38 191.2 151.6 191.2 C 151.82 191.2 152 191.47 152 191.8 C 152 192.13 152.18 192.4 152.4 192.4 C 152.62 192.4 152.8 192.76 152.8 193.2 C 152.8 193.64 152.98 194 153.2 194 C 153.42 194 153.6 194.36 153.6 194.8 C 153.6 195.24 153.75 195.6 153.932 195.6 C 154.115 195.6 154.519 196.095 154.83 196.7 C 155.14 197.305 155.711 198.091 156.097 198.447 C 156.484 198.803 156.8 199.322 156.8 199.6 C 156.8 199.878 157.12 200.397 157.511 200.753 C 157.903 201.109 158.828 202.21 159.569 203.2 C 160.947 205.043 164.372 208.39 164.887 208.396 C 165.044 208.398 165.803 209.03 166.573 209.8 C 167.343 210.57 168.21 211.2 168.498 211.2 C 168.787 211.2 169.283 211.56 169.6 212 C 169.917 212.44 170.414 212.8 170.705 212.8 C 170.996 212.8 171.62 213.16 172.092 213.6 C 172.564 214.04 173.187 214.4 173.475 214.4 C 173.764 214.4 174 214.58 174 214.8 C 174 215.02 174.36 215.2 174.8 215.2 C 175.24 215.2 175.6 215.336 175.6 215.502 C 175.6 215.669 176.185 216.04 176.9 216.329 C 177.615 216.617 178.513 217.021 178.895 217.226 C 179.277 217.432 179.862 217.6 180.195 217.6 C 180.528 217.6 180.8 217.78 180.8 218 C 180.8 218.22 181.34 218.4 182 218.4 C 182.66 218.4 183.2 218.58 183.2 218.8 C 183.2 219.02 183.74 219.2 184.4 219.2 C 185.06 219.2 185.6 219.362 185.6 219.56 C 185.6 219.939 187.677 220.292 192 220.65 C 193.43 220.768 194.771 221.03 194.98 221.232 C 195.476 221.712 204.524 221.712 205.02 221.232 C 205.229 221.03 206.57 220.768 208 220.65 C 212.323 220.292 214.4 219.939 214.4 219.56 C 214.4 219.362 214.94 219.2 215.6 219.2 C 216.26 219.2 216.8 219.02 216.8 218.8 C 216.8 218.58 217.34 218.4 218 218.4 C 218.66 218.4 219.2 218.22 219.2 218 C 219.2 217.78 219.65 217.6 220.2 217.6 C 220.75 217.6 221.2 217.42 221.2 217.2 C 221.2 216.98 221.453 216.8 221.762 216.8 C 222.28 216.8 225.54 215.261 226 214.799 C 226.11 214.689 226.695 214.344 227.3 214.032 C 227.905 213.72 228.4 213.315 228.4 213.132 C 228.4 212.95 228.72 212.8 229.112 212.8 C 229.503 212.8 230.083 212.44 230.4 212 C 230.717 211.56 231.213 211.2 231.502 211.2 C 231.79 211.2 232.657 210.57 233.427 209.8 C 234.197 209.03 234.969 208.4 235.143 208.4 C 235.599 208.4 239.254 204.835 240.414 203.26 C 240.956 202.522 241.805 201.496 242.3 200.978 C 242.795 200.46 243.2 199.824 243.2 199.565 C 243.2 199.306 243.516 198.803 243.903 198.447 C 244.289 198.091 244.86 197.305 245.17 196.7 C 245.481 196.095 245.885 195.6 246.068 195.6 C 246.25 195.6 246.4 195.24 246.4 194.8 C 246.4 194.36 246.58 194 246.8 194 C 247.02 194 247.2 193.64 247.2 193.2 C 247.2 192.76 247.38 192.4 247.6 192.4 C 247.82 192.4 248 192.13 248 191.8 C 248 191.47 248.18 191.2 248.4 191.2 C 248.62 191.2 248.8 190.84 248.8 190.4 C 248.8 189.96 248.98 189.6 249.2 189.6 C 249.42 189.6 249.6 189.251 249.6 188.824 C 249.6 188.397 249.78 187.936 250 187.8 C 250.22 187.664 250.4 187.113 250.4 186.576 C 250.4 186.039 250.58 185.6 250.8 185.6 C 251.02 185.6 251.2 185.06 251.2 184.4 C 251.2 183.74 251.38 183.2 251.6 183.2 C 251.82 183.2 252 182.48 252 181.6 C 252 180.72 252.18 180 252.4 180 C 252.62 180 252.8 179.136 252.8 178.08 C 252.8 177.024 252.988 175.972 253.217 175.743 C 254.029 174.931 253.209 155.2 252.363 155.2 C 252.163 155.2 252 154.581 252 153.824 C 252 153.067 251.82 152.336 251.6 152.2 C 251.38 152.064 251.2 151.423 251.2 150.776 C 251.2 150.129 251.02 149.6 250.8 149.6 C 250.58 149.6 250.4 149.251 250.4 148.824 C 250.4 148.397 250.22 147.936 250 147.8 C 249.78 147.664 249.6 147.113 249.6 146.576 C 249.6 146.039 249.42 145.6 249.2 145.6 C 248.98 145.6 248.8 145.24 248.8 144.8 C 248.8 144.36 248.654 144 248.475 144 C 248.296 144 247.902 143.37 247.6 142.6 C 247.298 141.83 246.904 141.2 246.725 141.2 C 246.546 141.2 246.4 140.88 246.4 140.488 C 246.4 140.097 246.04 139.517 245.6 139.2 C 245.16 138.883 244.8 138.343 244.8 138 C 244.8 137.657 244.44 137.117 244 136.8 C 243.56 136.483 243.2 135.987 243.2 135.697 C 243.2 135.051 242.404 134.144 237.737 129.469 C 233.747 125.472 232.996 124.8 232.517 124.799 C 232.343 124.799 231.57 124.259 230.8 123.6 C 230.03 122.941 229.175 122.401 228.9 122.401 C 228.625 122.4 228.4 122.22 228.4 122 C 228.4 121.78 228.08 121.6 227.688 121.6 C 227.297 121.6 226.717 121.24 226.4 120.8 C 226.083 120.36 225.503 120 225.112 120 C 224.72 120 224.4 119.82 224.4 119.6 C 224.4 119.38 224.051 119.2 223.624 119.2 C 223.197 119.2 222.736 119.02 222.6 118.8 C 222.464 118.58 222.003 118.4 221.576 118.4 C 221.149 118.4 220.8 118.22 220.8 118 C 220.8 117.78 220.451 117.6 220.024 117.6 C 219.597 117.6 219.136 117.42 219 117.2 C 218.864 116.98 218.313 116.8 217.776 116.8 C 217.239 116.8 216.8 116.62 216.8 116.4 C 216.8 116.18 216.08 116 215.2 116 C 214.32 116 213.6 115.82 213.6 115.6 C 213.6 115.38 212.891 115.2 212.024 115.2 C 211.157 115.2 210.336 115.02 210.2 114.8 C 210.064 114.58 208.534 114.4 206.8 114.4 C 205.066 114.4 203.536 114.22 203.4 114 C 203.264 113.78 201.734 113.6 200 113.6 C 198.266 113.6 196.736 113.78 196.6 114 M 202.2 127.2 C 202.336 127.42 203.787 127.6 205.424 127.6 C 207.141 127.6 208.4 127.769 208.4 128 C 208.4 128.22 209.03 128.4 209.8 128.4 C 210.57 128.4 211.2 128.58 211.2 128.8 C 211.2 129.02 211.639 129.2 212.176 129.2 C 212.713 129.2 213.264 129.38 213.4 129.6 C 213.536 129.82 213.997 130 214.424 130 C 214.851 130 215.2 130.18 215.2 130.4 C 215.2 130.62 215.56 130.8 216 130.8 C 216.44 130.8 216.8 130.98 216.8 131.2 C 216.8 131.42 217.16 131.6 217.6 131.6 C 218.04 131.6 218.4 131.78 218.4 132 C 218.4 132.22 218.76 132.4 219.2 132.4 C 219.64 132.4 220 132.58 220 132.8 C 220 133.02 220.32 133.2 220.712 133.2 C 221.103 133.2 221.683 133.56 222 134 C 222.317 134.44 222.799 134.8 223.07 134.8 C 223.557 134.8 226.724 137.544 228.753 139.725 C 229.329 140.343 230.464 141.561 231.275 142.431 C 232.087 143.302 232.864 144.371 233.002 144.807 C 233.141 145.243 233.422 145.6 233.627 145.6 C 233.832 145.6 234 145.836 234 146.125 C 234 146.413 234.36 147.036 234.8 147.508 C 235.24 147.98 235.6 148.644 235.6 148.983 C 235.6 149.322 235.78 149.6 236 149.6 C 236.22 149.6 236.4 149.96 236.4 150.4 C 236.4 150.84 236.58 151.2 236.8 151.2 C 237.02 151.2 237.2 151.549 237.2 151.976 C 237.2 152.403 237.38 152.864 237.6 153 C 237.82 153.136 238 153.687 238 154.224 C 238 154.761 238.18 155.2 238.4 155.2 C 238.62 155.2 238.8 155.83 238.8 156.6 C 238.8 157.37 238.98 158 239.2 158 C 239.42 158 239.6 158.72 239.6 159.6 C 239.6 160.48 239.78 161.2 240 161.2 C 240.25 161.2 240.4 163.6 240.4 167.6 C 240.4 171.6 240.25 174 240 174 C 239.78 174 239.6 174.709 239.6 175.576 C 239.6 176.443 239.42 177.264 239.2 177.4 C 238.98 177.536 238.8 178.177 238.8 178.824 C 238.8 179.471 238.62 180 238.4 180 C 238.18 180 238 180.54 238 181.2 C 238 181.86 237.82 182.4 237.6 182.4 C 237.38 182.4 237.2 182.76 237.2 183.2 C 237.2 183.64 237.02 184 236.8 184 C 236.58 184 236.4 184.36 236.4 184.8 C 236.4 185.24 236.22 185.6 236 185.6 C 235.78 185.6 235.6 185.96 235.6 186.4 C 235.6 186.84 235.42 187.2 235.2 187.2 C 234.98 187.2 234.8 187.52 234.8 187.912 C 234.8 188.303 234.44 188.883 234 189.2 C 233.56 189.517 233.2 190.004 233.2 190.282 C 233.2 191.393 225.024 199.548 222.688 200.768 C 222.089 201.08 221.6 201.485 221.6 201.668 C 221.6 201.85 221.28 202 220.888 202 C 220.497 202 219.917 202.36 219.6 202.8 C 219.283 203.24 218.703 203.6 218.312 203.6 C 217.92 203.6 217.6 203.78 217.6 204 C 217.6 204.22 217.251 204.4 216.824 204.4 C 216.397 204.4 215.936 204.58 215.8 204.8 C 215.664 205.02 215.113 205.2 214.576 205.2 C 214.039 205.2 213.6 205.38 213.6 205.6 C 213.6 205.82 213.161 206 212.624 206 C 212.087 206 211.536 206.18 211.4 206.4 C 211.264 206.62 210.533 206.8 209.776 206.8 C 209.019 206.8 208.4 206.98 208.4 207.2 C 208.4 207.42 207.421 207.6 206.224 207.6 C 205.027 207.6 203.936 207.78 203.8 208 C 203.664 208.221 201.87 208.4 199.8 208.4 C 197.73 208.4 195.936 208.221 195.8 208 C 195.664 207.78 194.663 207.6 193.576 207.6 C 192.489 207.6 191.6 207.42 191.6 207.2 C 191.6 206.98 190.981 206.8 190.224 206.8 C 189.467 206.8 188.736 206.62 188.6 206.4 C 188.464 206.18 187.913 206 187.376 206 C 186.839 206 186.4 205.82 186.4 205.6 C 186.4 205.38 186.045 205.2 185.612 205.2 C 185.179 205.2 184.183 204.84 183.4 204.4 C 182.617 203.96 181.751 203.6 181.476 203.6 C 181.201 203.6 180.717 203.24 180.4 202.8 C 180.083 202.36 179.503 202 179.112 202 C 178.72 202 178.4 201.82 178.4 201.6 C 178.4 201.38 178.173 201.2 177.896 201.2 C 176.692 201.2 166.8 191.466 166.8 190.282 C 166.8 190.004 166.44 189.517 166 189.2 C 165.56 188.883 165.2 188.303 165.2 187.912 C 165.2 187.52 165.02 187.2 164.8 187.2 C 164.58 187.2 164.4 186.84 164.4 186.4 C 164.4 185.96 164.22 185.6 164 185.6 C 163.78 185.6 163.6 185.24 163.6 184.8 C 163.6 184.36 163.42 184 163.2 184 C 162.98 184 162.8 183.64 162.8 183.2 C 162.8 182.76 162.62 182.4 162.4 182.4 C 162.18 182.4 162 181.86 162 181.2 C 162 180.54 161.82 180 161.6 180 C 161.38 180 161.2 179.471 161.2 178.824 C 161.2 178.177 161.02 177.536 160.8 177.4 C 160.58 177.264 160.4 176.443 160.4 175.576 C 160.4 174.709 160.22 174 160 174 C 159.75 174 159.6 171.6 159.6 167.6 C 159.6 163.6 159.75 161.2 160 161.2 C 160.22 161.2 160.4 160.48 160.4 159.6 C 160.4 158.72 160.58 158 160.8 158 C 161.02 158 161.2 157.37 161.2 156.6 C 161.2 155.83 161.38 155.2 161.6 155.2 C 161.82 155.2 162 154.761 162 154.224 C 162 153.687 162.18 153.136 162.4 153 C 162.62 152.864 162.8 152.403 162.8 151.976 C 162.8 151.549 162.98 151.2 163.2 151.2 C 163.42 151.2 163.6 150.84 163.6 150.4 C 163.6 149.96 163.78 149.6 164 149.6 C 164.22 149.6 164.4 149.322 164.4 148.983 C 164.4 148.644 164.76 147.98 165.2 147.508 C 165.64 147.036 166 146.413 166 146.125 C 166 145.836 166.151 145.6 166.336 145.6 C 166.52 145.6 166.87 145.163 167.114 144.63 C 167.559 143.652 169.639 141.239 171.735 139.267 C 172.359 138.68 173.659 137.435 174.624 136.5 C 175.589 135.565 176.614 134.8 176.901 134.8 C 177.188 134.8 177.683 134.44 178 134 C 178.317 133.56 178.897 133.2 179.288 133.2 C 179.68 133.2 180 133.02 180 132.8 C 180 132.58 180.36 132.4 180.8 132.4 C 181.24 132.4 181.6 132.22 181.6 132 C 181.6 131.78 181.96 131.6 182.4 131.6 C 182.84 131.6 183.2 131.42 183.2 131.2 C 183.2 130.98 183.56 130.8 184 130.8 C 184.44 130.8 184.8 130.62 184.8 130.4 C 184.8 130.18 185.149 130 185.576 130 C 186.003 130 186.464 129.82 186.6 129.6 C 186.736 129.38 187.287 129.2 187.824 129.2 C 188.361 129.2 188.8 129.02 188.8 128.8 C 188.8 128.58 189.43 128.4 190.2 128.4 C 190.97 128.4 191.6 128.22 191.6 128 C 191.6 127.769 192.859 127.6 194.576 127.6 C 196.213 127.6 197.664 127.42 197.8 127.2 C 197.936 126.98 198.926 126.8 200 126.8 C 201.074 126.8 202.064 126.98 202.2 127.2 M 193.2 138.4 C 193.2 138.62 192.75 138.8 192.2 138.8 C 191.65 138.8 191.2 138.98 191.2 139.2 C 191.2 139.42 190.795 139.604 190.3 139.609 C 189.805 139.614 188.95 139.97 188.4 140.4 C 187.85 140.83 187.175 141.186 186.9 141.191 C 186.625 141.196 186.4 141.358 186.4 141.551 C 186.4 141.745 185.871 142.122 185.225 142.39 C 183.868 142.952 180.8 145.831 180.8 146.542 C 180.8 146.807 180.44 147.283 180 147.6 C 179.56 147.917 179.2 148.497 179.2 148.888 C 179.2 149.28 179.065 149.601 178.9 149.603 C 178.541 149.607 177.6 151.544 177.6 152.28 C 177.6 152.566 177.42 152.8 177.2 152.8 C 176.98 152.8 176.8 153.304 176.8 153.92 C 176.8 154.536 176.592 155.248 176.338 155.502 C 176.03 155.81 175.875 157.918 175.875 161.8 C 175.875 165.682 176.03 167.79 176.338 168.098 C 176.592 168.352 176.8 168.886 176.8 169.285 C 176.8 169.684 176.96 170.323 177.156 170.705 C 177.352 171.087 177.92 172.255 178.419 173.3 C 178.918 174.345 179.456 175.2 179.614 175.2 C 179.773 175.2 180.127 175.74 180.4 176.4 C 180.673 177.06 181.055 177.6 181.249 177.6 C 181.442 177.6 181.6 179.04 181.6 180.8 C 181.6 182.667 181.767 184 182 184 C 182.22 184 182.4 184.54 182.4 185.2 C 182.4 185.86 182.58 186.4 182.8 186.4 C 183.02 186.4 183.2 186.76 183.2 187.2 C 183.2 187.64 183.38 188 183.6 188 C 183.82 188 184 188.268 184 188.595 C 184 189.586 187.986 194 188.88 194 C 189.179 194 189.683 194.36 190 194.8 C 190.317 195.24 190.897 195.6 191.288 195.6 C 191.68 195.6 192 195.78 192 196 C 192 196.22 192.349 196.4 192.776 196.4 C 193.203 196.4 193.664 196.58 193.8 196.8 C 193.936 197.02 194.757 197.2 195.624 197.2 C 196.491 197.2 197.2 197.38 197.2 197.6 C 197.2 197.829 198.4 198 200 198 C 201.6 198 202.8 197.829 202.8 197.6 C 202.8 197.38 203.432 197.2 204.205 197.2 C 204.978 197.2 205.923 197.041 206.305 196.847 C 206.687 196.652 207.54 196.249 208.2 195.949 C 208.86 195.65 209.691 195.089 210.047 194.703 C 210.403 194.316 210.912 194 211.178 194 C 211.445 194 212.324 193.3 213.131 192.444 C 215.412 190.027 216 189.239 216 188.595 C 216 188.268 216.18 188 216.4 188 C 216.62 188 216.8 187.64 216.8 187.2 C 216.8 186.76 216.98 186.4 217.2 186.4 C 217.42 186.4 217.6 185.871 217.6 185.224 C 217.6 184.577 217.78 183.936 218 183.8 C 218.22 183.664 218.4 182.213 218.4 180.576 C 218.4 178.939 218.558 177.6 218.751 177.6 C 218.945 177.6 219.327 177.06 219.6 176.4 C 219.873 175.74 220.234 175.2 220.402 175.2 C 220.57 175.2 220.807 174.885 220.929 174.5 C 221.051 174.115 221.459 173.26 221.836 172.6 C 222.96 170.632 223.2 170.048 223.2 169.285 C 223.2 168.886 223.36 168.389 223.557 168.18 C 224.562 167.108 224.552 155.989 223.546 155.366 C 223.355 155.249 223.2 154.623 223.2 153.976 C 223.2 153.329 223.02 152.8 222.8 152.8 C 222.58 152.8 222.4 152.44 222.4 152 C 222.4 151.56 222.22 151.2 222 151.2 C 221.78 151.2 221.6 150.84 221.6 150.4 C 221.6 149.96 221.42 149.6 221.2 149.6 C 220.98 149.6 220.8 149.28 220.8 148.888 C 220.8 148.497 220.44 147.917 220 147.6 C 219.56 147.283 219.2 146.818 219.2 146.566 C 219.2 145.93 215.528 142.558 214.47 142.222 C 213.991 142.07 213.6 141.778 213.6 141.573 C 213.6 141.368 213.322 141.2 212.983 141.2 C 212.644 141.2 211.98 140.84 211.508 140.4 C 211.036 139.96 210.233 139.6 209.725 139.6 C 209.216 139.6 208.8 139.42 208.8 139.2 C 208.8 138.98 208.35 138.8 207.8 138.8 C 207.25 138.8 206.8 138.62 206.8 138.4 C 206.8 138.149 204.267 138 200 138 C 195.733 138 193.2 138.149 193.2 138.4 M 200.6 150.8 C 200.736 151.02 201.467 151.2 202.224 151.2 C 202.981 151.2 203.6 151.38 203.6 151.6 C 203.6 151.82 203.96 152 204.4 152 C 204.84 152 205.2 152.18 205.2 152.4 C 205.2 152.62 205.478 152.8 205.818 152.8 C 207.12 152.8 210.4 157.411 210.4 159.24 C 210.4 159.687 210.59 160.407 210.821 160.839 C 211.553 162.206 209.378 167.782 207.3 169.868 C 206.585 170.586 206 171.449 206 171.787 C 206 172.124 205.82 172.4 205.6 172.4 C 205.359 172.4 205.2 174.067 205.2 176.6 C 205.2 179.133 205.041 180.8 204.8 180.8 C 204.58 180.8 204.4 181.078 204.4 181.418 C 204.4 182.274 202.594 184 201.698 184 C 201.292 184 200.744 184.216 200.48 184.48 C 200.107 184.853 199.893 184.853 199.52 184.48 C 199.256 184.216 198.708 184 198.302 184 C 197.406 184 195.6 182.274 195.6 181.418 C 195.6 181.078 195.42 180.8 195.2 180.8 C 194.959 180.8 194.8 179.133 194.8 176.6 C 194.8 174.067 194.641 172.4 194.4 172.4 C 194.18 172.4 194 172.112 194 171.76 C 194 171.409 193.483 170.638 192.851 170.047 C 191.535 168.819 189.6 165.223 189.6 164.008 C 189.6 163.558 189.38 162.836 189.11 162.405 C 188.723 161.785 188.723 161.517 189.11 161.13 C 189.38 160.86 189.6 160.159 189.6 159.57 C 189.6 157.487 192.852 152.802 194.3 152.8 C 194.575 152.8 194.8 152.62 194.8 152.4 C 194.8 152.18 195.16 152 195.6 152 C 196.04 152 196.4 151.82 196.4 151.6 C 196.4 151.38 197.019 151.2 197.776 151.2 C 198.533 151.2 199.264 151.02 199.4 150.8 C 199.536 150.58 199.806 150.4 200 150.4 C 200.194 150.4 200.464 150.58 200.6 150.8 M 83.2 278.8 C 83.2 279.02 82.84 279.2 82.4 279.2 C 81.96 279.2 81.6 279.359 81.6 279.553 C 81.6 279.748 81.24 280.001 80.8 280.116 C 80.36 280.231 80 280.612 80 280.963 C 80 281.313 79.82 281.6 79.6 281.6 C 79.38 281.6 79.2 281.96 79.2 282.4 C 79.2 282.84 79.02 283.2 78.8 283.2 C 78.549 283.2 78.4 285.667 78.4 289.8 C 78.4 296.133 78.368 296.4 77.6 296.4 C 77.16 296.4 76.8 296.22 76.8 296 C 76.8 295.78 76.455 295.6 76.033 295.6 C 75.612 295.6 75.207 295.458 75.133 295.285 C 74.832 294.574 68.541 291.2 67.515 291.2 C 67.122 291.2 66.8 291.02 66.8 290.8 C 66.8 290.58 65.9 290.4 64.8 290.4 C 63.7 290.4 62.8 290.58 62.8 290.8 C 62.8 291.02 62.44 291.2 62 291.2 C 61.56 291.2 61.2 291.38 61.2 291.6 C 61.2 291.82 60.945 292 60.633 292 C 58.748 292 57.666 297.82 59.052 300.5 C 59.924 302.187 61.719 303.643 63.7 304.271 C 64.085 304.393 64.4 304.652 64.4 304.847 C 64.4 305.041 64.745 305.2 65.167 305.2 C 65.588 305.2 65.993 305.353 66.067 305.541 C 66.14 305.728 67.418 306.514 68.907 307.286 C 71.872 308.825 71.874 308.793 68.7 310.423 C 67.655 310.96 66.8 311.534 66.8 311.699 C 66.8 311.865 66.44 312 66 312 C 65.56 312 65.2 312.18 65.2 312.4 C 65.2 312.62 64.964 312.8 64.675 312.8 C 64.387 312.8 63.764 313.16 63.292 313.6 C 62.82 314.04 62.22 314.4 61.96 314.4 C 60.33 314.4 58.4 317.899 58.4 320.852 C 58.4 325.018 60.405 326.798 65.1 326.799 C 67.034 326.8 68.4 326.634 68.4 326.4 C 68.4 326.18 68.76 326 69.2 326 C 69.64 326 70 325.832 70 325.627 C 70 325.422 70.375 325.135 70.834 324.989 C 71.869 324.661 75.752 322.308 75.933 321.9 C 76.007 321.735 76.412 321.6 76.833 321.6 C 77.255 321.6 77.6 321.42 77.6 321.2 C 77.6 320.98 77.78 320.8 78 320.8 C 78.251 320.8 78.4 323.325 78.4 327.576 C 78.4 331.663 78.559 334.451 78.8 334.6 C 79.02 334.736 79.2 335.127 79.2 335.47 C 79.2 338.745 86.858 340.119 89.85 337.381 L 91.4 335.962 L 91.6 328.108 C 91.777 321.143 91.868 320.319 92.4 320.827 C 92.73 321.142 93.536 321.67 94.192 322 C 94.847 322.33 96.366 323.185 97.568 323.9 C 98.77 324.615 99.996 325.2 100.293 325.2 C 100.59 325.2 101.22 325.56 101.692 326 C 103.002 327.221 107.974 327.157 109.454 325.9 C 111.898 323.826 112 323.61 112 320.525 C 112 318.842 111.83 317.6 111.6 317.6 C 111.38 317.6 111.2 317.306 111.2 316.947 C 111.2 316.216 109.275 314.401 108.5 314.4 C 108.225 314.4 108 314.254 108 314.075 C 108 313.896 107.37 313.502 106.6 313.2 C 105.83 312.898 105.2 312.54 105.2 312.404 C 105.2 312.268 104.303 311.717 103.206 311.179 C 102.11 310.64 101.21 310.065 101.206 309.9 C 101.203 309.735 100.84 309.6 100.4 309.6 C 98.405 309.6 99.512 308.456 103.594 306.302 C 104.8 305.665 105.88 305.021 105.994 304.871 C 106.107 304.721 106.738 304.329 107.395 303.999 C 108.052 303.67 109.357 302.64 110.295 301.711 L 112 300.021 L 112 297.011 C 112 295.27 111.831 294 111.6 294 C 111.38 294 111.2 293.762 111.2 293.472 C 111.2 292.721 109.339 291.2 108.421 291.2 C 107.995 291.2 107.536 291.02 107.4 290.8 C 107.264 290.58 106.353 290.4 105.376 290.4 C 104.399 290.4 103.6 290.58 103.6 290.8 C 103.6 291.02 103.383 291.2 103.118 291.2 C 102.359 291.2 98 293.304 98 293.67 C 98 293.852 97.64 294 97.2 294 C 96.76 294 96.4 294.136 96.4 294.302 C 96.4 294.469 95.815 294.864 95.1 295.18 C 94.385 295.497 93.451 296.08 93.025 296.478 C 91.679 297.731 91.6 297.363 91.6 289.859 C 91.6 282.109 91.231 280.532 89.2 279.6 C 88.87 279.448 88.197 279.116 87.705 278.862 C 86.609 278.295 83.2 278.248 83.2 278.8 M 158.549 279.296 C 155.614 280.713 155.2 282.068 155.2 290.265 L 155.2 297.254 L 154.038 296.427 C 153.399 295.972 152.679 295.6 152.438 295.6 C 152.197 295.6 152 295.42 152 295.2 C 152 294.98 151.64 294.8 151.2 294.8 C 150.76 294.8 150.4 294.653 150.4 294.474 C 150.4 294.061 144.648 291.2 143.819 291.2 C 143.478 291.2 143.2 291.02 143.2 290.8 C 143.2 290.58 142.39 290.4 141.4 290.4 C 140.41 290.4 139.6 290.558 139.6 290.75 C 139.6 290.943 139.103 291.199 138.495 291.321 C 137.271 291.566 136.063 292.541 135.3 293.899 C 134.705 294.958 134.624 299.6 135.2 299.6 C 135.42 299.6 135.6 299.891 135.6 300.246 C 135.6 300.993 138.303 303.6 139.078 303.6 C 139.365 303.6 139.6 303.78 139.6 304 C 139.6 304.22 139.96 304.4 140.4 304.4 C 140.84 304.4 141.2 304.58 141.2 304.8 C 141.2 305.02 141.393 305.2 141.628 305.2 C 141.863 305.2 142.808 305.701 143.728 306.312 C 144.648 306.924 145.895 307.674 146.5 307.98 C 147.767 308.619 147.899 309.116 146.9 309.48 C 146.515 309.62 145.448 310.244 144.528 310.867 C 143.608 311.49 142.663 312 142.428 312 C 142.193 312 142 312.18 142 312.4 C 142 312.62 141.64 312.8 141.2 312.8 C 140.76 312.8 140.4 312.98 140.4 313.2 C 140.4 313.42 140.164 313.6 139.875 313.6 C 139.587 313.6 138.964 313.96 138.492 314.4 C 138.02 314.84 137.389 315.2 137.091 315.2 C 136.062 315.2 134.8 318.306 134.8 320.838 C 134.8 322.146 134.978 323.2 135.2 323.2 C 135.42 323.2 135.6 323.56 135.6 324 C 135.6 324.44 135.772 324.8 135.982 324.8 C 136.192 324.8 136.814 325.25 137.364 325.8 C 138.422 326.858 144.8 327.373 144.8 326.4 C 144.8 326.18 145.16 326 145.6 326 C 146.04 326 146.4 325.838 146.4 325.639 C 146.4 325.441 146.895 325.089 147.5 324.859 C 148.6 324.439 152.423 322.377 152.8 322 C 153.091 321.709 154.754 320.8 154.995 320.8 C 155.108 320.8 155.2 323.95 155.2 327.8 C 155.2 332.2 155.349 334.8 155.6 334.8 C 155.82 334.8 156 335.076 156 335.413 C 156 338.664 163.479 340.188 166.113 337.475 C 168.345 335.176 168.4 334.939 168.4 327.605 C 168.4 323.335 168.549 320.8 168.8 320.8 C 169.02 320.8 169.2 320.98 169.2 321.2 C 169.2 321.42 169.56 321.6 170 321.6 C 170.44 321.6 170.8 321.78 170.8 322 C 170.8 322.22 171.16 322.4 171.6 322.4 C 172.04 322.4 172.4 322.54 172.4 322.711 C 172.4 322.883 173.795 323.738 175.5 324.611 C 177.205 325.485 178.66 326.335 178.733 326.5 C 178.807 326.665 180.313 326.8 182.081 326.8 L 185.296 326.8 L 187.048 324.971 C 189.652 322.254 189.411 317.03 186.609 315.435 C 186.188 315.196 185.485 314.685 185.046 314.3 C 184.608 313.915 184.013 313.6 183.725 313.6 C 183.436 313.6 183.2 313.42 183.2 313.2 C 183.2 312.98 182.84 312.8 182.4 312.8 C 181.96 312.8 181.6 312.655 181.6 312.479 C 181.6 312.302 180.703 311.717 179.606 311.179 C 178.51 310.64 177.61 310.065 177.606 309.9 C 177.603 309.735 177.24 309.6 176.8 309.6 C 176.36 309.6 176 309.407 176 309.171 C 176 308.534 177.053 307.6 177.771 307.6 C 178.117 307.6 178.403 307.465 178.406 307.3 C 178.41 307.135 179.31 306.56 180.406 306.021 C 181.503 305.483 182.4 304.898 182.4 304.721 C 182.4 304.545 182.76 304.4 183.2 304.4 C 183.64 304.4 184 304.22 184 304 C 184 303.78 184.235 303.6 184.522 303.6 C 185.155 303.6 187.608 301.326 188.3 300.098 C 190.022 297.042 187.79 291.202 184.9 291.2 C 184.405 291.2 184 291.02 184 290.8 C 184 290.58 183.1 290.4 182 290.4 C 180.9 290.4 180 290.58 180 290.8 C 180 291.02 179.735 291.2 179.41 291.2 C 178.69 291.2 173.453 293.976 173.267 294.456 C 173.193 294.645 172.788 294.8 172.367 294.8 C 171.945 294.8 171.6 294.98 171.6 295.2 C 171.6 295.42 171.322 295.6 170.983 295.6 C 170.644 295.6 169.969 295.971 169.483 296.423 L 168.6 297.247 L 168.491 289.823 C 168.425 285.327 168.228 282.4 167.991 282.4 C 167.776 282.4 167.6 282.106 167.6 281.747 C 167.6 280.847 165.596 279.201 164.5 279.2 C 164.005 279.2 163.6 279.02 163.6 278.8 C 163.6 278.127 160.299 278.452 158.549 279.296 M 236.4 278.8 C 236.4 279.02 235.975 279.2 235.455 279.2 C 234.433 279.2 232.4 280.966 232.4 281.855 C 232.4 282.155 232.224 282.4 232.009 282.4 C 231.772 282.4 231.575 285.327 231.509 289.823 L 231.4 297.247 L 230.517 296.423 C 230.031 295.971 229.356 295.6 229.017 295.6 C 228.678 295.6 228.4 295.42 228.4 295.2 C 228.4 294.98 228.055 294.8 227.633 294.8 C 227.212 294.8 226.807 294.645 226.733 294.456 C 226.547 293.976 221.31 291.2 220.59 291.2 C 220.265 291.2 220 291.02 220 290.8 C 220 290.58 219.1 290.4 218 290.4 C 216.9 290.4 216 290.58 216 290.8 C 216 291.02 215.595 291.2 215.1 291.2 C 213.011 291.202 211.2 293.894 211.2 297 C 211.2 299.84 213.637 303.6 215.478 303.6 C 215.765 303.6 216 303.78 216 304 C 216 304.22 216.36 304.4 216.8 304.4 C 217.24 304.4 217.6 304.537 217.6 304.704 C 217.6 304.872 218.815 305.636 220.3 306.404 C 223.963 308.297 225.159 309.6 223.233 309.6 C 222.812 309.6 222.407 309.735 222.333 309.9 C 222.166 310.276 220.036 311.575 219.1 311.871 C 218.715 311.993 218.4 312.252 218.4 312.447 C 218.4 312.641 218.04 312.8 217.6 312.8 C 217.16 312.8 216.8 312.98 216.8 313.2 C 216.8 313.42 216.564 313.6 216.275 313.6 C 215.987 313.6 215.392 313.915 214.954 314.3 C 214.515 314.685 213.812 315.196 213.391 315.435 C 210.589 317.03 210.348 322.254 212.952 324.971 L 214.704 326.8 L 217.919 326.8 C 219.687 326.8 221.193 326.665 221.267 326.5 C 221.34 326.335 222.795 325.485 224.5 324.611 C 226.205 323.738 227.6 322.883 227.6 322.711 C 227.6 322.54 227.96 322.4 228.4 322.4 C 228.84 322.4 229.2 322.22 229.2 322 C 229.2 321.78 229.56 321.6 230 321.6 C 230.44 321.6 230.8 321.42 230.8 321.2 C 230.8 320.98 230.98 320.8 231.2 320.8 C 231.451 320.8 231.6 323.335 231.6 327.605 C 231.6 334.939 231.655 335.176 233.887 337.475 C 236.521 340.188 244 338.664 244 335.413 C 244 335.076 244.18 334.8 244.4 334.8 C 244.652 334.8 244.8 332.189 244.8 327.767 C 244.8 322.282 244.91 320.785 245.3 320.966 C 245.575 321.095 246.115 321.311 246.5 321.446 C 246.885 321.582 247.2 321.852 247.2 322.047 C 247.2 322.241 247.56 322.4 248 322.4 C 248.44 322.4 248.8 322.549 248.8 322.73 C 248.8 322.912 249.88 323.587 251.199 324.23 C 252.519 324.874 253.599 325.535 253.599 325.7 C 253.6 325.865 253.96 326 254.4 326 C 254.84 326 255.2 326.18 255.2 326.4 C 255.2 327.373 261.578 326.858 262.636 325.8 C 263.186 325.25 263.808 324.8 264.018 324.8 C 264.228 324.8 264.4 324.44 264.4 324 C 264.4 323.56 264.58 323.2 264.8 323.2 C 265.577 323.2 265.25 318.286 264.4 317.2 C 263.97 316.65 263.614 315.975 263.609 315.7 C 263.604 315.425 263.322 315.2 262.983 315.2 C 262.644 315.2 261.98 314.84 261.508 314.4 C 261.036 313.96 260.413 313.6 260.125 313.6 C 259.836 313.6 259.6 313.464 259.6 313.298 C 259.6 313.131 259.015 312.741 258.3 312.43 C 257.585 312.119 256.91 311.76 256.8 311.632 C 256.572 311.367 255.114 310.513 253.5 309.697 C 252.043 308.961 252.106 308.709 254 307.674 C 254.88 307.193 256.32 306.407 257.2 305.926 C 258.08 305.445 258.8 304.905 258.8 304.726 C 258.8 304.547 259.16 304.4 259.6 304.4 C 260.04 304.4 260.4 304.22 260.4 304 C 260.4 303.78 260.676 303.6 261.013 303.6 C 261.809 303.6 264.4 301.009 264.4 300.213 C 264.4 299.876 264.58 299.6 264.8 299.6 C 265.376 299.6 265.295 294.958 264.7 293.899 C 263.937 292.541 262.729 291.566 261.505 291.321 C 260.897 291.199 260.4 290.943 260.4 290.75 C 260.4 290.558 259.59 290.4 258.6 290.4 C 257.61 290.4 256.8 290.58 256.8 290.8 C 256.8 291.02 256.522 291.2 256.181 291.2 C 255.352 291.2 249.6 294.061 249.6 294.474 C 249.6 294.653 249.24 294.8 248.8 294.8 C 248.36 294.8 248 294.98 248 295.2 C 248 295.42 247.803 295.6 247.562 295.6 C 247.321 295.6 246.601 295.972 245.962 296.427 L 244.8 297.254 L 244.8 290.265 C 244.8 281.885 244.412 280.69 241.224 279.25 C 239.275 278.369 236.4 278.101 236.4 278.8 M 312.8 278.8 C 312.8 279.02 312.381 279.2 311.87 279.2 C 310.916 279.2 309.649 280.322 308.85 281.874 C 308.566 282.426 308.4 285.405 308.4 289.974 C 308.4 297.363 308.32 297.73 306.975 296.478 C 306.549 296.08 305.615 295.497 304.9 295.18 C 304.185 294.864 303.6 294.469 303.6 294.302 C 303.6 294.136 303.24 294 302.8 294 C 302.36 294 302 293.852 302 293.67 C 302 293.304 297.641 291.2 296.882 291.2 C 296.617 291.2 296.4 291.02 296.4 290.8 C 296.4 290.58 295.601 290.4 294.624 290.4 C 293.647 290.4 292.736 290.58 292.6 290.8 C 292.464 291.02 292.005 291.2 291.579 291.2 C 290.661 291.2 288.8 292.721 288.8 293.472 C 288.8 293.762 288.62 294 288.4 294 C 288.169 294 288 295.27 288 297.011 L 288 300.021 L 289.705 301.711 C 290.643 302.64 291.948 303.67 292.605 303.999 C 293.262 304.329 293.89 304.708 294 304.841 C 294.11 304.974 295.369 305.695 296.798 306.442 C 301.067 308.674 301.212 308.921 298.924 310.074 C 296.59 311.25 295.069 312.12 294.8 312.432 C 294.69 312.56 294.015 312.919 293.3 313.23 C 292.585 313.541 292 313.931 292 314.098 C 292 314.264 291.775 314.4 291.5 314.4 C 290.725 314.401 288.8 316.216 288.8 316.947 C 288.8 317.306 288.62 317.6 288.4 317.6 C 288.17 317.6 288 318.833 288.001 320.5 C 288.002 323.454 289.257 326 290.712 326 C 290.98 326 291.2 326.18 291.2 326.4 C 291.2 327.224 297.366 326.877 298.308 326 C 298.78 325.56 299.41 325.2 299.707 325.2 C 300.004 325.2 301.259 324.591 302.496 323.846 C 303.733 323.101 305.298 322.247 305.973 321.948 C 306.648 321.649 307.2 321.269 307.2 321.102 C 307.2 320.936 307.47 320.8 307.8 320.8 C 308.312 320.8 308.4 321.884 308.4 328.152 L 308.4 335.504 L 310 337.152 L 311.599 338.8 L 314.721 338.8 C 317.991 338.8 320.8 337.261 320.8 335.47 C 320.8 335.127 320.98 334.736 321.2 334.6 C 321.441 334.451 321.6 331.663 321.6 327.576 C 321.6 323.325 321.749 320.8 322 320.8 C 322.22 320.8 322.4 320.98 322.4 321.2 C 322.4 321.42 322.745 321.6 323.167 321.6 C 323.588 321.6 323.993 321.735 324.067 321.9 C 324.248 322.308 328.131 324.661 329.166 324.989 C 329.625 325.135 330 325.422 330 325.627 C 330 325.832 330.36 326 330.8 326 C 331.24 326 331.6 326.18 331.6 326.4 C 331.6 327.61 338.181 326.824 339.804 325.42 L 341.4 324.04 L 341.4 320.68 C 341.4 316.756 339.437 314.177 335.5 312.929 C 335.115 312.807 334.8 312.548 334.8 312.353 C 334.8 312.159 334.44 312 334 312 C 333.56 312 333.2 311.858 333.2 311.684 C 333.2 311.51 332.213 310.867 331.007 310.257 C 328.554 309.015 327.948 308.4 329.176 308.4 C 329.629 308.4 330.003 308.265 330.006 308.1 C 330.01 307.935 330.91 307.36 332.006 306.821 C 333.103 306.283 334 305.698 334 305.521 C 334 305.345 334.36 305.2 334.8 305.2 C 335.24 305.2 335.6 305.054 335.6 304.875 C 335.6 304.696 336.23 304.302 337 304 C 337.77 303.698 338.4 303.304 338.4 303.125 C 338.4 302.946 338.604 302.8 338.853 302.8 C 339.437 302.8 340.782 301.265 341.242 300.074 C 342.287 297.369 341.041 292 339.367 292 C 339.055 292 338.8 291.82 338.8 291.6 C 338.8 291.38 338.44 291.2 338 291.2 C 337.56 291.2 337.2 291.02 337.2 290.8 C 337.2 290.58 336.3 290.4 335.2 290.4 C 334.1 290.4 333.2 290.58 333.2 290.8 C 333.2 291.02 332.878 291.2 332.485 291.2 C 331.459 291.2 325.168 294.574 324.867 295.285 C 324.793 295.458 324.388 295.6 323.967 295.6 C 323.545 295.6 323.2 295.78 323.2 296 C 323.2 296.22 322.84 296.4 322.4 296.4 C 321.632 296.4 321.6 296.133 321.6 289.8 C 321.6 285.667 321.451 283.2 321.2 283.2 C 320.98 283.2 320.8 282.84 320.8 282.4 C 320.8 281.96 320.641 281.6 320.447 281.6 C 320.252 281.6 319.999 281.24 319.884 280.8 C 319.769 280.36 319.388 280 319.037 280 C 318.687 280 318.4 279.82 318.4 279.6 C 318.4 279.38 318.04 279.2 317.6 279.2 C 317.16 279.2 316.8 279.02 316.8 278.8 C 316.8 278.58 315.9 278.4 314.8 278.4 C 313.7 278.4 312.8 278.58 312.8 278.8" stroke-linecap="round" />
</g>
		<g transform="matrix(1 0 0 1 -199.9 -193.21)" id="path1"  >
<path style="stroke: none; stroke-width: 1; stroke-dasharray: none; stroke-linecap: butt; stroke-dashoffset: 0; stroke-linejoin: miter; stroke-miterlimit: 4; fill: rgb(255,255,255); fill-rule: evenodd; opacity: 1;" vector-effect="non-scaling-stroke"  transform=" translate(0, 0)" d="" stroke-linecap="round" />
</g>
		<g transform="matrix(1 0 0 1 -199.9 -193.21)" id="path2"  >
<path style="stroke: none; stroke-width: 1; stroke-dasharray: none; stroke-linecap: butt; stroke-dashoffset: 0; stroke-linejoin: miter; stroke-miterlimit: 4; fill: rgb(255,255,255); fill-rule: evenodd; opacity: 1;" vector-effect="non-scaling-stroke"  transform=" translate(0, 0)" d="" stroke-linecap="round" />
</g>
</g>
</g>
</svg>