<svg width="22" height="25" viewBox="0 0 22 25" fill="none" xmlns="http://www.w3.org/2000/svg">
<g clip-path="url(#clip0_142_18)">
<path d="M21.0599 14.32H16.1399C16.1399 14.11 16.1399 13.92 16.1399 13.72C16.1399 12.76 15.5599 12.18 14.6199 12.18H4.6499V7.16H5.5699C5.8199 7.16 6.0699 7.16 6.3199 7.16C7.1699 7.14 7.7299 6.57 7.7299 5.7C7.7299 5.08 7.7299 4.46 7.7299 3.84V3.56H9.8199V2.13H7.0499C6.6599 2.13 6.3399 1.81 6.3399 1.42C6.3399 1.03 6.6599 0.71 7.0499 0.71H9.8199V0H11.2199V0.69H13.9999C14.3999 0.69 14.7199 1.01 14.7199 1.41C14.7199 1.81 14.3999 2.13 13.9999 2.13H11.2399V3.56H13.3299V3.84C13.3299 4.48 13.3599 5.13 13.3299 5.77C13.2899 6.58 13.8199 7.16 14.6699 7.15C17.4799 7.12 19.8899 8.93 20.7599 11.65C21.0399 12.51 21.0999 13.4 21.0599 14.33V14.32Z" fill="url(#paint0_linear_142_18)"/>
<path d="M18.74 15.6399C19.39 16.4499 20.05 17.1999 20.63 18.0099C21.04 18.5699 21.39 19.1899 21.7 19.8099C22.61 21.6699 21.33 23.8399 19.49 24.2699C17.44 24.7599 15.5 23.2299 15.44 21.0799C15.43 20.6299 15.56 20.2099 15.74 19.7999C16.2 18.7699 16.85 17.8799 17.56 17.0199C17.93 16.5699 18.32 16.1299 18.74 15.6399Z" fill="url(#paint1_linear_142_18)"/>
<path d="M0 13.6099V5.71992C0.88 5.74992 1.8 5.53992 2.56 6.21992C2.99 6.60992 3.25 7.07992 3.26 7.66992C3.27 8.99992 3.28 10.3199 3.26 11.6499C3.24 12.6999 2.34 13.5799 1.31 13.5999C0.88 13.5999 0.46 13.5999 0 13.5999L0 13.6099Z" fill="url(#paint2_linear_142_18)"/>
</g>
<defs>
<linearGradient id="paint0_linear_142_18" x1="5.2899" y1="-3.07" x2="13.2299" y2="12.88" gradientUnits="userSpaceOnUse">
<stop stop-color="#FFCDC6"/>
<stop offset="1" stop-color="#F15244"/>
</linearGradient>
<linearGradient id="paint1_linear_142_18" x1="14.05" y1="14.8299" x2="19.96" y2="22.6199" gradientUnits="userSpaceOnUse">
<stop stop-color="#FFCDC6"/>
<stop offset="1" stop-color="#F15244"/>
</linearGradient>
<linearGradient id="paint2_linear_142_18" x1="-2.36" y1="7.26992" x2="2.92" y2="11.0999" gradientUnits="userSpaceOnUse">
<stop stop-color="#FFCDC6"/>
<stop offset="1" stop-color="#F15244"/>
</linearGradient>
<clipPath id="clip0_142_18">
<rect width="22" height="25" fill="white"/>
</clipPath>
</defs>
</svg>
