<svg width="22" height="26" viewBox="0 0 22 26" fill="none" xmlns="http://www.w3.org/2000/svg">
<g clip-path="url(#clip0_28_184)">
<path d="M11.0016 26C7.67061 26 4.34071 26 1.00975 26C0.313285 26 -1.78565e-05 25.6746 -1.78565e-05 24.9545C-1.78565e-05 23.6097 -0.00107631 22.2649 -1.78565e-05 20.9202C0.00421597 17.3716 2.3868 14.5053 5.80667 13.9424C6.16125 13.8839 6.52642 13.8698 6.88629 13.8687C9.62664 13.8633 12.367 13.8633 15.1063 13.8654C18.5738 13.8687 21.3628 16.2969 21.9206 19.8096C21.9767 20.1643 21.9915 20.5286 21.9936 20.8887C22.0021 22.2606 21.9979 23.6325 21.9968 25.0044C21.9968 25.666 21.6687 26 21.0177 26C17.6783 26 14.3389 26 10.9995 26H11.0016Z" fill="white"/>
<path d="M11.0058 12.1335C7.73938 12.1367 5.08159 9.42329 5.0763 6.07975C5.07101 2.72103 7.72668 -0.00216772 11.0058 1.29481e-06C14.27 0.00217031 16.9225 2.72212 16.9225 6.06674C16.9225 9.41245 14.2722 12.1302 11.0068 12.1335H11.0058Z" fill="white"/>
</g>
<defs>
<clipPath id="clip0_28_184">
<rect width="22" height="26" fill="white"/>
</clipPath>
</defs>
</svg>
