<svg id="Layer_1" data-name="Layer 1" xmlns="http://www.w3.org/2000/svg" xmlns:xlink="http://www.w3.org/1999/xlink" viewBox="0 0 375 195"><defs><linearGradient id="linear-gradient" x1="187.5" y1="0.89" x2="187.5" y2="195.89" gradientTransform="matrix(1, 0, 0, -1, 0, 195.89)" gradientUnits="userSpaceOnUse"><stop offset="0.01" stop-color="#f8fbff"/><stop offset="0.4" stop-color="#dfe6ff"/><stop offset="0.51" stop-color="#dbe5ff"/><stop offset="0.61" stop-color="#cfe0ff"/><stop offset="0.72" stop-color="#bbd9ff"/><stop offset="0.83" stop-color="#9fcfff"/><stop offset="0.93" stop-color="#7bc2ff"/><stop offset="1" stop-color="#60b9ff"/></linearGradient><linearGradient id="linear-gradient-2" x1="69.82" y1="82.46" x2="69.82" y2="126.62" gradientTransform="matrix(1, 0, 0, -1, 0, 195.89)" gradientUnits="userSpaceOnUse"><stop offset="0" stop-color="#bed6ff"/><stop offset="0.48" stop-color="#c5e1ff"/><stop offset="1" stop-color="#c7e5ff"/></linearGradient><linearGradient id="linear-gradient-3" x1="17.79" y1="108.56" x2="17.79" y2="126.91" gradientTransform="matrix(1, 0, 0, -1, 0, 195.89)" gradientUnits="userSpaceOnUse"><stop offset="0" stop-color="#d6e5ff"/><stop offset="0.42" stop-color="#ddedff"/><stop offset="1" stop-color="#e0f1ff"/></linearGradient><linearGradient id="linear-gradient-4" x1="44.3" y1="100.31" x2="44.3" y2="109.35" xlink:href="#linear-gradient-3"/><linearGradient id="linear-gradient-5" x1="66.73" y1="92.23" x2="66.73" y2="100.89" xlink:href="#linear-gradient-3"/><linearGradient id="linear-gradient-6" x1="26.26" y1="88.27" x2="26.26" y2="95.1" xlink:href="#linear-gradient-3"/><linearGradient id="linear-gradient-7" x1="61.9" y1="85.8" x2="61.9" y2="89.44" xlink:href="#linear-gradient-3"/><linearGradient id="linear-gradient-8" x1="308.26" y1="84.56" x2="308.26" y2="128.89" xlink:href="#linear-gradient-2"/><linearGradient id="linear-gradient-9" x1="346.74" y1="113.93" x2="346.74" y2="128.78" gradientTransform="matrix(1, 0, 0, -1, 0, 195.89)" gradientUnits="userSpaceOnUse"><stop offset="0" stop-color="#bed6ff"/><stop offset="0.31" stop-color="#d0e4ff"/><stop offset="0.66" stop-color="#dceeff"/><stop offset="1" stop-color="#e0f1ff"/></linearGradient><linearGradient id="linear-gradient-10" x1="296.43" y1="92.55" x2="296.43" y2="96.23" xlink:href="#linear-gradient-3"/><linearGradient id="linear-gradient-11" x1="344.18" y1="90.85" x2="369.83" y2="90.85" xlink:href="#linear-gradient-3"/><linearGradient id="linear-gradient-12" x1="321.26" y1="100.89" x2="321.26" y2="111.27" xlink:href="#linear-gradient-3"/><linearGradient id="linear-gradient-13" x1="210.6" y1="102.97" x2="214.07" y2="138.55" xlink:href="#linear-gradient-2"/><linearGradient id="linear-gradient-14" x1="241.06" y1="123.49" x2="241.74" y2="130.4" xlink:href="#linear-gradient-3"/><linearGradient id="linear-gradient-15" x1="199.19" y1="119.36" x2="200.85" y2="136.38" xlink:href="#linear-gradient-3"/><linearGradient id="linear-gradient-16" x1="168.69" y1="112.95" x2="168.99" y2="116.09" xlink:href="#linear-gradient-3"/><linearGradient id="linear-gradient-17" x1="174.96" y1="116.56" x2="176.07" y2="127.91" xlink:href="#linear-gradient-3"/><linearGradient id="linear-gradient-18" x1="213.36" y1="112.16" x2="214.1" y2="119.79" xlink:href="#linear-gradient-3"/><linearGradient id="linear-gradient-19" x1="282.07" y1="109.11" x2="282.07" y2="116.37" xlink:href="#linear-gradient-2"/><linearGradient id="linear-gradient-20" x1="274.76" y1="111.42" x2="274.76" y2="116.35" xlink:href="#linear-gradient-3"/><linearGradient id="linear-gradient-21" x1="287.12" y1="112.79" x2="287.12" y2="115.7" xlink:href="#linear-gradient-3"/><linearGradient id="linear-gradient-22" x1="91.81" y1="131.67" x2="92.78" y2="144.86" xlink:href="#linear-gradient-2"/><linearGradient id="linear-gradient-23" x1="89.01" y1="137.08" x2="89.01" y2="144.86" xlink:href="#linear-gradient-3"/><linearGradient id="linear-gradient-24" x1="75.38" y1="136.45" x2="75.38" y2="138.56" xlink:href="#linear-gradient-3"/><linearGradient id="linear-gradient-25" x1="106.03" y1="137.08" x2="106.03" y2="141.07" xlink:href="#linear-gradient-3"/></defs><path d="M375,0H0V195H375Z" fill="url(#linear-gradient)"/><path d="M0,72.94s15.89-6,27.31-2.68,12,21.14,12,21.14,8.22-6.52,15.28-4.93c4.75,1.1,3.81,5.59,3,8.55,1.66,1.64,17.88,6.62,21.19,7.72s3.64,3,5.18,4.66,10.37,3.67,16.28,3.56,13.9,1.42,21.52,1.59,17.87.49,17.87.49-23.5.88-32.55,0-16.94-.66-28.69-1.59-34.65-.22-40.83-2.08a89.13,89.13,0,0,1-22.78,2.08C3.31,110.85,0,110.19,0,110.19Z" fill="url(#linear-gradient-2)"/><path d="M0,87.35a58,58,0,0,0,17.16-5.92c8.72-4.71,11.25-7.94,11.25-7.94a22.68,22.68,0,0,0,4,2c2.76,1.1,3.15,1.81,3.15,1.81s-2.27-6.25-11.09-8c0,0-10.38-1.75-24.5,3.67Z" fill="url(#linear-gradient-3)"/><path d="M39.34,91.35,36.63,93.7,31.56,95s8,1.31,13.07,0,8-6.3,8-6.3,2-2.41,4.42-1C57.05,87.68,49.71,83.4,39.34,91.35Z" fill="url(#linear-gradient-4)"/><path d="M57.6,95l-2.81,1.42-1.93.88A48.35,48.35,0,0,1,63.67,99c4.91,1.42,5.19,2.68,8.94,3.89a24.08,24.08,0,0,0,8,.77,98.56,98.56,0,0,0-12.75-4.39C60,97,57.6,95,57.6,95Z" fill="url(#linear-gradient-5)"/><path d="M15,105.26s3.75-3.51,7.73-4.27,11.47,1.15,13.51,4.27l1.38,2.36a62.68,62.68,0,0,1-9-.55c-4.91-.66-5.63-2.19-7.61-3.4S15,105.26,15,105.26Z" fill="url(#linear-gradient-6)"/><path d="M57.05,109.42a24.38,24.38,0,0,1,7.67-1.8,13.73,13.73,0,0,1,8.16,2.46s-1.87-2.9-10.31-3.56-11.65,2.9-11.65,2.9A8.91,8.91,0,0,0,57.05,109.42Z" fill="url(#linear-gradient-7)"/><path d="M374.52,75.44s-17.15-11.12-31.06-7.83S330,85.19,330,85.19s-7.78-1.09-11,0-6.62,8.77-6.34,9.59c0,0-12.92,5.15-16.22,5.15s-11.48-.5-15.12,1.26a40.68,40.68,0,0,1-14.51,3.89c-5.52.33-16.5,3.94-24.72,4.16,0,0,28.14-1.92,31.23-2s7.61,3.13,15.61,3.56,16.5.39,23.73.55,22.34-1.59,38.29-2.08,23.66-3.89,23.66-3.89Z" fill="url(#linear-gradient-8)"/><path d="M330.27,82a22.33,22.33,0,0,0,3.7-4.55c1.44-2.46,8-4.82,10.21-5.53s5.46-1.31,8.16-2.79,10.87.82,10.87.82-11.14-4.77-21.29-1.86S330.27,82,330.27,82Z" fill="url(#linear-gradient-9)"/><path d="M275.82,103.32s10-.11,11.59,0,3.53-1.31,9.76-2.13,19.86,0,19.86,0-12.69-1-14.84-1.26a39.73,39.73,0,0,0-5.07-.06,70,70,0,0,0-11.76.06A24.88,24.88,0,0,0,275.82,103.32Z" fill="url(#linear-gradient-10)"/><path d="M344.18,107a122,122,0,0,1,13.24-.93h12.41s-11.36-2.63-15.39-3S344.18,107,344.18,107Z" fill="url(#linear-gradient-11)"/><path d="M312.57,94.83s6.4.39,16.49,0l-5.73-.93s.88-5.86,1.71-7S330,85.25,330,85.25s-8.45-1.37-11.76,0S312.57,94.83,312.57,94.83Z" fill="url(#linear-gradient-12)"/><path d="M167.63,79.66S170,68.32,176.9,68.15s11,7.29,11,7.29a61.41,61.41,0,0,0,8-3.45c2-1.32,7.83-11.07,10.32-12,3.75-1.43,18.26-4.44,27,1.81l-.83,5.47a210.41,210.41,0,0,1,23.78-.54s8.5,1.2,8.44,10.24l11.7-.22s-14.24,1.21-23.28,3c0,0-13.25,3.83-42.49,6.46-22.18,2-32.93-1.26-43.69.06a115.79,115.79,0,0,1-19.92.49s10.32-.49,12.14-1.26c0,0,2-3.18,3.14-3.61S167.63,79.66,167.63,79.66Z" fill="url(#linear-gradient-13)"/><path d="M232.52,67.27s-1.49,3.07-3.2,4c0,0,10.64-1.42,12.85-1.86s2-1.37,3.2-2.08,8.11-.66,8.11-.66S239.52,66.12,232.52,67.27Z" fill="url(#linear-gradient-14)"/><path d="M187.94,75.44s9.32-1.81,10.65-2.52c0,0,7.39-.06,8-.55s4.8-8.71,5.35-10.74-6.51-1.26-6.51-1.26a138.52,138.52,0,0,0-8.94,11A64.54,64.54,0,0,1,187.94,75.44Z" fill="url(#linear-gradient-15)"/><path d="M161.73,82.28a76.22,76.22,0,0,0,14.12-.87s-5.57-.93-8.22-1.7C167.63,79.66,162.5,81.52,161.73,82.28Z" fill="url(#linear-gradient-16)"/><path d="M167.91,78.67s5-.66,7.83-2.69c0,0,1.88-5.31,3.31-6.19s3.92.39,3.92.39a8.71,8.71,0,0,0-8.66-1.32C169.57,70.84,167.91,78.67,167.91,78.67Z" fill="url(#linear-gradient-17)"/><path d="M203.5,82.12a13.17,13.17,0,0,1,6.95-5c1.49-.38,13.57,0,13.57,0s-6.56.55-7.45.6-3.75,4.55-3.75,4.55S207.58,84.37,203.5,82.12Z" fill="url(#linear-gradient-18)"/><path d="M261.13,86.76l7.39-2.3A19.6,19.6,0,0,1,273,80.79a18.7,18.7,0,0,1,7.95-1.21c1.65.17,4.63,2.31,4.63,2.31a24,24,0,0,1,4.8-1.65c1.38-.11,5.46,1.86,5.46,1.86l7.18-.16S284.41,84.35,261.13,86.76Z" fill="url(#linear-gradient-19)"/><path d="M268.52,84.46s4.86-.27,6.24-.6a8.88,8.88,0,0,1,.94-2.69,14.36,14.36,0,0,1,3.42-1.64H281s-5-.27-7.67,1.15A17.26,17.26,0,0,0,268.52,84.46Z" fill="url(#linear-gradient-20)"/><path d="M285.52,81.83l-1.6,1.26s4.41,0,5.46-.6.94-2.3.94-2.3A11.85,11.85,0,0,0,285.52,81.83Z" fill="url(#linear-gradient-21)"/><path d="M72.26,62s17.55-.87,26-2.13l24.11-3.45-7.39.16A22,22,0,0,0,107.3,55a7.37,7.37,0,0,0-5.24,2.08s-3.87-5.15-7.23-5.8S84.79,53.6,84,55.08s-1.76,3.62-1.76,3.62a16.89,16.89,0,0,0-4.86-1.26c-2.15-.17-6.18,1.15-6.29,1.58a5.89,5.89,0,0,0,0,1.32L62,62A82.48,82.48,0,0,0,72.26,62Z" fill="url(#linear-gradient-22)"/><path d="M82.19,58.64a46.36,46.36,0,0,0,7.45,0s.06-4.16.94-5,3.75-2.24,5.24-2.08c0,0-.94-.77-3.92-.44s-7.17,2.52-7.83,3.34A26.14,26.14,0,0,0,82.19,58.64Z" fill="url(#linear-gradient-23)"/><path d="M71.1,59a8.46,8.46,0,0,0,2.27.44c1.49.16,5.95-1.26,5.95-1.26l.34-.38A6.78,6.78,0,0,0,76,57.44C74,57.77,71.16,58.48,71.1,59Z" fill="url(#linear-gradient-24)"/><path d="M102,57.05l-2.48,1.76s5.85-1.15,6.18-1.26,2.26-1.65,2.76-1.81a32.41,32.41,0,0,1,4.08,0,15.79,15.79,0,0,0-6.51-.82C103,55.35,102,57.05,102,57.05Z" fill="url(#linear-gradient-25)"/><path d="M123.62,134a.94.94,0,0,0-.94.94V142a.94.94,0,0,0,1.88,0v-7.13A.94.94,0,0,0,123.62,134Z" fill="#f0a70a"/><path d="M143.07,125,134.52,136a.51.51,0,0,1-.39.19H122.92a.49.49,0,0,1-.39-.19L114,125c-9.51-12.16-.92-30.08,14.54-30h.37C144.17,95.26,152.48,113,143.07,125Z" fill="#f14d58"/><path d="M143.07,125,134.52,136a.51.51,0,0,1-.39.19h-5.61l6-10.5c7.94-14,2.65-26.49-6-30.67h.37C144.16,95.26,152.48,113,143.07,125Z" fill="#f14d58"/><path d="M133.43,134a.94.94,0,0,0-1,.94V142a.95.95,0,0,0,1.89,0v-7.13A.94.94,0,0,0,133.43,134Z" fill="#f0a70a"/><path d="M137.16,144.85V153a4,4,0,0,1-4,4h-9.22a4,4,0,0,1-4-4v-8.13Z" fill="#f14d58"/><path d="M128.31,157h-4.4a4,4,0,0,1-4-4v-8.13h4.4V153A4,4,0,0,0,128.31,157Z" fill="#ed1c29"/><path d="M139,146.4H118.09a.93.93,0,0,1-.93-.93v-3.18a.93.93,0,0,1,.93-.92H139a.92.92,0,0,1,.92.92v3.18A.93.93,0,0,1,139,146.4Z" fill="#40c1fa"/><path d="M137.16,152.39V153a4,4,0,0,1-4,4h-9.22a4,4,0,0,1-4-4v-.59Z" fill="#e5646e"/><path d="M139,146.4H118.09a.93.93,0,0,1-.93-.93v-3.18a.93.93,0,0,1,.93-.92H139a.92.92,0,0,1,.92.92v3.18A.93.93,0,0,1,139,146.4Z" fill="#b2bec3"/><path d="M122.49,146.39h-4.4a.93.93,0,0,1-.93-.92v-3.18a.93.93,0,0,1,.93-.92h4.4a.92.92,0,0,0-.92.92v3.18A.92.92,0,0,0,122.49,146.39Z" fill="#07a9f0"/><path d="M128.31,157h-4.4a4,4,0,0,1-4-4v-.59h4.4V153A4,4,0,0,0,128.31,157Z" fill="#e04955"/><path d="M128.31,157h-4.4a4,4,0,0,1-4-4v-.59h4.4V153A4,4,0,0,0,128.31,157Z" fill="#e04955"/><path d="M128.52,95h0c-8.62,4.18-13.9,16.69-6,30.67l6,10.5Z" fill="#fff"/><path d="M128.53,95h0v41.17l6-10.5C142.43,111.69,137.15,99.18,128.53,95Z" fill="#dfe6e9"/><path d="M220.19,124.3a.64.64,0,0,0-.64.63v4.81a.64.64,0,0,0,1.28,0v-4.81A.64.64,0,0,0,220.19,124.3Z" fill="#f0a70a"/><path d="M233.32,118.27l-5.78,7.38a.3.3,0,0,1-.26.13h-7.56a.3.3,0,0,1-.26-.13l-5.78-7.38A12.53,12.53,0,0,1,223.5,98h.25A12.54,12.54,0,0,1,233.32,118.27Z" fill="#f14d58"/><path d="M233.32,118.27l-5.78,7.38a.3.3,0,0,1-.26.13H223.5l4-7.08c5.36-9.44,1.8-17.88-4-20.7h.25A12.54,12.54,0,0,1,233.32,118.27Z" fill="#f14d58"/><path d="M226.81,124.3a.64.64,0,0,0-.64.63v4.81a.64.64,0,0,0,1.28,0v-4.81A.64.64,0,0,0,226.81,124.3Z" fill="#f0a70a"/><path d="M229.33,131.64v5.48a2.72,2.72,0,0,1-2.72,2.72h-6.22a2.72,2.72,0,0,1-2.72-2.72v-5.48Z" fill="#f14d58"/><path d="M223.36,139.84h-3a2.72,2.72,0,0,1-2.72-2.72v-5.48h3v5.48A2.72,2.72,0,0,0,223.36,139.84Z" fill="#ed1c29"/><path d="M230.54,132.68H216.46a.63.63,0,0,1-.63-.62v-2.15a.63.63,0,0,1,.63-.62h14.08a.62.62,0,0,1,.62.62v2.15A.62.62,0,0,1,230.54,132.68Z" fill="#40c1fa"/><path d="M229.33,136.73v.39a2.72,2.72,0,0,1-2.72,2.72h-6.22a2.72,2.72,0,0,1-2.72-2.72v-.39Z" fill="#e5646e"/><path d="M230.54,132.68H216.46a.63.63,0,0,1-.63-.62v-2.15a.63.63,0,0,1,.63-.62h14.08a.62.62,0,0,1,.62.62v2.15A.62.62,0,0,1,230.54,132.68Z" fill="#b2bec3"/><path d="M219.43,132.68h-3a.62.62,0,0,1-.63-.62v-2.15a.63.63,0,0,1,.63-.62h3a.63.63,0,0,0-.63.62v2.15A.62.62,0,0,0,219.43,132.68Z" fill="#07a9f0"/><path d="M223.36,139.84h-3a2.72,2.72,0,0,1-2.72-2.72v-.39h3v.39A2.72,2.72,0,0,0,223.36,139.84Z" fill="#e04955"/><path d="M223.36,139.84h-3a2.72,2.72,0,0,1-2.72-2.72v-.39h3v.39A2.72,2.72,0,0,0,223.36,139.84Z" fill="#e04955"/><path d="M223.5,98h0c-5.81,2.82-9.37,11.26-4,20.7l4,7.08Z" fill="#fff"/><path d="M223.51,98h0v27.78l4-7.08C232.88,109.26,229.32,100.82,223.51,98Z" fill="#dfe6e9"/><path d="M243.39,96l1.11,1,1.11-1,.84.76.55-.49L245.61,95l-1.11,1-1.11-1L242,96.25l.55.5Z" fill="#636e72"/><path d="M201.39,106l1.11,1,1.11-1,.84.76.55-.5L203.61,105l-1.11,1-1.11-1L200,106.25l.55.5Z" fill="#636e72"/><path d="M98.5,125l2,2,2-2L104,126.5l1-1L102.5,123l-2,2-2-2L96,125.51l1,1Z" fill="#636e72"/><path d="M85.5,100l2,2,2-2L91,101.5l1-1L89.5,98l-2,2-2-2L83,100.51l1,1Z" fill="#636e72"/><path d="M144.5,94l2,2,2-2L150,95.5l1-1L148.51,92l-2,2-2-2L142,94.51l1,1Z" fill="#636e72"/></svg>