<svg width="24" height="24" viewBox="0 0 24 24" fill="none" xmlns="http://www.w3.org/2000/svg">
<path d="M1 2H5L7.68 15.39C7.77144 15.8504 8.02191 16.264 8.38755 16.5583C8.75318 16.8526 9.2107 17.009 9.68 17H19.4C19.8693 17.009 20.3268 16.8526 20.6925 16.5583C21.0581 16.264 21.3086 15.8504 21.4 15.39L23 7H6M10 22C10 22.5523 9.55229 23 9 23C8.44772 23 8 22.5523 8 22C8 21.4477 8.44772 21 9 21C9.55229 21 10 21.4477 10 22ZM21 22C21 22.5523 20.5523 23 20 23C19.4477 23 19 22.5523 19 22C19 21.4477 19.4477 21 20 21C20.5523 21 21 21.4477 21 22Z" stroke="white" stroke-width="1.5" stroke-linecap="round" stroke-linejoin="round"/>
<path d="M14.3179 9.38414V14.4009" stroke="white" stroke-linecap="round"/>
<path d="M11.8611 11.8925L16.7747 11.8925" stroke="white" stroke-linecap="round"/>
</svg>
