<svg id="Layer_1" data-name="Layer 1" xmlns="http://www.w3.org/2000/svg" xmlns:xlink="http://www.w3.org/1999/xlink" viewBox="0 0 62 77"><defs><linearGradient id="linear-gradient" x1="31" y1="77.74" x2="31" y2="13.73" gradientTransform="matrix(1, 0, 0, -1, 0, 77.73)" gradientUnits="userSpaceOnUse"><stop offset="0" stop-color="#f1cc87"/><stop offset="1" stop-color="#e8ac3c"/></linearGradient></defs><ellipse cx="31.47" cy="74.09" rx="20.47" ry="2.09" fill="#ddd" fill-opacity="0.4"/><path d="M59.72,26.32,36.5,2.35a7.6,7.6,0,0,0-11,0l-23.22,24a8.2,8.2,0,0,0,0,11.35l23.22,24a7.62,7.62,0,0,0,11,0l23.22-24A8.2,8.2,0,0,0,59.72,26.32ZM31,48.05a3.21,3.21,0,1,1,3.11-3.21A3.16,3.16,0,0,1,31,48.05Zm3.11-16a3.11,3.11,0,1,1-6.22,0V19.15a3.11,3.11,0,1,1,6.22,0Z" fill-rule="evenodd" fill="url(#linear-gradient)"/><path d="M34.11,44.84A3.11,3.11,0,1,1,31,41.63,3.16,3.16,0,0,1,34.11,44.84Z" fill="#fff" fill-rule="evenodd"/><path d="M34.11,19.15V32a3.11,3.11,0,1,1-6.22,0V19.15a3.11,3.11,0,1,1,6.22,0Z" fill="#fff" fill-rule="evenodd"/></svg>