<svg id="Layer_1" data-name="Layer 1" xmlns="http://www.w3.org/2000/svg" xmlns:xlink="http://www.w3.org/1999/xlink" viewBox="0 0 62 77"><defs><linearGradient id="linear-gradient" x1="31" y1="64.01" x2="31" y2="128.06" gradientTransform="translate(0 -64)" gradientUnits="userSpaceOnUse"><stop offset="0" stop-color="#f14d58"/><stop offset="1" stop-color="#ed1c29"/></linearGradient></defs><path d="M59.72,26.35,36.5,2.35a7.62,7.62,0,0,0-10.77-.23l-.23.23-23.22,24a8.22,8.22,0,0,0,0,11.36l23.22,24a7.61,7.61,0,0,0,10.77.22l.23-.22,23.22-24A8.22,8.22,0,0,0,59.72,26.35ZM34.11,44.85A3.11,3.11,0,1,1,31,41.63a3.15,3.15,0,0,1,3.11,3.21Zm0-12.85a3.11,3.11,0,0,1-6.22,0V19.15a3.11,3.11,0,0,1,6.22,0Z" fill-rule="evenodd" fill="url(#linear-gradient)"/><path d="M34.11,44.84h0A3.11,3.11,0,1,1,31,41.63,3.15,3.15,0,0,1,34.11,44.84Z" fill="#fff" fill-rule="evenodd"/><path d="M34.11,19.15V32a3.11,3.11,0,0,1-6.22,0V19.15a3.11,3.11,0,0,1,6.22,0Z" fill="#fff" fill-rule="evenodd"/><ellipse cx="31.47" cy="74.09" rx="20.47" ry="2.09" fill="#ddd" fill-opacity="0.4"/></svg>