<svg viewBox="0 0 112 67" xmlns="http://www.w3.org/2000/svg" xmlns:xlink="http://www.w3.org/1999/xlink"><linearGradient id="a" gradientTransform="matrix(1 0 0 -1 0 67.73)" gradientUnits="userSpaceOnUse" x1="54.91" x2="55.41" y1="62.23" y2="14.32"><stop offset="0" stop-color="#f1cc87"/><stop offset="1" stop-color="#e8ac3c"/></linearGradient><path d="m55.16 53.31a23.91 23.91 0 1 0 -24.16-23.9 24 24 0 0 0 24.16 23.9z" fill="url(#a)"/><path d="m20.7 17.76a1.23 1.23 0 0 1 -.22.63 1.2 1.2 0 0 1 -.54.4 1.17 1.17 0 0 1 -.67 0 1.23 1.23 0 0 1 -.57-.34 14 14 0 0 0 -16.77-3.4 1.17 1.17 0 0 1 -.44.16 1.25 1.25 0 0 1 -.47 0 1.2 1.2 0 0 1 -.41-.21 1.16 1.16 0 0 1 -.3-.36 1.18 1.18 0 0 1 -.14-.45 1.22 1.22 0 0 1 .06-.46 1.13 1.13 0 0 1 .23-.4 1 1 0 0 1 .37-.33 16.39 16.39 0 0 1 19.57 3.9 1.14 1.14 0 0 1 .23.38 1.12 1.12 0 0 1 .07.45z" fill="#ef3743"/><path d="m9.43 19.44a1.12 1.12 0 0 1 -.37.8l-2 1.85a1.14 1.14 0 0 1 -.38.23 1.33 1.33 0 0 1 -.45.07 1.09 1.09 0 0 1 -.43-.11 1 1 0 0 1 -.37-.28 1.18 1.18 0 0 1 -.31-.83 1.36 1.36 0 0 1 .11-.44 1 1 0 0 1 .27-.36l2-1.84a1.17 1.17 0 0 1 1.27-.2 1.25 1.25 0 0 1 .5.44 1.23 1.23 0 0 1 .16.65z" fill="#fabfc3"/><path d="m17.68 37.94a1.1 1.1 0 0 1 -.37.8 1.15 1.15 0 0 1 -.83.31l-1.92-.05a1.14 1.14 0 0 1 -1.1-1.2 1.14 1.14 0 0 1 .37-.8 1.17 1.17 0 0 1 .82-.3l1.93.08a1.17 1.17 0 0 1 .8.38 1.13 1.13 0 0 1 .3.78z" fill="#fabfc3"/><path d="m25.43 38-.08 1.93a1.17 1.17 0 0 1 -.38.8 1.13 1.13 0 0 1 -.82.3 1.14 1.14 0 0 1 -1.1-1.2l.08-1.92a1.1 1.1 0 0 1 .37-.8 1.15 1.15 0 0 1 .83-.31 1.19 1.19 0 0 1 .8.38 1.17 1.17 0 0 1 .3.82z" fill="#23af6f"/><path d="m19 32.68a1.13 1.13 0 0 1 -.16.54 1.15 1.15 0 0 1 -.39.4 1.13 1.13 0 0 1 -.53.16 1.15 1.15 0 0 1 -.55-.1 10.67 10.67 0 0 0 -4.28-1.12 10.51 10.51 0 0 0 -4.37.7 1.17 1.17 0 0 1 -.88.05 1.13 1.13 0 0 1 -.66-.59 1.17 1.17 0 0 1 0-.88 1.14 1.14 0 0 1 .59-.65 12.92 12.92 0 0 1 10.61.4 1.12 1.12 0 0 1 .5.44 1.15 1.15 0 0 1 .17.65z" fill="#f4d9a5"/><path d="m15 .65a.66.66 0 0 1 .11-.36.62.62 0 0 1 .29-.24.7.7 0 0 1 .38 0 .72.72 0 0 1 .33.18 2.57 2.57 0 0 1 .59 1 2.56 2.56 0 0 1 .14 1.13 1.44 1.44 0 0 0 0 .62 1.46 1.46 0 0 0 .31.54 1.46 1.46 0 0 0 .54.31 1.5 1.5 0 0 0 .63 0 2.55 2.55 0 0 1 1.13.13 2.48 2.48 0 0 1 1 .6 2.6 2.6 0 0 1 .6 1 2.55 2.55 0 0 1 .13 1.13 1.35 1.35 0 0 0 0 .63 1.22 1.22 0 0 0 .33.54 1.36 1.36 0 0 0 .54.33 1.34 1.34 0 0 0 .63 0 2.66 2.66 0 0 1 1.12.13 2.72 2.72 0 0 1 1 .6.8.8 0 0 1 .15.21.74.74 0 0 1 .05.25.75.75 0 0 1 0 .22.6.6 0 0 1 -.14.21.64.64 0 0 1 -.22.14.53.53 0 0 1 -.25.05.54.54 0 0 1 -.25-.06.51.51 0 0 1 -.21-.15 1.41 1.41 0 0 0 -1.17-.35 2.55 2.55 0 0 1 -1.13-.13 2.6 2.6 0 0 1 -1-.6 2.48 2.48 0 0 1 -.6-1 2.43 2.43 0 0 1 -.13-1.13 1.34 1.34 0 0 0 0-.63 1.35 1.35 0 0 0 -.9-.83 1.22 1.22 0 0 0 -.63 0 2.66 2.66 0 0 1 -1.13-.12 2.72 2.72 0 0 1 -1-.6 2.71 2.71 0 0 1 -.59-1 2.83 2.83 0 0 1 -.14-1.12 1.31 1.31 0 0 0 0-.62 1.35 1.35 0 0 0 -.31-.53.6.6 0 0 1 -.15-.23.74.74 0 0 1 -.05-.25z" fill="#f57f87"/><path d="m90.29 16a1.27 1.27 0 0 1 -1.19-.81 1.4 1.4 0 0 1 -.08-.76 1.38 1.38 0 0 1 .36-.67 18.23 18.23 0 0 1 10.43-5.54 18 18 0 0 1 11.6 2.06 1.32 1.32 0 0 1 .56.8 1.37 1.37 0 0 1 -.15 1 1.31 1.31 0 0 1 -.77.6 1.33 1.33 0 0 1 -1-.12 15.32 15.32 0 0 0 -18.85 3.06 1.3 1.3 0 0 1 -.91.38z" fill="#ebb550"/><path d="m103.91 22a1 1 0 0 1 -.77-.4l-1.83-2.29a1.61 1.61 0 0 1 0-1.91.95.95 0 0 1 1.53 0l1.83 2.29a1.48 1.48 0 0 1 .3.7 1.76 1.76 0 0 1 -.06.79 1.4 1.4 0 0 1 -.41.61.94.94 0 0 1 -.59.21z" fill="#23af6f"/><path d="m99.64 41h-2.28a1.68 1.68 0 0 1 -1-.29.83.83 0 0 1 0-1.42 1.68 1.68 0 0 1 1-.29h2.28a1.68 1.68 0 0 1 1 .29.83.83 0 0 1 0 1.42 1.68 1.68 0 0 1 -1 .29z" fill="#fabfc3"/><path d="m90.5 40a1.55 1.55 0 0 1 -1.06-.4 1.29 1.29 0 0 1 -.44-1v-2.24a1.29 1.29 0 0 1 .44-1 1.6 1.6 0 0 1 2.12 0 1.29 1.29 0 0 1 .44 1v2.28a1.29 1.29 0 0 1 -.44 1 1.55 1.55 0 0 1 -1.06.36z" fill="#d3374e"/><path d="m98.25 31a1.14 1.14 0 0 1 -.79-.32 1.38 1.38 0 0 1 -.44-.8 1.53 1.53 0 0 1 .13-.92 1.37 1.37 0 0 1 .63-.63 12.92 12.92 0 0 1 11.56.07 1.36 1.36 0 0 1 .61.82 1.52 1.52 0 0 1 -.1 1.05 1.31 1.31 0 0 1 -.74.67 1.16 1.16 0 0 1 -1-.1 10.62 10.62 0 0 0 -4.71-1.08 10.81 10.81 0 0 0 -4.71 1.13 1.13 1.13 0 0 1 -.48.11z" fill="#f4d9a5"/><path d="m51.76 41a2.11 2.11 0 0 1 -1.49-.63l-7.67-7.9a2.11 2.11 0 0 1 0-3 2.06 2.06 0 0 1 2.94 0l6.14 6.31 12.7-14.09a2.07 2.07 0 0 1 2.94-.14 2.12 2.12 0 0 1 .14 3l-14.17 15.76a2 2 0 0 1 -1.49.69z" fill="#fff"/><ellipse cx="55.47" cy="64.09" fill="#ddd" fill-opacity=".4" rx="20.47" ry="2.09"/></svg>