<svg viewBox="0 0 24.3 24.86" xmlns="http://www.w3.org/2000/svg"><circle cx="12.15" cy="12.43" fill="#f5f5f5" r="11.58"/><path d="m17.36 20.72a9.66 9.66 0 0 1 -4.87 1.5h-.67a9.6 9.6 0 0 1 -4.88-1.5z" fill="#cb2027"/><path d="m19.21 19.21a9 9 0 0 1 -1.85 1.51h-10.42a9 9 0 0 1 -1.85-1.51z" fill="#fff"/><path d="m20.39 17.71a9 9 0 0 1 -1.18 1.5h-14.12a9 9 0 0 1 -1.18-1.5z" fill="#cb2027"/><path d="m21.19 16.2a12.12 12.12 0 0 1 -.57 1.14c-.07.13-.15.25-.23.37h-16.48c-.08-.12-.16-.24-.23-.37a12.12 12.12 0 0 1 -.57-1.14z" fill="#fff"/><path d="m21.67 14.69a8.84 8.84 0 0 1 -.48 1.51h-18.08a8.84 8.84 0 0 1 -.48-1.51z" fill="#cb2027"/><path d="m21.91 13.19a9.2 9.2 0 0 1 -.24 1.5h-19a9.2 9.2 0 0 1 -.24-1.5z" fill="#fff"/><path d="m2.39 11.72q0 .36 0 .72t0 .75h19.52q0-.37 0-.75c0-.26 0-.51 0-.76h-19.52z" fill="#cb2027"/><path d="m21.91 11.68h-19.52c0-.15 0-.29 0-.43a7.48 7.48 0 0 1 .19-1.07h19a9.2 9.2 0 0 1 .33 1.5z" fill="#fff"/><path d="m21.67 10.18h-19a5.27 5.27 0 0 1 .19-.68 6.55 6.55 0 0 1 .27-.74.13.13 0 0 1 0-.08h18.05a8.59 8.59 0 0 1 .49 1.5z" fill="#cb2027"/><path d="m21.18 8.67h-18.06a8.63 8.63 0 0 1 .54-1.1l.06-.09a.27.27 0 0 1 .06-.1l.11-.19h16.51c.08.12.16.25.23.38a8.94 8.94 0 0 1 .55 1.1z" fill="#fff"/><path d="m20.4 7.17h-16.5a9.3 9.3 0 0 1 .59-.81 4.94 4.94 0 0 1 .36-.44 2.83 2.83 0 0 1 .24-.25h14.11a9.71 9.71 0 0 1 1.2 1.5z" fill="#cb2027"/><path d="m19.2 5.66h-14.1a5.93 5.93 0 0 1 .44-.43.28.28 0 0 1 .1-.09 2.09 2.09 0 0 1 .28-.24.27.27 0 0 1 .08-.07c.24-.2.49-.38.75-.56l.11-.06a.47.47 0 0 1 .14-.06h10.4a9 9 0 0 1 1.8 1.51z" fill="#fff"/><path d="m17.35 4.15h-10.35l.14-.15h.12a9.54 9.54 0 0 1 4-1.27h.86a9.7 9.7 0 0 1 5.23 1.42z" fill="#cb2027"/><path d="m11.29 2.69v10.5h-8.9q0-.37 0-.75t0-.72c0-.15 0-.29 0-.43a7.48 7.48 0 0 1 .19-1.07 5.27 5.27 0 0 1 .19-.68 6.55 6.55 0 0 1 .27-.74.13.13 0 0 1 0-.08 8.63 8.63 0 0 1 .54-1.1l.06-.09a.27.27 0 0 1 .06-.1l.11-.19a9.3 9.3 0 0 1 .59-.81 4.94 4.94 0 0 1 .36-.44 2.83 2.83 0 0 1 .24-.25 5.93 5.93 0 0 1 .44-.43.28.28 0 0 1 .1-.09 2.09 2.09 0 0 1 .28-.24.27.27 0 0 1 .18-.15c.24-.2.49-.38.75-.56l.11-.06a.47.47 0 0 1 .14-.06l.14-.15h.12a9.54 9.54 0 0 1 4.03-1.31z" fill="#2b3660"/><g fill="#fff"><path d="m2.39 11.72.23.17-.07-.21-.06-.19.34-.24h-.39v.43z"/><path d="m3.84 7.54-.11-.08a.27.27 0 0 1 .06-.1z"/><path d="m4 8.67-.3.23.12.4-.33-.25-.34.25.12-.4-.2-.15a.13.13 0 0 1 0-.08h.24l.14-.39.12.39h.42z"/><path d="m3.51 10.02.12.39h.42l-.33.25.12.39-.33-.24-.34.24.12-.39-.33-.25h.42z"/><path d="m5 6.21.13.4-.35-.24-.33.24.08-.25a4.94 4.94 0 0 1 .36-.44v.06h.41z"/><path d="m4.75 7.33.13.39h.41l-.33.25.13.4-.34-.25-.34.25.13-.4-.34-.25h.42z"/><path d="m4.75 9.09.13.39h.41l-.33.25.13.4-.34-.25-.34.25.13-.4-.34-.25h.42z"/><path d="m4.75 10.85.13.39h.41l-.33.25.13.4-.34-.25-.34.25.13-.4-.34-.25h.42z"/><path d="m6.27 5.66v.12l-.16-.12-.11-.13-.18.13-.16.12v-.12l.09-.28-.22-.15a.28.28 0 0 1 .1-.09h.2l.08-.24a.27.27 0 0 1 .09-.07l.1.31h.42l-.34.24z"/><path d="m5.97 6.49.13.4h.42l-.34.25.13.39-.34-.24-.34.24.13-.39-.34-.25h.42z"/><path d="m5.97 8.25.13.4h.42l-.34.25.13.4-.34-.25-.34.25.13-.4-.34-.25h.42z"/><path d="m5.97 10.02.13.39h.42l-.34.25.13.39-.34-.24-.34.24.13-.39-.34-.25h.42z"/><path d="m7.42 4.46.13.39-.34-.24-.33.24.12-.39-.25-.19.11-.06h.22v-.06-.12l.18-.03.06.19v.06h.42z"/><path d="m7.21 5.57.13.39h.42l-.34.25.13.4-.34-.25-.33.25.12-.4-.33-.25h.41z"/><path d="m7.21 7.33.13.39h.42l-.34.25.13.4-.34-.25-.33.25.12-.4-.33-.25h.41z"/><path d="m7.21 9.09.13.39h.42l-.34.25.13.4-.34-.25-.33.25.12-.4-.33-.25h.41z"/><path d="m7.21 10.85.13.39h.42l-.34.25.13.4-.34-.25-.33.25.12-.4-.33-.25h.41z"/><path d="m8.44 4.73.13.4h.42l-.34.25.13.4-.34-.25-.34.25.13-.4-.34-.25h.42z"/><path d="m8.44 6.49.13.4h.42l-.34.25.13.39-.34-.24-.34.24.13-.39-.34-.25h.42z"/><path d="m8.44 8.25.13.4h.42l-.34.25.13.4-.34-.25-.34.25.13-.4-.34-.25h.42z"/><path d="m8.44 10.02.13.39h.42l-.34.25.13.39-.34-.24-.34.24.13-.39-.34-.25h.42z"/><path d="m9.68 3.81.13.4h.42l-.34.24.13.4-.34-.24-.34.24.13-.4-.34-.24h.42z"/><path d="m9.68 5.57.13.39h.42l-.34.25.13.4-.34-.25-.34.25.13-.4-.34-.25h.42z"/><path d="m9.68 7.33.13.39h.42l-.34.25.13.4-.34-.25-.34.25.13-.4-.34-.25h.42z"/><path d="m9.68 9.09.13.39h.42l-.34.25.13.4-.34-.25-.34.25.13-.4-.34-.25h.42z"/><path d="m9.68 10.85.13.39h.42l-.34.25.13.4-.34-.25-.34.25.13-.4-.34-.25h.42z"/></g></svg>