<svg viewBox="0 0 24.3 24.86" xmlns="http://www.w3.org/2000/svg"><circle cx="12.15" cy="12.43" fill="#f5f5f5" r="11.58"/><path d="m21.94 12.43q0 .38 0 .75a9.2 9.2 0 0 1 -.24 1.5 9.82 9.82 0 0 1 -.48 1.51q-.27.58-.57 1.14c-.07.13-.16.25-.24.37a8 8 0 0 1 -1.18 1.5 8.67 8.67 0 0 1 -1.84 1.51 9.69 9.69 0 0 1 -4.87 1.5h-.67a9.57 9.57 0 0 1 -4.88-1.5 9.32 9.32 0 0 1 -1.89-1.51 8.9 8.9 0 0 1 -1.17-1.5 2.85 2.85 0 0 1 -.23-.37 8.66 8.66 0 0 1 -.57-1.14 2.77 2.77 0 0 1 -.1-.26 7.83 7.83 0 0 1 -.38-1.25 10.43 10.43 0 0 1 -.25-1.5c0-.25 0-.5 0-.75s0-.48 0-.72c0-.15 0-.29.06-.43a7.48 7.48 0 0 1 .19-1.07 5.27 5.27 0 0 1 .19-.68 5.1 5.1 0 0 1 .18-.6 1.07 1.07 0 0 1 .07-.19s0-.05 0-.08a6.6 6.6 0 0 1 .54-1.1.47.47 0 0 1 .06-.09.27.27 0 0 1 .06-.1l.1-.19a7.7 7.7 0 0 1 .6-.81 4.94 4.94 0 0 1 .36-.44 2.83 2.83 0 0 1 .24-.25 4.47 4.47 0 0 1 .44-.43l.09-.09a3.07 3.07 0 0 1 .29-.24.19.19 0 0 1 .15-.1c.24-.2.49-.38.75-.56l.11-.06s.06 0 .09-.06l.18-.14s.07 0 .13 0c.28-.16.57-.31.86-.45a9.56 9.56 0 0 1 3.17-.82 8.06 8.06 0 0 1 .85 0 9.8 9.8 0 0 1 4 .86 9.54 9.54 0 0 1 1.18.64 9.26 9.26 0 0 1 1.88 1.42 9.65 9.65 0 0 1 1.19 1.51 3 3 0 0 1 .24.38c.2.36.38.73.55 1.12a9.51 9.51 0 0 1 .49 1.51 9.2 9.2 0 0 1 .24 1.5c.02.25.03.5.03.76z" fill="#cc2027"/><g fill="#f7de29"><path d="m6.24 10.59.63-1.95-1.66-1.22h2.06l.64-1.95.63 1.95 2.06.01-1.66 1.21.63 1.95-1.66-1.21z"/><path d="m11.96 11.64.7.29.48-.58-.05.75.69.28-.73.18-.05.74-.4-.63-.72.18.48-.57z"/><path d="m15.71 7.89-.73-.13-.35.66-.11-.74-.73-.13.67-.33-.11-.74.53.54.67-.33-.35.66z"/><path d="m14.15 11.23.23-.71-.6-.44h.75l.23-.71.23.71h.75l-.61.44.23.71-.6-.43z"/><path d="m12 4.75.68.31.51-.54-.09.74.67.32-.73.14-.09.74-.36-.65-.74.14.51-.55z"/></g></svg>