<svg width="21" height="21" viewBox="0 0 21 21" fill="none" xmlns="http://www.w3.org/2000/svg">
<path d="M10.0074 20.4956C15.5343 20.4956 20.0148 15.9075 20.0148 10.2478C20.0148 4.58809 15.5343 0 10.0074 0C4.48047 0 0 4.58809 0 10.2478C0 15.9075 4.48047 20.4956 10.0074 20.4956Z" fill="#F5F5F5" fill-opacity="0.5"/>
<path d="M18.4669 10.2484C18.4651 12.1536 17.8501 14.0051 16.717 15.5162C15.584 17.0274 13.9961 18.1139 12.1992 18.6077C10.4022 19.1015 8.49646 18.975 6.77684 18.2477C5.05721 17.5205 3.61964 16.233 2.68664 14.5847C2.03537 13.4341 1.6515 12.1455 1.56478 10.8186C1.47806 9.49164 1.69081 8.16209 2.18655 6.93291C2.68229 5.70372 3.44771 4.60791 4.42352 3.73034C5.39932 2.85278 6.55931 2.21704 7.81363 1.87236C9.06795 1.52769 10.3829 1.48333 11.6567 1.74274C12.9304 2.00214 14.1287 2.55833 15.1588 3.36823C16.1889 4.17813 17.0231 5.22 17.5968 6.41311C18.1704 7.60622 18.4681 8.91856 18.4669 10.2484V10.2484Z" fill="#C93628"/>
<path d="M7.43438 13.125L8.04375 10.4906L6 8.71875L8.7 8.48438L9.75 6L10.8 8.48438L13.5 8.71875L11.4563 10.4906L12.0656 13.125L9.75 11.7281L7.43438 13.125Z" fill="#FFFF54"/>
</svg>
