<svg width="35" height="35" viewBox="0 0 35 35" fill="none" xmlns="http://www.w3.org/2000/svg">
<rect width="35" height="35" rx="5" fill="#FA464D"/>
<path d="M12.5483 23.1907C12.5701 23.1973 12.5931 23.2006 12.6129 23.2112C13.0408 23.4338 13.4488 23.3741 13.7922 23.0314C15.4884 21.3365 17.1833 19.641 18.8788 17.9455C19.6853 17.1389 20.4919 16.3324 21.2984 15.5259L21.4637 15.3606C21.4657 15.4563 21.468 15.516 21.4683 15.5757C21.4683 17.2052 21.4683 18.8348 21.4686 20.464C21.4686 20.9245 21.7935 21.2996 22.2511 21.3685C22.7046 21.4368 23.1599 21.1577 23.2839 20.725C23.3119 20.627 23.31 20.5181 23.31 20.4146C23.3136 18.1276 23.3149 15.8402 23.3182 13.5536C23.3182 13.4434 23.3251 13.3329 23.338 13.2231C23.4116 12.5841 22.9144 12.1061 22.2752 12.149C21.684 12.1886 21.0893 12.1744 20.4958 12.1754C18.6397 12.1797 16.7828 12.182 14.9266 12.1803C14.5608 12.18 14.2626 12.304 14.063 12.6125C13.6761 13.2105 14.1076 13.995 14.8382 14.0204C15.2337 14.0339 15.6296 14.024 16.0254 14.024C17.3291 14.024 18.6327 14.024 19.9364 14.024C19.9872 14.024 20.0383 14.027 20.1317 14.0299C20.0614 14.1002 20.0146 14.147 19.9677 14.1939C17.5069 16.6547 15.0461 19.1155 12.5852 21.5764C12.101 22.0606 12.0469 22.3225 12.3025 22.9443L12.5496 23.1914L12.5483 23.1907Z" fill="white"/>
</svg>
