<svg width="35" height="35" viewBox="0 0 35 35" fill="none" xmlns="http://www.w3.org/2000/svg">
<rect width="35" height="35" rx="5" fill="#DD0101"/>
<g clip-path="url(#clip0_804_1515)">
<path d="M25.8739 10.5025L21.4245 6.12384C21.3436 6.04423 21.2268 6 21.1099 6H13.5593C12.9032 6 12.3369 6.35383 12.0312 6.87574H19.3301C19.6897 6.87574 20.0223 7.00842 20.2739 7.25611L24.7234 11.6348C24.9751 11.8825 25.1099 12.2098 25.1099 12.5636V25.0097C25.6402 24.7089 25.9998 24.1516 25.9998 23.5059V10.8121C25.9998 10.6971 25.9548 10.5821 25.8739 10.5025Z" fill="white"/>
<path d="M19.6449 7.87531C19.564 7.79569 19.4472 7.75146 19.3303 7.75146H11.7798C10.8 7.75146 10 8.53874 10 9.50294V25.2485C10 26.2127 10.8 27 11.7798 27H22.4494C23.4292 27 24.2292 26.2127 24.2292 25.2485V12.5636C24.2292 12.4486 24.1843 12.3336 24.1034 12.254L19.6449 7.87531ZM16.2202 15.182C16.2202 14.9431 16.418 14.7485 16.6607 14.7485H17.991C18.2337 14.7485 18.4315 14.9431 18.4315 15.182V16.9334C18.4315 17.1723 18.2337 17.3669 17.991 17.3669H16.6607C16.418 17.3669 16.2202 17.1723 16.2202 16.9334V15.182ZM12.6607 16.0577C12.6607 15.3323 13.2629 14.7485 13.991 14.7485H14.8809C15.1236 14.7485 15.3213 14.9431 15.3213 15.182V16.9334C15.3213 17.1723 15.1236 17.3669 14.8809 17.3669H13.1011C12.8584 17.3669 12.6607 17.1723 12.6607 16.9334V16.0577ZM15.3303 23.9305C15.3303 24.1693 15.1326 24.3639 14.8899 24.3639H14C13.2629 24.3639 12.6697 23.7713 12.6697 23.0548V22.179C12.6697 21.9402 12.8674 21.7456 13.1101 21.7456H14.8899C15.1326 21.7456 15.3303 21.9402 15.3303 22.179V23.9305ZM18.8899 23.9305C18.8899 24.1693 18.6921 24.3639 18.4494 24.3639H16.6697C16.427 24.3639 16.2292 24.1693 16.2292 23.9305V22.179C16.2292 21.9402 16.427 21.7456 16.6697 21.7456H18.4494C18.6921 21.7456 18.8899 21.9402 18.8899 22.179V23.9305ZM21.5596 23.0548C21.5596 23.7801 20.9573 24.3639 20.2292 24.3639C19.9865 24.3639 19.7888 24.1693 19.7888 23.9305V21.3033C19.7888 21.0644 19.591 20.8698 19.3483 20.8698H13.1101C12.8674 20.8698 12.6697 20.6752 12.6697 20.4364V18.6849C12.6697 18.4461 12.8674 18.2515 13.1101 18.2515H21.1101C21.3528 18.2515 21.5506 18.4461 21.5506 18.6849V23.0636L21.5596 23.0548ZM21.5596 16.9334C21.5596 17.1723 21.3618 17.3669 21.1191 17.3669H19.7888C19.5461 17.3669 19.3483 17.1723 19.3483 16.9334V15.182C19.3483 14.9431 19.5461 14.7485 19.7888 14.7485H20.2292C20.9663 14.7485 21.5596 15.3412 21.5596 16.0577V16.9334Z" fill="white"/>
</g>
<defs>
<clipPath id="clip0_804_1515">
<rect width="16" height="21" fill="white" transform="translate(10 6)"/>
</clipPath>
</defs>
</svg>
