<svg width="35" height="35" viewBox="0 0 35 35" fill="none" xmlns="http://www.w3.org/2000/svg">
<rect width="35" height="35" rx="5" fill="#EFCA19" fill-opacity="0.96"/>
<path d="M26.5996 15.6915C26.6328 15.2525 27.0511 14.9688 27.4362 15.1475C27.861 15.3451 28.2779 15.5617 28.6919 15.7819C28.9739 15.9322 29.0741 16.2603 28.9421 16.5389C28.808 16.8219 28.4791 16.9495 28.1856 16.8095C27.7622 16.6082 27.3461 16.3901 26.9285 16.1772C26.8787 16.1517 26.8217 16.1181 26.7951 16.0722C26.7222 15.9497 26.6638 15.8191 26.5996 15.6915Z" fill="white"/>
<path d="M27.2284 11.2934C26.9182 11.2919 26.7043 11.135 26.6276 10.8905C26.5525 10.6519 26.6284 10.3753 26.8568 10.2512C27.3116 10.0031 27.7743 9.76884 28.2473 9.5594C28.5159 9.44044 28.8349 9.60464 28.9502 9.86882C29.0678 10.1381 28.9714 10.4578 28.7043 10.5993C28.2809 10.8248 27.8488 11.035 27.4181 11.2459C27.3459 11.2809 27.259 11.2861 27.2284 11.2934Z" fill="white"/>
<path d="M25.3992 13.3166C25.4164 16.2072 22.8757 18.6346 19.8158 18.65C16.6327 18.6662 14.1026 16.328 14.0735 13.344C14.0451 10.4443 16.585 8.01481 19.6591 8.00007C22.8317 7.98533 25.3813 10.3467 25.3992 13.3173V13.3166ZM20.3321 10.9672C20.3277 10.9258 20.3269 10.8893 20.3187 10.8535C20.256 10.5755 19.9994 10.3734 19.721 10.3811C19.4442 10.3888 19.1905 10.5853 19.1517 10.8584C19.1338 10.9819 19.0801 11.0149 18.9689 11.0465C18.2638 11.2459 17.8042 11.898 17.8796 12.5817C17.9549 13.2668 18.5444 13.8136 19.2808 13.8691C19.5487 13.8894 19.8195 13.8775 20.0881 13.8936C20.2739 13.9049 20.3933 14.0277 20.403 14.1926C20.4135 14.3695 20.3284 14.4903 20.1463 14.5394C20.0784 14.5577 20.0046 14.5619 19.9329 14.5626C19.6442 14.5654 19.3547 14.5591 19.0659 14.5668C18.7779 14.5745 18.5459 14.7851 18.5108 15.0539C18.4787 15.3052 18.657 15.5636 18.9189 15.6422C18.9868 15.6625 19.057 15.6745 19.1241 15.6892C19.2055 16.0676 19.4368 16.2816 19.7494 16.2711C20.0732 16.2606 20.2918 16.0346 20.3381 15.6534C20.3888 15.6394 20.4441 15.6239 20.4993 15.6078C21.2186 15.3993 21.6737 14.7388 21.5834 14.034C21.4961 13.3566 20.8888 12.8224 20.1486 12.781C19.9128 12.7677 19.6755 12.7796 19.439 12.7684C19.192 12.7572 19.0458 12.6091 19.0622 12.4048C19.0779 12.2132 19.2278 12.0945 19.4756 12.0903C19.7845 12.0854 20.0934 12.0966 20.4023 12.0847C20.8186 12.0693 21.0798 11.6628 20.9067 11.3098C20.7962 11.0851 20.5888 10.9932 20.3336 10.9672H20.3321Z" fill="white"/>
<path d="M13.3643 21.7148C13.6075 21.7148 13.8433 21.707 14.0783 21.7176C14.2208 21.7239 14.2775 21.6762 14.3268 21.5498C14.6551 20.7082 15.2557 20.1438 16.2153 19.9676C16.3943 19.9346 16.5809 19.9213 16.7637 19.9206C18.0127 19.9164 19.2618 19.9164 20.5108 19.9192C21.2152 19.9213 21.7114 20.3053 21.8352 20.9335C21.9576 21.5561 21.4711 22.2181 20.8011 22.2805C20.3191 22.3255 19.8296 22.3051 19.3439 22.3121C19.1073 22.3156 18.8701 22.3079 18.6343 22.317C18.3343 22.329 18.1038 22.5445 18.0769 22.8224C18.0515 23.0878 18.2597 23.3889 18.55 23.3938C19.4416 23.41 20.3355 23.4121 21.2264 23.3714C21.6278 23.3531 21.9494 23.1025 22.2337 22.8337C23.1477 21.9703 24.061 21.1076 24.981 20.2498C25.6898 19.5893 26.7001 19.4924 27.4791 20.0027C27.5761 20.0659 27.6693 20.1361 27.7522 20.2147C27.9812 20.4309 27.9932 20.7306 27.788 20.9679C27.7425 21.0205 27.691 21.069 27.6402 21.1167C26.2875 22.3893 24.928 23.6557 23.5857 24.9367C22.9582 25.5355 22.2195 25.8169 21.3286 25.8134C18.7581 25.8036 16.1877 25.8099 13.6172 25.8099H13.3643V21.7141V21.7148Z" fill="white"/>
<path d="M12.1629 23.7684C12.1629 24.6283 12.1636 25.4875 12.1629 26.3473C12.1629 26.7966 11.9428 26.9987 11.4623 26.9995C10.8572 26.9995 10.252 27.0002 9.64765 26.9995C9.2425 26.9987 9 26.7699 9 26.3874C9 24.6374 9 22.8867 9 21.1368C9 20.7535 9.23503 20.5226 9.64541 20.5184C10.2699 20.5128 10.8945 20.5128 11.5197 20.5184C11.9323 20.5219 12.1629 20.7451 12.1636 21.1347C12.1659 22.0128 12.1637 22.891 12.1644 23.7691L12.1629 23.7684Z" fill="white"/>
<path d="M12.7112 15.7123C12.709 15.9278 12.6112 16.097 12.409 16.1959C11.9785 16.4058 11.5465 16.6115 11.1085 16.8059C10.8048 16.9407 10.4653 16.8186 10.3273 16.5455C10.19 16.2731 10.29 15.9636 10.5839 15.8176C11.0122 15.6049 11.4442 15.3971 11.8837 15.2062C12.2814 15.0335 12.7127 15.3052 12.712 15.7123H12.7112Z" fill="white"/>
<path d="M12.7104 10.9369C12.7126 11.3286 12.3037 11.6122 11.9224 11.4535C11.4501 11.2577 10.989 11.0352 10.5353 10.8028C10.2764 10.6701 10.2003 10.3564 10.3257 10.1058C10.4473 9.8629 10.751 9.70988 11.0121 9.81798C11.5135 10.0265 12.0075 10.2574 12.4835 10.5122C12.6134 10.5817 12.6693 10.7726 12.7589 10.9074C12.7424 10.9172 12.7268 10.9264 12.7104 10.9362V10.9369Z" fill="white"/>
</svg>
