<svg width="35" height="35" viewBox="0 0 35 35" fill="none" xmlns="http://www.w3.org/2000/svg">
<rect width="35" height="35" rx="5" fill="#5A91FC"/>
<path d="M26.3454 20.0885H22.2958C22.2958 19.9147 22.2974 19.749 22.2958 19.5833C22.2889 18.7764 21.8165 18.2832 21.0482 18.2832C18.3792 18.2832 15.7103 18.2832 13.0414 18.2832C12.9661 18.2832 12.89 18.2832 12.8301 18.2832V14.0483C13.0775 14.0483 13.3318 14.0483 13.586 14.0483C13.7912 14.0483 13.9955 14.0515 14.2007 14.0483C14.9036 14.0346 15.3592 13.5527 15.3623 12.8158C15.3646 12.2928 15.3623 11.7699 15.3623 11.2478C15.3623 11.1762 15.3623 11.1038 15.3623 11.0153H17.0809V9.8037H14.2168V8.60257H17.087V8H18.2433V8.58246H21.1219V9.79727H18.2602V11.0008H19.9811V11.2365C19.9811 11.7796 20.0026 12.3234 19.9757 12.8648C19.9419 13.5511 20.3798 14.0394 21.0797 14.0322C23.3937 14.0089 25.3797 15.5326 26.098 17.8286C26.3262 18.5575 26.3761 19.3065 26.3454 20.0885Z" fill="white"/>
<path d="M24.436 21.2109C24.9707 21.8915 25.5108 22.5271 25.9925 23.2085C26.329 23.6832 26.6202 24.2021 26.8714 24.7323C27.6174 26.3059 26.5702 28.1329 25.0537 28.5014C23.3642 28.9117 21.7686 27.6269 21.7194 25.8087C21.7094 25.4282 21.8162 25.0702 21.9652 24.7258C22.3402 23.8578 22.8802 23.1039 23.4618 22.3807C23.7699 21.9977 24.0895 21.6261 24.436 21.2117V21.2109Z" fill="white"/>
<path d="M9.00077 19.4897V12.8325C9.72908 12.8566 10.4843 12.6788 11.1066 13.258C11.4569 13.5839 11.6759 13.9877 11.6805 14.4833C11.6912 15.6024 11.6974 16.7222 11.6797 17.8413C11.6651 18.7303 10.9237 19.4753 10.0763 19.4897C9.72447 19.4954 9.37338 19.4905 9 19.4905L9.00077 19.4897Z" fill="white"/>
</svg>
