<svg width="35" height="35" viewBox="0 0 35 35" fill="none" xmlns="http://www.w3.org/2000/svg">
<rect width="35" height="35" rx="5" fill="#FDCF09"/>
<path fill-rule="evenodd" clip-rule="evenodd" d="M21.4047 23.5984C25.0563 22.0188 27.4188 18.4234 27.4188 14.4438C27.4188 13.7406 27.3437 13.0422 27.1984 12.3531L26.1297 9.54062C24.3625 6.40469 21.0437 4.46875 17.4437 4.46875C11.9359 4.46875 7.46875 8.93594 7.46875 14.4438C7.46875 18.4234 9.83125 22.0188 13.4828 23.5984H21.4047Z" fill="white" fill-opacity="0.04"/>
<path d="M28.9609 7.49688C27.8406 7.49688 26.8703 8.11563 26.35 9.025C24.4609 5.92188 21.0859 4 17.4391 4C11.6875 4 7 8.68281 7 14.4438C7 18.4703 9.32031 22.0984 12.925 23.8375L12.1234 26.6125H11.4719C10.4688 26.6125 9.65313 27.4281 9.65313 28.4312C9.65313 29.4344 10.4688 30.25 11.4719 30.25H23.4062C24.4094 30.25 25.225 29.4344 25.225 28.4312C25.225 27.4281 24.4094 26.6125 23.4062 26.6125H22.7547L21.9531 23.8375C25.5578 22.1031 27.8828 18.475 27.8828 14.4484C27.8828 14.0734 27.8594 13.6937 27.8219 13.3187C28.1734 13.4641 28.5578 13.5438 28.9609 13.5438C30.625 13.5438 31.9797 12.1891 31.9797 10.525C31.9797 8.86094 30.625 7.50625 28.9609 7.50625V7.49688ZM21.2922 21.5266L20.8703 20.0641C21.2547 20.1625 21.5547 20.5 21.5547 20.9125C21.5547 21.1516 21.4516 21.3672 21.2922 21.5266ZM17.4437 17.1156C15.9719 17.1156 14.7719 15.9156 14.7719 14.4438C14.7719 12.9719 15.9766 11.7719 17.4437 11.7719C18.2969 11.7719 19.1266 12.1609 19.6656 13H17.4437C16.6469 13 16 13.6469 16 14.4438C16 15.2406 16.6469 15.8875 17.4437 15.8875H19.6656C19.1828 16.6328 18.3625 17.1156 17.4437 17.1156ZM13.9609 20.2469C13.6797 20.0969 13.4875 19.8063 13.4875 19.4688C13.4875 18.9766 13.8859 18.5781 14.3781 18.5781C14.3969 18.5781 14.4156 18.5922 14.4391 18.5922L13.9609 20.2469ZM13.4781 13.2531C13.4781 12.7703 13.8859 12.3625 14.3687 12.3625C14.4062 12.3625 14.4437 12.3766 14.4812 12.3812C14.1578 12.8453 13.9563 13.3891 13.8766 13.9703C13.6422 13.8063 13.4781 13.5484 13.4781 13.2484V13.2531ZM20.0922 12.0437C19.6984 11.6078 19.2203 11.2609 18.6672 11.0594C18.8172 10.7781 19.1125 10.5813 19.45 10.5813C19.9422 10.5813 20.3406 10.9797 20.3406 11.4719C20.3406 11.6922 20.2328 11.8844 20.0922 12.0437ZM17.4437 14.95C17.1625 14.95 16.9375 14.7203 16.9375 14.4438C16.9375 14.1672 17.1672 13.9375 17.4437 13.9375H21.8031C22.0141 13.9375 22.2016 13.7969 22.2578 13.5906L23.1156 10.3891C23.1766 10.1687 23.3781 10.0141 23.6078 10.0141H25.9937C25.9656 10.1781 25.9422 10.3469 25.9422 10.5203C25.9422 10.6937 25.9656 10.8625 25.9937 11.0266H24.3578C24.1469 11.0266 23.9594 11.1672 23.9031 11.3734L23.0453 14.575C22.9844 14.7953 22.7828 14.95 22.5531 14.95H17.4391H17.4437ZM7.9375 14.4438C7.9375 9.20312 12.2031 4.9375 17.4437 4.9375C20.5844 4.9375 23.5 6.5125 25.2625 9.07187H23.6078C22.9563 9.07187 22.3797 9.5125 22.2109 10.1453L21.4469 12.9953H20.7109C20.6875 12.9484 20.6641 12.9016 20.6406 12.8547C21.0391 12.5125 21.2828 12.0109 21.2828 11.4719C21.2828 10.4641 20.4625 9.64375 19.4547 9.64375C18.6672 9.64375 18.0062 10.1641 17.7578 10.8813C17.6547 10.8719 17.5562 10.8344 17.4484 10.8344C16.5906 10.8344 15.8125 11.1484 15.1937 11.65C14.9406 11.5187 14.6687 11.4297 14.3781 11.4297C13.3703 11.4297 12.55 12.25 12.55 13.2578C12.55 14.0828 13.1312 14.7672 13.8953 14.9828C14.0125 15.7656 14.3687 16.4688 14.9078 17.0031L14.7109 17.6828C14.6031 17.6641 14.4953 17.6406 14.3875 17.6406C13.3797 17.6406 12.5594 18.4609 12.5594 19.4688C12.5594 20.2281 13.0375 20.8703 13.7125 21.1469L13.2016 22.9188C10 21.3109 7.94687 18.0578 7.94687 14.4438H7.9375ZM24.2922 28.4312C24.2922 28.9187 23.8984 29.3125 23.4109 29.3125H11.4766C10.9891 29.3125 10.5953 28.9141 10.5953 28.4312C10.5953 27.9484 10.9937 27.55 11.4766 27.55H23.4109C23.8984 27.55 24.2922 27.9484 24.2922 28.4312ZM16.0609 26.6125L16.3844 23.2516C16.4359 22.7219 16.7875 22.1547 17.4391 22.1547C18.0906 22.1547 18.4469 22.7219 18.4938 23.2516L18.8172 26.6125H16.0562H16.0609ZM19.7594 26.6125L19.4266 23.1625C19.3187 22.0328 18.4797 21.2172 17.4344 21.2172C16.3891 21.2172 15.5547 22.0375 15.4469 23.1625L15.1141 26.6125H13.0938L15.7 17.5938C16.2156 17.8797 16.8063 18.0578 17.4391 18.0578C18.0719 18.0578 18.6484 17.8609 19.1687 17.5703L21.7797 26.6125H19.7594ZM21.6906 22.9234L21.5641 22.4875C22.1219 22.1687 22.4875 21.5828 22.4875 20.9172C22.4875 19.9094 21.6672 19.0891 20.6594 19.0891C20.6359 19.0891 20.6125 19.0984 20.5844 19.0984L19.9656 16.9609C20.2703 16.6562 20.5187 16.3 20.6969 15.8922H22.5437C23.1953 15.8922 23.7719 15.4516 23.9406 14.8188L24.7047 11.9688H26.3172C26.4391 12.1891 26.5797 12.3906 26.7484 12.5734C26.8703 13.1875 26.9406 13.8203 26.9406 14.4484C26.9406 18.0625 24.8875 21.3203 21.6859 22.9234H21.6906ZM28.9562 12.6063C27.8078 12.6063 26.875 11.6734 26.875 10.525C26.875 9.37656 27.8078 8.44375 28.9562 8.44375C30.1047 8.44375 31.0375 9.37656 31.0375 10.525C31.0375 11.6734 30.1047 12.6063 28.9562 12.6063Z" fill="white"/>
<path d="M23.6592 15.9204C22.6514 15.9204 21.8311 16.7407 21.8311 17.7485C21.8311 18.7563 22.6514 19.5767 23.6592 19.5767C24.667 19.5767 25.4873 18.7563 25.4873 17.7485C25.4873 16.7407 24.667 15.9204 23.6592 15.9204ZM23.6592 18.6392C23.167 18.6392 22.7686 18.2407 22.7686 17.7485C22.7686 17.2563 23.167 16.8579 23.6592 16.8579C24.1514 16.8579 24.5498 17.2563 24.5498 17.7485C24.5498 18.2407 24.142 18.6392 23.6592 18.6392Z" fill="white"/>
<path d="M10.75 14.9077C9.74219 14.9077 8.92188 15.728 8.92188 16.7358C8.92188 17.7437 9.74219 18.564 10.75 18.564C11.7578 18.564 12.5781 17.7437 12.5781 16.7358C12.5781 15.728 11.7578 14.9077 10.75 14.9077ZM10.75 17.6265C10.2578 17.6265 9.85938 17.228 9.85938 16.7358C9.85938 16.2437 10.2578 15.8452 10.75 15.8452C11.2422 15.8452 11.6406 16.2437 11.6406 16.7358C11.6406 17.228 11.2422 17.6265 10.75 17.6265Z" fill="white"/>
<path d="M13.8105 11.1436C14.8184 11.1436 15.6387 10.3232 15.6387 9.31543C15.6387 8.30762 14.8184 7.4873 13.8105 7.4873C12.8027 7.4873 11.9824 8.30762 11.9824 9.31543C11.9824 10.3232 12.8027 11.1436 13.8105 11.1436ZM13.8105 8.42949C14.2934 8.42949 14.7012 8.83731 14.7012 9.32012C14.7012 9.81231 14.3027 10.2107 13.8105 10.2107C13.3184 10.2107 12.9199 9.80293 12.9199 9.32012C12.9199 8.83731 13.3277 8.42949 13.8105 8.42949Z" fill="white"/>
</svg>
