<svg width="35" height="35" viewBox="0 0 35 35" fill="none" xmlns="http://www.w3.org/2000/svg">
<rect width="35" height="35" rx="5" fill="#14BE11"/>
<g clip-path="url(#clip0_804_1545)">
<path d="M17.8396 9.00006C17.8213 9.00966 17.8043 9.02218 17.7848 9.02803C17.3657 9.15786 17.1413 9.45383 17.1409 9.88797C17.14 12.0337 17.1405 14.1789 17.1405 16.3246C17.1405 17.3453 17.1405 18.366 17.1405 19.3866V19.5958C17.0776 19.5365 17.0376 19.5002 16.9989 19.4626C15.9492 18.4315 14.8994 17.4004 13.8496 16.3697C13.553 16.0783 13.1021 16.0466 12.7629 16.2925C12.4267 16.5363 12.3133 17.0009 12.5122 17.3532C12.5572 17.433 12.6286 17.5006 12.6953 17.5661C14.1663 19.0155 15.6389 20.4636 17.1099 21.9126C17.1808 21.9823 17.2476 22.0566 17.31 22.1343C17.6743 22.5851 18.3024 22.573 18.6866 22.1414C19.0419 21.7423 19.4342 21.3749 19.8159 20.9988C21.0088 19.8216 22.2035 18.6452 23.4003 17.4718C23.6362 17.2405 23.7484 16.9733 23.6783 16.6519C23.5423 16.0287 22.759 15.8053 22.272 16.2516C22.0085 16.4933 21.7598 16.75 21.5048 17.0005C20.665 17.8254 19.8252 18.6502 18.9854 19.4751C18.9527 19.5073 18.9178 19.5377 18.8558 19.5949C18.8558 19.506 18.8558 19.4467 18.8558 19.3874C18.8558 16.2733 18.8558 13.1591 18.8558 10.0449C18.8558 9.43212 18.7219 9.23216 18.1566 9.00048H17.8383L17.8396 9.00006Z" fill="white"/>
<path d="M18.0076 24.9987C19.7084 24.9987 21.4097 25.0004 23.1106 24.9979C23.7345 24.9971 24.1497 24.4368 23.9487 23.8762C23.8331 23.5544 23.5305 23.3335 23.1794 23.3147C23.1476 23.3131 23.1157 23.3135 23.0842 23.3135C19.6927 23.3135 16.3012 23.3135 12.9101 23.3135C12.4528 23.3135 12.0953 23.5832 12.0171 23.9835C11.9121 24.5178 12.3019 24.9933 12.8569 24.9971C13.6198 25.0025 14.3831 24.9987 15.146 24.9987C16.0997 24.9987 17.0539 24.9987 18.0076 24.9987Z" fill="white"/>
</g>
<defs>
<clipPath id="clip0_804_1545">
<rect width="12" height="16" fill="white" transform="matrix(1 0 0 -1 12 25)"/>
</clipPath>
</defs>
</svg>
