<svg width="35" height="35" viewBox="0 0 35 35" fill="none" xmlns="http://www.w3.org/2000/svg">
<rect width="35" height="35" rx="5" fill="#EE1C25"/>
<path d="M14.7803 10.9213H20.2079C20.2124 10.8335 20.2205 10.7474 20.2205 10.6623C20.2205 9.49742 20.2178 8.33252 20.2223 7.16763C20.225 6.55561 20.5399 6.14879 21.0907 6.02423C21.6784 5.89072 22.2957 6.32532 22.3632 6.92389C22.3767 7.04217 22.3794 7.16225 22.3803 7.28143C22.3812 8.40152 22.3803 9.52161 22.3803 10.6417V10.932C22.4838 10.932 22.563 10.932 22.6431 10.932C23.3928 10.932 24.1433 10.9302 24.893 10.932C25.5058 10.9338 25.9909 11.4016 25.9999 11.993C26.0089 12.5871 25.5148 13.0737 24.8921 13.0808C24.6383 13.0835 24.3845 13.0808 24.0983 13.0808C24.0983 13.1839 24.0983 13.2699 24.0983 13.3559C24.0902 14.416 24.1118 15.4778 24.0659 16.5361C24.0038 17.9689 23.462 19.2315 22.5342 20.3229C21.5308 21.503 20.2565 22.2378 18.7311 22.5317C18.561 22.564 18.579 22.6572 18.579 22.7683C18.579 24.2244 18.5808 25.6805 18.579 27.1366C18.5781 27.703 18.1641 28.1653 17.6178 28.2245C17.0617 28.2845 16.5532 27.9091 16.4389 27.3463C16.42 27.2522 16.4218 27.1537 16.4218 27.0569C16.4209 25.6303 16.42 24.2038 16.4227 22.7781C16.4227 22.6375 16.4119 22.5613 16.2337 22.5272C13.5303 22.0093 11.4118 19.8292 10.9871 17.1248C10.9259 16.7359 10.9106 16.3372 10.9052 15.9429C10.8935 15.0764 10.9016 14.2108 10.9016 13.3443C10.9016 13.2645 10.9016 13.1848 10.9016 13.0817C10.6307 13.0817 10.385 13.0826 10.1393 13.0817C9.49677 13.0772 9 12.6059 9 12.0028C9 11.3989 9.49677 10.9329 10.142 10.932C10.8773 10.9311 11.6116 10.932 12.3469 10.932C12.4279 10.932 12.5098 10.932 12.6196 10.932C12.6196 10.8272 12.6196 10.7394 12.6196 10.6516C12.6196 9.48667 12.6151 8.32177 12.6214 7.15687C12.625 6.45614 13.092 5.98481 13.7436 6.00452C14.2638 6.01975 14.7011 6.41761 14.7605 6.93465C14.774 7.05293 14.7785 7.173 14.7785 7.29218C14.7794 8.4051 14.7785 9.51803 14.7785 10.6301C14.7785 10.7188 14.7785 10.8084 14.7785 10.9222L14.7803 10.9213Z" fill="white"/>
</svg>
