<svg width="35" height="35" viewBox="0 0 35 35" fill="none" xmlns="http://www.w3.org/2000/svg">
<rect width="35" height="35" rx="5" fill="#F55E09"/>
<path d="M23.0762 10H21.0683C21.0129 10.001 20.9583 10.0128 20.9077 10.0348C20.857 10.0567 20.8111 10.0884 20.7729 10.128C20.7346 10.1675 20.7046 10.2142 20.6846 10.2653C20.6646 10.3164 20.655 10.3708 20.6564 10.4256C20.6596 10.5327 20.704 10.6346 20.7806 10.7104C20.8571 10.7862 20.96 10.8302 21.0683 10.8334H23.0762C23.2633 10.8334 23.4428 10.9064 23.5759 11.0367C23.7089 11.1669 23.7846 11.3439 23.7867 11.5291V13.517C23.7839 13.6271 23.8255 13.7339 23.9023 13.8137C23.9791 13.8935 24.0847 13.9399 24.196 13.9426C24.3073 13.9453 24.4151 13.9041 24.4957 13.8281C24.5763 13.7521 24.6232 13.6475 24.6259 13.5374V11.5291C24.6259 11.3279 24.5858 11.1286 24.5078 10.9428C24.4299 10.7569 24.3157 10.5881 24.1717 10.4461C24.0277 10.304 23.8568 10.1915 23.6688 10.1149C23.4809 10.0384 23.2795 9.99934 23.0762 10Z" fill="white" stroke="white" stroke-width="0.7" stroke-linejoin="round"/>
<path d="M10.6913 13.9429C10.8032 13.9429 10.9106 13.8989 10.9898 13.8205C11.069 13.7421 11.1134 13.6358 11.1134 13.525V11.5295C11.1162 11.3432 11.1932 11.1654 11.3277 11.0351C11.4623 10.9048 11.6434 10.8324 11.8317 10.8337H13.8396C13.9509 10.8337 14.0576 10.79 14.1363 10.7121C14.215 10.6342 14.2592 10.5285 14.2592 10.4183C14.2592 10.3082 14.215 10.2025 14.1363 10.1246C14.0576 10.0467 13.9509 10.0029 13.8396 10.0029H11.8317C11.422 10.0029 11.0292 10.164 10.7395 10.4508C10.4498 10.7376 10.2871 11.1265 10.2871 11.532V13.5199C10.2871 13.6301 10.3313 13.7357 10.41 13.8136C10.4887 13.8915 10.5954 13.9353 10.7067 13.9353L10.6913 13.9429Z" fill="white" stroke="white" stroke-width="0.7" stroke-linejoin="round"/>
<path d="M13.8319 23.3797H11.8317C11.6434 23.379 11.4631 23.3047 11.33 23.1729C11.1969 23.0411 11.1218 22.8626 11.1212 22.6763V20.6884C11.1126 20.5864 11.0662 20.4911 10.9909 20.4208C10.9156 20.3505 10.8168 20.3103 10.7134 20.3077C10.61 20.3052 10.5092 20.3406 10.4306 20.4071C10.3519 20.4736 10.3008 20.5665 10.2871 20.668V22.6763C10.2871 23.0818 10.4498 23.4708 10.7395 23.7575C11.0292 24.0443 11.422 24.2054 11.8317 24.2054H13.8396C13.9455 24.1972 14.0444 24.1497 14.1166 24.0725C14.1888 23.9952 14.2288 23.8939 14.2288 23.7887C14.2288 23.6835 14.1888 23.5822 14.1166 23.5049C14.0444 23.4277 13.9455 23.3802 13.8396 23.372L13.8319 23.3797Z" fill="white" stroke="white" stroke-width="0.7" stroke-linejoin="round"/>
<path d="M24.2072 20.2705C24.096 20.2705 23.9892 20.3143 23.9105 20.3922C23.8319 20.4701 23.7876 20.5757 23.7876 20.6859V22.6738C23.787 22.8601 23.7119 23.0386 23.5788 23.1704C23.4457 23.3022 23.2654 23.3765 23.0771 23.3772H21.0692C21.0114 23.3715 20.9531 23.3777 20.8978 23.3954C20.8426 23.4131 20.7916 23.4418 20.7481 23.4799C20.7045 23.518 20.6694 23.5646 20.6449 23.6167C20.6204 23.6688 20.607 23.7254 20.6056 23.7829C20.6042 23.8403 20.6147 23.8975 20.6367 23.9507C20.6586 24.004 20.6913 24.0522 20.7329 24.0923C20.7745 24.1325 20.824 24.1637 20.8783 24.184C20.9326 24.2044 20.9906 24.2134 21.0486 24.2105H23.0771C23.4868 24.2105 23.8797 24.0494 24.1693 23.7627C24.459 23.4759 24.6217 23.087 24.6217 22.6814V20.6936C24.6227 20.6388 24.6128 20.5844 24.5925 20.5334C24.5722 20.4825 24.5419 20.436 24.5034 20.3967C24.4649 20.3574 24.4189 20.326 24.368 20.3043C24.3172 20.2827 24.2626 20.2712 24.2072 20.2705Z" fill="white" stroke="white" stroke-width="0.7" stroke-linejoin="round"/>
<path d="M9 17.426C9.01114 17.5466 9.06976 17.6581 9.1632 17.7363C9.25664 17.8145 9.3774 17.8532 9.49941 17.844H25.4907C25.5465 17.8548 25.6039 17.8544 25.6596 17.843C25.7152 17.8315 25.768 17.8092 25.8149 17.7773C25.8617 17.7454 25.9017 17.7046 25.9324 17.6572C25.963 17.6098 25.9839 17.5569 25.9937 17.5014C26.0034 17.446 26.0019 17.3892 25.9892 17.3343C25.9765 17.2794 25.9529 17.2276 25.9197 17.1819C25.8865 17.1362 25.8445 17.0975 25.796 17.0681C25.7475 17.0387 25.6936 17.0191 25.6374 17.0106C25.5888 17.003 25.5393 17.003 25.4907 17.0106H9.49941C9.37781 17.0014 9.2574 17.0397 9.16403 17.1174C9.07066 17.195 9.01177 17.3058 9 17.426V17.426Z" fill="white" stroke="white" stroke-width="0.7" stroke-linejoin="round"/>
</svg>
