<svg width="35" height="35" viewBox="0 0 35 35" fill="none" xmlns="http://www.w3.org/2000/svg">
<rect width="35" height="35" rx="5" fill="#681ACC"/>
<g clip-path="url(#clip0_804_1525)">
<path d="M17.7285 13.7782C14.3767 13.7782 11.012 13.7782 7.66024 13.7782C7.54377 13.7782 7.4273 13.7782 7.31083 13.7782C6.94848 13.791 6.67672 13.6377 6.58613 13.2927C6.49554 12.9605 6.66377 12.7177 6.94848 12.5388C8.22966 11.7593 9.52377 10.9799 10.805 10.2005C12.9144 8.9099 15.0367 7.6449 17.1461 6.34157C17.5602 6.08601 17.8838 6.08601 18.2979 6.34157C21.6497 8.39879 25.0144 10.4305 28.3791 12.4749C28.7026 12.6666 28.9614 12.8838 28.8579 13.2927C28.7414 13.7143 28.4049 13.791 28.0038 13.791C24.5744 13.791 21.1449 13.791 17.7155 13.791L17.7285 13.7782ZM17.7285 11.1843C17.8838 11.1843 18.052 11.1843 18.2073 11.1843C18.5826 11.146 18.7897 10.9288 18.8155 10.571C18.8285 10.2132 18.6214 9.95768 18.2591 9.91935C17.9097 9.88101 17.5344 9.88101 17.185 9.91935C16.8355 9.97046 16.6155 10.226 16.6414 10.5838C16.6673 10.9416 16.8873 11.146 17.2626 11.1843C17.4179 11.1843 17.5861 11.1843 17.7414 11.1843H17.7285Z" fill="white"/>
<path d="M17.7288 28.1406C14.3511 28.1406 10.9864 28.1406 7.60878 28.1406C6.7029 28.1406 6.56055 27.9872 6.56055 27.08C6.56055 26.7606 6.56055 26.4539 6.56055 26.1344C6.56055 25.2911 6.72878 25.125 7.56996 25.125C10.5076 25.125 13.4453 25.125 16.3829 25.125C20.2264 25.125 24.057 25.125 27.9005 25.125C28.7417 25.125 28.91 25.2911 28.91 26.1344C28.91 26.4667 28.91 26.7989 28.91 27.1183C28.91 27.9617 28.7417 28.1278 27.9005 28.1278C24.51 28.1278 21.1323 28.1278 17.7417 28.1278L17.7288 28.1406Z" fill="white"/>
<path d="M27.3306 15.0948C27.3306 15.3376 27.3435 15.5548 27.3306 15.7593C27.2917 16.1298 27.0847 16.3215 26.7094 16.3598C26.567 16.3598 26.4247 16.3598 26.2694 16.3598C20.5882 16.3598 14.907 16.347 9.22584 16.3598C8.13879 16.3598 8.02231 15.9637 8.15173 15.082H27.3176L27.3306 15.0948Z" fill="white"/>
<path d="M11.5812 23.8214H9.00586V17.6753H11.5812V23.8214Z" fill="white"/>
<path d="M13.9746 17.6631H16.524V23.822H13.9746V17.6631Z" fill="white"/>
<path d="M18.9189 17.6631H21.4684V23.8092H18.9189V17.6631Z" fill="white"/>
<path d="M26.4374 17.6885V23.8218H23.875V17.6885H26.4374Z" fill="white"/>
</g>
<defs>
<clipPath id="clip0_804_1525">
<rect width="22" height="23" fill="white" transform="translate(7 5)"/>
</clipPath>
</defs>
</svg>
