<svg width="35" height="35" viewBox="0 0 35 35" fill="none" xmlns="http://www.w3.org/2000/svg">
<rect width="35" height="35" rx="5" fill="#F1F1F1" fill-opacity="0.75"/>
<g clip-path="url(#clip0_804_1597)">
<path d="M10.145 25.379C10.0182 25.2828 9.84516 25.2347 9.62458 25.2347C9.48721 25.2347 9.35644 25.2628 9.22964 25.3202C9.10284 25.3777 8.99188 25.4498 8.89414 25.538C8.803 25.6208 8.73828 25.7063 8.69733 25.7944C8.6445 25.6341 8.5626 25.5046 8.44637 25.4084C8.30503 25.2922 8.12011 25.2334 7.89292 25.2334C7.77272 25.2334 7.65913 25.2548 7.55214 25.2989C7.44515 25.3429 7.34873 25.4017 7.26155 25.4765C7.17834 25.5473 7.11097 25.6261 7.05682 25.7089V25.4765C7.05682 25.4191 7.03832 25.371 7.00134 25.3322C6.96436 25.2935 6.9168 25.2748 6.85604 25.2748C6.79925 25.2748 6.7517 25.2948 6.71339 25.3322C6.67509 25.371 6.65527 25.4191 6.65527 25.4765V27.6833C6.65527 27.7407 6.67509 27.7901 6.71339 27.8302C6.7517 27.8703 6.79925 27.8903 6.85604 27.8903C6.91284 27.8903 6.96039 27.8703 6.9987 27.8302C7.037 27.7901 7.05682 27.7407 7.05682 27.6833V26.2967C7.05682 26.1685 7.08984 26.0536 7.1572 25.9507C7.22457 25.8479 7.31306 25.765 7.4227 25.7023C7.53233 25.6395 7.65385 25.6088 7.78858 25.6088C7.93519 25.6088 8.05011 25.6395 8.13332 25.7023C8.21654 25.765 8.27597 25.8479 8.31032 25.9507C8.34598 26.0536 8.36315 26.1685 8.36315 26.2967V27.6833C8.36315 27.7407 8.38164 27.7901 8.41995 27.8302C8.45825 27.8703 8.5058 27.8903 8.5626 27.8903C8.62204 27.8903 8.67091 27.8703 8.7079 27.8302C8.74488 27.7901 8.76337 27.7407 8.76337 27.6833V26.3114C8.76337 26.1791 8.79639 26.0603 8.86376 25.9547C8.9298 25.8479 9.02094 25.7637 9.13322 25.7023C9.24681 25.6395 9.37097 25.6088 9.50834 25.6088C9.65496 25.6088 9.77119 25.6395 9.85573 25.7023C9.94158 25.765 10.0023 25.8492 10.0406 25.9547C10.079 26.0616 10.0988 26.1805 10.0988 26.3114V27.6833C10.0988 27.7407 10.1173 27.7901 10.1542 27.8302C10.1912 27.8703 10.2401 27.8903 10.2995 27.8903C10.3563 27.8903 10.4039 27.8703 10.4422 27.8302C10.4805 27.7901 10.5003 27.7407 10.5003 27.6833V26.302C10.5003 26.103 10.4726 25.9227 10.4184 25.7637C10.3629 25.6034 10.2718 25.4752 10.145 25.379Z" fill="#EB1C29"/>
<path d="M13.0585 25.3871C12.863 25.2696 12.6437 25.2095 12.4007 25.2095C12.1576 25.2095 11.937 25.2682 11.7402 25.3871C11.5434 25.5047 11.3876 25.6677 11.2726 25.8734C11.1577 26.0791 11.0996 26.3142 11.0996 26.5773C11.0996 26.8405 11.1577 27.0756 11.2726 27.2813C11.3876 27.487 11.5434 27.6486 11.7402 27.7675C11.937 27.8851 12.1576 27.9452 12.4007 27.9452C12.6437 27.9452 12.863 27.8864 13.0585 27.7675C13.2539 27.65 13.4085 27.487 13.5234 27.2813C13.6383 27.0756 13.6964 26.8405 13.6964 26.5773C13.6964 26.3142 13.6383 26.0804 13.5234 25.8734C13.4085 25.6663 13.2539 25.506 13.0585 25.3871ZM13.1786 27.0876C13.1007 27.2359 12.9937 27.3534 12.8577 27.4389C12.723 27.5244 12.5697 27.5685 12.3993 27.5685C12.2289 27.5685 12.077 27.5257 11.941 27.4389C11.8063 27.3534 11.698 27.2359 11.6187 27.0876C11.5381 26.9393 11.4985 26.7684 11.4985 26.576C11.4985 26.3836 11.5381 26.2087 11.6187 26.0604C11.6993 25.9121 11.8063 25.7959 11.941 25.7117C12.0757 25.6276 12.2289 25.5848 12.3993 25.5848C12.5697 25.5848 12.7216 25.6276 12.8577 25.7117C12.9924 25.7959 13.0994 25.9121 13.1786 26.0604C13.2566 26.2087 13.2962 26.381 13.2962 26.576C13.2962 26.771 13.2566 26.938 13.1786 27.0876Z" fill="#EB1C29"/>
<path d="M16.119 25.352C15.9895 25.2572 15.8099 25.2104 15.584 25.2104C15.4638 25.2104 15.3489 25.2318 15.2393 25.2732C15.1297 25.316 15.0293 25.3721 14.9394 25.4429C14.8496 25.5137 14.7743 25.5938 14.7149 25.6833C14.7096 25.6913 14.7057 25.6994 14.7004 25.7074V25.4776C14.7004 25.4202 14.6819 25.3721 14.6449 25.3333C14.6079 25.2946 14.5604 25.2759 14.4996 25.2759C14.4428 25.2759 14.3953 25.2959 14.3569 25.3333C14.3186 25.3721 14.2988 25.4202 14.2988 25.4776V27.6844C14.2988 27.7418 14.3173 27.7912 14.3569 27.8313C14.3953 27.8714 14.4428 27.8914 14.4996 27.8914C14.5564 27.8914 14.6039 27.8714 14.6423 27.8313C14.6806 27.7912 14.7004 27.7418 14.7004 27.6844V26.2724C14.7004 26.1442 14.736 26.0293 14.806 25.9264C14.876 25.8236 14.9698 25.7408 15.0861 25.678C15.2023 25.6152 15.3317 25.5845 15.4718 25.5845C15.625 25.5845 15.7465 25.6152 15.835 25.678C15.9235 25.7408 15.9869 25.8236 16.0252 25.9264C16.0635 26.0293 16.0833 26.1442 16.0833 26.2724V27.6844C16.0833 27.7418 16.1018 27.7912 16.1401 27.8313C16.1784 27.8714 16.226 27.8914 16.2828 27.8914C16.3396 27.8914 16.3871 27.8714 16.4254 27.8313C16.4637 27.7912 16.4835 27.7418 16.4835 27.6844V26.2631C16.4835 26.068 16.4558 25.8904 16.4003 25.7314C16.3448 25.5725 16.2524 25.4469 16.1229 25.352H16.119Z" fill="#EB1C29"/>
<path d="M19.1159 25.5461C19.0062 25.4366 18.8794 25.3524 18.7355 25.295C18.5915 25.2375 18.4436 25.2095 18.2903 25.2095C18.083 25.2095 17.8875 25.2642 17.7025 25.3738C17.5176 25.4833 17.3671 25.6423 17.2521 25.8493C17.1372 26.0564 17.0791 26.3075 17.0791 26.6C17.0791 26.8632 17.1346 27.0956 17.2469 27.296C17.3591 27.4964 17.515 27.654 17.7144 27.7689C17.9152 27.8837 18.1477 27.9412 18.4145 27.9412C18.5941 27.9412 18.7645 27.9011 18.9243 27.8223C19.0842 27.7435 19.211 27.6513 19.3048 27.5458C19.3576 27.5017 19.3853 27.4509 19.3853 27.3935C19.3853 27.3468 19.3695 27.3053 19.3378 27.2719C19.3061 27.2386 19.2651 27.2212 19.2149 27.2212C19.1753 27.2212 19.133 27.2359 19.0895 27.2666C19.0459 27.3134 18.993 27.3601 18.9296 27.4055C18.8662 27.4509 18.7909 27.4883 18.7051 27.5191C18.6179 27.5498 18.5162 27.5645 18.4 27.5645C18.2137 27.5645 18.0499 27.5217 17.9099 27.4349C17.7699 27.3494 17.6603 27.2319 17.5824 27.0836C17.515 26.9554 17.478 26.8071 17.4688 26.6428H19.2863C19.3391 26.6428 19.3867 26.6241 19.4263 26.5867C19.4659 26.5493 19.4857 26.5039 19.4857 26.4504C19.4831 26.2621 19.4474 26.0898 19.38 25.9361C19.3127 25.7825 19.2255 25.6516 19.1146 25.5421L19.1159 25.5461ZM17.7276 25.8146C17.8056 25.7358 17.8941 25.6783 17.9931 25.6423C18.0922 25.6062 18.1913 25.5888 18.2903 25.5888C18.4132 25.5888 18.5307 25.6156 18.643 25.6703C18.7553 25.7238 18.8491 25.8012 18.9283 25.9001C19.0062 26.0003 19.0525 26.1192 19.0657 26.2567V26.2968H17.4886C17.5005 26.2327 17.5163 26.1739 17.5374 26.1192C17.5863 25.9949 17.6497 25.8921 17.7276 25.8133V25.8146Z" fill="#EB1C29"/>
<path d="M21.9986 25.2347C21.9392 25.2347 21.8903 25.2534 21.8533 25.2935C21.8163 25.3322 21.7978 25.3803 21.7978 25.4378V26.8751C21.7978 27.0033 21.7648 27.1209 21.7001 27.2264C21.6354 27.3333 21.5482 27.4161 21.4399 27.4762C21.3316 27.5377 21.21 27.567 21.0766 27.567C20.8666 27.567 20.7108 27.5083 20.6117 27.3921C20.5113 27.2758 20.4611 27.1022 20.4611 26.8738V25.4364C20.4611 25.379 20.4426 25.3309 20.4056 25.2922C20.3687 25.2534 20.3211 25.2334 20.2603 25.2334C20.2035 25.2334 20.156 25.2521 20.1177 25.2922C20.0794 25.3309 20.0596 25.379 20.0596 25.4364V26.9646C20.0596 27.1569 20.0939 27.3266 20.1626 27.4735C20.2313 27.6205 20.3303 27.7354 20.4624 27.8182C20.5945 27.901 20.7557 27.9424 20.9459 27.9424C21.0859 27.9424 21.214 27.921 21.3316 27.8769C21.4478 27.8329 21.5521 27.7728 21.642 27.6953C21.7027 27.6418 21.7529 27.5817 21.7965 27.5163V27.6552C21.7965 27.8476 21.7635 28.0092 21.6961 28.1388C21.6301 28.2683 21.5337 28.3672 21.4108 28.4353C21.288 28.5021 21.1387 28.5368 20.9657 28.5368C20.8389 28.5368 20.7253 28.5155 20.6236 28.474C20.5219 28.4313 20.4439 28.3992 20.3911 28.3752C20.3409 28.3512 20.2934 28.3512 20.2485 28.3752C20.2035 28.3992 20.1692 28.4407 20.1454 28.5021C20.1283 28.5529 20.1322 28.6009 20.1573 28.6464C20.1824 28.6918 20.226 28.7292 20.2894 28.7599C20.366 28.804 20.4651 28.8387 20.584 28.8668C20.7042 28.8935 20.8296 28.9068 20.9591 28.9068C21.1929 28.9068 21.4016 28.8614 21.5865 28.7706C21.7714 28.6798 21.9193 28.5408 22.029 28.3525C22.1386 28.1655 22.1941 27.9304 22.1941 27.6472V25.4404C22.1941 25.383 22.1743 25.3349 22.136 25.2962C22.0977 25.2574 22.0501 25.2374 21.9933 25.2374L21.9986 25.2347Z" fill="#EB1C29"/>
<path d="M22.3367 10.0224C23.6113 10.1533 24.4593 11.1071 24.4607 12.4135C24.4607 13.1869 24.4607 13.959 24.4607 14.7324C24.4607 16.5785 24.4488 18.4233 24.4646 20.2693C24.4752 21.545 25.4566 22.5108 26.685 22.4988C27.8923 22.4881 28.8393 21.505 28.8406 20.2466C28.8446 17.571 28.8486 14.8941 28.8393 12.2185C28.8354 10.8546 28.4232 9.615 27.6677 8.48759C25.2849 4.93169 20.2207 4.79944 17.5433 7.10637C17.3993 7.2306 17.3002 7.3388 17.0915 7.15847C15.4682 5.7492 13.5437 5.36983 11.4964 5.65035C8.11892 6.11254 5.74136 8.93909 5.74004 12.3868C5.74004 13.6331 5.74004 14.8781 5.74004 16.1244C5.74004 17.5309 5.72947 18.9389 5.744 20.3455C5.75589 21.529 6.72408 22.4854 7.89305 22.4975C9.14787 22.5108 10.1161 21.5237 10.12 20.2025C10.1266 17.6071 10.1213 15.0116 10.1227 12.4175C10.1227 11.0964 10.9905 10.1373 12.277 10.0171C14.2966 9.83007 15.1565 11.2794 15.1221 12.6433C15.0587 15.1559 15.1036 17.6712 15.105 20.1865C15.105 21.5156 16.0481 22.5041 17.3068 22.4975C18.5471 22.4921 19.4783 21.5036 19.4783 20.1905C19.4783 17.6071 19.4691 15.0237 19.4889 12.4402C19.4916 12.0715 19.5708 11.6761 19.7174 11.3395C20.1454 10.3644 21.1189 9.89819 22.3367 10.0224Z" fill="#EB1C29"/>
<path d="M26.5592 27.1449L25.8975 27.8475L27.4244 29.3156C27.6159 29.4999 27.9197 29.4919 28.1033 29.2982C28.2856 29.1045 28.2777 28.7973 28.0861 28.6116L26.5592 27.1436V27.1449Z" fill="#EB1C29"/>
<path d="M22.4457 29.3381C22.2594 29.5291 22.2621 29.8364 22.4509 30.0247C22.6398 30.213 22.9436 30.2104 23.1299 30.0194L25.2538 27.838L24.5696 27.1567L22.4457 29.3381Z" fill="#EB1C29"/>
<path d="M29.4397 22.877C29.2495 22.6914 28.9457 22.6967 28.7607 22.8891L25.5814 26.2192L23.8788 24.5294C23.6899 24.3411 23.3861 24.3451 23.1999 24.5361C23.1074 24.6323 23.0612 24.7565 23.0625 24.8807C23.0625 25.005 23.1114 25.1292 23.2065 25.2227L24.884 26.8858L25.6012 27.5978L26.6236 26.5264L29.4529 23.5623C29.6365 23.3699 29.6312 23.0627 29.441 22.8757L29.4397 22.877Z" fill="#EB1C29"/>
</g>
<defs>
<clipPath id="clip0_804_1597">
<rect width="25" height="26" fill="white" transform="translate(5 5)"/>
</clipPath>
</defs>
</svg>
