<svg width="35" height="35" viewBox="0 0 35 35" fill="none" xmlns="http://www.w3.org/2000/svg">
<rect width="35" height="35" rx="5" fill="#1C274C"/>
<path fill-rule="evenodd" clip-rule="evenodd" d="M7.12775 18.2667C7.42727 19.311 8.23224 20.116 9.84217 21.7259L11.748 23.6318C14.5491 26.4328 15.9496 27.8333 17.6899 27.8333C19.4302 27.8333 20.8307 26.4328 23.6318 23.6318C26.4328 20.8307 27.8333 19.4302 27.8333 17.6899C27.8333 15.9496 26.4328 14.5491 23.6318 11.748L21.7259 9.84217C20.116 8.23224 19.311 7.42727 18.2667 7.12775C17.2223 6.82822 16.113 7.0842 13.8945 7.59616L12.6152 7.8914C10.7488 8.32211 9.81554 8.53747 9.1765 9.1765C8.53747 9.81554 8.32211 10.7488 7.8914 12.6152L7.59616 13.8945C7.0842 16.113 6.82822 17.2223 7.12775 18.2667ZM15.4619 12.4906C16.2823 13.311 16.2823 14.6411 15.4619 15.4616C14.6415 16.282 13.3113 16.282 12.4909 15.4616C11.6705 14.6411 11.6705 13.311 12.4909 12.4906C13.3113 11.6702 14.6415 11.6702 15.4619 12.4906ZM24.7616 17.4699L17.4918 24.7399C17.1867 25.045 16.692 25.045 16.3869 24.7399C16.0818 24.4349 16.0818 23.9402 16.3869 23.6351L23.6567 16.365C23.9618 16.0599 24.4565 16.0599 24.7616 16.365C25.0667 16.6701 25.0667 17.1648 24.7616 17.4699Z" fill="white"/>
</svg>
