<svg width="20" height="20" viewBox="0 0 20 20" fill="none" xmlns="http://www.w3.org/2000/svg">
<path d="M0.833374 3.33334V8.33334M0.833374 8.33334H5.83337M0.833374 8.33334L4.70004 4.70001C5.8508 3.55119 7.34375 2.80748 8.95394 2.58094C10.5641 2.35439 12.2043 2.65729 13.6274 3.44398C15.0505 4.23067 16.1793 5.45854 16.8439 6.94259C17.5084 8.42664 17.6727 10.0865 17.3119 11.672C16.9511 13.2575 16.0848 14.6828 14.8435 15.7331C13.6022 16.7835 12.0532 17.402 10.4298 17.4954C8.80644 17.5888 7.19669 17.1522 5.84309 16.2512C4.48949 15.3502 3.46537 14.0337 2.92504 12.5" stroke="#EC1C29" stroke-width="1.5" stroke-linecap="round" stroke-linejoin="round"/>
<path d="M9.96863 6.06396V10.3022L12.2619 12.5955" stroke="#EC1C29" stroke-width="1.5" stroke-linecap="round" stroke-linejoin="round"/>
</svg>
