<svg width="16" height="16" viewBox="0 0 16 16" fill="none" xmlns="http://www.w3.org/2000/svg">
<path fill-rule="evenodd" clip-rule="evenodd" d="M4.13086 10.1115C4.13086 8.94529 6.78405 7.9991 10.058 7.9991C13.3311 7.9991 15.9843 8.94532 15.9843 10.1115V12.053C15.9843 13.2192 13.3311 14.1653 10.058 14.1653C6.78405 14.1653 4.13086 13.2191 4.13086 12.053C4.13086 11.4058 4.13086 10.7586 4.13086 10.1115Z" fill="#FE9923"/>
<path fill-rule="evenodd" clip-rule="evenodd" d="M10.058 7.9991C13.3311 7.9991 15.9843 8.94532 15.9843 10.1115C15.9843 11.2785 13.3311 12.2238 10.058 12.2238C6.78405 12.2238 4.13086 11.2786 4.13086 10.1115C4.13083 8.94529 6.78405 7.9991 10.058 7.9991Z" fill="#FECD3D"/>
<path fill-rule="evenodd" clip-rule="evenodd" d="M10.0584 8.98619C12.6625 8.98619 14.7731 9.49066 14.7731 10.1115C14.7731 10.7332 12.6625 11.2367 10.0584 11.2367C7.45424 11.2367 5.34277 10.7332 5.34277 10.1115C5.34277 9.49066 7.45424 8.98619 10.0584 8.98619Z" fill="#FEA832"/>
<path d="M7.05809 12.9846L7.56438 12.9855V13.969C7.39078 13.9408 7.22263 13.909 7.05809 13.8745V12.9846ZM14.3823 12.4638V13.4973C14.565 13.4273 14.7341 13.3537 14.8895 13.2764V12.4629L14.3823 12.4638ZM8.88869 14.1235C9.05594 14.1363 9.225 14.1453 9.39588 14.1517V13.2119L8.88869 13.2128V14.1235ZM5.22656 13.2764C5.382 13.3537 5.55106 13.4273 5.73375 13.4973V12.4629L5.22656 12.4638V13.2764ZM10.7202 14.1517C10.892 14.1453 11.0601 14.1353 11.2265 14.1235V13.2128L10.7202 13.2119V14.1517ZM12.5517 13.969C12.7253 13.9408 12.8944 13.909 13.058 13.8745V12.9855L12.5517 12.9846V13.969Z" fill="#C85929"/>
<path fill-rule="evenodd" clip-rule="evenodd" d="M0.124278 9.01347C-0.459254 8.00272 1.3659 5.85672 4.20087 4.22063C7.03587 2.58363 9.80631 2.07644 10.3898 3.08625C10.7134 3.64706 11.037 4.20697 11.3606 4.76688C11.9441 5.77763 10.119 7.92363 7.284 9.55972C4.44903 11.1967 1.67856 11.7048 1.09503 10.6941C0.771434 10.1342 0.447871 9.57338 0.124278 9.01347Z" fill="#FE9923"/>
<path fill-rule="evenodd" clip-rule="evenodd" d="M4.20087 4.22063C7.03587 2.58363 9.80631 2.07644 10.3898 3.08625C10.9734 4.097 9.14822 6.243 6.31325 7.8791C3.47918 9.5161 0.707809 10.0233 0.124278 9.01344C-0.459254 8.00272 1.3659 5.85672 4.20087 4.22063Z" fill="#FECD3D"/>
<path fill-rule="evenodd" clip-rule="evenodd" d="M4.69419 5.07503C6.94928 3.77343 9.02984 3.15443 9.34069 3.69253C9.65153 4.23062 8.07453 5.72218 5.81947 7.02471C3.56437 8.32631 1.48472 8.94531 1.17387 8.40721C0.863031 7.86912 2.43909 6.37753 4.69419 5.07503Z" fill="#FEA832"/>
<path d="M6.23384 9.06619L6.70377 9.87969C6.55199 9.95969 6.40109 10.036 6.25021 10.1087L5.79484 9.31979L6.23384 9.06619ZM2.24902 10.5023L2.65534 11.2058C2.82802 11.1958 3.01165 11.1749 3.20434 11.144L2.68805 10.2487L2.24902 10.5023ZM4.09509 10.0378L4.54046 10.8086C4.69952 10.7568 4.8613 10.6995 5.02584 10.6378L4.53409 9.78516L4.09509 10.0378ZM7.3809 8.40357L7.85084 9.21707C7.99537 9.12619 8.13715 9.03347 8.2753 8.93985L7.81993 8.15179L7.3809 8.40357ZM10.6167 5.67038L10.1777 5.92488L10.6949 6.81929C10.8176 6.66841 10.9276 6.51932 11.023 6.37479L10.6167 5.67038ZM8.8534 7.29104L9.34515 8.14363C9.48149 8.03272 9.61146 7.92094 9.73599 7.80913L9.29152 7.03925L8.8534 7.29104Z" fill="#C85929"/>
</svg>
