<svg width="8" height="8" viewBox="0 0 8 8" fill="none" xmlns="http://www.w3.org/2000/svg">
<g clip-path="url(#clip0_578_567)">
<path d="M5.34145 4.73114L4.01205 2.20529L2.68266 4.73114L0.555664 2.47118L1.85645 6.76378C1.87343 6.81982 1.9251 6.85817 1.98366 6.85817H6.04046C6.09902 6.85817 6.1507 6.81984 6.16768 6.76378L7.46846 2.47118L5.34145 4.73114Z" fill="white"/>
<path d="M2.68268 4.73111L0.555664 2.47116L1.85645 6.76375C1.87343 6.8198 1.9251 6.85815 1.98368 6.85815H3.01854L2.68268 4.73111Z" fill="white"/>
<path d="M1.72412 6.32639L1.85665 6.76374C1.87364 6.81979 1.92531 6.85814 1.98389 6.85814H6.04067C6.09925 6.85814 6.15092 6.81979 6.16789 6.76374L6.30043 6.32639H1.72412Z" fill="white"/>
<path d="M1.72363 6.32639L1.85616 6.76374C1.87315 6.81979 1.92482 6.85814 1.9834 6.85814H3.01826L2.93429 6.32639H1.72363Z" fill="white"/>
<path d="M4.01203 1.80653C4.19558 1.80653 4.34437 1.65774 4.34437 1.47419C4.34437 1.29064 4.19558 1.14185 4.01203 1.14185C3.82848 1.14185 3.67969 1.29064 3.67969 1.47419C3.67969 1.65774 3.82848 1.80653 4.01203 1.80653Z" fill="white"/>
<path d="M4.1782 1.64031C3.99466 1.64031 3.84586 1.49151 3.84586 1.30796C3.84586 1.25923 3.85661 1.21309 3.87545 1.17139C3.76009 1.22351 3.67969 1.33932 3.67969 1.47414C3.67969 1.65768 3.82848 1.80648 4.01203 1.80648C4.14684 1.80648 4.26266 1.72606 4.31478 1.61071C4.27308 1.62956 4.22694 1.64031 4.1782 1.64031Z" fill="white"/>
<path d="M0.265938 2.20528C0.412811 2.20528 0.531875 2.08621 0.531875 1.93934C0.531875 1.79247 0.412811 1.6734 0.265938 1.6734C0.119064 1.6734 0 1.79247 0 1.93934C0 2.08621 0.119064 2.20528 0.265938 2.20528Z" fill="white"/>
<path d="M0.398813 2.07235C0.251969 2.07235 0.132938 1.95331 0.132938 1.80647C0.132938 1.76749 0.141531 1.73056 0.156609 1.6972C0.0643281 1.73891 0 1.83155 0 1.93941C0 2.08625 0.119031 2.20528 0.265875 2.20528C0.373719 2.20528 0.466375 2.14095 0.508078 2.04867C0.474719 2.06375 0.437797 2.07235 0.398813 2.07235Z" fill="white"/>
<path d="M7.73371 2.20528C7.88058 2.20528 7.99965 2.08621 7.99965 1.93934C7.99965 1.79247 7.88058 1.6734 7.73371 1.6734C7.58684 1.6734 7.46777 1.79247 7.46777 1.93934C7.46777 2.08621 7.58684 2.20528 7.73371 2.20528Z" fill="white"/>
<path d="M7.86659 2.07235C7.71974 2.07235 7.60071 1.95331 7.60071 1.80647C7.60071 1.76749 7.6093 1.73056 7.62438 1.6972C7.5321 1.73891 7.46777 1.83156 7.46777 1.93941C7.46777 2.08625 7.58681 2.20528 7.73365 2.20528C7.84149 2.20528 7.93415 2.14095 7.97585 2.04867C7.94249 2.06375 7.90557 2.07235 7.86659 2.07235Z" fill="white"/>
</g>
<defs>
<clipPath id="clip0_578_567">
<rect width="8" height="8" fill="white"/>
</clipPath>
</defs>
</svg>
