<svg width="18" height="18" viewBox="0 0 18 18" fill="none" xmlns="http://www.w3.org/2000/svg">
<path d="M9 18C13.9706 18 18 13.9706 18 9C18 4.02944 13.9706 0 9 0C4.02944 0 0 4.02944 0 9C0 13.9706 4.02944 18 9 18Z" fill="#22C55E"/>
<path d="M14.2949 5.08044C13.9325 4.70821 13.3455 4.70821 12.9832 5.08044L7.08791 11.1403L4.46819 8.44908C4.10585 8.07685 3.51886 8.07685 3.15652 8.44908C2.79418 8.8213 2.79418 9.42431 3.15652 9.79653L6.43208 13.1614C6.61325 13.3476 6.84877 13.4406 7.08791 13.4406C7.32706 13.4406 7.56258 13.3476 7.74375 13.1614L14.2949 6.42789C14.6572 6.05567 14.6572 5.45266 14.2949 5.08044Z" fill="white"/>
</svg>
