<svg width="22" height="27" viewBox="0 0 22 27" fill="none" xmlns="http://www.w3.org/2000/svg">
<g clip-path="url(#clip0_660_459)">
<path d="M1.22702 21.578C1.81737 21.578 2.37567 21.5749 2.93396 21.578C3.59461 21.5821 4.14981 21.3588 4.53855 20.8087C4.93763 20.2442 5.00276 19.625 4.71844 19.0005C4.42586 18.3574 3.90995 17.9769 3.19347 17.9387C2.64344 17.9097 2.09135 17.9252 1.54029 17.9211C1.44724 17.9211 1.35419 17.9211 1.2446 17.9211V15.0593C1.77601 15.0593 2.30743 15.0697 2.83884 15.0552C3.10249 15.0479 3.37646 15.0335 3.62563 14.957C4.47652 14.6975 4.94797 13.8921 4.87663 13.1229C4.78565 12.1396 4.10225 11.4666 3.1852 11.4232C2.63517 11.3973 2.08308 11.4097 1.53202 11.4056C1.43897 11.4056 1.34695 11.4056 1.2415 11.4056V8.54379C1.80186 8.54379 2.35085 8.54172 2.89984 8.54379C3.27514 8.54586 3.63287 8.49106 3.96578 8.30083C4.65848 7.90589 5.02344 7.07361 4.83734 6.29096C4.65538 5.52485 3.98749 4.94588 3.20277 4.90866C2.64447 4.88178 2.08411 4.89315 1.52375 4.88695C1.43173 4.88695 1.33868 4.88695 1.21875 4.88695C1.28388 3.94921 1.09675 3.03216 1.42449 2.14509C1.89388 0.872377 3.09318 0.00494897 4.44653 0.00391509C9.2179 -0.000220443 13.9903 -0.00228821 18.7617 0.00391509C20.5668 0.00598286 21.9895 1.45962 21.9926 3.33199C22.0029 9.93023 22.0008 16.5285 21.9936 23.1267C21.9915 24.754 20.9887 26.0154 19.4358 26.3845C19.2042 26.4393 18.9592 26.4641 18.7214 26.4641C13.9758 26.4682 9.22928 26.4703 4.48375 26.4662C2.66825 26.4641 1.23322 25.0146 1.22702 23.196C1.22495 22.6708 1.22702 22.1466 1.22702 21.579V21.578ZM7.32486 18.7058H17.0506C17.0506 18.0534 17.1178 17.4104 17.0372 16.7859C16.8221 15.1234 15.3643 13.8714 13.6936 13.8538C12.7031 13.8435 11.7137 13.8445 10.7232 13.8538C9.34817 13.8662 8.08167 14.7719 7.57506 16.057C7.23698 16.9141 7.35485 17.8012 7.32486 18.7058ZM12.2203 12.7982C13.9552 12.7931 15.3488 11.3963 15.3509 9.65935C15.353 7.91829 13.9407 6.50704 12.2017 6.51428C10.4741 6.52151 9.0804 7.92966 9.08247 9.66452C9.08453 11.3921 10.4968 12.8024 12.2203 12.7972V12.7982Z" fill="#777777"/>
<path d="M2.02047 7.71502C1.6338 7.71502 1.24403 7.74707 0.861491 7.70675C0.365227 7.65609 0.0116386 7.22599 0.000265909 6.73386C-0.0111068 6.25414 0.343515 5.76925 0.83461 5.7403C1.6307 5.69481 2.43093 5.72686 3.23012 5.72583C3.23839 5.72583 3.24666 5.72893 3.25596 5.72996C3.74499 5.82715 4.07894 6.24277 4.06963 6.7442C4.06136 7.22599 3.71604 7.65505 3.23115 7.70364C2.83207 7.74397 2.42472 7.71192 2.02151 7.71192V7.71398L2.02047 7.71502Z" fill="#777777"/>
<path d="M2.03678 20.7449C1.64184 20.7449 1.24276 20.7801 0.851955 20.7356C0.354657 20.6798 0.00417052 20.2414 3.49876e-05 19.7545C-0.00410054 19.2603 0.358792 18.7909 0.868497 18.764C1.64804 18.7227 2.43276 18.7237 3.21231 18.764C3.71581 18.7909 4.0632 19.2375 4.06837 19.7317C4.07457 20.2435 3.73856 20.6757 3.22058 20.7356C2.83081 20.7801 2.43173 20.7449 2.03678 20.7439V20.7449Z" fill="#777777"/>
<path d="M2.0275 12.2421C2.43072 12.2421 2.83806 12.2069 3.23714 12.2514C3.73444 12.3062 4.07149 12.7425 4.06942 13.2418C4.06735 13.7278 3.73134 14.1868 3.24852 14.2127C2.44416 14.2561 1.63359 14.2561 0.828196 14.2127C0.351576 14.1879 0.00522473 13.7185 5.53128e-05 13.2398C-0.0051141 12.7559 0.35261 12.331 0.841636 12.241C0.900568 12.2307 0.960533 12.2131 1.01946 12.2131C1.35548 12.21 1.69045 12.2121 2.02647 12.2121C2.02647 12.2224 2.02647 12.2317 2.02647 12.2421H2.0275Z" fill="#777777"/>
</g>
<defs>
<clipPath id="clip0_660_459">
<rect width="22" height="26.4684" fill="white"/>
</clipPath>
</defs>
</svg>
