<svg width="12" height="15" viewBox="0 0 12 15" fill="none" xmlns="http://www.w3.org/2000/svg">
<g clip-path="url(#clip0_871_4346)">
<path d="M11.995 4.91522C11.9362 5.93071 12 6.67965 11.8517 7.96105C11.2267 11.1833 9.43034 13.4589 6.23872 14.5045C6.09356 14.552 5.90648 14.5483 5.75882 14.5032C3.1397 13.7011 1.471 11.9085 0.508076 9.40388C0.15519 8.48475 0.0025235 7.52182 0.00440055 6.53574C0.0062776 5.30815 0.00940602 4.08056 2.07593e-05 2.85296C-0.00123061 2.65963 0.0538296 2.56703 0.236529 2.48694C2.07854 1.6773 3.9143 0.852026 5.75757 0.0455185C5.89584 -0.0151728 6.1067 -0.0151728 6.2456 0.0455185C8.08949 0.852026 9.924 1.67793 11.7666 2.48694C11.9518 2.56828 12.0025 2.66526 11.9994 2.85609C11.9881 3.54247 11.995 4.22947 11.995 4.91585C11.9769 4.91459 12.0132 4.9171 11.995 4.91585V4.91522ZM4.63321 10.5132C6.39577 8.75066 8.1652 6.98123 9.90085 5.24558C9.62242 4.97028 9.31646 4.66745 8.99236 4.34585C7.56517 5.77428 6.11671 7.22399 4.63572 8.70624C4.07323 8.13562 3.51449 7.5675 2.98266 7.02816C2.66106 7.3435 2.3551 7.64445 2.06102 7.9329C2.92134 8.79571 3.7948 9.67167 4.63384 10.5132H4.63321Z" fill="#F73831"/>
</g>
<defs>
<clipPath id="clip0_871_4346">
<rect width="12" height="14.5384" fill="white"/>
</clipPath>
</defs>
</svg>
