<svg width="40" height="40" viewBox="0 0 40 40" fill="none" xmlns="http://www.w3.org/2000/svg">
<circle cx="20" cy="20" r="19.65" stroke="#EE3725" stroke-width="0.7"/>
<path d="M25.9997 24.667H13.9997C13.8229 24.667 13.6533 24.7372 13.5283 24.8623C13.4032 24.9873 13.333 25.1568 13.333 25.3337C13.333 25.5105 13.4032 25.68 13.5283 25.8051C13.6533 25.9301 13.8229 26.0003 13.9997 26.0003H25.9997C26.1765 26.0003 26.3461 25.9301 26.4711 25.8051C26.5961 25.68 26.6663 25.5105 26.6663 25.3337C26.6663 25.1568 26.5961 24.9873 26.4711 24.8623C26.3461 24.7372 26.1765 24.667 25.9997 24.667Z" fill="#EE3725"/>
<path d="M19.9998 13.333C19.823 13.333 19.6534 13.4032 19.5284 13.5283C19.4034 13.6533 19.3331 13.8229 19.3331 13.9997V21.0597L17.1398 18.8597C17.0143 18.7341 16.844 18.6636 16.6665 18.6636C16.4889 18.6636 16.3187 18.7341 16.1931 18.8597C16.0676 18.9852 15.9971 19.1555 15.9971 19.333C15.9971 19.5105 16.0676 19.6808 16.1931 19.8063L19.5265 23.1397C19.5884 23.2022 19.6622 23.2518 19.7434 23.2856C19.8247 23.3194 19.9118 23.3369 19.9998 23.3369C20.0878 23.3369 20.1749 23.3194 20.2562 23.2856C20.3374 23.2518 20.4112 23.2022 20.4731 23.1397L23.8065 19.8063C23.8686 19.7442 23.9179 19.6704 23.9516 19.5892C23.9852 19.508 24.0025 19.4209 24.0025 19.333C24.0025 19.2451 23.9852 19.1581 23.9516 19.0768C23.9179 18.9956 23.8686 18.9218 23.8065 18.8597C23.7443 18.7975 23.6705 18.7482 23.5893 18.7146C23.5081 18.6809 23.421 18.6636 23.3331 18.6636C23.2452 18.6636 23.1582 18.6809 23.077 18.7146C22.9958 18.7482 22.922 18.7975 22.8598 18.8597L20.6665 21.0597V13.9997C20.6665 13.8229 20.5962 13.6533 20.4712 13.5283C20.3462 13.4032 20.1766 13.333 19.9998 13.333Z" fill="#EE3725"/>
</svg>
