<svg width="38" height="39" viewBox="0 0 38 39" fill="none" xmlns="http://www.w3.org/2000/svg">
<mask id="mask0_2004_739" style="mask-type:alpha" maskUnits="userSpaceOnUse" x="3" y="0" width="35" height="34">
<rect x="3.64443" width="33.5934" height="33.5934" fill="#D9D9D9"/>
</mask>
<g mask="url(#mask0_2004_739)">
<path d="M18.1316 27.7146L18.5515 25.7549C18.6215 25.4517 18.7673 25.2009 18.989 25.0026C19.2106 24.8043 19.4847 24.6818 19.8113 24.6352L24.1504 24.2852C24.4537 24.2386 24.7337 24.2969 24.9903 24.4602C25.2469 24.6235 25.4335 24.8451 25.5502 25.1251L26.1101 26.4548C27.0199 25.9182 27.8364 25.2709 28.5596 24.5127C29.2828 23.7545 29.8893 22.9088 30.3792 21.9757L29.9593 21.7657C29.7027 21.5791 29.5161 21.3516 29.3994 21.0834C29.2828 20.8151 29.2594 20.5293 29.3294 20.226L30.3092 15.9569C30.3792 15.6769 30.525 15.4436 30.7467 15.257C30.9683 15.0704 31.2191 14.9537 31.499 14.9071C31.3824 14.3238 31.2366 13.7581 31.0616 13.2099C30.8866 12.6617 30.6592 12.1309 30.3792 11.6177C30.1693 11.7344 29.9418 11.7868 29.6969 11.7752C29.4519 11.7635 29.2361 11.6877 29.0495 11.5477L25.3402 9.30816C25.0836 9.14486 24.897 8.92324 24.7803 8.64329C24.6637 8.36335 24.6403 8.07174 24.7103 7.76846L24.9903 6.5787C24.2671 6.25209 23.5264 6.00714 22.7682 5.84384C22.01 5.68054 21.2343 5.59889 20.4412 5.59889C20.1146 5.59889 19.7763 5.61639 19.4264 5.65138C19.0764 5.68637 18.7382 5.73886 18.4116 5.80885L19.4614 8.18838C19.578 8.46833 19.6072 8.75994 19.5488 9.06321C19.4905 9.36648 19.3447 9.61144 19.1114 9.79807L15.8221 12.6675C15.5888 12.8775 15.3147 12.9941 14.9997 13.0174C14.6848 13.0408 14.399 12.9708 14.1424 12.8075L10.923 10.8479C10.3865 11.7344 9.97239 12.685 9.68078 13.6998C9.38917 14.7146 9.24337 15.7469 9.24337 16.7967C9.24337 17.17 9.29003 17.7765 9.38334 18.6163L12.4627 18.3364C12.7893 18.2897 13.0868 18.3422 13.3551 18.4939C13.6233 18.6455 13.8158 18.873 13.9324 19.1762L15.6121 23.1654C15.7288 23.4454 15.7579 23.737 15.6996 24.0403C15.6413 24.3435 15.4955 24.5885 15.2622 24.7751L13.9324 25.8949C14.5623 26.3615 15.233 26.7464 15.9446 27.0497C16.6561 27.353 17.3851 27.5746 18.1316 27.7146ZM20.6511 21.6957C20.3479 21.7424 20.0679 21.6841 19.8113 21.5208C19.5547 21.3575 19.3681 21.1358 19.2514 20.8559L17.3618 16.5167C17.2451 16.2368 17.2276 15.9452 17.3093 15.6419C17.3909 15.3386 17.5484 15.0937 17.7817 14.9071L21.351 11.8977C21.561 11.6877 21.8176 11.5711 22.1208 11.5477C22.4241 11.5244 22.7041 11.5944 22.9607 11.7577L26.8799 14.0672C27.1365 14.2305 27.3348 14.4522 27.4748 14.7321C27.6148 15.012 27.6498 15.3037 27.5798 15.6069L26.46 20.156C26.39 20.4593 26.25 20.7101 26.0401 20.9084C25.8301 21.1067 25.5735 21.2292 25.2702 21.2758L20.6511 21.6957ZM20.4412 30.7939C18.5049 30.7939 16.6852 30.4265 14.9822 29.6917C13.2792 28.9568 11.7979 27.9595 10.5381 26.6998C9.27836 25.44 8.28106 23.9586 7.5462 22.2556C6.81134 20.5526 6.44392 18.733 6.44392 16.7967C6.44392 14.8604 6.81134 13.0408 7.5462 11.3378C8.28106 9.63476 9.27836 8.15339 10.5381 6.89364C11.7979 5.63388 13.2792 4.63658 14.9822 3.90172C16.6852 3.16687 18.5049 2.79944 20.4412 2.79944C22.3775 2.79944 24.1971 3.16687 25.9001 3.90172C27.6031 4.63658 29.0845 5.63388 30.3442 6.89364C31.604 8.15339 32.6013 9.63476 33.3361 11.3378C34.071 13.0408 34.4384 14.8604 34.4384 16.7967C34.4384 18.733 34.071 20.5526 33.3361 22.2556C32.6013 23.9586 31.604 25.44 30.3442 26.6998C29.0845 27.9595 27.6031 28.9568 25.9001 29.6917C24.1971 30.4265 22.3775 30.7939 20.4412 30.7939Z" fill="url(#paint0_linear_2004_739)"/>
</g>
<path d="M5.28889 26.3111L2 29.6" stroke="url(#paint1_linear_2004_739)" stroke-width="3"/>
<path d="M8.30373 30.4222L2.82225 35.9037" stroke="url(#paint2_linear_2004_739)" stroke-width="3"/>
<path d="M12.1407 33.163L8.30371 37" stroke="url(#paint3_linear_2004_739)" stroke-width="3"/>
<defs>
<linearGradient id="paint0_linear_2004_739" x1="8.40608" y1="2.79944" x2="32.4763" y2="30.7939" gradientUnits="userSpaceOnUse">
<stop stop-color="#FF948F"/>
<stop offset="1" stop-color="#FC5140"/>
</linearGradient>
<linearGradient id="paint1_linear_2004_739" x1="3.64444" y1="26.3111" x2="3.64444" y2="29.6" gradientUnits="userSpaceOnUse">
<stop stop-color="#FF8881"/>
<stop offset="0.5" stop-color="#FE7368"/>
<stop offset="0.75" stop-color="#FE695C"/>
<stop offset="1" stop-color="#FD5E4F"/>
</linearGradient>
<linearGradient id="paint2_linear_2004_739" x1="5.56299" y1="30.4222" x2="5.56299" y2="35.9037" gradientUnits="userSpaceOnUse">
<stop stop-color="#FF8881"/>
<stop offset="0.5" stop-color="#FE7368"/>
<stop offset="0.75" stop-color="#FE695C"/>
<stop offset="1" stop-color="#FD5E4F"/>
</linearGradient>
<linearGradient id="paint3_linear_2004_739" x1="10.2222" y1="33.163" x2="10.2222" y2="37" gradientUnits="userSpaceOnUse">
<stop stop-color="#FF8881"/>
<stop offset="0.5" stop-color="#FE7368"/>
<stop offset="0.75" stop-color="#FE695C"/>
<stop offset="1" stop-color="#FD5E4F"/>
</linearGradient>
</defs>
</svg>
