<svg width="30" height="30" viewBox="0 0 30 30" fill="none" xmlns="http://www.w3.org/2000/svg">
<path fill-rule="evenodd" clip-rule="evenodd" d="M0.882353 10.5882C0.395294 10.5882 0 10.1929 0 9.70588V6.17647C0 2.77059 2.77059 0 6.17647 0H9.70588C10.1929 0 10.5882 0.395294 10.5882 0.882353C10.5882 1.36941 10.1929 1.76471 9.70588 1.76471H6.17647C3.74471 1.76471 1.76471 3.74294 1.76471 6.17647V9.70588C1.76471 10.1929 1.36941 10.5882 0.882353 10.5882ZM29.1176 10.5882C28.6306 10.5882 28.2353 10.1929 28.2353 9.70588V6.17647C28.2353 3.74294 26.2553 1.76471 23.8235 1.76471H20.2941C19.8071 1.76471 19.4118 1.36941 19.4118 0.882353C19.4118 0.395294 19.8071 0 20.2941 0H23.8235C27.2294 0 30 2.77059 30 6.17647V9.70588C30 10.1929 29.6047 10.5882 29.1176 10.5882ZM9.70588 14.1176C9.21882 14.1176 8.82353 13.7224 8.82353 13.2353V9.70588C8.82353 9.21882 9.21882 8.82353 9.70588 8.82353C10.1929 8.82353 10.5882 9.21882 10.5882 9.70588V13.2353C10.5882 13.7224 10.1929 14.1176 9.70588 14.1176ZM20.2941 14.1176C19.8071 14.1176 19.4118 13.7224 19.4118 13.2353V9.70588C19.4118 9.21882 19.8071 8.82353 20.2941 8.82353C20.7812 8.82353 21.1765 9.21882 21.1765 9.70588V13.2353C21.1765 13.7224 20.7812 14.1176 20.2941 14.1176ZM13.2353 17.6471C12.7482 17.6471 12.3529 17.2518 12.3529 16.7647C12.3529 16.2776 12.7482 15.8824 13.2353 15.8824C13.7224 15.8824 14.1176 15.4853 14.1176 15V9.70588C14.1176 9.21882 14.5129 8.82353 15 8.82353C15.4871 8.82353 15.8824 9.21882 15.8824 9.70588V15C15.8824 16.4594 14.6947 17.6471 13.2353 17.6471ZM15 22.9412C13.0024 22.9412 11.3082 22.26 9.96353 20.9188C9.61941 20.5729 9.61941 20.0153 9.96353 19.6694C10.3094 19.3253 10.8671 19.3253 11.2129 19.6694C12.2259 20.6841 13.4647 21.1765 15 21.1765C16.5353 21.1765 17.7741 20.6841 18.7871 19.6694C19.1329 19.3253 19.6906 19.3253 20.0365 19.6694C20.3806 20.0153 20.3806 20.5729 20.0365 20.9188C18.6918 22.26 16.9976 22.9412 15 22.9412ZM9.70588 30H6.17647C2.77059 30 0 27.2294 0 23.8235V20.2941C0 19.8071 0.395294 19.4118 0.882353 19.4118C1.36941 19.4118 1.76471 19.8071 1.76471 20.2941V23.8235C1.76471 26.2571 3.74471 28.2353 6.17647 28.2353H9.70588C10.1929 28.2353 10.5882 28.6306 10.5882 29.1176C10.5882 29.6047 10.1929 30 9.70588 30ZM23.8235 30H20.2941C19.8071 30 19.4118 29.6047 19.4118 29.1176C19.4118 28.6306 19.8071 28.2353 20.2941 28.2353H23.8235C26.2553 28.2353 28.2353 26.2571 28.2353 23.8235V20.2941C28.2353 19.8071 28.6306 19.4118 29.1176 19.4118C29.6047 19.4118 30 19.8071 30 20.2941V23.8235C30 27.2294 27.2294 30 23.8235 30Z" fill="#C4C4C4"/>
</svg>
