<svg width="40" height="40" viewBox="0 0 40 40" fill="none" xmlns="http://www.w3.org/2000/svg">
<circle cx="20" cy="20" r="19.65" stroke="#EE3725" stroke-width="0.7"/>
<path d="M13.5 18.1053V25.7303C13.5 25.952 13.5438 26.1715 13.6287 26.3763C13.7137 26.581 13.8383 26.767 13.9953 26.9235C14.1523 27.0801 14.3386 27.2041 14.5437 27.2885C14.7487 27.3729 14.9683 27.416 15.19 27.4153H24.815C25.2619 27.4153 25.6905 27.2378 26.0065 26.9218C26.3225 26.6058 26.5 26.1772 26.5 25.7303V18.1053C26.5 17.658 26.3226 17.2288 26.0068 16.9121C25.6909 16.5953 25.2624 16.4166 24.815 16.4153H23.745C23.8926 16.2631 24.0233 16.0955 24.135 15.9153C24.3488 15.5572 24.4667 15.1501 24.4772 14.7332C24.4877 14.3163 24.3905 13.9037 24.195 13.5353C24.025 13.2383 23.7775 12.9931 23.4789 12.8258C23.1804 12.6585 22.8421 12.5754 22.5 12.5853C22.1254 12.5734 21.7526 12.6427 21.4074 12.7886C21.0621 12.9344 20.7526 13.1534 20.5 13.4303C20.3002 13.6418 20.1318 13.8809 20 14.1403C19.8759 13.8825 19.716 13.6434 19.525 13.4303C19.2724 13.1534 18.9629 12.9344 18.6176 12.7886C18.2724 12.6427 17.8996 12.5734 17.525 12.5853C17.1828 12.575 16.8442 12.6574 16.5449 12.8238C16.2457 12.9901 15.9969 13.2342 15.825 13.5303C15.6295 13.8987 15.5323 14.3113 15.5428 14.7282C15.5533 15.1451 15.6712 15.5522 15.885 15.9103C15.9967 16.0905 16.1274 16.2581 16.275 16.4103H15.19C14.9677 16.4103 14.7475 16.4542 14.5421 16.5394C14.3367 16.6247 14.1502 16.7496 13.9932 16.9071C13.8362 17.0645 13.7118 17.2514 13.6272 17.457C13.5426 17.6626 13.4993 17.8829 13.5 18.1053ZM25.5 18.1053V25.7303C25.5 25.8203 25.4823 25.9093 25.4479 25.9924C25.4134 26.0755 25.363 26.1511 25.2994 26.2147C25.2358 26.2783 25.1603 26.3287 25.0771 26.3632C24.994 26.3976 24.905 26.4153 24.815 26.4153H20.5L20.535 17.4153H24.83C25.0095 17.4205 25.1799 17.4955 25.305 17.6243C25.4301 17.7532 25.5001 17.9257 25.5 18.1053ZM22.5 13.6053C22.6669 13.5941 22.8335 13.6298 22.9811 13.7084C23.1287 13.7871 23.2513 13.9055 23.335 14.0503C23.4449 14.2662 23.4967 14.5069 23.4853 14.7489C23.4739 14.9909 23.3997 15.2257 23.27 15.4303C23.055 15.8053 22.49 16.4303 21.13 16.4303H20.5C20.5 15.8253 20.615 14.7503 21.195 14.1153C21.3593 13.9353 21.5617 13.7943 21.7875 13.7026C22.0133 13.6109 22.2567 13.5708 22.5 13.5853V13.6053ZM16.735 15.4103C16.6053 15.2057 16.5311 14.9709 16.5197 14.7289C16.5083 14.4869 16.5601 14.2462 16.67 14.0303C16.7533 13.8863 16.8751 13.7684 17.0217 13.6898C17.1684 13.6112 17.334 13.575 17.5 13.5853C17.7369 13.5708 17.974 13.608 18.1951 13.6943C18.4161 13.7806 18.6157 13.9141 18.78 14.0853C19.365 14.7353 19.47 15.8103 19.5 16.4153H18.875C17.5 16.4153 16.95 15.7853 16.735 15.4103ZM14.5 18.1053C14.5 17.9223 14.5727 17.7468 14.7021 17.6174C14.8315 17.488 15.007 17.4153 15.19 17.4153H19.5L19.465 26.4153H15.19C15.0996 26.416 15.01 26.3987 14.9263 26.3646C14.8426 26.3305 14.7665 26.2801 14.7024 26.2164C14.6383 26.1528 14.5874 26.077 14.5526 25.9936C14.5179 25.9102 14.5 25.8207 14.5 25.7303V18.1053Z" fill="#EE3725"/>
</svg>
