<svg width="25" height="25" viewBox="0 0 25 25" fill="none" xmlns="http://www.w3.org/2000/svg">
<circle cx="12.5" cy="12.5" r="12.5" fill="#FDE7E5"/>
<path d="M6.50001 10.1053V17.7303C6.50001 17.952 6.54376 18.1715 6.62875 18.3763C6.71374 18.581 6.8383 18.767 6.9953 18.9235C7.1523 19.0801 7.33864 19.2041 7.54365 19.2885C7.74866 19.3729 7.96831 19.416 8.19001 19.4153H17.815C18.2619 19.4153 18.6905 19.2378 19.0065 18.9218C19.3225 18.6058 19.5 18.1772 19.5 17.7303V10.1053C19.5 9.65795 19.3226 9.22885 19.0068 8.91206C18.6909 8.59526 18.2624 8.41663 17.815 8.4153H16.745C16.8926 8.26311 17.0233 8.09547 17.135 7.9153C17.3488 7.55724 17.4667 7.15008 17.4772 6.73317C17.4877 6.31626 17.3905 5.90369 17.195 5.5353C17.025 5.23834 16.7775 4.99311 16.4789 4.8258C16.1804 4.65849 15.8421 4.57537 15.5 4.5853C15.1254 4.57336 14.7526 4.64271 14.4074 4.78858C14.0621 4.93445 13.7526 5.15338 13.5 5.4303C13.3002 5.64182 13.1318 5.88093 13 6.1403C12.8759 5.88246 12.716 5.64343 12.525 5.4303C12.2724 5.15338 11.9629 4.93445 11.6176 4.78858C11.2724 4.64271 10.8996 4.57336 10.525 4.5853C10.1828 4.57504 9.84416 4.65744 9.54492 4.82378C9.24568 4.99012 8.99694 5.23423 8.82501 5.5303C8.62951 5.89869 8.53233 6.31126 8.54284 6.72817C8.55335 7.14508 8.6712 7.55224 8.88501 7.9103C8.9967 8.09047 9.12745 8.25811 9.27501 8.4103H8.19001C7.96765 8.4103 7.74748 8.45418 7.54212 8.53942C7.33675 8.62466 7.15022 8.7496 6.99323 8.90706C6.83623 9.06452 6.71185 9.25141 6.62721 9.45703C6.54258 9.66265 6.49935 9.88295 6.50001 10.1053ZM18.5 10.1053V17.7303C18.5 17.8203 18.4823 17.9093 18.4479 17.9924C18.4134 18.0755 18.363 18.1511 18.2994 18.2147C18.2358 18.2783 18.1603 18.3287 18.0771 18.3632C17.994 18.3976 17.905 18.4153 17.815 18.4153H13.5L13.535 9.4153H17.83C18.0095 9.42051 18.1799 9.49549 18.305 9.62433C18.4301 9.75318 18.5001 9.92572 18.5 10.1053ZM15.5 5.6053C15.6669 5.59406 15.8335 5.62979 15.9811 5.70844C16.1287 5.78709 16.2513 5.90552 16.335 6.0503C16.4449 6.26617 16.4967 6.50694 16.4853 6.74891C16.4739 6.99089 16.3997 7.22572 16.27 7.4303C16.055 7.8053 15.49 8.4303 14.13 8.4303H13.5C13.5 7.8253 13.615 6.7503 14.195 6.1153C14.3593 5.93529 14.5617 5.79427 14.7875 5.70257C15.0133 5.61087 15.2567 5.5708 15.5 5.5853V5.6053ZM9.73501 7.4103C9.60529 7.20572 9.53108 6.97089 9.51968 6.72891C9.50828 6.48694 9.56009 6.24617 9.67001 6.0303C9.75333 5.88632 9.87513 5.76841 10.0217 5.6898C10.1684 5.6112 10.334 5.57501 10.5 5.5853C10.7369 5.57076 10.974 5.60795 11.1951 5.6943C11.4161 5.78064 11.6157 5.91406 11.78 6.0853C12.365 6.7353 12.47 7.8103 12.5 8.4153H11.875C10.5 8.4153 9.95001 7.7853 9.73501 7.4103ZM7.50001 10.1053C7.50001 9.9223 7.5727 9.7468 7.7021 9.6174C7.8315 9.488 8.00701 9.4153 8.19001 9.4153H12.5L12.465 18.4153H8.19001C8.09963 18.416 8.01002 18.3987 7.92633 18.3646C7.84265 18.3305 7.76654 18.2801 7.7024 18.2164C7.63827 18.1528 7.58736 18.077 7.55262 17.9936C7.51789 17.9102 7.50001 17.8207 7.50001 17.7303V10.1053Z" fill="#EE3725"/>
</svg>
