<svg width="24" height="25" viewBox="0 0 24 25" fill="none" xmlns="http://www.w3.org/2000/svg">
<g clip-path="url(#clip0_676_1283)">
<path d="M0 11.9977C0 5.37354 5.37635 0 12.0023 0C18.6368 0 24.0038 5.3801 23.9991 12.0267C23.9953 18.6405 18.6049 24.0084 11.9723 24.0019C5.36792 23.9962 0 18.6133 0 11.9977ZM12.0052 8.57873C11.9667 8.5356 11.9452 8.5131 11.9273 8.48967C11.0414 7.33378 9.87618 6.87067 8.44655 7.13128C6.67286 7.45471 5.44666 9.29214 5.79821 11.0518C5.97633 11.9386 6.41225 12.6989 6.9541 13.401C8.31624 15.1682 10.0459 16.5219 11.8898 17.7434C11.948 17.7818 12.0839 17.7659 12.1486 17.7227C13.7057 16.6972 15.1653 15.5516 16.4178 14.1623C17.1425 13.3579 17.7884 12.4954 18.1024 11.438C18.4699 10.1987 18.2112 9.07839 17.3356 8.13999C16.444 7.18472 15.321 6.87348 14.0479 7.15659C13.1873 7.34784 12.5264 7.84938 12.0052 8.57873Z" fill="#777777"/>
</g>
<defs>
<clipPath id="clip0_676_1283">
<rect width="24" height="24.0028" fill="white"/>
</clipPath>
</defs>
</svg>
