<svg viewBox="0 0 16 16" xmlns="http://www.w3.org/2000/svg" xmlns:xlink="http://www.w3.org/1999/xlink"><linearGradient id="a" gradientTransform="matrix(1 0 0 -1 0 17.73)" gradientUnits="userSpaceOnUse" x1="8" x2="8" y1="17.73" y2="1.73"><stop offset="0" stop-color="#ed1c29"/><stop offset="1" stop-color="#f14d58"/></linearGradient><g fill-rule="evenodd"><path d="m14.87 3.9a8 8 0 1 0 1.13 4.1 8 8 0 0 0 -1.13-4.1zm-7.44.33a.8.8 0 0 1 1.37.57.79.79 0 0 1 -.23.56.8.8 0 0 1 -1.14 0 .79.79 0 0 1 -.23-.56.81.81 0 0 1 .23-.57zm-.23 3.77a.8.8 0 1 1 1.6 0v3.2a.79.79 0 0 1 -.23.56.8.8 0 0 1 -1.14 0 .79.79 0 0 1 -.23-.56z" fill="url(#a)"/><path d="m16 8a8 8 0 0 1 -12.15 6.85 9 9 0 0 0 1.65.15 9.5 9.5 0 0 0 9.5-9.5 10.47 10.47 0 0 0 -.13-1.6 7.93 7.93 0 0 1 1.13 4.1z" fill="#fff" fill-opacity=".15"/></g></svg>