<svg width="7" height="7" viewBox="0 0 7 7" fill="none" xmlns="http://www.w3.org/2000/svg">
<path d="M3.49699 0.00316402C2.89205 0.002275 2.29725 0.158564 1.77088 0.456717C1.24452 0.754869 0.804645 1.18466 0.494361 1.70396C0.184078 2.22327 0.0140325 2.81428 0.000887522 3.41908C-0.0122575 4.02388 0.131949 4.62172 0.419376 5.15401L0.0164622 6.49641C-0.000991887 6.55445 -0.00462752 6.61576 0.00584593 6.67546C0.0163194 6.73515 0.0406115 6.79156 0.0767806 6.84019C0.11295 6.88882 0.159993 6.92831 0.21415 6.95552C0.268308 6.98272 0.328077 6.99687 0.388682 6.99685C0.42657 6.99679 0.464254 6.9913 0.500581 6.98053L1.84298 6.57762C2.31152 6.83037 2.83159 6.9728 3.36353 6.99406C3.89547 7.01531 4.42525 6.91483 4.91246 6.70028C5.39968 6.48572 5.83148 6.16276 6.17493 5.756C6.51839 5.34924 6.76444 4.86943 6.89433 4.35316C7.02421 3.83688 7.03451 3.29776 6.92442 2.7769C6.81433 2.25604 6.58677 1.76719 6.25909 1.34762C5.93141 0.92805 5.51225 0.588839 5.03358 0.355844C4.5549 0.12285 4.02935 0.00222445 3.49699 0.00316402ZM3.49699 1.55732C3.57383 1.55732 3.64895 1.5801 3.71285 1.6228C3.77674 1.66549 3.82654 1.72617 3.85595 1.79717C3.88536 1.86816 3.89305 1.94629 3.87806 2.02165C3.86307 2.09702 3.82606 2.16625 3.77172 2.22059C3.71739 2.27493 3.64816 2.31193 3.57279 2.32693C3.49742 2.34192 3.4193 2.33422 3.3483 2.30482C3.2773 2.27541 3.21662 2.22561 3.17393 2.16171C3.13124 2.09782 3.10845 2.0227 3.10845 1.94585C3.10845 1.84281 3.14938 1.74398 3.22225 1.67112C3.29511 1.59825 3.39394 1.55732 3.49699 1.55732ZM3.88552 5.4427H3.49699C3.39394 5.4427 3.29511 5.40176 3.22225 5.3289C3.14938 5.25603 3.10845 5.15721 3.10845 5.05416V3.50001C3.0054 3.50001 2.90658 3.45907 2.83371 3.38621C2.76085 3.31334 2.71991 3.21452 2.71991 3.11147C2.71991 3.00842 2.76085 2.9096 2.83371 2.83673C2.90658 2.76387 3.0054 2.72293 3.10845 2.72293H3.49699C3.60003 2.72293 3.69886 2.76387 3.77172 2.83673C3.84459 2.9096 3.88552 3.00842 3.88552 3.11147V4.66562C3.98857 4.66562 4.0874 4.70656 4.16026 4.77942C4.23313 4.85229 4.27406 4.95111 4.27406 5.05416C4.27406 5.15721 4.23313 5.25603 4.16026 5.3289C4.0874 5.40176 3.98857 5.4427 3.88552 5.4427Z" fill="url(#paint0_linear_1465_2300)"/>
<defs>
<linearGradient id="paint0_linear_1465_2300" x1="-1.03585" y1="-1.03293" x2="3.5" y2="6.99685" gradientUnits="userSpaceOnUse">
<stop stop-color="#EE3725"/>
<stop offset="1" stop-color="#F15244"/>
</linearGradient>
</defs>
</svg>
