<svg fill="none" height="17" viewBox="0 0 17 17" width="17" xmlns="http://www.w3.org/2000/svg" xmlns:xlink="http://www.w3.org/1999/xlink"><linearGradient id="a" gradientUnits="userSpaceOnUse" x1="1.5" x2="9" y1="0" y2="11"><stop offset="0" stop-color="#f9e5ca"/><stop offset="1" stop-color="#ddd"/></linearGradient><linearGradient id="b" gradientUnits="userSpaceOnUse" x1="3.54167" x2="7.5" y1=".001953" y2="15.5"><stop offset="0" stop-color="#ed1c29"/><stop offset="1" stop-color="#f14d58"/></linearGradient><clipPath id="c"><path d="m0 0h17v17h-17z"/></clipPath><g clip-path="url(#c)"><path d="m9.91804 9.20833c-1.17159 0-2.125-.95341-2.125-2.125 0-1.17158.95341-2.125 2.125-2.125h1.41666v-.70833-2.125c0-1.171583-.9534-2.125-2.125-2.125h-7.61458c-.23304 0-.45121.11475-.58367.306708-.131748.19125-.161498.436334-.077915.653792l5.135415 13.4583c.10413.2749.36834.4562.66159.4562h2.47916c1.1716 0 2.125-.9534 2.125-2.125v-2.83333-.70834z" fill="url(#a)"/><path d="m13.1857 10.5713c-.2642-.1098-.437-.3683-.437-.65449v-2.125h-2.83334c-.391 0-.70833-.31733-.70833-.70833 0-.39171.31733-.70834.70833-.70834h2.83334v-2.125c0-.28616.1728-.54541.437-.6545.265-.10908.5695-.04887.7721.15371l2.8334 2.83334c.2769.27695.2769.72462 0 1.00158l-2.8334 2.83333c-.2026.2026-.5071.2635-.7721.1537z" fill="#414952"/><path d="m6.12425 1.48857-4.25637-1.4187915c-.960505-.2953745-1.86788.4143755-1.86788 1.3465415v12.74998c0 .6056.386042 1.1454.959083 1.3444l4.256377 1.4188c.15583.0482.29962.0702.45121.0702.78129 0 1.41666-.6354 1.41666-1.4167v-12.75001c0-.60563-.38604-1.14538-.95908-1.34442z" fill="url(#b)"/></g></svg>