<svg width="40" height="40" viewBox="0 0 40 40" fill="none" xmlns="http://www.w3.org/2000/svg">
<circle cx="20" cy="20" r="19.65" stroke="#EE3725" stroke-width="0.7"/>
<g clip-path="url(#clip0_1760_1708)">
<path d="M18.8038 23.671L17.1542 25.3207C16.4702 26.0046 15.3627 26.0046 14.6793 25.3208C13.9958 24.6374 13.9958 23.5297 14.6792 22.8463L17.9791 19.5464C18.6625 18.863 19.7701 18.863 20.4535 19.5464C20.6813 19.7742 21.0507 19.7742 21.2785 19.5464C21.5063 19.3186 21.5063 18.9492 21.2785 18.7214C20.1395 17.5824 18.2931 17.5824 17.1542 18.7214L13.8542 22.0213C12.7153 23.1603 12.7153 25.0067 13.8542 26.1457C14.9931 27.2852 16.8396 27.2852 17.9791 26.1457L19.6288 24.496C19.8566 24.2682 19.8566 23.8988 19.6288 23.671C19.401 23.4432 19.0316 23.4432 18.8038 23.671Z" fill="#EE3725"/>
<path d="M26.1454 13.8542C25.0064 12.7153 23.1595 12.7153 22.0205 13.8542L20.0412 15.8335C19.8134 16.0613 19.8134 16.4307 20.0412 16.6585C20.269 16.8863 20.6384 16.8863 20.8662 16.6585L22.8454 14.6792C23.5288 13.9958 24.637 13.9958 25.3204 14.6792C26.0038 15.3626 26.0038 16.4702 25.3204 17.1536L21.6909 20.7831C21.0075 21.4665 19.8999 21.4665 19.2165 20.7831C18.9887 20.5553 18.6194 20.5553 18.3916 20.7831C18.1638 21.0109 18.1638 21.3803 18.3916 21.6081C19.5305 22.7471 21.3769 22.7471 22.5159 21.6081L26.1454 17.9786C27.2844 16.8396 27.2844 14.9932 26.1454 13.8542Z" fill="#EE3725"/>
</g>
<defs>
<clipPath id="clip0_1760_1708">
<rect width="14" height="14" fill="white" transform="translate(13 13)"/>
</clipPath>
</defs>
</svg>
