<svg width="819" height="330" viewBox="0 0 819 330" fill="none" xmlns="http://www.w3.org/2000/svg">
<path d="M180.936 308.934H135.266C130.969 308.919 126.851 307.202 123.812 304.16C120.773 301.117 119.059 296.995 119.044 292.693V246.793C118.847 244.437 117.788 242.236 116.069 240.613C114.351 238.991 112.094 238.061 109.733 238.003C107.372 237.945 105.072 238.762 103.276 240.297C101.479 241.833 100.313 243.978 100 246.322V292.693C100 302.057 103.716 311.037 110.329 317.659C116.943 324.28 125.913 328 135.266 328H181.113C183.532 327.81 185.79 326.715 187.438 324.931C189.085 323.148 190 320.808 190 318.379C190 315.95 189.085 313.61 187.438 311.826C185.79 310.043 183.532 308.947 181.113 308.757L180.936 308.934Z" fill="white" stroke="white" stroke-width="0.7" stroke-linejoin="round"/>
<path d="M1 164.447C1.12776 167.154 1.80017 169.654 2.872 171.408C3.94383 173.163 5.32905 174.03 6.72848 173.824H190.158C190.798 174.066 191.457 174.058 192.095 173.802C192.734 173.545 193.339 173.044 193.877 172.328C194.414 171.613 194.872 170.697 195.224 169.634C195.576 168.571 195.815 167.383 195.927 166.139C196.039 164.895 196.022 163.621 195.876 162.39C195.731 161.159 195.46 159.997 195.079 158.972C194.699 157.946 194.216 157.078 193.66 156.418C193.104 155.758 192.486 155.32 191.841 155.128C191.284 154.957 190.716 154.957 190.158 155.128H6.72848C5.33371 154.921 3.95257 155.781 2.88155 157.523C1.81054 159.266 1.13502 161.752 1 164.447H1Z" fill="white" stroke="white" stroke-width="0.7" stroke-linejoin="round"/>
<path d="M109.259 91C111.824 91 114.285 89.9941 116.098 88.2037C117.912 86.4132 118.931 83.9849 118.931 81.4528V35.8706C118.993 31.6141 120.758 27.5546 123.841 24.5774C126.923 21.6001 131.073 19.9468 135.386 19.978H181.387C183.936 19.978 186.382 18.9783 188.184 17.1987C189.987 15.4192 191 13.0056 191 10.489C191 7.97236 189.987 5.5588 188.184 3.77926C186.382 1.99973 183.936 1 181.387 1H135.386C126.001 1 117 4.67999 110.364 11.2304C103.728 17.7809 100 26.6651 100 35.9288V81.3363C100 83.853 101.013 86.2666 102.816 88.0461C104.618 89.8256 107.064 90.8253 109.613 90.8253L109.259 91Z" fill="white" stroke="white" stroke-width="0.7" stroke-linejoin="round"/>
<path d="M685.092 238C682.432 238 679.881 239.011 678 240.81C676.119 242.609 675.062 245.049 675.062 247.593V293.499C675.046 297.803 673.251 301.925 670.07 304.968C666.889 308.011 662.579 309.727 658.079 309.743H610.085C608.704 309.612 607.309 309.755 605.988 310.164C604.667 310.572 603.448 311.237 602.408 312.116C601.368 312.995 600.529 314.071 599.943 315.274C599.357 316.478 599.037 317.785 599.003 319.112C598.969 320.439 599.222 321.759 599.745 322.989C600.269 324.219 601.052 325.332 602.046 326.259C603.04 327.186 604.223 327.906 605.522 328.376C606.82 328.846 608.206 329.054 609.593 328.988H658.079C667.871 328.988 677.261 325.268 684.185 318.645C691.109 312.023 694.998 303.041 694.998 293.676V247.77C695.023 246.505 694.785 245.248 694.3 244.071C693.815 242.895 693.091 241.822 692.17 240.914C691.249 240.006 690.15 239.281 688.935 238.781C687.72 238.281 686.414 238.015 685.092 238V238Z" fill="white" stroke="white" stroke-width="0.7" stroke-linejoin="round"/>
<path d="M623 165.447C623.128 168.154 623.8 170.654 624.872 172.408C625.944 174.163 627.329 175.03 628.728 174.824H812.158C812.798 175.066 813.457 175.058 814.095 174.802C814.734 174.545 815.339 174.044 815.877 173.328C816.414 172.613 816.872 171.697 817.224 170.634C817.576 169.571 817.815 168.383 817.927 167.139C818.039 165.895 818.022 164.621 817.876 163.39C817.731 162.159 817.46 160.997 817.079 159.972C816.699 158.946 816.216 158.078 815.66 157.418C815.104 156.758 814.486 156.32 813.841 156.128C813.284 155.957 812.716 155.957 812.158 156.128H628.728C627.334 155.921 625.953 156.781 624.882 158.523C623.811 160.266 623.135 162.752 623 165.447V165.447Z" fill="white" stroke="white" stroke-width="0.7" stroke-linejoin="round"/>
<path d="M657.913 2.0002H609.86C608.536 2.02308 607.23 2.2958 606.017 2.80266C604.803 3.30951 603.707 4.04049 602.791 4.95351C601.875 5.86653 601.157 6.94355 600.678 8.12258C600.2 9.30161 599.97 10.5593 600.003 11.8234C600.08 14.2961 601.144 16.6472 602.976 18.3965C604.808 20.1457 607.27 21.161 609.86 21.2348H657.913C662.391 21.2346 666.688 22.9208 669.871 25.9273C673.055 28.9339 674.868 33.018 674.916 37.2931V83.1739C674.851 85.7168 675.846 88.1803 677.683 90.0225C679.52 91.8647 682.048 92.9347 684.712 92.9971C687.375 93.0595 689.955 92.1092 691.885 90.3552C693.814 88.6013 694.935 86.1874 695 83.6445V37.2931C695 32.6485 694.04 28.0495 692.175 23.7599C690.309 19.4703 687.576 15.5744 684.13 12.2956C680.685 9.01678 676.595 6.41957 672.096 4.65287C667.597 2.88617 662.778 1.98471 657.913 2.0002V2.0002Z" fill="white" stroke="white" stroke-width="0.7" stroke-linejoin="round"/>
<path d="M379.867 96.4331H397.361V78.9391H379.867V96.4331Z" fill="white"/>
<path d="M379.867 206.639H397.361V181.708H379.867V206.639Z" fill="white"/>
<path d="M397.371 241.628V276.616H432.359V259.122H414.865V241.628H397.371Z" fill="white"/>
<path d="M467.348 146.732H414.866V164.226H467.348V146.732Z" fill="white"/>
<path d="M467.342 181.717H491.836V164.223H467.342V181.717Z" fill="white"/>
<path d="M491.857 181.719V206.649H467.364V224.143H509.342V181.728H491.848L491.857 181.719Z" fill="white"/>
<path d="M397.363 78.9487H414.857V52.7076H397.363V78.9487Z" fill="white"/>
<path d="M397.367 131.418H414.861V96.4308H397.367V113.925H379.874V164.212H397.367V131.418Z" fill="white"/>
<path d="M311.651 146.732H285.41V181.72H302.904V164.226H329.145V146.732H311.651Z" fill="white"/>
<path d="M414.857 164.223H397.363V181.717H414.857V164.223Z" fill="white"/>
<path d="M449.822 199.202H467.316V181.708H449.822V199.202Z" fill="white"/>
<path d="M491.801 164.223H509.295V146.729H491.801V164.223Z" fill="white"/>
<path d="M432.359 181.72H414.865V206.65H397.371V224.144H432.359V181.729V181.72Z" fill="white"/>
<path d="M379.867 241.625H397.361V224.131H379.867V241.625Z" fill="white"/>
<path d="M432.325 224.131V241.625H467.313V224.131H432.325Z" fill="white"/>
<path d="M484.836 241.626H467.342V259.12H484.836V241.626Z" fill="white"/>
<path d="M484.821 276.612H509.315V259.118H484.821V276.612Z" fill="white"/>
<path d="M449.822 276.612H467.316V259.118H449.822V276.612Z" fill="white"/>
<path d="M364.14 164.226V146.732H346.646V164.226H329.152V181.72H379.877V164.226H364.131H364.14Z" fill="white"/>
<mask id="mask0_13_199" style="mask-type:luminance" maskUnits="userSpaceOnUse" x="285" y="52" width="225" height="225">
<path d="M509.326 52.7046H285.42V276.61H509.326V52.7046Z" fill="white"/>
</mask>
<g mask="url(#mask0_13_199)">
<path d="M364.155 131.416H285.443V52.7029H364.155V131.416ZM302.936 113.922H346.671V70.1876H302.936V113.922Z" fill="white"/>
</g>
<path d="M333.51 100.811H316.016V83.3166H333.51V100.811Z" fill="white"/>
<mask id="mask1_13_199" style="mask-type:luminance" maskUnits="userSpaceOnUse" x="285" y="52" width="225" height="225">
<path d="M509.326 52.7046H285.42V276.61H509.326V52.7046Z" fill="white"/>
</mask>
<g mask="url(#mask1_13_199)">
<path d="M509.325 131.419H430.612V52.7061H509.325V131.419ZM448.106 113.925H491.841V70.1908H448.106V113.925Z" fill="white"/>
</g>
<path d="M478.707 100.811H461.213V83.3166H478.707V100.811Z" fill="white"/>
<mask id="mask2_13_199" style="mask-type:luminance" maskUnits="userSpaceOnUse" x="285" y="52" width="225" height="225">
<path d="M509.326 52.7046H285.42V276.61H509.326V52.7046Z" fill="white"/>
</mask>
<g mask="url(#mask2_13_199)">
<path d="M364.156 276.614H285.443V197.901H364.156V276.614ZM302.937 259.12H346.672V215.386H302.937V259.12Z" fill="white"/>
</g>
<path d="M333.51 245.996H316.016V228.502H333.51V245.996Z" fill="white"/>
</svg>
