<svg width="34" height="34" viewBox="0 0 34 34" fill="none" xmlns="http://www.w3.org/2000/svg">
<circle cx="17" cy="17" r="17" fill="#F5F5F5"/>
<g clip-path="url(#clip0_406_1802)">
<path d="M23.2548 14.1796V10.2371C23.2548 6.34719 20.2191 3.1875 16.4716 3.1875C12.7241 3.1875 9.68384 6.34719 9.68384 10.2419V14.1844L23.2548 14.1796ZM12.1317 14.1796V10.2371C12.1317 7.75044 14.0789 5.72671 16.4716 5.72671C18.8643 5.72671 20.8116 7.75044 20.8116 10.2371V14.1796" fill="#DDDDDD"/>
<path d="M16.8666 3.20182C16.7334 3.19227 16.6048 3.1875 16.4716 3.1875C12.7241 3.1875 9.68384 6.34719 9.68384 10.2419V14.1844H10.4738V10.2419C10.4738 6.48084 13.3028 3.41183 16.8666 3.20182Z" fill="#B6B6B6"/>
<path d="M17.2607 5.73152C17.1275 5.73152 16.9943 5.73629 16.8657 5.75061C19.0747 5.96062 20.8061 7.89367 20.8061 10.242V14.1844H21.596V10.242C21.6006 7.75525 19.6534 5.73152 17.2607 5.73152Z" fill="#B6B6B6"/>
<path d="M25.5 14.1797H7.4375V27.625H25.5V14.1797Z" fill="#C4C4C4"/>
<path d="M9.02193 14.1797H7.4375V27.625H9.02193V14.1797Z" fill="#7E7E7E"/>
<path d="M18.4126 19.6403C18.4126 18.5235 17.5446 17.6214 16.47 17.6214C15.3953 17.6214 14.5273 18.5235 14.5273 19.6403C14.5273 20.4088 14.9407 21.077 15.5469 21.4159L15.2346 23.9026H17.7054L17.3931 21.4159C17.9993 21.077 18.4126 20.4088 18.4126 19.6403Z" fill="#3E3D4C"/>
</g>
<defs>
<clipPath id="clip0_406_1802">
<rect width="18.0625" height="24.4375" fill="white" transform="translate(7.4375 3.1875)"/>
</clipPath>
</defs>
</svg>
