<svg width="32" height="32" viewBox="0 0 32 32" fill="none" xmlns="http://www.w3.org/2000/svg">
<g clip-path="url(#clip0_1504_1592)">
<path d="M26.0071 28.0961L22.604 24.7572C22.3848 24.5413 22.3815 24.1889 22.5973 23.9696C22.8132 23.7504 23.1656 23.747 23.3848 23.9629L25.9852 26.5143L31.0425 21.2766C31.2567 21.0556 31.6091 21.0489 31.83 21.2631C32.0509 21.4772 32.0577 21.8297 31.8435 22.0506L26.0071 28.0961Z" fill="#404041"/>
<path d="M26.0071 28.0961L22.604 24.7572C22.3848 24.5413 22.3815 24.1889 22.5973 23.9696C22.8132 23.7504 23.1656 23.747 23.3848 23.9629L25.9852 26.5143L31.0425 21.2766C31.2567 21.0556 31.6091 21.0489 31.83 21.2631C32.0509 21.4772 32.0577 21.8297 31.8435 22.0506L26.0071 28.0961Z" fill="url(#paint0_linear_1504_1592)"/>
<path d="M24.8116 27.5885L22.3512 30.086C22.1354 30.3052 22.1387 30.6577 22.358 30.8735C22.5772 31.0894 22.9296 31.086 23.1455 30.8668L25.6058 28.3693L24.8116 27.5869V27.5885Z" fill="#EF4D58"/>
<path d="M28.9086 29.2799L27.1413 27.5986L26.374 28.4064L28.1413 30.0877C28.3639 30.3002 28.7164 30.29 28.9288 30.0675C29.1413 29.8449 29.1312 29.4924 28.9086 29.2799Z" fill="#EF4D58"/>
<path d="M27.3491 26.7049L26.0051 28.0961L22.6021 24.7572C22.3829 24.5413 22.3795 24.1889 22.5954 23.9697C22.705 23.8584 22.8483 23.8027 22.9933 23.8027C23.1384 23.8027 23.2749 23.8567 23.3829 23.9629L25.9832 26.516C25.9832 26.516 26.7893 27.285 27.3491 26.7066V26.7049Z" fill="#EF4D58"/>
<path d="M27.3491 26.7049L26.0051 28.0961L22.6021 24.7572C22.3829 24.5413 22.3795 24.1889 22.5954 23.9697C22.705 23.8584 22.8483 23.8027 22.9933 23.8027C23.1384 23.8027 23.2749 23.8567 23.3829 23.9629L25.9832 26.516C25.9832 26.516 26.7893 27.285 27.3491 26.7066V26.7049Z" fill="url(#paint1_linear_1504_1592)"/>
<path d="M1.88326 25.3643C2.18512 25.3643 2.42964 25.4401 2.61851 25.5936C2.80738 25.7471 2.93217 25.9629 2.99456 26.2428H2.89507L2.94229 26.1231C2.99456 25.9983 3.08562 25.8786 3.21547 25.7639C3.34363 25.6492 3.49203 25.5531 3.66067 25.4772C3.8293 25.4014 4.00468 25.3643 4.18681 25.3643C4.48023 25.3643 4.70957 25.4267 4.8782 25.5531C5.04684 25.6796 5.16826 25.8482 5.24077 26.059C5.31328 26.2698 5.35038 26.5059 5.35038 26.7673V28.5835C5.35038 28.6594 5.32509 28.7234 5.2745 28.7757C5.2239 28.828 5.15982 28.855 5.08562 28.855C5.00637 28.855 4.9406 28.828 4.8917 28.7757C4.84279 28.7234 4.81918 28.6577 4.81918 28.5835V26.7808C4.81918 26.6071 4.79389 26.4519 4.7433 26.312C4.69271 26.172 4.61008 26.0607 4.49709 25.9798C4.38411 25.8971 4.23065 25.8567 4.03503 25.8567C3.85291 25.8567 3.68765 25.8971 3.53588 25.9798C3.38411 26.0624 3.26438 26.172 3.17669 26.312C3.08731 26.4519 3.04347 26.6088 3.04347 26.7808V28.5835C3.04347 28.6594 3.01817 28.7234 2.97095 28.7757C2.92374 28.828 2.85797 28.855 2.77871 28.855C2.70283 28.855 2.64043 28.828 2.58815 28.7757C2.53756 28.7218 2.51227 28.6577 2.51227 28.5835V26.7605C2.51227 26.5919 2.48866 26.4401 2.44144 26.3052C2.39422 26.1703 2.31665 26.0607 2.20535 25.9798C2.09406 25.8971 1.9406 25.8567 1.74667 25.8567C1.5696 25.8567 1.40772 25.8971 1.261 25.9798C1.11429 26.0624 0.997935 26.1703 0.908559 26.3052C0.819183 26.4401 0.775338 26.5919 0.775338 26.7605V28.5835C0.775338 28.6594 0.750043 28.7234 0.699453 28.7757C0.648862 28.8297 0.584781 28.855 0.508896 28.855C0.433011 28.855 0.370616 28.828 0.320026 28.7757C0.269436 28.7234 0.244141 28.6577 0.244141 28.5835V25.6813C0.244141 25.6054 0.269436 25.543 0.320026 25.4907C0.370616 25.4401 0.434697 25.4148 0.508896 25.4148C0.58984 25.4148 0.653921 25.4401 0.702825 25.4907C0.751729 25.5413 0.775338 25.6054 0.775338 25.6813V26.1872L0.628626 26.3474C0.64549 26.2327 0.691021 26.1164 0.76522 26.0017C0.839419 25.887 0.932168 25.7791 1.04853 25.683C1.16488 25.5852 1.29304 25.5076 1.4347 25.4503C1.57635 25.3929 1.72812 25.3643 1.88664 25.3643H1.88326Z" fill="#EF4D58"/>
<path d="M9.60206 27.1282C9.60206 27.4739 9.52618 27.7825 9.37272 28.0523C9.21926 28.3221 9.01353 28.5363 8.75383 28.6914C8.49414 28.8465 8.2024 28.9241 7.87862 28.9241C7.55485 28.9241 7.26142 28.8465 7.00004 28.6914C6.73866 28.5363 6.53124 28.3238 6.37778 28.0523C6.22432 27.7825 6.14844 27.4739 6.14844 27.1282C6.14844 26.7825 6.22432 26.4739 6.37778 26.2041C6.53124 25.9342 6.73866 25.7201 7.00004 25.5649C7.26142 25.4098 7.55485 25.3322 7.87862 25.3322C8.2024 25.3322 8.49414 25.4098 8.75383 25.5649C9.01353 25.7201 9.21926 25.9326 9.37272 26.2041C9.52618 26.4739 9.60206 26.7825 9.60206 27.1282ZM9.06918 27.1282C9.06918 26.8702 9.0169 26.6442 8.91235 26.4486C8.8078 26.253 8.66614 26.1012 8.48571 25.9899C8.30527 25.8786 8.10291 25.8229 7.87694 25.8229C7.65097 25.8229 7.44861 25.8786 7.26817 25.9899C7.08773 26.1012 6.94608 26.253 6.83984 26.4486C6.7336 26.6442 6.67964 26.8702 6.67964 27.1282C6.67964 27.3862 6.7336 27.6054 6.83984 27.801C6.94608 27.9966 7.08942 28.1501 7.26817 28.2631C7.44861 28.3761 7.65097 28.4334 7.87694 28.4334C8.10291 28.4334 8.30695 28.3761 8.48571 28.2631C8.66614 28.1501 8.8078 27.9966 8.91235 27.801C9.0169 27.6054 9.06918 27.3811 9.06918 27.1282Z" fill="#EF4D58"/>
<path d="M12.1113 25.3322C12.4132 25.3322 12.6509 25.3946 12.823 25.5194C12.9966 25.6442 13.1197 25.8094 13.1923 26.0186C13.2648 26.2277 13.3019 26.4604 13.3019 26.7167V28.5869C13.3019 28.6627 13.2766 28.7268 13.226 28.7791C13.1754 28.8331 13.1113 28.8584 13.0354 28.8584C12.9595 28.8584 12.8972 28.8314 12.8449 28.7791C12.7943 28.7251 12.769 28.6611 12.769 28.5869V26.7302C12.769 26.5616 12.7437 26.4098 12.6931 26.2749C12.6425 26.14 12.5582 26.0304 12.4402 25.9494C12.3221 25.8668 12.1619 25.8263 11.9579 25.8263C11.7724 25.8263 11.6004 25.8668 11.4452 25.9494C11.2901 26.032 11.1653 26.14 11.0725 26.2749C10.9798 26.4098 10.9326 26.5616 10.9326 26.7302V28.5869C10.9326 28.6627 10.9073 28.7268 10.8567 28.7791C10.8061 28.8331 10.742 28.8584 10.6661 28.8584C10.5902 28.8584 10.5278 28.8314 10.4773 28.7791C10.4267 28.7251 10.4014 28.6611 10.4014 28.5869V25.6847C10.4014 25.6088 10.4267 25.5464 10.4773 25.4941C10.5278 25.4418 10.5919 25.4182 10.6661 25.4182C10.7454 25.4182 10.8111 25.4435 10.8601 25.4941C10.909 25.5447 10.9326 25.6088 10.9326 25.6847V26.1568L10.7993 26.3035C10.8213 26.1889 10.8719 26.0725 10.9528 25.9545C11.0321 25.8364 11.1332 25.7319 11.253 25.6391C11.3727 25.5464 11.5059 25.4722 11.6526 25.4165C11.7993 25.3609 11.9528 25.3339 12.1113 25.3339V25.3322Z" fill="#EF4D58"/>
<path d="M15.8763 28.9258C15.5222 28.9258 15.2102 28.8499 14.9454 28.6998C14.679 28.5498 14.4716 28.3423 14.3232 28.0776C14.1748 27.8145 14.1006 27.5093 14.1006 27.1619C14.1006 26.7757 14.1765 26.4469 14.3299 26.1737C14.4834 25.9005 14.6824 25.6931 14.9286 25.5481C15.1748 25.4047 15.4362 25.3322 15.711 25.3322C15.9151 25.3322 16.1124 25.3693 16.3029 25.4452C16.4935 25.5211 16.6621 25.6307 16.8088 25.774C16.9556 25.9174 17.0719 26.0911 17.1613 26.2934C17.2507 26.4958 17.2962 26.7201 17.3013 26.9697C17.3013 27.0405 17.2743 27.1012 17.222 27.1501C17.168 27.199 17.1073 27.2226 17.0365 27.2226H14.4075L14.2878 26.7639H16.8493L16.7431 26.8567V26.71C16.7245 26.5278 16.6638 26.371 16.5593 26.2412C16.4547 26.1096 16.3282 26.0101 16.1798 25.9376C16.0314 25.8668 15.8746 25.8314 15.711 25.8314C15.5778 25.8314 15.4463 25.855 15.3148 25.9005C15.1832 25.946 15.0669 26.0219 14.9623 26.1265C14.8578 26.231 14.7734 26.3643 14.7094 26.5295C14.6453 26.6931 14.6132 26.8904 14.6132 27.1214C14.6132 27.3794 14.6655 27.6054 14.7701 27.7993C14.8746 27.9949 15.0196 28.1484 15.2051 28.2614C15.3906 28.3744 15.6082 28.4317 15.8578 28.4317C16.0129 28.4317 16.1478 28.4115 16.2642 28.371C16.3788 28.3305 16.4783 28.2816 16.5626 28.2209C16.647 28.1602 16.7178 28.0995 16.7751 28.0371C16.8325 27.9966 16.8881 27.9764 16.9421 27.9764C17.0078 27.9764 17.0635 27.9983 17.1056 28.0422C17.1478 28.086 17.168 28.14 17.168 28.2024C17.168 28.2783 17.1326 28.344 17.0618 28.4014C16.937 28.5396 16.7684 28.6594 16.5559 28.7639C16.3434 28.8685 16.1174 28.9207 15.8763 28.9207V28.9258Z" fill="#EF4D58"/>
<path d="M20.6419 25.3643C20.7178 25.3643 20.7802 25.3896 20.8324 25.4401C20.8847 25.4907 20.9083 25.5548 20.9083 25.629V28.5312C20.9083 28.9039 20.8358 29.2125 20.6891 29.4587C20.5424 29.7049 20.3468 29.8887 20.1006 30.0084C19.8544 30.1282 19.5761 30.1889 19.2658 30.1889C19.0921 30.1889 18.9269 30.172 18.7667 30.1349C18.6065 30.0995 18.4766 30.0523 18.3738 29.9949C18.2894 29.9545 18.2304 29.9056 18.1967 29.8449C18.163 29.7842 18.1579 29.7218 18.1798 29.6543C18.2102 29.5751 18.2557 29.5194 18.3164 29.4874C18.3771 29.457 18.4395 29.457 18.507 29.4874C18.5778 29.5177 18.6807 29.5616 18.8156 29.6172C18.9505 29.6729 19.1023 29.6998 19.2709 29.6998C19.5019 29.6998 19.6992 29.656 19.8628 29.5666C20.0264 29.4772 20.1529 29.3474 20.2422 29.1771C20.3316 29.0068 20.3754 28.7943 20.3754 28.5413V28.0691L20.4547 28.2361C20.3839 28.3744 20.2878 28.4941 20.168 28.5953C20.0483 28.6965 19.91 28.7774 19.7549 28.8347C19.5997 28.8921 19.4294 28.9208 19.2422 28.9208C18.9893 28.9208 18.7751 28.8668 18.5997 28.7572C18.4244 28.6476 18.2911 28.4975 18.2001 28.3052C18.109 28.113 18.0635 27.8887 18.0635 27.6358V25.6256C18.0635 25.5498 18.0888 25.4874 18.1394 25.4368C18.19 25.3862 18.254 25.3609 18.3282 25.3609C18.4075 25.3609 18.4733 25.3862 18.5222 25.4368C18.5711 25.4874 18.5947 25.5514 18.5947 25.6256V27.516C18.5947 27.8179 18.6604 28.0455 18.7937 28.1973C18.9269 28.3491 19.1326 28.4267 19.4125 28.4267C19.5896 28.4267 19.7515 28.3862 19.8948 28.3069C20.0382 28.2277 20.1545 28.1181 20.2405 27.9781C20.3265 27.8381 20.3704 27.6847 20.3704 27.516V25.6256C20.3704 25.5498 20.394 25.4874 20.4429 25.4368C20.4918 25.3862 20.5559 25.3609 20.6351 25.3609L20.6419 25.3643Z" fill="#EF4D58"/>
<path d="M1.88326 25.3643C2.18512 25.3643 2.42964 25.4401 2.61851 25.5936C2.80738 25.7471 2.93217 25.9629 2.99456 26.2428H2.89507L2.94229 26.1231C2.99456 25.9983 3.08562 25.8786 3.21547 25.7639C3.34363 25.6492 3.49203 25.5531 3.66067 25.4772C3.8293 25.4014 4.00468 25.3643 4.18681 25.3643C4.48023 25.3643 4.70957 25.4267 4.8782 25.5531C5.04684 25.6796 5.16826 25.8482 5.24077 26.059C5.31328 26.2698 5.35038 26.5059 5.35038 26.7673V28.5835C5.35038 28.6594 5.32509 28.7234 5.2745 28.7757C5.2239 28.828 5.15982 28.855 5.08562 28.855C5.00637 28.855 4.9406 28.828 4.8917 28.7757C4.84279 28.7234 4.81918 28.6577 4.81918 28.5835V26.7808C4.81918 26.6071 4.79389 26.4519 4.7433 26.312C4.69271 26.172 4.61008 26.0607 4.49709 25.9798C4.38411 25.8971 4.23065 25.8567 4.03503 25.8567C3.85291 25.8567 3.68765 25.8971 3.53588 25.9798C3.38411 26.0624 3.26438 26.172 3.17669 26.312C3.08731 26.4519 3.04347 26.6088 3.04347 26.7808V28.5835C3.04347 28.6594 3.01817 28.7234 2.97095 28.7757C2.92374 28.828 2.85797 28.855 2.77871 28.855C2.70283 28.855 2.64043 28.828 2.58815 28.7757C2.53756 28.7218 2.51227 28.6577 2.51227 28.5835V26.7605C2.51227 26.5919 2.48866 26.4401 2.44144 26.3052C2.39422 26.1703 2.31665 26.0607 2.20535 25.9798C2.09406 25.8971 1.9406 25.8567 1.74667 25.8567C1.5696 25.8567 1.40772 25.8971 1.261 25.9798C1.11429 26.0624 0.997935 26.1703 0.908559 26.3052C0.819183 26.4401 0.775338 26.5919 0.775338 26.7605V28.5835C0.775338 28.6594 0.750043 28.7234 0.699453 28.7757C0.648862 28.8297 0.584781 28.855 0.508896 28.855C0.433011 28.855 0.370616 28.828 0.320026 28.7757C0.269436 28.7234 0.244141 28.6577 0.244141 28.5835V25.6813C0.244141 25.6054 0.269436 25.543 0.320026 25.4907C0.370616 25.4401 0.434697 25.4148 0.508896 25.4148C0.58984 25.4148 0.653921 25.4401 0.702825 25.4907C0.751729 25.5413 0.775338 25.6054 0.775338 25.6813V26.1872L0.628626 26.3474C0.64549 26.2327 0.691021 26.1164 0.76522 26.0017C0.839419 25.887 0.932168 25.7791 1.04853 25.683C1.16488 25.5852 1.29304 25.5076 1.4347 25.4503C1.57635 25.3929 1.72812 25.3643 1.88664 25.3643H1.88326Z" fill="url(#paint2_linear_1504_1592)"/>
<path d="M9.60206 27.1282C9.60206 27.4739 9.52618 27.7825 9.37272 28.0523C9.21926 28.3221 9.01353 28.5363 8.75383 28.6914C8.49414 28.8465 8.2024 28.9241 7.87862 28.9241C7.55485 28.9241 7.26142 28.8465 7.00004 28.6914C6.73866 28.5363 6.53124 28.3238 6.37778 28.0523C6.22432 27.7825 6.14844 27.4739 6.14844 27.1282C6.14844 26.7825 6.22432 26.4739 6.37778 26.2041C6.53124 25.9342 6.73866 25.7201 7.00004 25.5649C7.26142 25.4098 7.55485 25.3322 7.87862 25.3322C8.2024 25.3322 8.49414 25.4098 8.75383 25.5649C9.01353 25.7201 9.21926 25.9326 9.37272 26.2041C9.52618 26.4739 9.60206 26.7825 9.60206 27.1282ZM9.06918 27.1282C9.06918 26.8702 9.0169 26.6442 8.91235 26.4486C8.8078 26.253 8.66614 26.1012 8.48571 25.9899C8.30527 25.8786 8.10291 25.8229 7.87694 25.8229C7.65097 25.8229 7.44861 25.8786 7.26817 25.9899C7.08773 26.1012 6.94608 26.253 6.83984 26.4486C6.7336 26.6442 6.67964 26.8702 6.67964 27.1282C6.67964 27.3862 6.7336 27.6054 6.83984 27.801C6.94608 27.9966 7.08942 28.1501 7.26817 28.2631C7.44861 28.3761 7.65097 28.4334 7.87694 28.4334C8.10291 28.4334 8.30695 28.3761 8.48571 28.2631C8.66614 28.1501 8.8078 27.9966 8.91235 27.801C9.0169 27.6054 9.06918 27.3811 9.06918 27.1282Z" fill="url(#paint3_linear_1504_1592)"/>
<path d="M12.1113 25.3322C12.4132 25.3322 12.6509 25.3946 12.823 25.5194C12.9966 25.6442 13.1197 25.8094 13.1923 26.0186C13.2648 26.2277 13.3019 26.4604 13.3019 26.7167V28.5869C13.3019 28.6627 13.2766 28.7268 13.226 28.7791C13.1754 28.8331 13.1113 28.8584 13.0354 28.8584C12.9595 28.8584 12.8972 28.8314 12.8449 28.7791C12.7943 28.7251 12.769 28.6611 12.769 28.5869V26.7302C12.769 26.5616 12.7437 26.4098 12.6931 26.2749C12.6425 26.14 12.5582 26.0304 12.4402 25.9494C12.3221 25.8668 12.1619 25.8263 11.9579 25.8263C11.7724 25.8263 11.6004 25.8668 11.4452 25.9494C11.2901 26.032 11.1653 26.14 11.0725 26.2749C10.9798 26.4098 10.9326 26.5616 10.9326 26.7302V28.5869C10.9326 28.6627 10.9073 28.7268 10.8567 28.7791C10.8061 28.8331 10.742 28.8584 10.6661 28.8584C10.5902 28.8584 10.5278 28.8314 10.4773 28.7791C10.4267 28.7251 10.4014 28.6611 10.4014 28.5869V25.6847C10.4014 25.6088 10.4267 25.5464 10.4773 25.4941C10.5278 25.4418 10.5919 25.4182 10.6661 25.4182C10.7454 25.4182 10.8111 25.4435 10.8601 25.4941C10.909 25.5447 10.9326 25.6088 10.9326 25.6847V26.1568L10.7993 26.3035C10.8213 26.1889 10.8719 26.0725 10.9528 25.9545C11.0321 25.8364 11.1332 25.7319 11.253 25.6391C11.3727 25.5464 11.5059 25.4722 11.6526 25.4165C11.7993 25.3609 11.9528 25.3339 12.1113 25.3339V25.3322Z" fill="url(#paint4_linear_1504_1592)"/>
<path d="M15.8763 28.9258C15.5222 28.9258 15.2102 28.8499 14.9454 28.6998C14.679 28.5498 14.4716 28.3423 14.3232 28.0776C14.1748 27.8145 14.1006 27.5093 14.1006 27.1619C14.1006 26.7757 14.1765 26.4469 14.3299 26.1737C14.4834 25.9005 14.6824 25.6931 14.9286 25.5481C15.1748 25.4047 15.4362 25.3322 15.711 25.3322C15.9151 25.3322 16.1124 25.3693 16.3029 25.4452C16.4935 25.5211 16.6621 25.6307 16.8088 25.774C16.9556 25.9174 17.0719 26.0911 17.1613 26.2934C17.2507 26.4958 17.2962 26.7201 17.3013 26.9697C17.3013 27.0405 17.2743 27.1012 17.222 27.1501C17.168 27.199 17.1073 27.2226 17.0365 27.2226H14.4075L14.2878 26.7639H16.8493L16.7431 26.8567V26.71C16.7245 26.5278 16.6638 26.371 16.5593 26.2412C16.4547 26.1096 16.3282 26.0101 16.1798 25.9376C16.0314 25.8668 15.8746 25.8314 15.711 25.8314C15.5778 25.8314 15.4463 25.855 15.3148 25.9005C15.1832 25.946 15.0669 26.0219 14.9623 26.1265C14.8578 26.231 14.7734 26.3643 14.7094 26.5295C14.6453 26.6931 14.6132 26.8904 14.6132 27.1214C14.6132 27.3794 14.6655 27.6054 14.7701 27.7993C14.8746 27.9949 15.0196 28.1484 15.2051 28.2614C15.3906 28.3744 15.6082 28.4317 15.8578 28.4317C16.0129 28.4317 16.1478 28.4115 16.2642 28.371C16.3788 28.3305 16.4783 28.2816 16.5626 28.2209C16.647 28.1602 16.7178 28.0995 16.7751 28.0371C16.8325 27.9966 16.8881 27.9764 16.9421 27.9764C17.0078 27.9764 17.0635 27.9983 17.1056 28.0422C17.1478 28.086 17.168 28.14 17.168 28.2024C17.168 28.2783 17.1326 28.344 17.0618 28.4014C16.937 28.5396 16.7684 28.6594 16.5559 28.7639C16.3434 28.8685 16.1174 28.9207 15.8763 28.9207V28.9258Z" fill="url(#paint5_linear_1504_1592)"/>
<path d="M20.6419 25.3643C20.7178 25.3643 20.7802 25.3896 20.8324 25.4401C20.8847 25.4907 20.9083 25.5548 20.9083 25.629V28.5312C20.9083 28.9039 20.8358 29.2125 20.6891 29.4587C20.5424 29.7049 20.3468 29.8887 20.1006 30.0084C19.8544 30.1282 19.5761 30.1889 19.2658 30.1889C19.0921 30.1889 18.9269 30.172 18.7667 30.1349C18.6065 30.0995 18.4766 30.0523 18.3738 29.9949C18.2894 29.9545 18.2304 29.9056 18.1967 29.8449C18.163 29.7842 18.1579 29.7218 18.1798 29.6543C18.2102 29.5751 18.2557 29.5194 18.3164 29.4874C18.3771 29.457 18.4395 29.457 18.507 29.4874C18.5778 29.5177 18.6807 29.5616 18.8156 29.6172C18.9505 29.6729 19.1023 29.6998 19.2709 29.6998C19.5019 29.6998 19.6992 29.656 19.8628 29.5666C20.0264 29.4772 20.1529 29.3474 20.2422 29.1771C20.3316 29.0068 20.3754 28.7943 20.3754 28.5413V28.0691L20.4547 28.2361C20.3839 28.3744 20.2878 28.4941 20.168 28.5953C20.0483 28.6965 19.91 28.7774 19.7549 28.8347C19.5997 28.8921 19.4294 28.9208 19.2422 28.9208C18.9893 28.9208 18.7751 28.8668 18.5997 28.7572C18.4244 28.6476 18.2911 28.4975 18.2001 28.3052C18.109 28.113 18.0635 27.8887 18.0635 27.6358V25.6256C18.0635 25.5498 18.0888 25.4874 18.1394 25.4368C18.19 25.3862 18.254 25.3609 18.3282 25.3609C18.4075 25.3609 18.4733 25.3862 18.5222 25.4368C18.5711 25.4874 18.5947 25.5514 18.5947 25.6256V27.516C18.5947 27.8179 18.6604 28.0455 18.7937 28.1973C18.9269 28.3508 19.1326 28.4267 19.4125 28.4267C19.5896 28.4267 19.7515 28.3862 19.8948 28.3069C20.0382 28.2277 20.1545 28.1181 20.2405 27.9781C20.3265 27.8381 20.3704 27.6847 20.3704 27.516V25.6256C20.3704 25.5498 20.394 25.4874 20.4429 25.4368C20.4918 25.3862 20.5559 25.3609 20.6351 25.3609L20.6419 25.3643Z" fill="url(#paint6_linear_1504_1592)"/>
<path d="M0.00520854 13.3777C0.00520854 11.7992 0.00520854 10.2225 0.00520854 8.6441C0.00689488 4.27647 3.05074 0.696373 7.3762 0.111213C9.99846 -0.244605 12.4639 0.237688 14.5432 2.02184C14.8113 2.25118 14.9378 2.11459 15.1216 1.95607C18.5516 -0.966359 25.0373 -0.799411 28.0912 3.70481C29.0592 5.13145 29.5853 6.70312 29.5921 8.42993C29.6039 11.8195 29.5988 15.209 29.5937 18.5969C29.5921 20.1905 28.3779 21.435 26.8332 21.4485C25.2598 21.4637 24.0035 20.2394 23.99 18.6239C23.9698 16.2866 23.985 13.9493 23.985 11.6121C23.985 10.634 23.985 9.65422 23.985 8.67614C23.985 7.02184 22.8973 5.81273 21.2649 5.64747C19.705 5.48895 18.4571 6.07917 17.9091 7.31526C17.7202 7.74191 17.619 8.24275 17.6157 8.70987C17.5904 11.9814 17.6039 15.2546 17.6022 18.5261C17.6022 20.1888 16.4082 21.4417 14.8197 21.4485C13.2076 21.4552 12.0002 20.204 11.9985 18.521C11.9985 15.3355 11.9411 12.15 12.0204 8.96788C12.0642 7.24106 10.9631 5.40464 8.3762 5.64073C6.72696 5.7925 5.61735 7.00666 5.61566 8.6812C5.61566 11.9679 5.62241 15.2546 5.61229 18.5412C5.60723 20.2141 4.36777 21.4653 2.76069 21.4468C1.26322 21.435 0.0237583 20.2242 0.00858122 18.725C-0.00828219 16.9426 0.00520854 15.1601 0.0035222 13.3777H0.00520854Z" fill="#EF4D58"/>
<path d="M0.00520854 13.3777C0.00520854 11.7992 0.00520854 10.2225 0.00520854 8.6441C0.00689488 4.27647 3.05074 0.696373 7.3762 0.111213C9.99846 -0.244605 12.4639 0.237688 14.5432 2.02184C14.8113 2.25118 14.9378 2.11459 15.1216 1.95607C18.5516 -0.966359 25.0373 -0.799411 28.0912 3.70481C29.0592 5.13145 29.5853 6.70312 29.5921 8.42993C29.6039 11.8195 29.5988 15.209 29.5937 18.5969C29.5921 20.1905 28.3779 21.435 26.8332 21.4485C25.2598 21.4637 24.0035 20.2394 23.99 18.6239C23.9698 16.2866 23.985 13.9493 23.985 11.6121C23.985 10.634 23.985 9.65422 23.985 8.67614C23.985 7.02184 22.8973 5.81273 21.2649 5.64747C19.705 5.48895 18.4571 6.07917 17.9091 7.31526C17.7202 7.74191 17.619 8.24275 17.6157 8.70987C17.5904 11.9814 17.6039 15.2546 17.6022 18.5261C17.6022 20.1888 16.4082 21.4417 14.8197 21.4485C13.2076 21.4552 12.0002 20.204 11.9985 18.521C11.9985 15.3355 11.9411 12.15 12.0204 8.96788C12.0642 7.24106 10.9631 5.40464 8.3762 5.64073C6.72696 5.7925 5.61735 7.00666 5.61566 8.6812C5.61566 11.9679 5.62241 15.2546 5.61229 18.5412C5.60723 20.2141 4.36777 21.4653 2.76069 21.4468C1.26322 21.435 0.0237583 20.2242 0.00858122 18.725C-0.00828219 16.9426 0.00520854 15.1601 0.0035222 13.3777H0.00520854Z" fill="url(#paint7_linear_1504_1592)"/>
</g>
<defs>
<linearGradient id="paint0_linear_1504_1592" x1="22.4371" y1="24.602" x2="32.0003" y2="24.602" gradientUnits="userSpaceOnUse">
<stop stop-color="white" stop-opacity="0.2"/>
<stop offset="1" stop-color="#404041" stop-opacity="0"/>
</linearGradient>
<linearGradient id="paint1_linear_1504_1592" x1="22.4368" y1="25.9494" x2="27.3491" y2="25.9494" gradientUnits="userSpaceOnUse">
<stop stop-color="#EF4D58" stop-opacity="0"/>
<stop offset="1" stop-color="#EB1C29"/>
</linearGradient>
<linearGradient id="paint2_linear_1504_1592" x1="2.79389" y1="25.3643" x2="2.79389" y2="28.8584" gradientUnits="userSpaceOnUse">
<stop stop-color="#EF4D58" stop-opacity="0"/>
<stop offset="1" stop-color="#EB1C29"/>
</linearGradient>
<linearGradient id="paint3_linear_1504_1592" x1="7.87525" y1="25.3322" x2="7.87525" y2="28.9258" gradientUnits="userSpaceOnUse">
<stop stop-color="#EF4D58" stop-opacity="0"/>
<stop offset="1" stop-color="#EB1C29"/>
</linearGradient>
<linearGradient id="paint4_linear_1504_1592" x1="11.8516" y1="25.3322" x2="11.8516" y2="28.8584" gradientUnits="userSpaceOnUse">
<stop stop-color="#EF4D58" stop-opacity="0"/>
<stop offset="1" stop-color="#EB1C29"/>
</linearGradient>
<linearGradient id="paint5_linear_1504_1592" x1="15.7009" y1="25.3322" x2="15.7009" y2="28.9258" gradientUnits="userSpaceOnUse">
<stop stop-color="#EF4D58" stop-opacity="0"/>
<stop offset="1" stop-color="#EB1C29"/>
</linearGradient>
<linearGradient id="paint6_linear_1504_1592" x1="19.4867" y1="25.3643" x2="19.4867" y2="30.1889" gradientUnits="userSpaceOnUse">
<stop stop-color="#EF4D58" stop-opacity="0"/>
<stop offset="1" stop-color="#EB1C29"/>
</linearGradient>
<linearGradient id="paint7_linear_1504_1592" x1="14.7995" y1="-8.55698e-05" x2="14.7995" y2="21.4502" gradientUnits="userSpaceOnUse">
<stop stop-color="#EF4D58" stop-opacity="0"/>
<stop offset="1" stop-color="#EB1C29"/>
</linearGradient>
<clipPath id="clip0_1504_1592">
<rect width="32" height="31.0354" fill="white"/>
</clipPath>
</defs>
</svg>
