<svg width="34" height="34" viewBox="0 0 34 34" fill="none" xmlns="http://www.w3.org/2000/svg">
<g clip-path="url(#clip0_742_2631)">
<path d="M2.21286 28.25C2.52457 28.25 2.77737 28.3279 2.97314 28.4818C3.16701 28.6356 3.29816 28.8544 3.36089 29.1362H3.25825L3.30577 29.0157C3.36089 28.8896 3.45402 28.7691 3.58707 28.6542C3.72012 28.5374 3.87408 28.4428 4.04704 28.365C4.22191 28.2889 4.40248 28.2519 4.59065 28.2519C4.89286 28.2519 5.13235 28.3149 5.30532 28.4428C5.48018 28.5708 5.60373 28.7413 5.67976 28.9527C5.75578 29.164 5.7938 29.4032 5.7938 29.6665V31.4983C5.7938 31.5743 5.76719 31.6392 5.71397 31.693C5.66075 31.7467 5.59613 31.7727 5.5182 31.7727C5.43647 31.7727 5.36804 31.7467 5.31862 31.693C5.2692 31.6392 5.24259 31.5743 5.24259 31.4983V29.6795C5.24259 29.5052 5.21598 29.3476 5.16276 29.2067C5.10954 29.0658 5.02591 28.9545 4.90807 28.8711C4.79212 28.7877 4.63246 28.7469 4.42909 28.7469C4.24092 28.7469 4.06985 28.7877 3.91399 28.8711C3.75814 28.9545 3.63459 29.0658 3.54336 29.2067C3.45212 29.3476 3.4065 29.5052 3.4065 29.6795V31.4983C3.4065 31.5743 3.38179 31.6392 3.33048 31.693C3.27916 31.7467 3.21453 31.7727 3.1309 31.7727C3.05297 31.7727 2.98835 31.7467 2.93513 31.693C2.88191 31.6392 2.8572 31.5743 2.8572 31.4983V29.6591C2.8572 29.4885 2.83249 29.3365 2.78497 29.1993C2.73745 29.0621 2.65572 28.9527 2.54168 28.8711C2.42764 28.7877 2.26798 28.7469 2.0665 28.7469C1.88213 28.7469 1.71487 28.7877 1.56471 28.8711C1.41266 28.9545 1.29101 29.0639 1.19978 29.1993C1.10854 29.3365 1.06292 29.4885 1.06292 29.6591V31.4983C1.06292 31.5743 1.03632 31.6392 0.983095 31.693C0.929875 31.7467 0.865251 31.7727 0.787322 31.7727C0.709393 31.7727 0.644769 31.7467 0.591549 31.693C0.538329 31.6392 0.511719 31.5743 0.511719 31.4983V28.5726C0.511719 28.4966 0.538329 28.4336 0.591549 28.3816C0.644769 28.3297 0.709393 28.3038 0.787322 28.3038C0.870954 28.3038 0.937479 28.3297 0.986898 28.3816C1.03822 28.4336 1.06292 28.4966 1.06292 28.5726V29.0825L0.910869 29.2438C0.929876 29.127 0.975493 29.012 1.05152 28.8952C1.12755 28.7784 1.22449 28.6709 1.34423 28.5726C1.46398 28.4743 1.59703 28.3965 1.74338 28.3371C1.88974 28.2797 2.04559 28.25 2.21096 28.25H2.21286Z" fill="#F14D58"/>
<path d="M10.1925 30.0282C10.1925 30.3768 10.1127 30.6882 9.95494 30.9608C9.79719 31.2333 9.5843 31.4484 9.3144 31.6041C9.0445 31.7599 8.74419 31.8396 8.40966 31.8396C8.07514 31.8396 7.77293 31.7617 7.50112 31.6041C7.22932 31.4465 7.01644 31.2333 6.85868 30.9608C6.70092 30.6882 6.62109 30.3768 6.62109 30.0282C6.62109 29.6796 6.70092 29.3682 6.85868 29.0956C7.01644 28.8231 7.23122 28.608 7.50112 28.4523C7.77102 28.2965 8.07514 28.2168 8.40966 28.2168C8.74419 28.2168 9.0464 28.2947 9.3144 28.4523C9.5824 28.6099 9.79528 28.8231 9.95494 29.0956C10.1127 29.3682 10.1925 29.6796 10.1925 30.0282ZM9.64133 30.0282C9.64133 29.7686 9.58811 29.5406 9.47977 29.3441C9.37143 29.1475 9.22507 28.9936 9.0388 28.8805C8.85253 28.7693 8.64345 28.7118 8.40966 28.7118C8.17588 28.7118 7.9668 28.7674 7.78053 28.8805C7.59426 28.9918 7.446 29.1475 7.33766 29.3441C7.22742 29.5406 7.1723 29.7686 7.1723 30.0282C7.1723 30.2878 7.22742 30.5084 7.33766 30.7068C7.4479 30.9033 7.59616 31.059 7.78053 31.174C7.9668 31.2889 8.17588 31.3446 8.40966 31.3446C8.64345 31.3446 8.85253 31.2871 9.0388 31.174C9.22507 31.059 9.37143 30.9052 9.47977 30.7068C9.58811 30.5102 9.64133 30.2841 9.64133 30.0282Z" fill="#F14D58"/>
<path d="M12.7842 28.2148C13.0959 28.2148 13.3411 28.2779 13.5197 28.4021C13.6984 28.5282 13.8257 28.695 13.9018 28.9045C13.9778 29.1141 14.0158 29.3495 14.0158 29.6091V31.4946C14.0158 31.5707 13.9892 31.6356 13.936 31.6893C13.8828 31.7431 13.8181 31.769 13.7402 31.769C13.6623 31.769 13.5977 31.7431 13.5444 31.6893C13.4912 31.6356 13.4646 31.5707 13.4646 31.4946V29.6221C13.4646 29.4515 13.438 29.2995 13.3848 29.1623C13.3316 29.0251 13.2441 28.9157 13.1225 28.8341C13.0008 28.7507 12.8355 28.7099 12.6245 28.7099C12.4325 28.7099 12.2558 28.7507 12.0942 28.8341C11.9326 28.9175 11.8053 29.0269 11.7084 29.1623C11.6114 29.2976 11.5639 29.4515 11.5639 29.6221V31.4946C11.5639 31.5707 11.5373 31.6356 11.4841 31.6893C11.4309 31.7431 11.3662 31.769 11.2883 31.769C11.2104 31.769 11.1457 31.7431 11.0925 31.6893C11.0393 31.6356 11.0127 31.5707 11.0127 31.4946V28.569C11.0127 28.493 11.0393 28.4299 11.0925 28.378C11.1457 28.3261 11.2104 28.3001 11.2883 28.3001C11.37 28.3001 11.4366 28.3261 11.4879 28.378C11.5392 28.4299 11.5639 28.493 11.5639 28.569V29.0455L11.4271 29.1938C11.4499 29.077 11.5031 28.9602 11.5848 28.8415C11.6665 28.7229 11.7711 28.6172 11.8946 28.5226C12.0182 28.4281 12.155 28.3539 12.3071 28.2983C12.4591 28.2427 12.6169 28.2148 12.7823 28.2148H12.7842Z" fill="#F14D58"/>
<path d="M16.6789 31.8396C16.312 31.8396 15.9908 31.7636 15.7152 31.6116C15.4396 31.4595 15.2248 31.25 15.0728 30.9849C14.9188 30.7179 14.8428 30.412 14.8428 30.0616C14.8428 29.6722 14.9226 29.3403 15.0804 29.0659C15.2381 28.7916 15.4453 28.5802 15.7 28.4356C15.9547 28.291 16.2246 28.2168 16.5078 28.2168C16.7188 28.2168 16.9222 28.2557 17.1198 28.3317C17.3175 28.4078 17.4905 28.519 17.6425 28.6636C17.7946 28.8082 17.9162 28.9825 18.0075 29.1865C18.0987 29.3904 18.1481 29.6166 18.1519 29.8669C18.1519 29.9392 18.1253 29.9985 18.0702 30.0486C18.0151 30.0987 17.9504 30.1228 17.8782 30.1228H15.1602L15.0366 29.6592H17.6843L17.5741 29.7538V29.6055C17.5551 29.4219 17.4924 29.2643 17.384 29.1327C17.2757 29.0011 17.1464 28.8991 16.9925 28.8268C16.8385 28.7545 16.677 28.7192 16.5078 28.7192C16.3709 28.7192 16.2341 28.7433 16.0991 28.7897C15.9642 28.836 15.8425 28.9121 15.7342 29.0177C15.6259 29.1234 15.5384 29.2588 15.4719 29.4238C15.4054 29.5888 15.3712 29.789 15.3712 30.0208C15.3712 30.2803 15.4244 30.5084 15.5327 30.7049C15.6411 30.9015 15.7912 31.0572 15.9832 31.1721C16.1752 31.2871 16.4014 31.3427 16.658 31.3427C16.8176 31.3427 16.9583 31.3223 17.078 31.2815C17.1978 31.2407 17.3004 31.1907 17.3878 31.1314C17.4753 31.072 17.5475 31.009 17.6083 30.946C17.6672 30.9052 17.7262 30.8848 17.7813 30.8848C17.8497 30.8848 17.9067 30.907 17.9504 30.9515C17.9942 30.996 18.0151 31.0498 18.0151 31.1128C18.0151 31.1888 17.9789 31.2556 17.9048 31.313C17.7756 31.4521 17.6026 31.5745 17.3821 31.6783C17.1616 31.784 16.9279 31.8359 16.6808 31.8359L16.6789 31.8396Z" fill="#F14D58"/>
<path d="M21.6043 28.25C21.6822 28.25 21.7469 28.276 21.8001 28.3279C21.8533 28.3798 21.8799 28.4428 21.8799 28.5188V31.4445C21.8799 31.8209 21.8039 32.1324 21.6537 32.3808C21.5036 32.6293 21.3002 32.8128 21.0455 32.9352C20.7908 33.0557 20.5038 33.1169 20.1826 33.1169C20.0039 33.1169 19.8309 33.0983 19.6675 33.0631C19.5021 33.0279 19.3672 32.9797 19.2607 32.9222C19.1733 32.8814 19.1125 32.8313 19.0783 32.772C19.044 32.7108 19.0383 32.6478 19.0612 32.581C19.0935 32.5013 19.141 32.4439 19.2018 32.4123C19.2645 32.3808 19.3292 32.3808 19.3976 32.4123C19.4717 32.4439 19.5781 32.4865 19.7169 32.544C19.8556 32.6014 20.0134 32.6274 20.1883 32.6274C20.4259 32.6274 20.6311 32.5829 20.8003 32.4939C20.9695 32.4049 21.1006 32.2733 21.1919 32.1009C21.2831 31.9284 21.3287 31.7152 21.3287 31.4593V30.9829L21.4104 31.1516C21.3363 31.2906 21.2394 31.4111 21.1139 31.5131C20.9904 31.6151 20.8478 31.6967 20.6882 31.7541C20.5285 31.8116 20.3517 31.8413 20.1579 31.8413C19.8956 31.8413 19.6751 31.7857 19.4945 31.6763C19.3139 31.5669 19.1752 31.4149 19.0821 31.2202C18.9889 31.0255 18.9414 30.8012 18.9414 30.5453V28.5188C18.9414 28.4428 18.968 28.3798 19.0212 28.3279C19.0745 28.276 19.1391 28.25 19.217 28.25C19.2987 28.25 19.3653 28.276 19.4166 28.3279C19.4679 28.3798 19.4926 28.4428 19.4926 28.5188V30.4248C19.4926 30.7289 19.561 30.9588 19.6998 31.1126C19.8385 31.2665 20.0514 31.3444 20.3403 31.3444C20.5247 31.3444 20.6901 31.3036 20.8383 31.2239C20.9866 31.1442 21.1063 31.0329 21.1957 30.892C21.285 30.7511 21.3306 30.5954 21.3306 30.4248V28.5188C21.3306 28.4428 21.3553 28.3798 21.4066 28.3279C21.4579 28.276 21.5245 28.25 21.6062 28.25H21.6043Z" fill="#F14D58"/>
<path d="M26.4859 27.0752H31.1998C32.7456 27.0752 34.0002 28.2841 34.0002 29.7737V29.8007C34.0002 31.0726 32.9286 32.1035 31.6105 32.1035H23.6855V29.7737C23.6855 28.2841 24.9401 27.0752 26.4859 27.0752Z" fill="#404041"/>
<path d="M26.2743 31.1889C26.0538 31.1889 25.9017 31.1092 25.8181 30.9609C25.7364 30.8126 25.7269 30.6105 25.7858 30.3713C26.0101 29.4869 26.126 29.1513 26.3655 28.165C26.3807 28.1001 26.4092 28.05 26.4491 28.0148C26.4891 27.9796 26.5385 27.9629 26.5993 27.9629C26.6582 27.9629 26.7 27.9796 26.7248 28.0148C26.7514 28.05 26.7571 28.0982 26.7419 28.1631C26.5252 29.1291 26.3845 29.4814 26.1564 30.3546C26.1165 30.5103 26.1184 30.6346 26.164 30.718C26.2097 30.8014 26.2952 30.8459 26.4225 30.8478C26.4491 30.8478 26.4739 30.8478 26.4948 30.8441C26.5157 30.8422 26.5385 30.8404 26.5594 30.8404C26.5917 30.8404 26.6145 30.8459 26.624 30.8645C26.6335 30.883 26.6335 30.9219 26.6221 30.9794C26.6107 31.0369 26.5917 31.0814 26.5632 31.1129C26.5347 31.1426 26.4891 31.1648 26.4339 31.1741C26.4092 31.1778 26.3826 31.1815 26.3541 31.1852C26.3256 31.1889 26.299 31.1908 26.2743 31.1908V31.1889Z" fill="white"/>
<path d="M27.8667 28.471C27.7887 28.471 27.7317 28.4525 27.6975 28.4117C27.6633 28.3709 27.6519 28.3153 27.6652 28.243C27.6785 28.1688 27.7108 28.1113 27.7602 28.0706C27.8096 28.0316 27.8724 28.0112 27.9484 28.0112C28.0282 28.0112 28.0871 28.0316 28.1233 28.0706C28.1594 28.1095 28.1727 28.1651 28.1594 28.2393C28.148 28.3097 28.1157 28.3654 28.0643 28.408C28.013 28.4488 27.9465 28.471 27.8667 28.471ZM27.1368 31.1705C27.076 31.1705 27.0322 31.152 27.0075 31.113C26.9828 31.076 26.9752 31.0222 26.9866 30.9555C27.1235 30.1786 27.285 29.8727 27.496 29.1607C27.515 29.0996 27.5435 29.0532 27.5835 29.0217C27.6234 28.9902 27.6747 28.9735 27.7374 28.9716C27.7963 28.9716 27.8381 28.9865 27.8629 29.0198C27.8876 29.0513 27.8914 29.0996 27.8724 29.1607C27.6519 29.8764 27.4751 30.1953 27.3535 30.961C27.3421 31.0259 27.3212 31.0778 27.2831 31.1149C27.247 31.152 27.1976 31.1705 27.1368 31.1705Z" fill="white"/>
<path d="M28.9105 31.1891C28.7357 31.1891 28.5893 31.1594 28.4753 31.0964C28.3612 31.0352 28.2833 30.9425 28.2472 30.8257C28.2111 30.707 28.2149 30.5643 28.2643 30.3974C28.3973 29.9487 28.4905 29.7151 28.6406 29.2683C28.5171 29.2683 28.4543 29.2683 28.3308 29.2683C28.2776 29.2683 28.2415 29.2553 28.2225 29.2312C28.2035 29.2071 28.1996 29.1719 28.213 29.1292C28.2263 29.0847 28.251 29.0514 28.2871 29.0273C28.3213 29.0032 28.3669 28.992 28.4182 28.992C28.5437 28.992 28.6045 28.992 28.7299 28.992C28.7946 28.7862 28.8269 28.6824 28.8706 28.4729C28.8839 28.4117 28.9086 28.3654 28.9485 28.3339C28.9884 28.3023 29.0379 28.2856 29.0968 28.2856C29.1557 28.2856 29.1994 28.3005 29.2279 28.332C29.2545 28.3635 29.2641 28.4099 29.2507 28.471C29.207 28.6806 29.1728 28.7862 29.1063 28.992C29.3401 28.992 29.4484 28.992 29.6746 28.992C29.7259 28.992 29.762 29.005 29.781 29.0273C29.8 29.0514 29.8039 29.0847 29.7886 29.1292C29.7753 29.1737 29.7487 29.2071 29.7145 29.2331C29.6784 29.2572 29.6347 29.2701 29.5834 29.2701C29.3553 29.2701 29.2431 29.2701 29.0113 29.2701C28.8611 29.704 28.768 29.9357 28.6349 30.3733C28.5836 30.542 28.5893 30.6699 28.6463 30.7571C28.7033 30.8442 28.8212 30.8869 28.9884 30.8869C29.0474 30.8869 29.0987 30.8813 29.1443 30.8702C29.188 30.8591 29.226 30.8535 29.2526 30.8516C29.2793 30.8516 29.304 30.8572 29.3173 30.8776C29.3325 30.898 29.3344 30.9332 29.3287 30.9833C29.323 31.0185 29.3116 31.0519 29.2945 31.0815C29.2774 31.1112 29.2507 31.1335 29.2165 31.1446C29.1804 31.1557 29.1291 31.1668 29.0702 31.178C29.0094 31.1891 28.9561 31.1928 28.9067 31.1928L28.9105 31.1891Z" fill="white"/>
<path d="M30.6025 31.1889C30.3668 31.1889 30.173 31.1444 30.0171 31.0536C29.8612 30.9627 29.7491 30.8366 29.6921 30.6716C29.6351 30.5066 29.6446 30.3119 29.7187 30.0783C29.7909 29.8503 29.9031 29.6408 30.0437 29.4776C30.1844 29.3145 30.3497 29.1847 30.536 29.0901C30.7223 28.9956 30.9161 28.9492 31.1233 28.9492C31.2697 28.9492 31.3951 28.9733 31.4997 29.0234C31.6042 29.0716 31.6859 29.142 31.7448 29.231C31.8038 29.32 31.8418 29.4294 31.8551 29.5573C31.8684 29.6853 31.8532 29.8466 31.8133 30.0134C31.8019 30.0616 31.7791 30.0969 31.7448 30.1191C31.7106 30.1414 31.6688 30.1525 31.6156 30.1525C30.9637 30.1525 30.6386 30.1525 29.9867 30.1506C30.0152 30.0561 30.0304 30.0079 30.0608 29.9115C30.6709 29.9115 30.977 29.9115 31.589 29.9115C31.5529 29.9356 31.5358 29.9467 31.4997 29.9708C31.5415 29.8076 31.5529 29.6575 31.532 29.5499C31.5092 29.4405 31.4616 29.359 31.3837 29.2996C31.3058 29.2403 31.1993 29.2125 31.0606 29.2125C30.9066 29.2125 30.766 29.2477 30.6386 29.3145C30.5113 29.3831 30.4048 29.4684 30.3117 29.5981C30.2186 29.7279 30.1464 29.8762 30.095 30.0413C30.0912 30.0524 30.0893 30.0579 30.0874 30.0691C30.0038 30.3453 30.0171 30.5493 30.1235 30.6902C30.2281 30.8311 30.4124 30.9015 30.6671 30.9015C30.7736 30.9015 30.8819 30.8885 30.9922 30.8626C31.1043 30.8366 31.2165 30.7921 31.3343 30.731C31.3856 30.705 31.4293 30.692 31.4635 30.6939C31.4997 30.6939 31.5263 30.705 31.5434 30.7254C31.5605 30.7439 31.5681 30.768 31.57 30.7958C31.5719 30.8237 31.5586 30.8533 31.5358 30.8867C31.513 30.9182 31.4787 30.946 31.4312 30.9701C31.3096 31.0406 31.1746 31.0962 31.0264 31.1333C30.8781 31.1704 30.7394 31.1908 30.6044 31.1908L30.6025 31.1889Z" fill="white"/>
<path d="M2.21286 28.25C2.52457 28.25 2.77737 28.3279 2.97314 28.4818C3.16701 28.6356 3.29816 28.8544 3.36089 29.1362H3.25825L3.30577 29.0157C3.36089 28.8896 3.45402 28.7691 3.58707 28.6542C3.72012 28.5374 3.87408 28.4428 4.04704 28.365C4.22191 28.2889 4.40248 28.2519 4.59065 28.2519C4.89286 28.2519 5.13235 28.3149 5.30532 28.4428C5.48018 28.5708 5.60373 28.7413 5.67976 28.9527C5.75578 29.164 5.7938 29.4032 5.7938 29.6665V31.4983C5.7938 31.5743 5.76719 31.6392 5.71397 31.693C5.66075 31.7467 5.59613 31.7727 5.5182 31.7727C5.43647 31.7727 5.36804 31.7467 5.31862 31.693C5.2692 31.6392 5.24259 31.5743 5.24259 31.4983V29.6795C5.24259 29.5052 5.21598 29.3476 5.16276 29.2067C5.10954 29.0658 5.02591 28.9545 4.90807 28.8711C4.79212 28.7877 4.63246 28.7469 4.42909 28.7469C4.24092 28.7469 4.06985 28.7877 3.91399 28.8711C3.75814 28.9545 3.63459 29.0658 3.54336 29.2067C3.45212 29.3476 3.4065 29.5052 3.4065 29.6795V31.4983C3.4065 31.5743 3.38179 31.6392 3.33048 31.693C3.27916 31.7467 3.21453 31.7727 3.1309 31.7727C3.05297 31.7727 2.98835 31.7467 2.93513 31.693C2.88191 31.6392 2.8572 31.5743 2.8572 31.4983V29.6591C2.8572 29.4885 2.83249 29.3365 2.78497 29.1993C2.73745 29.0621 2.65572 28.9527 2.54168 28.8711C2.42764 28.7877 2.26798 28.7469 2.0665 28.7469C1.88213 28.7469 1.71487 28.7877 1.56471 28.8711C1.41266 28.9545 1.29101 29.0639 1.19978 29.1993C1.10854 29.3365 1.06292 29.4885 1.06292 29.6591V31.4983C1.06292 31.5743 1.03632 31.6392 0.983095 31.693C0.929875 31.7467 0.865251 31.7727 0.787322 31.7727C0.709393 31.7727 0.644769 31.7467 0.591549 31.693C0.538329 31.6392 0.511719 31.5743 0.511719 31.4983V28.5726C0.511719 28.4966 0.538329 28.4336 0.591549 28.3816C0.644769 28.3297 0.709393 28.3038 0.787322 28.3038C0.870954 28.3038 0.937479 28.3297 0.986898 28.3816C1.03822 28.4336 1.06292 28.4966 1.06292 28.5726V29.0825L0.910869 29.2438C0.929876 29.127 0.975493 29.012 1.05152 28.8952C1.12755 28.7784 1.22449 28.6709 1.34423 28.5726C1.46398 28.4743 1.59703 28.3965 1.74338 28.3371C1.88974 28.2797 2.04559 28.25 2.21096 28.25H2.21286Z" fill="url(#paint0_linear_742_2631)"/>
<path d="M10.1925 30.0282C10.1925 30.3768 10.1127 30.6882 9.95494 30.9608C9.79719 31.2333 9.5843 31.4484 9.3144 31.6041C9.0445 31.7599 8.74419 31.8396 8.40966 31.8396C8.07514 31.8396 7.77293 31.7617 7.50112 31.6041C7.22932 31.4465 7.01644 31.2333 6.85868 30.9608C6.70092 30.6882 6.62109 30.3768 6.62109 30.0282C6.62109 29.6796 6.70092 29.3682 6.85868 29.0956C7.01644 28.8231 7.23122 28.608 7.50112 28.4523C7.77102 28.2965 8.07514 28.2168 8.40966 28.2168C8.74419 28.2168 9.0464 28.2947 9.3144 28.4523C9.5824 28.6099 9.79528 28.8231 9.95494 29.0956C10.1127 29.3682 10.1925 29.6796 10.1925 30.0282ZM9.64133 30.0282C9.64133 29.7686 9.58811 29.5406 9.47977 29.3441C9.37143 29.1475 9.22507 28.9936 9.0388 28.8805C8.85253 28.7693 8.64345 28.7118 8.40966 28.7118C8.17588 28.7118 7.9668 28.7674 7.78053 28.8805C7.59426 28.9918 7.446 29.1475 7.33766 29.3441C7.22742 29.5406 7.1723 29.7686 7.1723 30.0282C7.1723 30.2878 7.22742 30.5084 7.33766 30.7068C7.4479 30.9033 7.59616 31.059 7.78053 31.174C7.9668 31.2889 8.17588 31.3446 8.40966 31.3446C8.64345 31.3446 8.85253 31.2871 9.0388 31.174C9.22507 31.059 9.37143 30.9052 9.47977 30.7068C9.58811 30.5102 9.64133 30.2841 9.64133 30.0282Z" fill="url(#paint1_linear_742_2631)"/>
<path d="M12.7842 28.2148C13.0959 28.2148 13.3411 28.2779 13.5197 28.4021C13.6984 28.5282 13.8257 28.695 13.9018 28.9045C13.9778 29.1141 14.0158 29.3495 14.0158 29.6091V31.4946C14.0158 31.5707 13.9892 31.6356 13.936 31.6893C13.8828 31.7431 13.8181 31.769 13.7402 31.769C13.6623 31.769 13.5977 31.7431 13.5444 31.6893C13.4912 31.6356 13.4646 31.5707 13.4646 31.4946V29.6221C13.4646 29.4515 13.438 29.2995 13.3848 29.1623C13.3316 29.0251 13.2441 28.9157 13.1225 28.8341C13.0008 28.7507 12.8355 28.7099 12.6245 28.7099C12.4325 28.7099 12.2558 28.7507 12.0942 28.8341C11.9326 28.9175 11.8053 29.0269 11.7084 29.1623C11.6114 29.2976 11.5639 29.4515 11.5639 29.6221V31.4946C11.5639 31.5707 11.5373 31.6356 11.4841 31.6893C11.4309 31.7431 11.3662 31.769 11.2883 31.769C11.2104 31.769 11.1457 31.7431 11.0925 31.6893C11.0393 31.6356 11.0127 31.5707 11.0127 31.4946V28.569C11.0127 28.493 11.0393 28.4299 11.0925 28.378C11.1457 28.3261 11.2104 28.3001 11.2883 28.3001C11.37 28.3001 11.4366 28.3261 11.4879 28.378C11.5392 28.4299 11.5639 28.493 11.5639 28.569V29.0455L11.4271 29.1938C11.4499 29.077 11.5031 28.9602 11.5848 28.8415C11.6665 28.7229 11.7711 28.6172 11.8946 28.5226C12.0182 28.4281 12.155 28.3539 12.3071 28.2983C12.4591 28.2427 12.6169 28.2148 12.7823 28.2148H12.7842Z" fill="url(#paint2_linear_742_2631)"/>
<path d="M16.6789 31.8396C16.312 31.8396 15.9908 31.7636 15.7152 31.6116C15.4396 31.4595 15.2248 31.25 15.0728 30.9849C14.9188 30.7179 14.8428 30.412 14.8428 30.0616C14.8428 29.6722 14.9226 29.3403 15.0804 29.0659C15.2381 28.7916 15.4453 28.5802 15.7 28.4356C15.9547 28.291 16.2246 28.2168 16.5078 28.2168C16.7188 28.2168 16.9222 28.2557 17.1198 28.3317C17.3175 28.4078 17.4905 28.519 17.6425 28.6636C17.7946 28.8082 17.9162 28.9825 18.0075 29.1865C18.0987 29.3904 18.1481 29.6166 18.1519 29.8669C18.1519 29.9392 18.1253 29.9985 18.0702 30.0486C18.0151 30.0987 17.9504 30.1228 17.8782 30.1228H15.1602L15.0366 29.6592H17.6843L17.5741 29.7538V29.6055C17.5551 29.4219 17.4924 29.2643 17.384 29.1327C17.2757 29.0011 17.1464 28.8991 16.9925 28.8268C16.8385 28.7545 16.677 28.7192 16.5078 28.7192C16.3709 28.7192 16.2341 28.7433 16.0991 28.7897C15.9642 28.836 15.8425 28.9121 15.7342 29.0177C15.6259 29.1234 15.5384 29.2588 15.4719 29.4238C15.4054 29.5888 15.3712 29.789 15.3712 30.0208C15.3712 30.2803 15.4244 30.5084 15.5327 30.7049C15.6411 30.9015 15.7912 31.0572 15.9832 31.1721C16.1752 31.2871 16.4014 31.3427 16.658 31.3427C16.8176 31.3427 16.9583 31.3223 17.078 31.2815C17.1978 31.2407 17.3004 31.1907 17.3878 31.1314C17.4753 31.072 17.5475 31.009 17.6083 30.946C17.6672 30.9052 17.7262 30.8848 17.7813 30.8848C17.8497 30.8848 17.9067 30.907 17.9504 30.9515C17.9942 30.996 18.0151 31.0498 18.0151 31.1128C18.0151 31.1888 17.9789 31.2556 17.9048 31.313C17.7756 31.4521 17.6026 31.5745 17.3821 31.6783C17.1616 31.784 16.9279 31.8359 16.6808 31.8359L16.6789 31.8396Z" fill="url(#paint3_linear_742_2631)"/>
<path d="M21.6043 28.25C21.6822 28.25 21.7469 28.276 21.8001 28.3279C21.8533 28.3798 21.8799 28.4428 21.8799 28.5188V31.4445C21.8799 31.8209 21.8039 32.1324 21.6537 32.3808C21.5036 32.6293 21.3002 32.8128 21.0455 32.9352C20.7908 33.0557 20.5038 33.1169 20.1826 33.1169C20.0039 33.1169 19.8309 33.0983 19.6675 33.0631C19.5021 33.0279 19.3672 32.9797 19.2607 32.9222C19.1733 32.8814 19.1125 32.8313 19.0783 32.772C19.044 32.7108 19.0383 32.6478 19.0612 32.581C19.0935 32.5013 19.141 32.4439 19.2018 32.4123C19.2645 32.3808 19.3292 32.3808 19.3976 32.4123C19.4717 32.4439 19.5781 32.4865 19.7169 32.544C19.8556 32.6014 20.0134 32.6274 20.1883 32.6274C20.4259 32.6274 20.6311 32.5829 20.8003 32.4939C20.9695 32.4049 21.1006 32.2733 21.1919 32.1009C21.2831 31.9284 21.3287 31.7152 21.3287 31.4593V30.9829L21.4104 31.1516C21.3363 31.2906 21.2394 31.4111 21.1139 31.5131C20.9904 31.6151 20.8478 31.6967 20.6882 31.7541C20.5285 31.8116 20.3517 31.8413 20.1579 31.8413C19.8956 31.8413 19.6751 31.7857 19.4945 31.6763C19.3139 31.5669 19.1752 31.4149 19.0821 31.2202C18.9889 31.0255 18.9414 30.8012 18.9414 30.5453V28.5188C18.9414 28.4428 18.968 28.3798 19.0212 28.3279C19.0745 28.276 19.1391 28.25 19.217 28.25C19.2987 28.25 19.3653 28.276 19.4166 28.3279C19.4679 28.3798 19.4926 28.4428 19.4926 28.5188V30.4248C19.4926 30.7289 19.561 30.9588 19.6998 31.1126C19.8385 31.2665 20.0514 31.3444 20.3403 31.3444C20.5247 31.3444 20.6901 31.3036 20.8383 31.2239C20.9866 31.1442 21.1063 31.0329 21.1957 30.892C21.285 30.7511 21.3306 30.5954 21.3306 30.4248V28.5188C21.3306 28.4428 21.3553 28.3798 21.4066 28.3279C21.4579 28.276 21.5245 28.25 21.6062 28.25H21.6043Z" fill="url(#paint4_linear_742_2631)"/>
<path d="M0.00396773 14.7165C0.00396773 12.9804 0.00396773 11.2462 0.00396773 9.5101C0.00586754 4.70752 3.42552 0.768326 8.28143 0.124509C11.2261 -0.266247 13.9961 0.264065 16.329 2.22529C16.6292 2.47835 16.7717 2.32577 16.9788 2.15272C20.8297 -1.06265 28.1135 -0.876572 31.5427 4.07673C32.6294 5.6472 33.2202 7.37397 33.2278 9.27379C33.2411 13.0009 33.2354 16.7298 33.2297 20.4569C33.2278 22.2097 31.8656 23.5792 30.1292 23.5941C28.3624 23.609 26.9527 22.2636 26.9356 20.4885C26.9128 17.9188 26.9299 15.3473 26.9299 12.7757C26.9299 11.6983 26.9299 10.6228 26.9299 9.54545C26.9299 7.72565 25.7084 6.39521 23.8751 6.21472C22.1234 6.04167 20.7233 6.69107 20.1077 8.04942C19.895 8.51832 19.7829 9.0691 19.7791 9.58267C19.7525 13.1813 19.7658 16.78 19.7639 20.3787C19.7639 22.2078 18.4245 23.5848 16.6406 23.5922C14.8301 23.5997 13.4736 22.2246 13.4736 20.3731C13.4736 16.8712 13.409 13.3656 13.4983 9.8655C13.5477 7.96568 12.3109 5.94491 9.40612 6.20728C7.5538 6.37475 6.30753 7.71076 6.30753 9.55104C6.30753 13.1665 6.31513 16.7819 6.30373 20.3955C6.29803 22.2357 4.90547 23.6108 3.10066 23.5922C1.41933 23.5736 0.0267659 22.2432 0.00966765 20.5946C-0.00933043 18.6352 0.00586754 16.674 0.00396773 14.7146V14.7165Z" fill="#F14D58"/>
<path d="M0.00396773 14.7165C0.00396773 12.9804 0.00396773 11.2462 0.00396773 9.5101C0.00586754 4.70752 3.42552 0.768326 8.28143 0.124509C11.2261 -0.266247 13.9961 0.264065 16.329 2.22529C16.6292 2.47835 16.7717 2.32577 16.9788 2.15272C20.8297 -1.06265 28.1135 -0.876572 31.5427 4.07673C32.6294 5.6472 33.2202 7.37397 33.2278 9.27379C33.2411 13.0009 33.2354 16.7298 33.2297 20.4569C33.2278 22.2097 31.8656 23.5792 30.1292 23.5941C28.3624 23.609 26.9527 22.2636 26.9356 20.4885C26.9128 17.9188 26.9299 15.3473 26.9299 12.7757C26.9299 11.6983 26.9299 10.6228 26.9299 9.54545C26.9299 7.72565 25.7084 6.39521 23.8751 6.21472C22.1234 6.04167 20.7233 6.69107 20.1077 8.04942C19.895 8.51832 19.7829 9.0691 19.7791 9.58267C19.7525 13.1813 19.7658 16.78 19.7639 20.3787C19.7639 22.2078 18.4245 23.5848 16.6406 23.5922C14.8301 23.5997 13.4736 22.2246 13.4736 20.3731C13.4736 16.8712 13.409 13.3656 13.4983 9.8655C13.5477 7.96568 12.3109 5.94491 9.40612 6.20728C7.5538 6.37475 6.30753 7.71076 6.30753 9.55104C6.30753 13.1665 6.31513 16.7819 6.30373 20.3955C6.29803 22.2357 4.90547 23.6108 3.10066 23.5922C1.41933 23.5736 0.0267659 22.2432 0.00966765 20.5946C-0.00933043 18.6352 0.00586754 16.674 0.00396773 14.7146V14.7165Z" fill="url(#paint5_linear_742_2631)"/>
</g>
<defs>
<linearGradient id="paint0_linear_742_2631" x1="3.15371" y1="28.25" x2="3.15371" y2="31.7727" gradientUnits="userSpaceOnUse">
<stop stop-color="#F14D58" stop-opacity="0"/>
<stop offset="1" stop-color="#ED1C29"/>
</linearGradient>
<linearGradient id="paint1_linear_742_2631" x1="8.40776" y1="28.2149" x2="8.40776" y2="31.8396" gradientUnits="userSpaceOnUse">
<stop stop-color="#F14D58" stop-opacity="0"/>
<stop offset="1" stop-color="#ED1C29"/>
</linearGradient>
<linearGradient id="paint2_linear_742_2631" x1="12.5162" y1="28.2148" x2="12.5162" y2="-11.1242" gradientUnits="userSpaceOnUse">
<stop stop-color="#F14D58" stop-opacity="0"/>
<stop offset="1" stop-color="#ED1C29"/>
</linearGradient>
<linearGradient id="paint3_linear_742_2631" x1="16.4964" y1="28.2149" x2="16.4964" y2="31.8396" gradientUnits="userSpaceOnUse">
<stop stop-color="#F14D58" stop-opacity="0"/>
<stop offset="1" stop-color="#ED1C29"/>
</linearGradient>
<linearGradient id="paint4_linear_742_2631" x1="20.4107" y1="-11.1243" x2="20.4107" y2="33.1132" gradientUnits="userSpaceOnUse">
<stop stop-color="#F14D58" stop-opacity="0"/>
<stop offset="1" stop-color="#ED1C29"/>
</linearGradient>
<linearGradient id="paint5_linear_742_2631" x1="16.6178" y1="0.00356085" x2="16.6178" y2="23.5959" gradientUnits="userSpaceOnUse">
<stop stop-color="#F14D58" stop-opacity="0"/>
<stop offset="1" stop-color="#ED1C29"/>
</linearGradient>
<clipPath id="clip0_742_2631">
<rect width="34" height="34" fill="white"/>
</clipPath>
</defs>
</svg>
