<svg width="16" height="16" viewBox="0 0 16 16" fill="none" xmlns="http://www.w3.org/2000/svg">
<g clip-path="url(#clip0_1043_2098)">
<path d="M2.71187 12H13.1492C13.4704 12 13.7869 11.9226 14.0719 11.7745C14.3569 11.6263 14.602 11.4116 14.7865 11.1486C14.971 10.8857 15.0894 10.5822 15.1318 10.2637C15.1742 9.94532 15.1392 9.62138 15.0299 9.31933L13.1285 4.06267C12.8038 2.89447 12.1054 1.86479 11.1401 1.13111C10.1748 0.397433 8.99569 0.000141386 7.7832 6.78207e-10C6.52102 -1.97282e-05 5.29657 0.430392 4.31201 1.22017C3.32745 2.00995 2.64166 3.11187 2.36787 4.344L0.801202 9.41067C0.708962 9.7098 0.688226 10.0264 0.740661 10.335C0.793097 10.6436 0.917241 10.9356 1.1031 11.1875C1.28897 11.4394 1.53136 11.6441 1.81078 11.7852C2.09019 11.9264 2.39884 11.9999 2.71187 12Z" fill="white"/>
<path d="M4.7334 13.3333C4.88641 14.0869 5.29522 14.7643 5.89056 15.2509C6.4859 15.7375 7.23116 16.0034 8.00007 16.0034C8.76897 16.0034 9.51423 15.7375 10.1096 15.2509C10.7049 14.7643 11.1137 14.0869 11.2667 13.3333H4.7334Z" fill="white"/>
</g>
<defs>
<clipPath id="clip0_1043_2098">
<rect width="16" height="16" fill="white"/>
</clipPath>
</defs>
</svg>
