<svg width="14" height="14" viewBox="0 0 14 14" fill="none" xmlns="http://www.w3.org/2000/svg">
<g clip-path="url(#clip0_660_1190)">
<path d="M7.40776 0.027832C9.62146 1.83087 11.8028 3.60654 13.9996 5.3959C11.8056 7.18908 9.62419 8.97187 7.41707 10.7755V7.46121C6.61383 7.50118 5.85604 7.65832 5.12617 7.93976C3.32203 8.63622 1.95647 9.83643 1.08151 11.5606C0.714108 12.2845 0.429388 13.0499 0.106341 13.7968C0.0800591 13.8575 0.0510396 13.9167 -0.000976562 13.972V13.8433C-0.000976562 12.9634 -0.000976562 12.0841 -0.000976562 11.2042C0.00121359 7.72786 2.21491 4.72133 5.53628 3.68758C6.09805 3.51236 6.67296 3.40176 7.26157 3.36781C7.30647 3.36508 7.35136 3.35796 7.40666 3.35139V0.027832H7.40776Z" fill="#777777"/>
</g>
<defs>
<clipPath id="clip0_660_1190">
<rect width="14" height="13.9447" fill="white" transform="translate(0 0.027832)"/>
</clipPath>
</defs>
</svg>
