<svg width="14" height="14" viewBox="0 0 14 14" fill="none" xmlns="http://www.w3.org/2000/svg">
<g clip-path="url(#clip0_1751_2127)">
<path d="M13.8425 0.330859C13.6887 0.117496 13.4421 0 13.1482 0C13.0103 0 12.8623 0.0260039 12.7086 0.0772734L0.802395 4.046C0.391145 4.18307 0.1077 4.46321 0.0247117 4.81463C-0.0582766 5.16608 0.0699382 5.54348 0.376489 5.85011C0.406458 5.88011 0.440911 5.90527 0.478591 5.92471L5.49127 8.50861L8.07529 13.5213C8.0947 13.559 8.11986 13.5934 8.14983 13.6234C8.39616 13.8698 8.68027 14 8.97148 14H8.97156C9.41256 14 9.78903 13.6925 9.95394 13.1975L13.9227 1.29131C14.0475 0.916863 14.019 0.575777 13.8425 0.330859ZM0.823067 5.00317C0.838762 4.93664 0.930255 4.86809 1.06178 4.82423L12.3625 1.0573L5.71754 7.7023L0.917622 5.2281C0.845325 5.14361 0.809587 5.06026 0.823067 5.00317ZM9.17571 12.9381C9.13677 13.0549 9.06272 13.1797 8.97156 13.1797C8.91633 13.1797 8.84403 13.1439 8.77187 13.0822L6.29759 8.28234L12.9428 1.63718L9.17571 12.9381Z" fill="white"/>
</g>
<defs>
<clipPath id="clip0_1751_2127">
<rect width="14" height="14" fill="white"/>
</clipPath>
</defs>
</svg>
