<svg width="20" height="20" viewBox="0 0 20 20" fill="none" xmlns="http://www.w3.org/2000/svg">
<g clip-path="url(#clip0_156_579)">
<path d="M3.93774 10.5497L3.9133 13.3037C3.90775 13.8985 4.3868 14.4022 4.99736 14.4072C5.60146 14.4123 6.0956 13.9278 6.10064 13.3231L6.11525 11.6824L6.93553 11.6897C7.08656 11.6909 7.21006 11.5696 7.21137 11.4187L7.21766 10.7075C7.25837 10.722 7.52632 10.8164 12.2515 12.4812C12.7919 12.7612 13.4431 12.3734 13.4483 11.7598L13.4644 9.94235L14.4113 9.47932C14.5043 9.43374 14.5637 9.33967 14.5646 9.23608L14.5743 8.14238C14.5752 8.03878 14.5171 7.94356 14.4252 7.89648L13.4868 7.41684L13.5047 5.39918C13.5073 5.1069 13.3596 4.84195 13.1097 4.69047C13.1067 4.68858 13.1037 4.68685 13.1007 4.68506C12.8574 4.5417 12.5652 4.53267 12.3137 4.66032L6.92618 6.76749L4.24486 6.74376C3.19036 6.73425 2.32297 7.58316 2.31396 8.6408C2.30537 9.60769 3.01625 10.4089 3.93774 10.5497ZM5.55383 13.3185C5.55132 13.6202 5.30459 13.8629 5.00201 13.8603C4.69838 13.8578 4.45736 13.6074 4.46009 13.3086L4.48443 10.5741L5.57813 10.5838C5.54995 13.7486 5.55421 13.2677 5.55383 13.3185ZM6.12014 11.1355L6.12498 10.5886L6.67183 10.5935L6.66699 11.1403L6.12014 11.1355ZM14.026 8.30651L14.0193 9.06228L13.4699 9.3309L13.4814 8.02819L14.026 8.30651ZM12.5555 5.15082C12.6797 5.08463 12.7863 5.13306 12.8263 5.15813C12.8662 5.18228 12.9591 5.25385 12.9578 5.3942L12.9015 11.7549C12.8997 11.962 12.6767 12.0924 12.4952 11.9913C12.4626 11.9731 12.4444 11.9702 12.353 11.9371L12.4126 5.20882C12.5195 5.16644 12.5318 5.1635 12.5555 5.15082ZM11.8638 5.42347L11.8078 11.745L7.22278 10.1295L7.24843 7.22862L11.8638 5.42347ZM2.86081 8.64564C2.86284 8.4057 2.9279 8.1703 3.04903 7.96472C3.2966 7.54453 3.75299 7.2863 4.24002 7.2906L6.70084 7.31236L6.67666 10.0466L4.21579 10.0249C3.46194 10.0181 2.85416 9.39945 2.86081 8.64564Z" fill="white"/>
<path d="M18.0177 8.26109L16.2745 8.21811C16.1236 8.21446 15.9981 8.3338 15.9944 8.48476C15.9907 8.63551 16.1098 8.76113 16.2611 8.76485L18.0042 8.80777C18.1552 8.81148 18.2806 8.69209 18.2842 8.54113C18.288 8.39014 18.1687 8.26475 18.0177 8.26109Z" fill="white"/>
<path d="M16.4424 10.6198L15.6758 9.83963C15.57 9.73188 15.3968 9.7303 15.2891 9.83616C15.1813 9.94202 15.1799 10.1151 15.2858 10.2229L16.0524 11.0031C16.1588 11.1115 16.332 11.1116 16.439 11.0065C16.5468 10.9006 16.5483 10.7275 16.4424 10.6198Z" fill="white"/>
<path d="M16.097 5.97635L15.3164 6.74282C15.2087 6.84868 15.2072 7.02171 15.313 7.12955C15.4188 7.23715 15.5918 7.23892 15.6997 7.13302L16.4801 6.36651C16.5879 6.26064 16.5895 6.08752 16.4836 5.97977C16.3778 5.87208 16.2047 5.87049 16.097 5.97635Z" fill="white"/>
</g>
<defs>
<clipPath id="clip0_156_579">
<rect width="14" height="14" fill="white" transform="translate(7.10742) rotate(30.5069)"/>
</clipPath>
</defs>
</svg>
