<svg width="73" height="73" viewBox="0 0 73 73" fill="none" xmlns="http://www.w3.org/2000/svg">
<g filter="url(#filter0_d_1465_2306)">
<circle cx="38.5" cy="32.5" r="32.5" fill="#ED1C29"/>
</g>
<path d="M53.6729 13H23.3271C21.4896 13 20 14.3688 20 16.0574V43.9426C20 45.6312 21.4896 47 23.3271 47H53.6729C55.5104 47 57 45.6312 57 43.9426V16.0574C57 14.3688 55.5104 13 53.6729 13Z" fill="white"/>
<path d="M35.9688 22.0773H38.0001V20.046H35.9688V22.0773Z" fill="#F43832"/>
<path d="M35.9688 34.8738H38.0001V31.9791H35.9688V34.8738Z" fill="#F43832"/>
<path d="M38 38.9366V42.9993H42.0626V40.968H40.0313V38.9366H38Z" fill="#F43832"/>
<path d="M46.1252 27.9175H40.0312V29.9489H46.1252V27.9175Z" fill="#F43832"/>
<path d="M46.125 31.9801H48.9691V29.9488H46.125V31.9801Z" fill="#F43832"/>
<path d="M48.9691 31.9802V34.875H46.125V36.9063H50.9993V31.9813H48.968L48.9691 31.9802Z" fill="#F43832"/>
<path d="M38 20.047H40.0313V17H38V20.047Z" fill="#F43832"/>
<path d="M38.0001 26.14H40.0314V22.0773H38.0001V24.1086H35.9688V29.9479H38.0001V26.14Z" fill="#F43832"/>
<path d="M28.047 27.9176H25V31.9802H27.0313V29.9489H30.0783V27.9176H28.047Z" fill="#F43832"/>
<path d="M40.0313 29.9489H38V31.9802H40.0313V29.9489Z" fill="#F43832"/>
<path d="M44.0938 34.0104H46.1251V31.9791H44.0938V34.0104Z" fill="#F43832"/>
<path d="M48.9658 29.9489H50.9971V27.9175H48.9658V29.9489Z" fill="#F43832"/>
<path d="M42.0626 31.9802H40.0313V34.875H38V36.9063H42.0626V31.9813V31.9802Z" fill="#F43832"/>
<path d="M35.9688 38.9366H38.0001V36.9053H35.9688V38.9366Z" fill="#F43832"/>
<path d="M42.0615 36.9053V38.9366H46.1242V36.9053H42.0615Z" fill="#F43832"/>
<path d="M48.1563 38.9366H46.125V40.9679H48.1563V38.9366Z" fill="#F43832"/>
<path d="M48.1553 42.9991H50.9993V40.9678H48.1553V42.9991Z" fill="#F43832"/>
<path d="M44.0938 42.9992H46.1251V40.9678H44.0938V42.9992Z" fill="#F43832"/>
<path d="M34.1408 29.9489V27.9175H32.1094V29.9489H30.0781V31.9802H35.9681V29.9489H34.1397H34.1408Z" fill="#F43832"/>
<mask id="mask0_1465_2306" style="mask-type:luminance" maskUnits="userSpaceOnUse" x="25" y="17" width="26" height="26">
<path d="M50.9992 17.0001H25V42.9992H50.9992V17.0001Z" fill="white"/>
</mask>
<g mask="url(#mask0_1465_2306)">
<path d="M34.1369 26.1399H24.9971V17.0001H34.1369V26.1399ZM27.0284 24.1086H32.1067V19.0303H27.0284V24.1086Z" fill="#F43832"/>
</g>
<path d="M30.587 22.5855H28.5557V20.5542H30.587V22.5855Z" fill="#F43832"/>
<mask id="mask1_1465_2306" style="mask-type:luminance" maskUnits="userSpaceOnUse" x="25" y="17" width="26" height="26">
<path d="M50.9992 17.0001H25V42.9992H50.9992V17.0001Z" fill="white"/>
</mask>
<g mask="url(#mask1_1465_2306)">
<path d="M50.9953 26.14H41.8555V17.0001H50.9953V26.14ZM43.8868 24.1087H48.9651V19.0304H43.8868V24.1087Z" fill="#F43832"/>
</g>
<path d="M47.4444 22.5855H45.4131V20.5542H47.4444V22.5855Z" fill="#F43832"/>
<mask id="mask2_1465_2306" style="mask-type:luminance" maskUnits="userSpaceOnUse" x="25" y="17" width="26" height="26">
<path d="M50.9992 17.0001H25V42.9992H50.9992V17.0001Z" fill="white"/>
</mask>
<g mask="url(#mask2_1465_2306)">
<path d="M34.1369 42.9991H24.9971V33.8592H34.1369V42.9991ZM27.0284 40.9677H32.1067V35.8895H27.0284V40.9677Z" fill="#F43832"/>
</g>
<path d="M30.587 39.4439H28.5557V37.4126H30.587V39.4439Z" fill="#F43832"/>
<path d="M20.0012 53.2687C20.0012 52.7784 20.0009 52.288 20.0012 51.7977C20.0017 50.4404 20.9276 49.3277 22.2428 49.1457C23.0404 49.0354 23.79 49.1849 24.4221 49.7396C24.5035 49.8109 24.542 49.7681 24.598 49.7194C25.6408 48.8109 27.6131 48.8633 28.5416 50.2628C28.8359 50.7064 28.996 51.1945 28.9978 51.7313C29.0013 52.7846 28.9999 53.8379 28.9984 54.8911C28.9977 55.3865 28.6289 55.7732 28.1589 55.7775C27.6805 55.782 27.2985 55.4019 27.2943 54.8999C27.2881 54.1736 27.2926 53.4471 27.2925 52.7208C27.2925 52.4166 27.2925 52.1125 27.2925 51.8082C27.2922 51.2939 26.9619 50.9182 26.4653 50.8668C25.9912 50.8178 25.6117 51.0011 25.4451 51.3851C25.3877 51.5175 25.3571 51.6731 25.356 51.8185C25.3486 52.8354 25.3523 53.8523 25.352 54.8694C25.3518 55.3863 24.9891 55.7752 24.5061 55.7775C24.0157 55.7799 23.6486 55.391 23.6484 54.8679C23.6481 53.8781 23.6308 52.888 23.6554 51.8989C23.6686 51.3623 23.3338 50.7913 22.547 50.8652C22.0456 50.9122 21.7079 51.2899 21.7078 51.81C21.7076 52.8316 21.7096 53.8531 21.7069 54.8745C21.7055 55.3945 21.3282 55.7831 20.8396 55.7777C20.3841 55.7726 20.0071 55.3964 20.0027 54.9304C19.9974 54.3767 20.0015 53.8226 20.0014 53.2689L20.0012 53.2687Z" fill="white"/>
<path d="M31.4342 51.5898C31.6974 51.5898 31.9111 51.6657 32.0759 51.8169C32.2402 51.9682 32.3493 52.182 32.4037 52.459H32.3166L32.357 52.3404C32.4032 52.2177 32.4827 52.099 32.5945 51.985C32.7068 51.8709 32.8366 51.7767 32.9834 51.7019C33.1307 51.6275 33.2833 51.5898 33.4418 51.5898C33.6973 51.5898 33.8985 51.6525 34.0454 51.7772C34.1926 51.9025 34.2977 52.069 34.3619 52.2777C34.4257 52.486 34.4576 52.7197 34.4576 52.9789V54.7757C34.4576 54.8506 34.4351 54.9137 34.3907 54.9667C34.3462 55.0191 34.291 55.0456 34.2254 55.0456C34.1558 55.0456 34.0992 55.0191 34.057 54.9667C34.0144 54.9142 33.9933 54.8506 33.9933 54.7757V52.9921C33.9933 52.821 33.9713 52.6662 33.9264 52.5282C33.8819 52.3903 33.8105 52.2803 33.7117 52.1993C33.6129 52.1179 33.4787 52.0776 33.3085 52.0776C33.15 52.0776 33.0049 52.1184 32.8734 52.1993C32.7418 52.2808 32.6372 52.3903 32.5599 52.5282C32.4823 52.6662 32.4436 52.821 32.4436 52.9921V54.7757C32.4436 54.8506 32.4221 54.9137 32.3799 54.9667C32.3372 55.0191 32.2811 55.0456 32.2119 55.0456C32.1459 55.0456 32.0912 55.0191 32.0462 54.9667C32.0018 54.9142 31.9798 54.8506 31.9798 54.7757V52.9722C31.9798 52.8052 31.9591 52.6555 31.9187 52.5216C31.8783 52.3877 31.8096 52.2803 31.7126 52.1993C31.6156 52.1179 31.4823 52.0776 31.3121 52.0776C31.1572 52.0776 31.0162 52.1184 30.8882 52.1993C30.7607 52.2808 30.6578 52.3882 30.5806 52.5216C30.5029 52.6555 30.4648 52.8057 30.4648 52.9722V54.7757C30.4648 54.8506 30.4423 54.9137 30.3978 54.9667C30.3529 55.0191 30.2982 55.0456 30.2322 55.0456C30.1661 55.0456 30.1114 55.0191 30.0669 54.9667C30.0225 54.9142 30 54.8506 30 54.7757V51.906C30 51.8317 30.0225 51.7691 30.0669 51.7182C30.1114 51.6677 30.1666 51.6428 30.2322 51.6428C30.3022 51.6428 30.3583 51.6677 30.4005 51.7182C30.4432 51.7686 30.4643 51.8312 30.4643 51.906V52.4066L30.3363 52.5644C30.3516 52.4503 30.3916 52.3363 30.4553 52.2222C30.5191 52.1082 30.6013 52.0028 30.7018 51.906C30.8024 51.8098 30.9147 51.7329 31.0386 51.6759C31.1626 51.6189 31.2941 51.5904 31.4333 51.5904L31.4342 51.5898Z" fill="white"/>
<path d="M38.1664 53.3343C38.1664 53.6764 38.0995 53.9814 37.9662 54.2493C37.8328 54.5171 37.6527 54.7274 37.4264 54.8811C37.2001 55.0349 36.9455 55.1113 36.6631 55.1113C36.3806 55.1113 36.1251 55.0344 35.897 54.8811C35.6689 54.7279 35.4879 54.5171 35.3546 54.2493C35.2212 53.9814 35.1543 53.6764 35.1543 53.3343C35.1543 52.9921 35.2212 52.6871 35.3546 52.4193C35.4879 52.1515 35.6689 51.9412 35.897 51.7874C36.1251 51.6336 36.3806 51.5568 36.6631 51.5568C36.9455 51.5568 37.2001 51.6336 37.4264 51.7874C37.6527 51.9412 37.8328 52.1515 37.9662 52.4193C38.0995 52.6871 38.1664 52.9921 38.1664 53.3343ZM37.7021 53.3343C37.7021 53.0797 37.6568 52.8562 37.5656 52.6627C37.4745 52.4697 37.351 52.3185 37.1938 52.2085C37.0371 52.099 36.8602 52.044 36.6626 52.044C36.465 52.044 36.2886 52.099 36.1314 52.2085C35.9747 52.318 35.8499 52.4697 35.7573 52.6627C35.6644 52.8557 35.6181 53.0797 35.6181 53.3343C35.6181 53.5889 35.6644 53.8058 35.7573 53.9987C35.8503 54.1917 35.9751 54.3445 36.1314 54.456C36.2881 54.568 36.465 54.624 36.6626 54.624C36.8602 54.624 37.0371 54.568 37.1938 54.456C37.3505 54.344 37.4745 54.1917 37.5656 53.9987C37.6563 53.8058 37.7021 53.5838 37.7021 53.3343Z" fill="white"/>
<path d="M40.3554 51.5568C40.6186 51.5568 40.8256 51.6184 40.9764 51.7411C41.1273 51.8638 41.2346 52.0283 41.2984 52.2345C41.3622 52.4407 41.3945 52.6714 41.3945 52.9255V54.7748C41.3945 54.8496 41.372 54.9128 41.3276 54.9657C41.2831 55.0182 41.2279 55.0446 41.1619 55.0446C41.0959 55.0446 41.0411 55.0182 40.9962 54.9657C40.9517 54.9133 40.9297 54.8496 40.9297 54.7748V52.9387C40.9297 52.7717 40.9073 52.622 40.8628 52.4881C40.8184 52.3542 40.7447 52.2467 40.6424 52.1653C40.5395 52.0843 40.3994 52.0436 40.2216 52.0436C40.0591 52.0436 39.91 52.0843 39.7748 52.1653C39.6392 52.2467 39.531 52.3542 39.4497 52.4881C39.3684 52.622 39.328 52.7722 39.328 52.9387V54.7748C39.328 54.8496 39.3056 54.9128 39.2611 54.9657C39.2167 55.0182 39.1614 55.0446 39.0954 55.0446C39.0294 55.0446 38.9746 55.0182 38.9302 54.9657C38.8857 54.9133 38.8633 54.8496 38.8633 54.7748V51.9051C38.8633 51.8307 38.8853 51.7681 38.9302 51.7172C38.9751 51.6663 39.0299 51.6418 39.0954 51.6418C39.165 51.6418 39.2212 51.6668 39.2638 51.7172C39.3065 51.7676 39.3276 51.8302 39.3276 51.9051V52.3725L39.2117 52.5171C39.231 52.403 39.2755 52.288 39.3451 52.1714C39.4147 52.0553 39.5018 51.9509 39.6064 51.8587C39.7106 51.7666 39.8269 51.6933 39.9544 51.6383C40.082 51.5833 40.2158 51.5558 40.355 51.5558L40.3554 51.5568Z" fill="white"/>
<path d="M43.6414 55.1113C43.332 55.1113 43.0613 55.0365 42.8287 54.8878C42.5965 54.7386 42.4156 54.5334 42.2862 54.2722C42.1565 54.011 42.0918 53.7096 42.0918 53.3674C42.0918 52.9855 42.1587 52.6596 42.2921 52.3903C42.4254 52.1204 42.5997 51.9142 42.8143 51.7717C43.0289 51.6291 43.2566 51.5578 43.4964 51.5578C43.6742 51.5578 43.8466 51.595 44.0128 51.6698C44.1789 51.7447 44.3262 51.8531 44.4537 51.9957C44.5812 52.1383 44.6841 52.3093 44.7613 52.5089C44.839 52.7085 44.8794 52.9315 44.883 53.177C44.883 53.2472 44.8596 53.3063 44.8134 53.3547C44.7671 53.403 44.7128 53.427 44.6508 53.427H42.3581L42.2539 52.9728H44.4887L44.3958 53.0649V52.9203C44.3801 52.7406 44.3271 52.5858 44.2359 52.4565C44.1448 52.3272 44.0348 52.2274 43.905 52.1571C43.7752 52.0868 43.6387 52.0517 43.4959 52.0517C43.3801 52.0517 43.2647 52.0746 43.1506 52.1209C43.0366 52.1668 42.9342 52.2416 42.843 52.345C42.7519 52.4478 42.6787 52.5807 42.6226 52.7431C42.5664 52.9056 42.5381 53.1006 42.5381 53.3287C42.5381 53.5833 42.5835 53.8068 42.6746 53.9998C42.7653 54.1928 42.8924 54.3455 43.0545 54.457C43.2166 54.5685 43.4066 54.625 43.6235 54.625C43.7591 54.625 43.8767 54.6052 43.9777 54.566C44.0783 54.5268 44.1654 54.4774 44.2386 54.4178C44.3123 54.3588 44.3742 54.2982 44.4245 54.2365C44.4748 54.1973 44.5233 54.1775 44.5696 54.1775C44.6275 54.1775 44.6751 54.1994 44.7119 54.2432C44.7487 54.287 44.7671 54.3399 44.7671 54.401C44.7671 54.4759 44.7362 54.5415 44.6742 54.5981C44.566 54.7345 44.4187 54.8537 44.2332 54.957C44.0473 55.0599 43.8502 55.1118 43.641 55.1118L43.6414 55.1113Z" fill="white"/>
<path d="M47.7969 51.5898C47.8629 51.5898 47.9176 51.6148 47.9625 51.6657C48.007 51.7161 48.0295 51.7787 48.0295 51.8531V54.7228C48.0295 55.0914 47.9657 55.3974 47.8377 55.6408C47.7102 55.8842 47.5387 56.0655 47.324 56.1841C47.1094 56.3022 46.8665 56.3618 46.5957 56.3618C46.4448 56.3618 46.2998 56.3445 46.1606 56.3094C46.0214 56.2742 45.9069 56.2279 45.818 56.1714C45.7443 56.1322 45.6931 56.0823 45.6639 56.0232C45.6348 55.9641 45.6298 55.9015 45.6496 55.8353C45.6765 55.7564 45.7165 55.7014 45.7686 55.6709C45.8207 55.6403 45.8759 55.6403 45.9343 55.6709C45.9962 55.7014 46.086 55.7442 46.2041 55.7992C46.3222 55.8542 46.4547 55.8816 46.6015 55.8816C46.8027 55.8816 46.9751 55.8379 47.1179 55.7503C47.2612 55.6622 47.3716 55.5339 47.4489 55.3653C47.5265 55.1963 47.5652 54.987 47.5652 54.737V54.2696L47.6348 54.4341C47.5728 54.57 47.4897 54.6887 47.3851 54.7895C47.2805 54.8903 47.1606 54.9692 47.025 55.0262C46.8894 55.0833 46.7407 55.1118 46.5782 55.1118C46.3577 55.1118 46.1709 55.0578 46.0178 54.9504C45.8651 54.8429 45.7488 54.6938 45.6698 54.5028C45.5903 54.3119 45.5508 54.0914 45.5508 53.8414V51.8536C45.5508 51.7793 45.5728 51.7166 45.6177 51.6662C45.6621 51.6158 45.7174 51.5904 45.7829 51.5904C45.8525 51.5904 45.9087 51.6153 45.9513 51.6662C45.994 51.7166 46.0151 51.7793 46.0151 51.8536V53.7228C46.0151 54.0211 46.073 54.2457 46.1893 54.3974C46.3052 54.5486 46.4852 54.6245 46.729 54.6245C46.884 54.6245 47.0241 54.5853 47.1498 54.5059C47.2755 54.4269 47.3761 54.3185 47.4515 54.18C47.527 54.0415 47.5647 53.8893 47.5647 53.7228V51.8536C47.5647 51.7793 47.5858 51.7166 47.6285 51.6662C47.6711 51.6158 47.7273 51.5904 47.7969 51.5904V51.5898Z" fill="white"/>
<path d="M52.1772 55L49.2805 51.5764C49.0514 51.3061 49.0482 50.8632 49.2725 50.5873C49.4969 50.3114 49.8646 50.3074 50.0937 50.5777L52.1547 53.0134L56.0018 48.2137C56.2247 47.9355 56.592 47.9282 56.8229 48.1962C57.0534 48.4647 57.0599 48.9071 56.8374 49.1852L52.1767 55H52.1772Z" fill="white"/>
<path d="M50.9227 54L48.3936 56.9017C48.1723 57.1558 48.1751 57.5646 48.4001 57.8146C48.6251 58.0646 48.9869 58.0614 49.2082 57.8073L51.7378 54.9056L50.9232 54H50.9227Z" fill="white"/>
<path d="M55.0775 55.9102L53.359 54L52.6143 54.9154L54.3328 56.8261C54.549 57.0665 54.891 57.0563 55.0967 56.8037C55.3024 56.551 55.2937 56.1512 55.0775 55.9107V55.9102Z" fill="white"/>
<defs>
<filter id="filter0_d_1465_2306" x="0" y="0" width="73" height="73" filterUnits="userSpaceOnUse" color-interpolation-filters="sRGB">
<feFlood flood-opacity="0" result="BackgroundImageFix"/>
<feColorMatrix in="SourceAlpha" type="matrix" values="0 0 0 0 0 0 0 0 0 0 0 0 0 0 0 0 0 0 127 0" result="hardAlpha"/>
<feOffset dx="-2" dy="4"/>
<feGaussianBlur stdDeviation="2"/>
<feComposite in2="hardAlpha" operator="out"/>
<feColorMatrix type="matrix" values="0 0 0 0 0 0 0 0 0 0 0 0 0 0 0 0 0 0 0.3 0"/>
<feBlend mode="normal" in2="BackgroundImageFix" result="effect1_dropShadow_1465_2306"/>
<feBlend mode="normal" in="SourceGraphic" in2="effect1_dropShadow_1465_2306" result="shape"/>
</filter>
</defs>
</svg>
