<svg width="40" height="40" viewBox="0 0 40 40" fill="none" xmlns="http://www.w3.org/2000/svg">
<circle cx="20" cy="20" r="19.65" stroke="#EE3725" stroke-width="0.7"/>
<g clip-path="url(#clip0_1760_1707)">
<path d="M27.82 12.3781C27.6442 12.1343 27.3624 12 27.0266 12C26.8689 12 26.6998 12.0297 26.5241 12.0883L12.917 16.624C12.447 16.7807 12.1231 17.1008 12.0282 17.5024C11.9334 17.9041 12.0799 18.3354 12.4303 18.6858C12.4645 18.7201 12.5039 18.7489 12.547 18.7711L18.2757 21.7241L21.2289 27.4529C21.2511 27.496 21.2798 27.5353 21.3141 27.5696C21.5956 27.8512 21.9203 28 22.2531 28H22.2532C22.7572 28 23.1875 27.6485 23.3759 27.0829L27.9117 13.4758C28.0543 13.0478 28.0217 12.658 27.82 12.3781ZM12.9406 17.7179C12.9586 17.6419 13.0631 17.5635 13.2135 17.5134L26.1286 13.2083L18.5343 20.8026L13.0487 17.975C12.9661 17.8784 12.9252 17.7832 12.9406 17.7179ZM22.4865 26.7864C22.442 26.9199 22.3574 27.0625 22.2532 27.0625C22.1901 27.0625 22.1075 27.0217 22.025 26.9511L19.1972 21.4655L26.7917 13.8711L22.4865 26.7864Z" fill="#EE3725"/>
</g>
<defs>
<clipPath id="clip0_1760_1707">
<rect width="16" height="16" fill="white" transform="translate(12 12)"/>
</clipPath>
</defs>
</svg>
