<svg width="31" height="31" viewBox="0 0 31 31" fill="none" xmlns="http://www.w3.org/2000/svg">
<circle cx="15.5" cy="15.5" r="15.5" fill="#D2D3D5"/>
<g clip-path="url(#clip0_660_801)">
<path d="M20.6309 20.9786C20.7012 20.9149 20.7405 20.8811 20.778 20.8457C21.8173 19.8639 22.856 18.8809 23.8959 17.8997C24.1689 17.6416 24.5251 17.6173 24.7858 17.8338C25.0453 18.0492 25.0735 18.4175 24.8485 18.6661C24.8198 18.6977 24.7876 18.7259 24.7565 18.7552C23.3446 20.0892 21.9327 21.4244 20.5208 22.7589C20.181 23.0795 19.84 23.0812 19.5031 22.7628C18.0736 21.4116 16.6442 20.061 15.2152 18.7098C14.9305 18.4407 14.9288 18.0686 15.207 17.8288C15.4461 17.6228 15.804 17.6206 16.0448 17.8294C16.1813 17.9479 16.3096 18.0752 16.4409 18.1993C17.3765 19.0836 18.3127 19.9674 19.2471 20.8529C19.2834 20.8872 19.3051 20.9354 19.3338 20.9775C19.3526 20.9658 19.3707 20.9542 19.3895 20.942V20.7831C19.3895 17.4146 19.3907 14.0455 19.3871 10.677C19.3871 10.4162 19.4627 10.2047 19.7135 10.074C20.1165 9.86412 20.6075 10.126 20.6292 10.5602C20.6321 10.62 20.6315 10.6804 20.6315 10.7402C20.6315 14.086 20.6315 17.4318 20.6315 20.777C20.6315 20.8307 20.6315 20.885 20.6315 20.9791L20.6309 20.9786Z" fill="white"/>
</g>
<g clip-path="url(#clip1_660_801)">
<path d="M10.3691 10.0214C10.2988 10.0851 10.2595 10.1189 10.222 10.1543C9.18273 11.1361 8.144 12.1191 7.1041 13.1003C6.8311 13.3584 6.47489 13.3827 6.21419 13.1662C5.95465 12.9508 5.92653 12.5825 6.1515 12.3339C6.18021 12.3023 6.21243 12.2741 6.24348 12.2448C7.6554 10.9108 9.06731 9.57565 10.4792 8.24109C10.819 7.92047 11.16 7.91881 11.4969 8.23722C12.9264 9.58838 14.3558 10.939 15.7848 12.2902C16.0695 12.5593 16.0712 12.9314 15.793 13.1712C15.5539 13.3772 15.196 13.3794 14.9552 13.1706C14.8187 13.0521 14.6904 12.9248 14.5591 12.8007C13.6235 11.9164 12.6873 11.0326 11.7529 10.1471C11.7166 10.1128 11.6949 10.0646 11.6662 10.0225C11.6474 10.0342 11.6293 10.0458 11.6105 10.058L11.6105 10.2169C11.6105 13.5854 11.6093 16.9545 11.6129 20.323C11.6129 20.5838 11.5373 20.7953 11.2865 20.926C10.8835 21.1359 10.3925 20.874 10.3708 20.4398C10.3679 20.38 10.3685 20.3196 10.3685 20.2598C10.3685 16.914 10.3685 13.5682 10.3685 10.223C10.3685 10.1693 10.3685 10.115 10.3685 10.0209L10.3691 10.0214Z" fill="white"/>
</g>
<defs>
<clipPath id="clip0_660_801">
<rect width="13" height="10" fill="white" transform="matrix(0 -1 1 0 15 23)"/>
</clipPath>
<clipPath id="clip1_660_801">
<rect width="13" height="10" fill="white" transform="translate(16 8) rotate(90)"/>
</clipPath>
</defs>
</svg>
