<svg width="28" height="28" viewBox="0 0 28 28" fill="none" xmlns="http://www.w3.org/2000/svg">
<circle cx="14" cy="14" r="14" fill="white" fill-opacity="0.5"/>
<circle cx="14" cy="14" r="13" fill="white"/>
<path d="M25 21.9849C20.4591 16.4883 11.86 15.3677 5.77936 19.4725C4.72242 20.1802 3.78292 21.0295 3 21.9849C7.50178 27.4816 16.0747 28.6375 22.1423 24.5681C23.2254 23.8368 24.191 22.9757 25 21.9967V21.9849Z" fill="#777777"/>
<path d="M14 15C16.7586 15 19 12.7586 19 10C19 7.24138 16.7586 5 14 5C11.2414 5 9 7.24138 9 10C9 12.7586 11.2414 15 14 15Z" fill="#777777"/>
</svg>
