<?xml version="1.0" encoding="UTF-8"?>
<svg id="Layer_1" data-name="Layer 1" xmlns="http://www.w3.org/2000/svg" xmlns:xlink="http://www.w3.org/1999/xlink" viewBox="0 0 24 13.64">
  <defs>
    <linearGradient id="linear-gradient" x1="6.1" y1="19.66" x2="17.2" y2="-.06" gradientTransform="translate(0 16) scale(1 -1)" gradientUnits="userSpaceOnUse">
      <stop offset="0" stop-color="#fff" stop-opacity=".2"/>
      <stop offset="1" stop-color="#000" stop-opacity="0"/>
    </linearGradient>
  </defs>
  <path d="M22.29,6.27c-.31,1.17,.39,2.37,1.56,2.68,.09,.02,.15,.1,.15,.19v4.32c0,.11-.09,.2-.2,.2h-5.69c-.07,0-.14-.04-.17-.1-.15-.27-.4-.47-.67-.56h0s-.09-.03-.14-.04c0,0,0,0,0,0-.05,0-.1-.02-.15-.02-.03,0-.07,0-.1,0s-.07,0-.1,0c-.1,0-.2,.03-.29,.06-.07,.02-.14,.05-.21,.09-.2,.11-.36,.27-.47,.47-.04,.06-.1,.1-.17,.1H.2c-.11,0-.2-.09-.2-.2v-4.32c0-.09,.06-.17,.15-.19,.96-.25,1.63-1.12,1.63-2.12,0-.99-.67-1.86-1.63-2.12-.09-.02-.15-.1-.15-.19V.2c0-.11,.09-.2,.2-.2H15.63c.07,0,.14,.04,.17,.1,.11,.2,.27,.36,.47,.47,.07,.04,.14,.07,.21,.09,.02,0,.03,.01,.05,.01,0,0,0,0,0,0,.02,0,.03,0,.05,.01,.02,0,.03,0,.05,.01,.11,.02,.23,.03,.34,.02,0,0,.02,0,.02,0,.1,0,.19-.03,.28-.06,.28-.09,.52-.29,.67-.56,.03-.06,.1-.1,.17-.1h5.69c.11,0,.2,.09,.2,.2V4.51c0,.09-.06,.17-.15,.19-.76,.2-1.36,.8-1.56,1.56Z" fill="#fc6067"/>
  <path d="M22.29,6.27c-.31,1.17,.39,2.37,1.56,2.68,.09,.02,.15,.1,.15,.19v4.32c0,.11-.09,.2-.2,.2h-5.69c-.07,0-.14-.04-.17-.1-.15-.27-.4-.47-.67-.56h0s-.09-.03-.14-.04c0,0,0,0,0,0-.05,0-.1-.02-.15-.02-.03,0-.07,0-.1,0s-.07,0-.1,0c-.1,0-.2,.03-.29,.06-.07,.02-.14,.05-.21,.09-.2,.11-.36,.27-.47,.47-.04,.06-.1,.1-.17,.1H.2c-.11,0-.2-.09-.2-.2v-4.32c0-.09,.06-.17,.15-.19,.96-.25,1.63-1.12,1.63-2.12,0-.99-.67-1.86-1.63-2.12-.09-.02-.15-.1-.15-.19V.2c0-.11,.09-.2,.2-.2H15.63c.07,0,.14,.04,.17,.1,.11,.2,.27,.36,.47,.47,.07,.04,.14,.07,.21,.09,.02,0,.03,.01,.05,.01,0,0,0,0,0,0,.02,0,.03,0,.05,.01,.02,0,.03,0,.05,.01,.11,.02,.23,.03,.34,.02,0,0,.02,0,.02,0,.1,0,.19-.03,.28-.06,.28-.09,.52-.29,.67-.56,.03-.06,.1-.1,.17-.1h5.69c.11,0,.2,.09,.2,.2V4.51c0,.09-.06,.17-.15,.19-.76,.2-1.36,.8-1.56,1.56Z" fill="url(#linear-gradient)"/>
  <path d="M16.87,7.19c-.22,0-.4,.18-.4,.4v1.8c0,.22,.18,.4,.4,.4s.4-.18,.4-.4v-1.8c0-.22-.18-.4-.4-.4Z" fill="#db5666"/>
  <path d="M17.26,4.26c0-.22-.18-.4-.4-.4s-.4,.18-.4,.4v1.8c0,.22,.18,.4,.4,.4s.4-.18,.4-.4v-1.8Z" fill="#db5666"/>
  <path d="M17.26,.66c-.26,.09-.53,.09-.79,0V2.73c0,.22,.18,.4,.4,.4s.4-.18,.4-.4V.66Z" fill="#db5666"/>
  <path d="M23.85,4.7c.09-.02,.15-.1,.15-.19V.2c0-.11-.09-.2-.2-.2h-1.04c.11,0,.2,.09,.2,.2V4.51c0,.09-.06,.17-.15,.19-1.17,.31-1.87,1.51-1.56,2.68,.2,.76,.8,1.36,1.56,1.56,.09,.02,.15,.1,.15,.19v4.32c0,.11-.09,.2-.2,.2h1.04c.11,0,.2-.09,.2-.2v-4.32c0-.09-.06-.17-.15-.19-1.17-.31-1.87-1.51-1.56-2.68,.2-.76,.8-1.36,1.56-1.56h0Z" fill="#ea5762"/>
  <path d="M16.47,12.98c.1-.03,.2-.05,.29-.06-.1,0-.2,.03-.29,.06h0Z" fill="#f79219"/>
  <path d="M16.97,12.92s-.07,0-.1,0-.07,0-.1,0c.07,0,.13,0,.2,0Z" fill="#f79219"/>
  <path d="M16.97,12.92s.1,.01,.15,.02c-.05,0-.1-.02-.15-.02Z" fill="#f79219"/>
  <path d="M17.26,12.98h0s-.09-.03-.14-.04c.05,0,.1,.02,.14,.04Z" fill="#f79219"/>
  <path d="M17.26,10.92v2.06s-.09-.03-.14-.04c0,0,0,0,0,0-.05,0-.1-.02-.15-.02-.03,0-.07,0-.1,0s-.07,0-.1,0c-.1,0-.2,.03-.29,.06v-2.06c0-.22,.18-.4,.4-.4s.4,.18,.4,.4Z" fill="#db5666"/>
  <path d="M10.92,4.15s-.02,.03-.03,.04l-4.25,5.82c-.16,.21-.45,.26-.67,.1-.21-.16-.26-.45-.1-.67L10.12,3.63c.16-.21,.45-.26,.67-.1,.2,.15,.25,.41,.13,.62h0Z" fill="#fff"/>
  <path d="M6.52,3.4h0c-.86,0-1.56,.7-1.56,1.56,0,.42,.16,.81,.46,1.1,.29,.29,.69,.46,1.1,.46,.58,0,1.08-.32,1.35-.78,.13-.23,.21-.49,.21-.78,0-.86-.7-1.56-1.56-1.56h0Zm.61,1.56c0,.34-.27,.61-.61,.61-.16,0-.31-.06-.43-.18-.11-.11-.18-.27-.18-.43,0-.11,.03-.21,.08-.3,.1-.18,.3-.31,.53-.31,.33,0,.61,.27,.61,.61Z" fill="#fff"/>
  <path d="M10.25,7.13c-.86,0-1.56,.7-1.56,1.56,0,.86,.7,1.56,1.56,1.56,.58,0,1.08-.32,1.35-.79,.13-.23,.21-.5,.21-.78,0-.86-.7-1.56-1.56-1.56h0Zm.61,1.56c0,.34-.27,.61-.61,.61-.33,0-.61-.27-.61-.61,0-.11,.03-.21,.08-.3,.11-.18,.3-.31,.53-.31,.33,0,.61,.27,.61,.61h0Z" fill="#fff"/>
</svg>