<svg width="15" height="13" viewBox="0 0 15 13" fill="none" xmlns="http://www.w3.org/2000/svg">
<path d="M13.641 2.17201V1.91489C13.641 0.8588 12.7671 0 11.6923 0H1.94872C0.874211 0 0 0.8588 0 1.91489V10.5319C0 11.588 0.874211 12.4468 1.94872 12.4468H12.6667C13.7414 12.4468 14.6154 11.588 14.6154 10.5319V3.82977C14.6154 3.12244 14.2229 2.50347 13.641 2.17201Z" fill="url(#paint0_linear_578_579)"/>
<path d="M13.641 1.91484V2.17337C13.3537 2.01068 13.0225 1.91484 12.6667 1.91484H2.43591C2.16806 1.91484 1.94873 1.69932 1.94873 1.43612C1.94873 1.17292 2.16806 0.957397 2.43591 0.957397H12.6667C12.9298 0.957397 13.1881 0.991058 13.4317 1.05791C13.5678 1.31644 13.641 1.60863 13.641 1.91484Z" fill="white" fill-opacity="0.81"/>
<path d="M11.6919 5.26587C10.6171 5.26587 9.74316 6.12467 9.74316 7.18076C9.74316 8.23684 10.6171 9.09564 11.6919 9.09564H14.615V5.26587H11.6919Z" fill="url(#paint1_linear_578_579)"/>
<defs>
<linearGradient id="paint0_linear_578_579" x1="7.30769" y1="0" x2="7.30769" y2="12.4468" gradientUnits="userSpaceOnUse">
<stop stop-color="#F2756B"/>
<stop offset="1" stop-color="#C44747"/>
</linearGradient>
<linearGradient id="paint1_linear_578_579" x1="12.788" y1="5.86471" x2="10.7064" y2="8.89098" gradientUnits="userSpaceOnUse">
<stop stop-color="#E4E9F4"/>
<stop offset="1" stop-color="#D2D3D5"/>
</linearGradient>
</defs>
</svg>
