<?xml version="1.0" encoding="UTF-8"?>
<svg id="Layer_1" data-name="Layer 1" xmlns="http://www.w3.org/2000/svg" viewBox="0 0 9 9">
  <path d="M4.5,0c-.78,0-1.54,.2-2.22,.58-.68,.38-1.24,.94-1.64,1.6C.24,2.85,.02,3.62,0,4.39c-.02,.78,.17,1.55,.54,2.23L.02,8.35c-.02,.07-.03,.15-.01,.23,.01,.08,.04,.15,.09,.21,.05,.06,.11,.11,.18,.15,.07,.03,.15,.05,.22,.05,.05,0,.1,0,.14-.02l1.73-.52c.6,.33,1.27,.51,1.96,.54,.68,.03,1.37-.1,1.99-.38,.63-.28,1.18-.69,1.62-1.21,.44-.52,.76-1.14,.93-1.8,.17-.66,.18-1.36,.04-2.03s-.43-1.3-.86-1.84c-.42-.54-.96-.98-1.58-1.28C5.86,.15,5.18,0,4.5,0Zm0,2c.1,0,.2,.03,.28,.08,.08,.05,.15,.13,.18,.22,.04,.09,.05,.19,.03,.29-.02,.1-.07,.19-.14,.26-.07,.07-.16,.12-.26,.14-.1,.02-.2,0-.29-.03-.09-.04-.17-.1-.22-.18-.05-.08-.08-.18-.08-.28,0-.13,.05-.26,.15-.35,.09-.09,.22-.15,.35-.15Zm.5,5h-.5c-.13,0-.26-.05-.35-.15-.09-.09-.15-.22-.15-.35v-2c-.13,0-.26-.05-.35-.15-.09-.09-.15-.22-.15-.35s.05-.26,.15-.35c.09-.09,.22-.15,.35-.15h.5c.13,0,.26,.05,.35,.15,.09,.09,.15,.22,.15,.35v2c.13,0,.26,.05,.35,.15s.15,.22,.15,.35-.05,.26-.15,.35c-.09,.09-.22,.15-.35,.15Z" fill="#777"/>
</svg>