<svg width="164" height="96" viewBox="0 0 164 96" fill="none" xmlns="http://www.w3.org/2000/svg">
<path d="M160.432 96H5.37023C3.38501 96 1.8022 94.3776 1.8022 92.3702V5.50439C1.8022 3.46954 3.38501 1.84717 5.37023 1.84717H160.432C162.39 1.84717 164 3.46954 164 5.50439V92.3702C164 94.3776 162.417 96 160.432 96Z" fill="#B0B5B4"/>
<path d="M158.63 94.1528H3.56803C1.60964 94.1528 0 92.5304 0 90.4956V3.65722C0 1.62238 1.58281 0 3.56803 0H158.63C160.588 0 162.198 1.62238 162.198 3.65722V90.5231C162.198 92.5304 160.615 94.1528 158.63 94.1528Z" fill="white"/>
<path d="M40.7388 60.284L41.651 57.8092L38.8609 55.6919L36.0709 57.7542L37.0903 60.2565L40.7388 60.284Z" fill="#D95842"/>
<path d="M37.0903 60.2838L37.144 60.4213L35.8831 68.3132H41.946L40.6852 60.3938L40.7388 60.2563L37.0903 60.2838Z" fill="#E72B29"/>
<path d="M36.6343 68.2857L37.8951 60.2838L36.6879 57.2866L32.7711 53.4644L33.5491 59.1839L36.0709 68.2857H36.6343Z" fill="#DDDEE5"/>
<path d="M41.8119 68.2858L44.3337 59.0741L45.1117 53.3545L41.0339 57.2592L39.934 60.2565L41.1949 68.2584L41.8119 68.2858Z" fill="#DDDEE5"/>
<path d="M41.8656 58.8816C42.2143 59.2391 42.8045 59.2391 43.1533 58.8816C43.2338 58.8266 43.2874 58.7441 43.3142 58.6616L45.8628 53.272L42.5631 51.0172L41.7851 52.4746L38.8609 55.5818L36.0172 52.7496L35.5075 50.8247L31.8322 53.2995L34.3271 58.5791C34.5149 59.0741 35.0514 59.3215 35.5612 59.1291C35.6685 59.0741 35.7758 59.0191 35.8563 58.9366L38.8341 56.6543L41.6778 58.7991L41.8656 58.8816Z" fill="#F2F2F4"/>
<path d="M25.0449 68.286H36.8489L32.5833 52.8047L28.2105 54.6745C25.2058 55.9119 23.3011 58.9367 23.4352 62.264V66.7186C23.4084 67.5711 24.0254 68.286 24.8571 68.3135L25.0449 68.286Z" fill="#DDDEE5"/>
<path d="M54.2061 66.7458V62.2361C54.3403 58.9364 52.4355 55.9116 49.4309 54.6467L45.219 52.8594L41.0071 68.2857H52.6502C53.455 68.3407 54.1525 67.7082 54.2061 66.8558V66.8283C54.2061 66.8008 54.2061 66.7458 54.2061 66.6908" fill="#DDDEE5"/>
<path d="M32.6102 52.8047L28.2373 54.6745C25.2327 55.9119 23.3279 58.9367 23.4621 62.2365V66.6911C23.4352 67.5435 24.0523 68.2585 24.8839 68.286H25.2327V62.2365C25.0985 58.9367 27.0033 55.8844 30.0079 54.6745L32.7979 53.4921L32.6102 52.8047Z" fill="#F2F2F4"/>
<path d="M42.5631 48.9547V52.4195C42.5631 52.7494 42.4289 53.0519 42.2143 53.2994L39.7194 55.9667C39.5048 56.2142 39.1828 56.3517 38.8609 56.3517C38.539 56.3517 38.2439 56.2142 38.0293 55.9942L35.6416 53.5194C35.4002 53.2719 35.2661 52.9144 35.2661 52.5569V48.9272C35.2661 48.8447 35.2661 48.7347 35.2661 48.6522C35.427 47.9923 36.044 47.5798 36.6879 47.7173C37.1708 47.8273 37.6537 47.8823 38.1634 47.8823H39.6389C40.1218 47.8823 40.6047 47.8273 41.0607 47.7173C41.1412 47.7173 41.1949 47.7173 41.2754 47.7173H41.329C41.6509 47.6898 41.9729 47.8273 42.2143 48.0473C42.4289 48.2948 42.5631 48.6248 42.5631 48.9547Z" fill="#FEBF86"/>
<path d="M42.5631 49.3947V50.1371C41.6241 51.072 40.3364 51.6495 38.9146 51.6495C37.4927 51.6495 36.205 51.072 35.2661 50.1371V49.3672C35.2661 49.2847 35.2661 49.1747 35.2661 49.0922C35.427 48.4322 36.044 48.0198 36.6879 48.1573C37.1708 48.2673 37.6537 48.3223 38.1634 48.3223H39.6389C40.1218 48.3223 40.6047 48.2673 41.0607 48.1573C41.1412 48.1573 41.1949 48.1573 41.2754 48.1573H41.329C41.6509 48.1298 41.9729 48.2673 42.2143 48.4872C42.4289 48.7072 42.5631 49.0372 42.5631 49.3947Z" fill="#FDB26A"/>
<path d="M39.2902 24.0142H38.5122C33.2004 24.0142 28.8812 28.4413 28.8812 33.8859V38.5055C28.8812 38.5055 31.081 38.2856 31.3493 37.1856C31.4566 37.0757 31.5102 36.9657 31.5639 36.8282C32.798 36.8282 38.6195 36.7457 41.9192 32.6485C42.6436 34.6558 44.2264 36.1957 46.2384 36.7732C46.2921 36.9107 46.3726 37.0482 46.4531 37.1581C46.7213 38.2581 48.9212 38.478 48.9212 38.478V33.8584C48.9212 28.4413 44.602 24.0142 39.2902 24.0142ZM46.5604 36.4982L46.6408 36.4432L46.4799 36.5532L46.5604 36.4982ZM46.5067 36.4982V36.4432L46.4531 36.5257L46.5067 36.4982ZM46.2384 36.7182L46.4799 36.5532L46.4262 36.6082L46.2384 36.7182ZM46.4531 36.6357L46.3726 36.8007L46.5067 36.5532L46.4531 36.6357Z" fill="#242E33"/>
<path d="M47.7676 37.1032C47.1237 36.9107 46.453 37.2682 46.2384 37.9281C46.2116 38.0381 46.1848 38.1756 46.1848 38.3131V41.8603C46.1848 42.5478 46.7213 43.0977 47.392 43.0977C47.5261 43.0977 47.6334 43.0702 47.7676 43.0428C48.009 42.9603 48.2236 42.8503 48.4383 42.7128C48.5724 42.6303 48.6797 42.5203 48.7602 42.4103C48.8943 42.3278 49.0285 42.2453 49.1089 42.1353C50.2089 40.8429 50.1016 38.8906 48.8407 37.7632C48.5456 37.4332 48.17 37.2132 47.7676 37.1032Z" fill="#FEBF86"/>
<path d="M31.1615 37.2683C30.8396 37.0484 30.464 36.9659 30.0884 37.0759C28.5056 37.5708 27.5935 39.3032 28.1032 40.9531C28.3983 41.9155 29.1494 42.6854 30.0884 42.9879C30.7322 43.1804 31.4298 42.8229 31.6175 42.163C31.6444 42.053 31.6712 41.9155 31.6712 41.8055V38.2583C31.6712 37.8733 31.4834 37.5158 31.1615 37.2683Z" fill="#FEBF86"/>
<path d="M45.997 36.0856L45.5677 35.8931C44.1727 35.3157 43.046 34.2433 42.3485 32.8959L42.3216 32.8134C42.2412 32.5934 41.9997 32.5109 41.7851 32.5934C41.7583 32.6209 41.7046 32.6209 41.6778 32.6484C39.9608 33.9683 38.0561 34.9307 35.9904 35.5357C35.3734 35.7281 34.7295 35.8656 34.0857 36.0031C33.4686 36.1131 32.8248 36.1956 32.1809 36.2506C31.5371 36.3056 31.0542 36.8281 31.0542 37.488V42.5751C31.081 46.5898 34.2466 49.8345 38.1634 49.862H39.6389C43.5557 49.8345 46.7213 46.5898 46.7481 42.5751V37.268C46.775 36.7181 46.4799 36.2506 45.997 36.0856Z" fill="#FEBF86"/>
<path d="M39.6121 43.0975C39.8535 43.0975 40.0682 43.29 40.0682 43.5375C40.0682 43.7849 39.8804 44.0049 39.6389 44.0324H38.4317C38.1902 44.0324 37.9756 43.8124 37.9756 43.5649V41.2826C38.0025 41.0351 38.2171 40.8152 38.4854 40.8427C38.7 40.8702 38.8609 41.0351 38.9146 41.2276V43.07H39.6121V43.0975Z" fill="#EAAA73"/>
<path d="M137.666 33.2502H71.3887C70.7888 33.2502 70.2857 32.5172 70.2857 31.5789V29.3798C70.2857 28.4709 70.7695 27.7085 71.3887 27.7085H137.666C138.266 27.7085 138.769 28.4415 138.769 29.3798V31.5789C138.769 32.5172 138.266 33.2502 137.666 33.2502Z" fill="#DCE2E2"/>
<path d="M137.666 49.8757H71.3887C70.7888 49.8757 70.2857 49.1427 70.2857 48.2044V46.0053C70.2857 45.0963 70.7695 44.334 71.3887 44.334H137.666C138.266 44.334 138.769 45.067 138.769 46.0053V48.2044C138.769 49.1134 138.266 49.8757 137.666 49.8757Z" fill="#DCE2E2"/>
<path d="M137.666 66.5007H71.3887C70.7888 66.5007 70.2857 65.7677 70.2857 64.8294V62.6303C70.2857 61.7213 70.7695 60.959 71.3887 60.959H137.666C138.266 60.959 138.769 61.692 138.769 62.6303V64.8294C138.769 65.7677 138.266 66.5007 137.666 66.5007Z" fill="#DCE2E2"/>
<path d="M98.0925 14.7781H65.9075C65.3482 14.7781 64.8791 14.0411 64.8791 13.0979V10.9165C64.8791 10.0027 65.3302 9.23633 65.9075 9.23633H98.0925C98.6518 9.23633 99.1209 9.97326 99.1209 10.9165V13.1273C99.1028 14.0411 98.6518 14.7781 98.0925 14.7781Z" fill="#DCE2E2"/>
<path d="M146.613 79.5511H9.87413C9.17662 79.5511 8.61324 78.9737 8.61324 78.2587C8.61324 77.5438 9.17662 76.9663 9.87413 76.9663H146.613C147.31 76.9663 147.874 77.5438 147.874 78.2587C147.874 78.9737 147.31 79.5511 146.613 79.5511Z" fill="#DCE2E2"/>
</svg>
