<svg viewBox="0 0 22 17" xmlns="http://www.w3.org/2000/svg" xmlns:xlink="http://www.w3.org/1999/xlink"><linearGradient id="a" gradientTransform="matrix(1 0 0 -1 0 -2677.82)" gradientUnits="userSpaceOnUse" x1="10.02" x2="10.02" y1="-2694.83" y2="-2681.02"><stop offset=".06" stop-color="#ec222c"/><stop offset=".33" stop-color="#ee2834"/><stop offset=".76" stop-color="#ef404b"/><stop offset="1" stop-color="#f05059"/></linearGradient><linearGradient id="b" gradientTransform="matrix(1 0 0 -1 0 -2677.82)" gradientUnits="userSpaceOnUse" x1="10.04" x2="10.04" y1="-2694.82" y2="-2680.94"><stop offset="0" stop-color="#ec222c" stop-opacity="0"/><stop offset=".17" stop-color="#ec232f" stop-opacity=".02"/><stop offset=".31" stop-color="#ee2c36" stop-opacity=".03"/><stop offset=".43" stop-color="#ef3c46" stop-opacity=".04"/><stop offset=".55" stop-color="#f0545d" stop-opacity=".06"/><stop offset=".66" stop-color="#f27179" stop-opacity=".07"/><stop offset=".77" stop-color="#f5969d" stop-opacity=".08"/><stop offset=".88" stop-color="#fac4c7" stop-opacity=".09"/><stop offset=".98" stop-color="#fef6f6" stop-opacity=".1"/><stop offset="1" stop-color="#fff" stop-opacity=".1"/></linearGradient><path d="m20.05 3.12v12.15a1.72 1.72 0 0 1 -1.75 1.73h-16.56a1.77 1.77 0 0 1 -1.23-.5 1.73 1.73 0 0 1 -.51-1.23v-11.27a1.53 1.53 0 0 1 .08-.52l.36.08 8 5 1.64 1 1.62-1z" fill="url(#a)"/><path d="m20.05 17h-20.05v-13.17a.69.69 0 0 1 .7-.71h19.35z" fill="url(#b)"/><path d="m20 3.12-8.4 5.45-1.6 1.06-1.63-1-7.97-5.08-.4-.08a1.75 1.75 0 0 1 1.7-1.22h16.13c1.74 0 2.17.87 2.17.87z" fill="#e8eae9"/><path d="m17.57 8.83a4.42 4.42 0 1 0 -4.44-4.42 4.42 4.42 0 0 0 4.44 4.42z" fill="#fff"/><path d="m17.57 7.5a3.09 3.09 0 1 0 -3.11-3.09 3.09 3.09 0 0 0 3.11 3.09z" fill="#ebd033"/></svg>