<svg fill="none" height="20" viewBox="0 0 20 20" width="20" xmlns="http://www.w3.org/2000/svg" xmlns:xlink="http://www.w3.org/1999/xlink"><linearGradient id="a" gradientUnits="userSpaceOnUse" x1="9.99021" x2="9.99021" y1="20.0015" y2="6.9304"><stop offset="0" stop-color="#ec222c" stop-opacity="0"/><stop offset=".1634" stop-color="#ed272e" stop-opacity=".016338"/><stop offset=".2945" stop-color="#ed3632" stop-opacity=".02945"/><stop offset=".4144" stop-color="#ee493c" stop-opacity=".041443"/><stop offset=".5277" stop-color="#f0604c" stop-opacity=".052772"/><stop offset=".6364" stop-color="#f37961" stop-opacity=".063642"/><stop offset=".7415" stop-color="#f6957c" stop-opacity=".074153"/><stop offset=".8438" stop-color="#f9b7a3" stop-opacity=".084384"/><stop offset=".9414" stop-color="#fde0d4" stop-opacity=".09414"/><stop offset="1" stop-color="#fff" stop-opacity=".1"/></linearGradient><path d="m16.4541 4.73047-.1592 6.92403 3.5054-4.43629z" fill="#685550"/><path d="m3.80286 4.55078-3.199344 2.37745 3.350334 4.24427z" fill="#685550"/><path d="m16.4452.58415v14.39545c0 .3268-.2571.5841-.5835.5841h-11.70783c-.32647 0-.58356-.2573-.58356-.5841v-14.39545c0-.326797.25709-.58415.58356-.58415h11.70783c.3264 0 .5835.257353.5835.58415z" fill="#f0f2f7"/><path d="m16.4454.58415v14.39545c0 .3268-.2571.5841-.5836.5841h-5.8559v-15.5637h5.8518c.3306 0 .5877.257353.5877.58415z" fill="#f0f2f7"/><g fill="#e1d3ce"><path d="m14.1083 4.14195c0 .32679-.2571.58415-.5835.58415h-7.02718c-.32647 0-.58356-.25736-.58356-.58415 0-.3268.25301-.58824.58356-.58824h7.02308c.3264 0 .5876.25735.5876.58824z"/><path d="m14.1083 6.48259c0 .32679-.2571.58415-.5835.58415h-7.02718c-.32647 0-.58356-.25736-.58356-.58415 0-.3268.25709-.58415.58356-.58415h7.02308c.3264 0 .5876.25735.5876.58415z"/><path d="m10.5947 8.82731c0 .3268-.257.58415-.5835.58415h-3.51358c-.32647 0-.58356-.25735-.58356-.58415 0-.32679.25709-.58415.58356-.58415h3.51358c.3265 0 .5835.25736.5835.58415z"/><path d="m10.0059 9.41555v-1.17239c.3264 0 .5835.25736.5835.58415 0 .3268-.253.58824-.5835.58824z"/><path d="m13.5194 7.07082h-3.5135v-1.17238h3.5135c.3265 0 .5836.25735.5836.58415.0041.33088-.2571.58823-.5836.58823z"/><path d="m13.5194 4.7261h-3.5135v-1.17239h3.5135c.3265 0 .5836.25735.5836.58415s-.2571.58824-.5836.58824z"/></g><path d="m20.0011 7.65583v10.58827c0 .9722-.7835 1.7565-1.7548 1.7565h-16.47007c-.971232 0-1.7547456-.7843-1.7547456-1.7565v-10.58827c0-.17565.0816156-.33905.2122016-.44526.012242 0 .375433-.28186.375433-.28186l.971231.72712 8.07998 6.03757c.1061.0817.23261.1307.35097.1307.1183 0 .2448-.049.3509-.1307l8.08-6.03757.9712-.72712s.3632.28186.3755.28186c.1265.10621.2122.26961.2122.44526z" fill="#e0e6ed"/><path d="m19.9796 7.65583v10.58827c0 .9722-.7835 1.7565-1.7547 1.7565h-16.47016c-.971226 0-1.75474-.7843-1.75474-1.7565v-10.58827c0-.17565.081616-.33905.212202-.44526.012242 0 .375433-.28186.375433-.28186l.971235.72712 8.07998 6.03757c.1061.0817.2326.1307.35095.1307.1183 0 .2448-.049.3509-.1307l8.08-6.03757.9713-.72712s.3632.28186.3754.28186c.1306.10621.2122.26961.2122.44526z" fill="url(#a)"/></svg>