<?xml version="1.0" encoding="UTF-8"?>
<svg id="Layer_1" data-name="Layer 1" xmlns="http://www.w3.org/2000/svg" xmlns:xlink="http://www.w3.org/1999/xlink" viewBox="0 0 189.76 184.04">
  <defs>
    <linearGradient id="linear-gradient" x1="133.05" y1="145.89" x2="189.76" y2="145.89" gradientUnits="userSpaceOnUse">
      <stop offset="0" stop-color="#fff" stop-opacity=".2"/>
      <stop offset="1" stop-color="#404041" stop-opacity="0"/>
    </linearGradient>
    <linearGradient id="linear-gradient-2" x1="133.05" y1="153.88" x2="162.18" y2="153.88" gradientUnits="userSpaceOnUse">
      <stop offset="0" stop-color="#ef4d58" stop-opacity="0"/>
      <stop offset="1" stop-color="#eb1c29"/>
    </linearGradient>
    <linearGradient id="linear-gradient-3" x1="16.57" y1="150.41" x2="16.57" y2="171.13" xlink:href="#linear-gradient-2"/>
    <linearGradient id="linear-gradient-4" x1="46.7" y1="150.22" x2="46.7" y2="171.53" xlink:href="#linear-gradient-2"/>
    <linearGradient id="linear-gradient-5" x1="70.28" y1="150.22" x2="70.28" y2="171.13" xlink:href="#linear-gradient-2"/>
    <linearGradient id="linear-gradient-6" x1="93.11" y1="150.22" x2="93.11" y2="171.53" xlink:href="#linear-gradient-2"/>
    <linearGradient id="linear-gradient-7" x1="115.56" y1="150.41" x2="115.56" y2="179.02" xlink:href="#linear-gradient-2"/>
    <linearGradient id="linear-gradient-8" x1="87.76" y1="0" x2="87.76" y2="127.2" xlink:href="#linear-gradient-2"/>
  </defs>
  <path d="M154.22,166.61l-20.18-19.8c-1.3-1.28-1.32-3.37-.04-4.67h0c1.28-1.3,3.37-1.32,4.67-.04l15.42,15.13,29.99-31.06c1.27-1.31,3.36-1.35,4.67-.08h0c1.31,1.27,1.35,3.36,.08,4.67l-34.61,35.85Z" fill="#404041"/>
  <path d="M154.22,166.61l-20.18-19.8c-1.3-1.28-1.32-3.37-.04-4.67h0c1.28-1.3,3.37-1.32,4.67-.04l15.42,15.13,29.99-31.06c1.27-1.31,3.36-1.35,4.67-.08h0c1.31,1.27,1.35,3.36,.08,4.67l-34.61,35.85Z" fill="url(#linear-gradient)"/>
  <path d="M147.13,163.6l-14.59,14.81c-1.28,1.3-1.26,3.39,.04,4.67,1.3,1.28,3.39,1.26,4.67-.04l14.59-14.81-4.71-4.64Z" fill="#ef4d58"/>
  <path d="M171.43,173.63l-10.48-9.97-4.55,4.79,10.48,9.97c1.32,1.26,3.41,1.2,4.67-.12,1.26-1.32,1.2-3.41-.12-4.67Z" fill="#ef4d58"/>
  <path d="M162.18,158.36l-7.97,8.25-20.18-19.8c-1.3-1.28-1.32-3.37-.04-4.67,.65-.66,1.5-.99,2.36-.99s1.67,.32,2.31,.95l15.42,15.14s4.78,4.56,8.1,1.13Z" fill="#ef4d58"/>
  <path d="M162.18,158.36l-7.97,8.25-20.18-19.8c-1.3-1.28-1.32-3.37-.04-4.67,.65-.66,1.5-.99,2.36-.99s1.67,.32,2.31,.95l15.42,15.14s4.78,4.56,8.1,1.13Z" fill="url(#linear-gradient-2)"/>
  <g>
    <path d="M11.17,150.41c1.79,0,3.24,.45,4.36,1.36,1.12,.91,1.86,2.19,2.23,3.85h-.59l.28-.71c.31-.74,.85-1.45,1.62-2.13,.76-.68,1.64-1.25,2.64-1.7,1-.45,2.04-.67,3.12-.67,1.74,0,3.1,.37,4.1,1.12,1,.75,1.72,1.75,2.15,3,.43,1.25,.65,2.65,.65,4.2v10.77c0,.45-.15,.83-.45,1.14s-.68,.47-1.12,.47c-.47,0-.86-.16-1.15-.47s-.43-.7-.43-1.14v-10.69c0-1.03-.15-1.95-.45-2.78-.3-.83-.79-1.49-1.46-1.97-.67-.49-1.58-.73-2.74-.73-1.08,0-2.06,.24-2.96,.73s-1.61,1.14-2.13,1.97c-.53,.83-.79,1.76-.79,2.78v10.69c0,.45-.15,.83-.43,1.14s-.67,.47-1.14,.47c-.45,0-.82-.16-1.13-.47-.3-.32-.45-.7-.45-1.14v-10.81c0-1-.14-1.9-.42-2.7-.28-.8-.74-1.45-1.4-1.93-.66-.49-1.57-.73-2.72-.73-1.05,0-2.01,.24-2.88,.73-.87,.49-1.56,1.13-2.09,1.93-.53,.8-.79,1.7-.79,2.7v10.81c0,.45-.15,.83-.45,1.14-.3,.32-.68,.47-1.13,.47s-.82-.16-1.12-.47-.45-.7-.45-1.14v-17.21c0-.45,.15-.82,.45-1.13,.3-.3,.68-.45,1.12-.45,.48,0,.86,.15,1.15,.45,.29,.3,.43,.68,.43,1.13v3l-.87,.95c.1-.68,.37-1.37,.81-2.05s.99-1.32,1.68-1.89c.69-.58,1.45-1.04,2.29-1.38,.84-.34,1.74-.51,2.68-.51Z" fill="#ef4d58"/>
    <path d="M56.94,160.87c0,2.05-.45,3.88-1.36,5.48s-2.13,2.87-3.67,3.79-3.27,1.38-5.19,1.38-3.66-.46-5.21-1.38-2.78-2.18-3.69-3.79c-.91-1.6-1.36-3.43-1.36-5.48s.45-3.88,1.36-5.48c.91-1.6,2.14-2.87,3.69-3.79,1.55-.92,3.29-1.38,5.21-1.38s3.65,.46,5.19,1.38c1.54,.92,2.76,2.18,3.67,3.79,.91,1.6,1.36,3.43,1.36,5.48Zm-3.16,0c0-1.53-.31-2.87-.93-4.03-.62-1.16-1.46-2.06-2.53-2.72-1.07-.66-2.27-.99-3.61-.99s-2.54,.33-3.61,.99c-1.07,.66-1.91,1.56-2.54,2.72-.63,1.16-.95,2.5-.95,4.03s.32,2.83,.95,3.99c.63,1.16,1.48,2.07,2.54,2.74,1.07,.67,2.27,1.01,3.61,1.01s2.55-.34,3.61-1.01c1.07-.67,1.91-1.58,2.53-2.74,.62-1.16,.93-2.49,.93-3.99Z" fill="#ef4d58"/>
    <path d="M71.82,150.22c1.79,0,3.2,.37,4.22,1.11,1.03,.74,1.76,1.72,2.19,2.96,.43,1.24,.65,2.62,.65,4.14v11.09c0,.45-.15,.83-.45,1.14-.3,.32-.68,.47-1.13,.47s-.82-.16-1.13-.47c-.3-.32-.45-.7-.45-1.14v-11.01c0-1-.15-1.9-.45-2.7-.3-.8-.8-1.45-1.5-1.93-.7-.49-1.65-.73-2.86-.73-1.1,0-2.12,.24-3.04,.73-.92,.49-1.66,1.13-2.21,1.93s-.83,1.7-.83,2.7v11.01c0,.45-.15,.83-.45,1.14-.3,.32-.68,.47-1.13,.47s-.82-.16-1.12-.47c-.3-.32-.45-.7-.45-1.14v-17.21c0-.45,.15-.82,.45-1.13s.68-.45,1.12-.45c.47,0,.86,.15,1.15,.45,.29,.3,.43,.68,.43,1.13v2.8l-.79,.87c.13-.68,.43-1.37,.91-2.07,.47-.7,1.07-1.32,1.78-1.87,.71-.55,1.5-.99,2.37-1.32,.87-.33,1.78-.49,2.72-.49Z" fill="#ef4d58"/>
    <path d="M94.15,171.53c-2.1,0-3.95-.45-5.52-1.34-1.58-.89-2.81-2.12-3.69-3.69-.88-1.56-1.32-3.37-1.32-5.43,0-2.29,.45-4.24,1.36-5.86,.91-1.62,2.09-2.85,3.55-3.71,1.46-.85,3.01-1.28,4.64-1.28,1.21,0,2.38,.22,3.51,.67,1.13,.45,2.13,1.1,3,1.95s1.56,1.88,2.09,3.08c.53,1.2,.8,2.53,.83,4.01,0,.42-.16,.78-.47,1.07-.32,.29-.68,.43-1.1,.43h-15.59l-.71-2.72h15.19l-.63,.55v-.87c-.11-1.08-.47-2.01-1.09-2.78-.62-.78-1.37-1.37-2.25-1.8-.88-.42-1.81-.63-2.78-.63-.79,0-1.57,.14-2.35,.41s-1.47,.72-2.09,1.34c-.62,.62-1.12,1.41-1.5,2.39-.38,.97-.57,2.14-.57,3.51,0,1.53,.31,2.87,.93,4.02,.62,1.16,1.48,2.07,2.58,2.74,1.1,.67,2.39,1.01,3.87,1.01,.92,0,1.72-.12,2.41-.36,.68-.24,1.27-.53,1.77-.89s.92-.72,1.26-1.09c.34-.24,.67-.36,.99-.36,.39,0,.72,.13,.97,.39,.25,.26,.37,.58,.37,.95,0,.45-.21,.84-.63,1.18-.74,.82-1.74,1.53-3,2.15-1.26,.62-2.6,.93-4.03,.93Z" fill="#ef4d58"/>
    <path d="M122.41,150.41c.45,0,.82,.15,1.13,.45s.45,.68,.45,1.12v17.21c0,2.21-.43,4.04-1.3,5.5s-2.03,2.55-3.49,3.26c-1.46,.71-3.11,1.07-4.95,1.07-1.03,0-2.01-.1-2.96-.32-.95-.21-1.72-.49-2.33-.83-.5-.24-.85-.53-1.05-.89-.2-.36-.23-.73-.1-1.13,.18-.47,.45-.8,.81-.99,.36-.18,.73-.18,1.13,0,.42,.18,1.03,.44,1.83,.77s1.7,.49,2.7,.49c1.37,0,2.54-.26,3.51-.79,.97-.53,1.72-1.3,2.25-2.31,.53-1.01,.79-2.27,.79-3.77v-2.8l.47,.99c-.42,.82-.99,1.53-1.7,2.13-.71,.6-1.53,1.08-2.45,1.42-.92,.34-1.93,.51-3.04,.51-1.5,0-2.77-.32-3.81-.97s-1.83-1.54-2.37-2.68c-.54-1.14-.81-2.47-.81-3.97v-11.92c0-.45,.15-.82,.45-1.12,.3-.3,.68-.45,1.12-.45,.47,0,.86,.15,1.15,.45,.29,.3,.43,.68,.43,1.12v11.21c0,1.79,.39,3.14,1.18,4.04,.79,.91,2.01,1.36,3.67,1.36,1.05,0,2.01-.24,2.86-.71,.85-.47,1.54-1.12,2.05-1.95,.51-.83,.77-1.74,.77-2.74v-11.21c0-.45,.14-.82,.43-1.12,.29-.3,.67-.45,1.14-.45Z" fill="#ef4d58"/>
  </g>
  <g>
    <path d="M11.17,150.41c1.79,0,3.24,.45,4.36,1.36,1.12,.91,1.86,2.19,2.23,3.85h-.59l.28-.71c.31-.74,.85-1.45,1.62-2.13,.76-.68,1.64-1.25,2.64-1.7,1-.45,2.04-.67,3.12-.67,1.74,0,3.1,.37,4.1,1.12,1,.75,1.72,1.75,2.15,3s.65,2.65,.65,4.2v10.77c0,.45-.15,.83-.45,1.14s-.68,.47-1.12,.47c-.47,0-.86-.16-1.15-.47s-.43-.7-.43-1.14v-10.69c0-1.03-.15-1.95-.45-2.78-.3-.83-.79-1.49-1.46-1.97-.67-.49-1.58-.73-2.74-.73-1.08,0-2.06,.24-2.96,.73s-1.61,1.14-2.13,1.97c-.53,.83-.79,1.76-.79,2.78v10.69c0,.45-.15,.83-.43,1.14s-.67,.47-1.14,.47c-.45,0-.82-.16-1.13-.47-.3-.32-.45-.7-.45-1.14v-10.81c0-1-.14-1.9-.42-2.7-.28-.8-.74-1.45-1.4-1.93-.66-.49-1.57-.73-2.72-.73-1.05,0-2.01,.24-2.88,.73-.87,.49-1.56,1.13-2.09,1.93-.53,.8-.79,1.7-.79,2.7v10.81c0,.45-.15,.83-.45,1.14-.3,.32-.68,.47-1.13,.47s-.82-.16-1.12-.47-.45-.7-.45-1.14v-17.21c0-.45,.15-.82,.45-1.13,.3-.3,.68-.45,1.12-.45,.48,0,.86,.15,1.15,.45,.29,.3,.43,.68,.43,1.13v3l-.87,.95c.1-.68,.37-1.37,.81-2.05s.99-1.32,1.68-1.89c.69-.58,1.45-1.04,2.29-1.38,.84-.34,1.74-.51,2.68-.51Z" fill="url(#linear-gradient-3)"/>
    <path d="M56.94,160.87c0,2.05-.45,3.88-1.36,5.48s-2.13,2.87-3.67,3.79-3.27,1.38-5.19,1.38-3.66-.46-5.21-1.38-2.78-2.18-3.69-3.79c-.91-1.6-1.36-3.43-1.36-5.48s.45-3.88,1.36-5.48c.91-1.6,2.14-2.87,3.69-3.79,1.55-.92,3.29-1.38,5.21-1.38s3.65,.46,5.19,1.38c1.54,.92,2.76,2.18,3.67,3.79s1.36,3.43,1.36,5.48Zm-3.16,0c0-1.53-.31-2.87-.93-4.03-.62-1.16-1.46-2.06-2.53-2.72-1.07-.66-2.27-.99-3.61-.99s-2.54,.33-3.61,.99c-1.07,.66-1.91,1.56-2.54,2.72-.63,1.16-.95,2.5-.95,4.03s.32,2.83,.95,3.99c.63,1.16,1.48,2.07,2.54,2.74,1.07,.67,2.27,1.01,3.61,1.01s2.55-.34,3.61-1.01c1.07-.67,1.91-1.58,2.53-2.74,.62-1.16,.93-2.49,.93-3.99Z" fill="url(#linear-gradient-4)"/>
    <path d="M71.82,150.22c1.79,0,3.2,.37,4.22,1.11,1.03,.74,1.76,1.72,2.19,2.96,.43,1.24,.65,2.62,.65,4.14v11.09c0,.45-.15,.83-.45,1.14-.3,.32-.68,.47-1.13,.47s-.82-.16-1.13-.47c-.3-.32-.45-.7-.45-1.14v-11.01c0-1-.15-1.9-.45-2.7-.3-.8-.8-1.45-1.5-1.93-.7-.49-1.65-.73-2.86-.73-1.1,0-2.12,.24-3.04,.73-.92,.49-1.66,1.13-2.21,1.93s-.83,1.7-.83,2.7v11.01c0,.45-.15,.83-.45,1.14-.3,.32-.68,.47-1.13,.47s-.82-.16-1.12-.47c-.3-.32-.45-.7-.45-1.14v-17.21c0-.45,.15-.82,.45-1.13s.68-.45,1.12-.45c.47,0,.86,.15,1.15,.45,.29,.3,.43,.68,.43,1.13v2.8l-.79,.87c.13-.68,.43-1.37,.91-2.07,.47-.7,1.07-1.32,1.78-1.87,.71-.55,1.5-.99,2.37-1.32,.87-.33,1.78-.49,2.72-.49Z" fill="url(#linear-gradient-5)"/>
    <path d="M94.15,171.53c-2.1,0-3.95-.45-5.52-1.34-1.58-.89-2.81-2.12-3.69-3.69-.88-1.56-1.32-3.37-1.32-5.43,0-2.29,.45-4.24,1.36-5.86,.91-1.62,2.09-2.85,3.55-3.71,1.46-.85,3.01-1.28,4.64-1.28,1.21,0,2.38,.22,3.51,.67,1.13,.45,2.13,1.1,3,1.95s1.56,1.88,2.09,3.08c.53,1.2,.8,2.53,.83,4.01,0,.42-.16,.78-.47,1.07-.32,.29-.68,.43-1.1,.43h-15.59l-.71-2.72h15.19l-.63,.55v-.87c-.11-1.08-.47-2.01-1.09-2.78-.62-.78-1.37-1.37-2.25-1.8-.88-.42-1.81-.63-2.78-.63-.79,0-1.57,.14-2.35,.41s-1.47,.72-2.09,1.34c-.62,.62-1.12,1.41-1.5,2.39-.38,.97-.57,2.14-.57,3.51,0,1.53,.31,2.87,.93,4.02,.62,1.16,1.48,2.07,2.58,2.74,1.1,.67,2.39,1.01,3.87,1.01,.92,0,1.72-.12,2.41-.36,.68-.24,1.27-.53,1.77-.89s.92-.72,1.26-1.09c.34-.24,.67-.36,.99-.36,.39,0,.72,.13,.97,.39,.25,.26,.37,.58,.37,.95,0,.45-.21,.84-.63,1.18-.74,.82-1.74,1.53-3,2.15-1.26,.62-2.6,.93-4.03,.93Z" fill="url(#linear-gradient-6)"/>
    <path d="M122.41,150.41c.45,0,.82,.15,1.13,.45s.45,.68,.45,1.12v17.21c0,2.21-.43,4.04-1.3,5.5s-2.03,2.55-3.49,3.26c-1.46,.71-3.11,1.07-4.95,1.07-1.03,0-2.01-.1-2.96-.32-.95-.21-1.72-.49-2.33-.83-.5-.24-.85-.53-1.05-.89-.2-.36-.23-.73-.1-1.13,.18-.47,.45-.8,.81-.99,.36-.18,.73-.18,1.13,0,.42,.18,1.03,.44,1.83,.77,.8,.33,1.7,.49,2.7,.49,1.37,0,2.54-.26,3.51-.79,.97-.53,1.72-1.3,2.25-2.31,.53-1.01,.79-2.27,.79-3.77v-2.8l.47,.99c-.42,.82-.99,1.53-1.7,2.13-.71,.6-1.53,1.08-2.45,1.42-.92,.34-1.93,.51-3.04,.51-1.5,0-2.77-.32-3.81-.97s-1.83-1.54-2.37-2.68c-.54-1.14-.81-2.47-.81-3.97v-11.92c0-.45,.15-.82,.45-1.12,.3-.3,.68-.45,1.12-.45,.47,0,.86,.15,1.15,.45,.29,.3,.43,.68,.43,1.12v11.21c0,1.79,.39,3.14,1.18,4.04,.79,.91,2.01,1.36,3.67,1.36,1.05,0,2.01-.24,2.86-.71,.85-.47,1.54-1.12,2.05-1.95,.51-.83,.77-1.74,.77-2.74v-11.21c0-.45,.14-.82,.43-1.12,.29-.3,.67-.45,1.14-.45Z" fill="url(#linear-gradient-7)"/>
  </g>
  <path d="M.03,79.33c0-9.36,0-18.71,0-28.07C.04,25.36,18.09,4.13,43.74,.66c15.55-2.11,30.17,.75,42.5,11.33,1.59,1.36,2.34,.55,3.43-.39,20.34-17.33,58.8-16.34,76.91,10.37,5.74,8.46,8.86,17.78,8.9,28.02,.07,20.1,.04,40.2,.01,60.29-.01,9.45-7.21,16.83-16.37,16.91-9.33,.09-16.78-7.17-16.86-16.75-.12-13.86-.03-27.72-.03-41.58,0-5.8,0-11.61,0-17.41,0-9.81-6.45-16.98-16.13-17.96-9.25-.94-16.65,2.56-19.9,9.89-1.12,2.53-1.72,5.5-1.74,8.27-.15,19.4-.07,38.81-.08,58.21,0,9.86-7.08,17.29-16.5,17.33-9.56,.04-16.72-7.38-16.73-17.36,0-18.89-.34-37.78,.13-56.65,.26-10.24-6.27-21.13-21.61-19.73-9.78,.9-16.36,8.1-16.37,18.03,0,19.49,.04,38.98-.02,58.47-.03,9.92-7.38,17.34-16.91,17.23C7.49,127.11,.14,119.93,.05,111.04c-.1-10.57-.02-21.14-.03-31.71Z" fill="#ef4d58"/>
  <path d="M.03,79.33c0-9.36,0-18.71,0-28.07C.04,25.36,18.09,4.13,43.74,.66c15.55-2.11,30.17,.75,42.5,11.33,1.59,1.36,2.34,.55,3.43-.39,20.34-17.33,58.8-16.34,76.91,10.37,5.74,8.46,8.86,17.78,8.9,28.02,.07,20.1,.04,40.2,.01,60.29-.01,9.45-7.21,16.83-16.37,16.91-9.33,.09-16.78-7.17-16.86-16.75-.12-13.86-.03-27.72-.03-41.58,0-5.8,0-11.61,0-17.41,0-9.81-6.45-16.98-16.13-17.96-9.25-.94-16.65,2.56-19.9,9.89-1.12,2.53-1.72,5.5-1.74,8.27-.15,19.4-.07,38.81-.08,58.21,0,9.86-7.08,17.29-16.5,17.33-9.56,.04-16.72-7.38-16.73-17.36,0-18.89-.34-37.78,.13-56.65,.26-10.24-6.27-21.13-21.61-19.73-9.78,.9-16.36,8.1-16.37,18.03,0,19.49,.04,38.98-.02,58.47-.03,9.92-7.38,17.34-16.91,17.23C7.49,127.11,.14,119.93,.05,111.04c-.1-10.57-.02-21.14-.03-31.71Z" fill="url(#linear-gradient-8)"/>
</svg>