<svg width="16" height="16" viewBox="0 0 16 16" fill="none" xmlns="http://www.w3.org/2000/svg">
<path d="M15 7H1C0.447719 7 0 7.44772 0 8C0 8.55228 0.447719 9 1 9H15C15.5523 9 16 8.55228 16 8C16 7.44772 15.5523 7 15 7Z" fill="#BBBBBB"/>
<path d="M1 4.33337H15C15.5523 4.33337 16 3.88566 16 3.33337C16 2.78109 15.5523 2.33337 15 2.33337H1C0.447719 2.33337 0 2.78109 0 3.33337C0 3.88566 0.447719 4.33337 1 4.33337Z" fill="#BBBBBB"/>
<path d="M15 11.6667H1C0.447719 11.6667 0 12.1145 0 12.6667C0 13.219 0.447719 13.6667 1 13.6667H15C15.5523 13.6667 16 13.219 16 12.6667C16 12.1145 15.5523 11.6667 15 11.6667Z" fill="#BBBBBB"/>
</svg>
