<svg width="15" height="15" viewBox="0 0 15 15" fill="none" xmlns="http://www.w3.org/2000/svg">
<g clip-path="url(#clip0_880_8246)">
<path d="M7.5 9.37024C6.46447 9.37024 5.625 10.2097 5.625 11.2452V14.9952H9.375V11.2452C9.375 10.2097 8.53553 9.37024 7.5 9.37024Z" fill="#BBBBBB"/>
<path d="M10.625 11.2453V14.9953H13.125C14.1605 14.9953 15 14.1558 15 13.1203V7.41968C15.0001 7.09499 14.874 6.78297 14.6481 6.54968L9.33688 0.807789C8.39974 -0.206176 6.81806 -0.268432 5.80409 0.668717C5.75593 0.713248 5.70952 0.759625 5.66502 0.807789L0.363135 6.54781C0.130459 6.78207 -8.78463e-05 7.09888 4.43505e-08 7.42906V13.1203C4.43505e-08 14.1558 0.839473 14.9953 1.875 14.9953H4.37499V11.2453C4.38668 9.54104 5.76267 8.14932 7.424 8.10924C9.14092 8.06782 10.6119 9.48324 10.625 11.2453Z" fill="#BBBBBB"/>
</g>
<defs>
<clipPath id="clip0_880_8246">
<rect width="15" height="15" fill="white"/>
</clipPath>
</defs>
</svg>
