<svg width="33" height="32" viewBox="0 0 33 32" fill="none" xmlns="http://www.w3.org/2000/svg">
<g clip-path="url(#clip0_2214_2149)">
<path d="M15.4211 19.8627L27.6442 15.3006C28.0204 15.1602 28.3572 14.9313 28.6262 14.6332C28.8952 14.3351 29.0884 13.9765 29.1895 13.588C29.2906 13.1994 29.2966 12.7921 29.2071 12.4007C29.1175 12.0093 28.935 11.6452 28.6749 11.3393L24.1506 6.01433C23.2598 4.7882 21.9918 3.88764 20.5406 3.45037C19.0894 3.0131 17.535 3.06319 16.115 3.593C14.6369 4.14466 13.3911 5.18391 12.5833 6.53916C11.7755 7.8944 11.454 9.48461 11.6719 11.0472L12.0518 17.6655C12.0745 18.0561 12.1886 18.436 12.3849 18.7745C12.5812 19.113 12.8542 19.4006 13.182 19.6144C13.5098 19.8281 13.8831 19.9619 14.272 20.0051C14.6609 20.0482 15.0545 19.9994 15.4211 19.8627Z" fill="white"/>
<path d="M18.3711 20.5391C18.8796 21.3546 19.6545 21.9693 20.5644 22.2789C21.4743 22.5886 22.4632 22.5741 23.3637 22.238C24.2641 21.902 25.0207 21.2649 25.5052 20.4348C25.9897 19.6048 26.1724 18.6327 26.0222 17.6834L18.3711 20.5391Z" fill="white"/>
</g>
<g clip-path="url(#clip1_2214_2149)">
<path d="M2.77496 20.2823C2.63175 19.7448 2.95102 19.1918 3.48778 19.0477C4.02487 18.9029 4.57573 19.221 4.71893 19.7585C5.7622 23.6741 8.2662 26.9445 11.7704 28.9677C12.2511 29.2452 12.4153 29.8616 12.137 30.3435C11.8587 30.8255 11.2428 30.9915 10.7622 30.714C6.79302 28.4224 3.95621 24.7177 2.77462 20.2829L2.77496 20.2823Z" fill="#87D861"/>
<path d="M7.6533 17.9246C8.1904 17.7799 8.74183 18.0983 8.88446 18.6354C9.63105 21.4376 11.423 23.7776 13.9312 25.2257C14.4118 25.5032 14.576 26.1196 14.2978 26.6016C14.0195 27.0836 13.4036 27.2495 12.923 26.972C9.94984 25.2555 7.82539 22.4806 6.94048 19.1593C6.79727 18.6218 7.11655 18.0688 7.6533 17.9246Z" fill="#87D861"/>
</g>
<defs>
<clipPath id="clip0_2214_2149">
<rect width="20" height="20" fill="white" transform="translate(7 6.99414) rotate(-20.4674)"/>
</clipPath>
<clipPath id="clip1_2214_2149">
<rect width="9.81617" height="13.4326" fill="white" transform="matrix(-0.5 0.866025 0.866025 0.5 4.9082 16)"/>
</clipPath>
</defs>
</svg>
