<svg fill="none" height="162" viewBox="0 0 186 162" width="186" xmlns="http://www.w3.org/2000/svg" xmlns:xlink="http://www.w3.org/1999/xlink"><clipPath id="a"><path d="m0 0h186v162h-186z"/></clipPath><g clip-path="url(#a)"><path d="m164.432 44.6053h-30.904c-1.545 0-2.575-1.0262-2.575-2.5654s1.03-2.5653 2.575-2.5653h30.904c1.545 0 2.575 1.0261 2.575 2.5653s-1.03 2.5654-2.575 2.5654z" fill="#dfe6ee"/><path d="m157.414 58.8416h-30.903c-1.545 0-2.575-1.0261-2.575-2.5653s1.03-2.5654 2.575-2.5654h30.903c1.545 0 2.576 1.0262 2.576 2.5654s-1.031 2.5653-2.576 2.5653z" fill="#dfe6ee"/><path d="m57.59 7.59939h-30.9034c-1.5452 0-2.5753-1.02613-2.5753-2.56532s1.0301-2.56532 2.5753-2.56532h30.9034c1.5452 0 2.5753 1.02613 2.5753 2.56532s-1.0301 2.56532-2.5753 2.56532z" fill="#bfcbda"/><path d="m145.02 162h-98.4076c-2.8972 0-5.2472-2.341-5.2472-5.227v-125.4124c0-2.886 2.35-5.2268 5.2472-5.2268h98.4076c2.898 0 5.248 2.3408 5.248 5.2268v125.4444c-.033 2.886-2.35 5.195-5.248 5.195z" fill="#fff"/><path d="m145.02 26.1338h-7.372c2.898 0 5.248 2.3408 5.248 5.2268v125.4444c0 2.886-2.35 5.227-5.248 5.227h7.372c2.897 0 5.247-2.341 5.247-5.227v-125.4444c-.032-2.886-2.35-5.2268-5.247-5.2268z" fill="#f2f2f3"/><path d="m132.917 149.43h-98.4081c-2.8972 0-5.2472-2.341-5.2472-5.227v-125.4117c0-2.886 2.35-5.2268 5.2472-5.2268h9.3676 21.6646 21.2139 46.162c2.897 0 5.247 2.3408 5.247 5.2268v125.4437c-.032 2.886-2.35 5.195-5.247 5.195z" fill="#fff"/><path d="m132.916 13.5645h-8.016c2.898 0 5.248 2.3408 5.248 5.2268v125.4437c0 2.886-2.35 5.227-5.248 5.227h8.016c2.897 0 5.247-2.341 5.247-5.227v-125.4437c-.032-2.886-2.35-5.2268-5.247-5.2268z" fill="#f2f2f3"/><path d="m64.4451 46.9132h-18.1236c-1.352 0-2.4465-1.0903-2.4465-2.4371s1.0945-2.437 2.4465-2.437h18.1236c1.352 0 2.4465 1.0902 2.4465 2.437s-1.0945 2.4371-2.4465 2.4371z" fill="#bfcbda"/><path d="m120.717 63.2354h-74.0068c-1.352 0-2.4465-1.0902-2.4465-2.437s1.0945-2.4371 2.4465-2.4371h74.0068c1.352 0 2.447 1.0903 2.447 2.4371s-1.095 2.437-2.447 2.437z" fill="#f2f2f3"/><path d="m120.717 75.1319h-74.0068c-1.352 0-2.4465-1.0902-2.4465-2.437s1.0945-2.4371 2.4465-2.4371h74.0068c1.352 0 2.447 1.0903 2.447 2.4371s-1.095 2.437-2.447 2.437z" fill="#f2f2f3"/><g fill="#dfc9e2"><path d="m157.447 141.99c1.405 0 2.543-1.134 2.543-2.533s-1.138-2.533-2.543-2.533c-1.404 0-2.543 1.134-2.543 2.533s1.139 2.533 2.543 2.533z"/><path d="m155.097 9.17102c2.543 0 4.604-2.053 4.604-4.58551s-2.061-4.58551-4.604-4.58551c-2.542 0-4.603 2.053-4.603 4.58551s2.061 4.58551 4.603 4.58551z"/><path d="m183.038 21.87c1.635 0 2.961-1.3209 2.961-2.9502s-1.326-2.9501-2.961-2.9501c-1.636 0-2.962 1.3208-2.962 2.9501s1.326 2.9502 2.962 2.9502z"/><path d="m3.02596 133.942c1.67119 0 3.02596-1.35 3.02596-3.015 0-1.664-1.35477-3.014-3.02596-3.014s-3.02596 1.35-3.02596 3.014c0 1.665 1.35477 3.015 3.02596 3.015z"/><path d="m19.7007 66.4733c1.209 0 2.189-.9762 2.189-2.1805 0-1.2042-.98-2.1805-2.189-2.1805-1.2089 0-2.189.9763-2.189 2.1805 0 1.2043.9801 2.1805 2.189 2.1805z"/><path d="m21.8897 100.048c.9778 0 1.7705-.7898 1.7705-1.7638 0-.9741-.7927-1.7637-1.7705-1.7637-.9779 0-1.7706.7896-1.7706 1.7637 0 .974.7927 1.7638 1.7706 1.7638z"/><path d="m56.7221 109.956h-10.3011c-1.5452 0-2.5753-1.026-2.5753-2.565 0-1.54 1.0301-2.566 2.5753-2.566h10.3011c1.5452 0 2.5753 1.026 2.5753 2.566 0 1.539-1.0301 2.565-2.5753 2.565z"/><path d="m77.3237 109.956h-10.3011c-1.5452 0-2.5753-1.026-2.5753-2.565 0-1.54 1.0301-2.566 2.5753-2.566h10.3011c1.5452 0 2.5753 1.026 2.5753 2.566 0 1.539-1.0301 2.565-2.5753 2.565z"/></g><path d="m77.7424 96.5525h-30.9034c-1.5452 0-2.5753-1.0261-2.5753-2.5653s1.0301-2.5653 2.5753-2.5653h30.9034c1.5452 0 2.5753 1.0261 2.5753 2.5653s-1.0301 2.5653-2.5753 2.5653z" fill="#f2f2f3"/><path d="m98.3447 86.2908h-51.5057c-1.5452 0-2.5753-1.0261-2.5753-2.5653s1.0301-2.5653 2.5753-2.5653h51.5057c1.5451 0 2.5753 1.0261 2.5753 2.5653s-1.0302 2.5653-2.5753 2.5653z" fill="#f2f2f3"/><path d="m118.947 86.2908h-10.301c-1.546 0-2.576-1.0261-2.576-2.5653s1.03-2.5653 2.576-2.5653h10.301c1.545 0 2.575 1.0261 2.575 2.5653s-1.03 2.5653-2.575 2.5653z" fill="#f2f2f3"/></g></svg>