<?xml version="1.0" standalone="no"?>
<!DOCTYPE svg PUBLIC "-//W3C//DTD SVG 20010904//EN"
 "http://www.w3.org/TR/2001/REC-SVG-20010904/DTD/svg10.dtd">
<svg version="1.0" xmlns="http://www.w3.org/2000/svg"
 width="72.000000pt" height="73.000000pt" viewBox="0 0 72.000000 73.000000"
 preserveAspectRatio="xMidYMid meet">

<g transform="translate(0.000000,73.000000) scale(0.100000,-0.100000)"
fill="#000000" stroke="none">
<path d="M207 639 c-48 -28 -63 -138 -27 -197 65 -106 191 -13 161 118 -17 75
-78 112 -134 79z m77 -51 c33 -47 10 -148 -33 -148 -43 0 -65 84 -37 138 19
38 48 42 70 10z"/>
<path d="M406 620 c-78 -93 -3 -265 94 -215 56 29 77 116 46 190 -27 63 -97
76 -140 25z m100 -42 c27 -52 6 -138 -34 -138 -31 0 -52 31 -52 79 0 85 54
122 86 59z"/>
<path d="M21 434 c-55 -70 9 -181 92 -160 43 11 60 82 32 136 -29 56 -90 67
-124 24z m78 -27 c21 -26 24 -72 6 -87 -22 -19 -47 -3 -59 38 -14 48 24 83 53
49z"/>
<path d="M607 449 c-25 -14 -47 -62 -47 -102 0 -89 111 -106 146 -22 19 47 18
78 -7 109 -22 27 -59 34 -92 15z m66 -50 c14 -22 -9 -76 -35 -85 -37 -11 -51
43 -22 84 18 26 41 26 57 1z"/>
<path d="M307 378 c-58 -16 -142 -98 -166 -164 -26 -69 -27 -128 -2 -153 16
-16 36 -18 225 -17 193 1 209 2 222 20 35 48 5 161 -62 235 -65 73 -139 99
-217 79z m121 -52 c83 -44 156 -183 123 -235 -7 -11 -24 -12 -88 -6 -43 5
-103 7 -133 5 -30 -2 -80 -4 -110 -4 -53 -1 -55 0 -58 28 -7 62 54 165 123
208 36 22 105 24 143 4z"/>
</g>
</svg>
