<?xml version="1.0" standalone="no"?>
<!DOCTYPE svg PUBLIC "-//W3C//DTD SVG 20010904//EN"
 "http://www.w3.org/TR/2001/REC-SVG-20010904/DTD/svg10.dtd">
<svg version="1.0" xmlns="http://www.w3.org/2000/svg"
 width="73.000000pt" height="73.000000pt" viewBox="0 0 73.000000 73.000000"
 preserveAspectRatio="xMidYMid meet">

<g transform="translate(0.000000,73.000000) scale(0.100000,-0.100000)"
fill="#000000" stroke="none">
<path d="M583 594 c-3 -9 6 -27 23 -45 l28 -29 -40 0 c-79 -1 -113 -27 -209
-162 -49 -69 -98 -131 -109 -138 -12 -7 -55 -15 -96 -17 -92 -5 -101 -8 -94
-28 5 -12 24 -15 88 -15 114 0 133 13 233 151 103 143 120 159 180 159 l47 0
-27 -28 c-29 -30 -34 -47 -16 -58 13 -8 119 94 119 114 0 16 -95 112 -111 112
-5 0 -12 -7 -16 -16z"/>
<path d="M92 508 c-25 -25 7 -38 91 -38 l81 0 42 -46 c41 -43 43 -44 54 -25
15 28 -19 74 -75 101 -47 23 -173 28 -193 8z"/>
<path d="M440 279 c-9 -17 -7 -26 16 -56 32 -42 77 -63 136 -63 l42 0 -28 -29
c-29 -30 -30 -61 -3 -61 18 0 107 92 107 111 0 20 -92 109 -113 109 -25 0 -21
-23 8 -50 33 -31 32 -40 -6 -40 -46 0 -96 28 -120 66 -11 19 -22 34 -24 34 -3
0 -9 -9 -15 -21z"/>
</g>
</svg>
