<svg width="16" height="18" viewBox="0 0 16 18" fill="none" xmlns="http://www.w3.org/2000/svg">
<circle cx="8" cy="8" r="7.25" stroke="#EC1C29" stroke-width="1.5"/>
<circle cx="5.143" cy="5.14284" r="1.71429" fill="#EC1C29"/>
<circle cx="10.8572" cy="8.5714" r="1.71429" fill="#EC1C29"/>
<circle cx="3.42862" cy="10.2857" r="1.14286" fill="#EC1C29"/>
<circle cx="5.71415" cy="9.14286" r="1.14286" fill="#EC1C29"/>
<circle cx="6.14286" cy="12.1429" r="1.14286" fill="#EC1C29"/>
<mask id="path-7-inside-1_95_427" fill="white">
<path fill-rule="evenodd" clip-rule="evenodd" d="M13.6862 18H2.3141C2.29544 17.8121 2.28589 17.6215 2.28589 17.4286V15.9999C2.28589 12.844 4.84426 10.2856 8.00017 10.2856C11.1561 10.2856 13.7145 12.844 13.7145 15.9999V17.4286C13.7145 17.6215 13.7049 17.8121 13.6862 18Z"/>
</mask>
<path d="M13.6862 18V19.5H15.0447L15.1789 18.1482L13.6862 18ZM2.3141 18L0.821437 18.1482L0.955642 19.5H2.3141V18ZM13.6862 16.5H2.3141V19.5H13.6862V16.5ZM3.80676 17.8518C3.79298 17.713 3.78589 17.5719 3.78589 17.4286H0.785889C0.785889 17.671 0.797898 17.9111 0.821437 18.1482L3.80676 17.8518ZM3.78589 17.4286V15.9999H0.785889V17.4286H3.78589ZM3.78589 15.9999C3.78589 13.6724 5.67269 11.7856 8.00017 11.7856V8.78564C4.01584 8.78564 0.785889 12.0156 0.785889 15.9999H3.78589ZM8.00017 11.7856C10.3277 11.7856 12.2145 13.6724 12.2145 15.9999H15.2145C15.2145 12.0156 11.9845 8.78564 8.00017 8.78564V11.7856ZM12.2145 15.9999V17.4286H15.2145V15.9999H12.2145ZM12.2145 17.4286C12.2145 17.5719 12.2074 17.713 12.1936 17.8518L15.1789 18.1482C15.2024 17.9111 15.2145 17.671 15.2145 17.4286H12.2145Z" fill="#EC1C29" mask="url(#path-7-inside-1_95_427)"/>
</svg>
