<svg width="25" height="23" viewBox="0 0 25 23" fill="none" xmlns="http://www.w3.org/2000/svg">
<path d="M12.4878 12.2038C8.65564 12.2038 4.82347 12.2038 0.992158 12.2038C0.477543 12.2038 0.173923 11.9905 0.0409805 11.5465C-0.108258 11.0482 0.163626 10.5058 0.637072 10.3762C0.767441 10.3403 0.907254 10.3284 1.04277 10.3284C8.67966 10.3265 16.3157 10.3265 23.9526 10.3265C24.5452 10.3265 24.9046 10.6106 24.9887 11.1401C25.0693 11.6494 24.7099 12.1514 24.2296 12.1955C24.1121 12.2065 23.9929 12.2038 23.8737 12.2038C20.0784 12.2038 16.2831 12.2038 12.4869 12.2038H12.4878Z" fill="white"/>
<path d="M18.4742 22.9966C17.6714 22.9966 16.8685 22.9984 16.0657 22.9966C15.4989 22.9957 15.0944 22.6101 15.0944 22.0776C15.0944 21.5433 15.4971 21.1595 16.0648 21.1586C17.5959 21.1568 19.1271 21.1586 20.6573 21.1586C21.6374 21.1586 22.2621 20.5145 22.263 19.5054C22.2639 18.3459 22.263 17.1863 22.263 16.0268C22.263 15.4421 22.635 15.0249 23.1536 15.0204C23.6678 15.0159 24.053 15.4403 24.0538 16.0187C24.0556 17.2359 24.0591 18.4531 24.0538 19.6703C24.0451 21.4839 22.571 22.9903 20.7994 22.9984C20.0247 23.002 19.2499 22.9984 18.4751 22.9984L18.4742 22.9966Z" fill="white"/>
<path d="M6.50898 22.9984C5.73436 22.9984 4.95974 23.002 4.18512 22.9984C2.42007 22.9885 0.950649 21.4731 0.945385 19.6559C0.941876 18.4486 0.943631 17.2405 0.945385 16.0332C0.945385 15.4449 1.31033 15.0305 1.82967 15.0206C2.35164 15.0107 2.735 15.4413 2.73588 16.0413C2.73676 17.2108 2.735 18.3802 2.73588 19.5487C2.73763 20.5001 3.37365 21.1578 4.29829 21.1587C5.86596 21.1614 7.4345 21.1569 9.00217 21.1614C9.47062 21.1623 9.85311 21.5199 9.90048 21.9785C9.94785 22.4317 9.66362 22.8515 9.22148 22.9687C9.12411 22.9948 9.01883 22.9966 8.91706 22.9975C8.11437 22.9993 7.31168 22.9984 6.50898 22.9984Z" fill="white"/>
<path d="M6.51818 0.00197865C7.3115 0.00197865 8.1057 0.00197865 8.89902 0.00197865C9.49401 0.00197865 9.90209 0.351348 9.9056 0.860137C9.90911 1.3808 9.49929 1.73271 8.88499 1.73271C7.37294 1.73271 5.86001 1.73271 4.34796 1.73271C3.36245 1.73271 2.73675 2.33478 2.73587 3.28198C2.73499 4.37333 2.73587 5.46468 2.73587 6.55604C2.73587 7.10807 2.36993 7.50069 1.85128 7.51002C1.33264 7.52019 0.945627 7.11147 0.94475 6.54925C0.943872 5.42144 0.942117 4.29447 0.94475 3.16665C0.949138 1.42405 2.41644 0.00706652 4.22159 0.00113064C4.98683 -0.0014133 5.75294 0.00113064 6.51818 0.00113064V0.00197865Z" fill="white"/>
<path d="M18.4883 0.00150744C19.2627 0.00150744 20.0371 -0.0018843 20.8114 0.00150744C22.5646 0.00998681 24.0423 1.42858 24.0528 3.11767C24.0599 4.27172 24.0555 5.4266 24.0528 6.58149C24.052 7.11061 23.6784 7.49896 23.1706 7.50998C22.6619 7.52101 22.2646 7.11569 22.2638 6.57725C22.262 5.47663 22.2638 4.37686 22.2629 3.27624C22.262 2.34351 21.6341 1.73384 20.6738 1.73215C19.1153 1.73045 17.5578 1.73384 15.9993 1.7296C15.531 1.72875 15.1469 1.39128 15.0995 0.961371C15.0522 0.532315 15.3337 0.138873 15.7757 0.0286414C15.8731 0.00405123 15.9783 0.00235524 16.08 0.00235524C16.8825 0.000659364 17.6849 0.00150744 18.4874 0.00150744H18.4883Z" fill="white"/>
</svg>
