<svg width="19" height="19" viewBox="0 0 19 19" fill="none" xmlns="http://www.w3.org/2000/svg">
<path d="M12.3875 13.6125L13.6125 12.3875L10.375 9.15V5.125H8.625V9.85L12.3875 13.6125ZM9.5 18.25C8.28958 18.25 7.15208 18.0203 6.0875 17.5609C5.02292 17.1016 4.09687 16.4781 3.30938 15.6906C2.52187 14.9031 1.89844 13.9771 1.43906 12.9125C0.979687 11.8479 0.75 10.7104 0.75 9.5C0.75 8.28958 0.979687 7.15208 1.43906 6.0875C1.89844 5.02292 2.52187 4.09687 3.30938 3.30938C4.09687 2.52187 5.02292 1.89844 6.0875 1.43906C7.15208 0.979687 8.28958 0.75 9.5 0.75C10.7104 0.75 11.8479 0.979687 12.9125 1.43906C13.9771 1.89844 14.9031 2.52187 15.6906 3.30938C16.4781 4.09687 17.1016 5.02292 17.5609 6.0875C18.0203 7.15208 18.25 8.28958 18.25 9.5C18.25 10.7104 18.0203 11.8479 17.5609 12.9125C17.1016 13.9771 16.4781 14.9031 15.6906 15.6906C14.9031 16.4781 13.9771 17.1016 12.9125 17.5609C11.8479 18.0203 10.7104 18.25 9.5 18.25ZM9.5 16.5C11.4396 16.5 13.0911 15.8182 14.4547 14.4547C15.8182 13.0911 16.5 11.4396 16.5 9.5C16.5 7.56042 15.8182 5.90885 14.4547 4.54531C13.0911 3.18177 11.4396 2.5 9.5 2.5C7.56042 2.5 5.90885 3.18177 4.54531 4.54531C3.18177 5.90885 2.5 7.56042 2.5 9.5C2.5 11.4396 3.18177 13.0911 4.54531 14.4547C5.90885 15.8182 7.56042 16.5 9.5 16.5Z" fill="#1C1B1F"/>
</svg>
