<svg width="16" height="18" viewBox="0 0 16 18" fill="none" xmlns="http://www.w3.org/2000/svg">
<path d="M1.25 4.65842H2.75M2.75 4.65842H14.75M2.75 4.65842V15.1584C2.75 15.5562 2.90804 15.9378 3.18934 16.2191C3.47064 16.5004 3.85218 16.6584 4.25 16.6584H11.75C12.1478 16.6584 12.5294 16.5004 12.8107 16.2191C13.092 15.9378 13.25 15.5562 13.25 15.1584V4.65842H2.75ZM5 4.65842V3.15842C5 2.76059 5.15804 2.37906 5.43934 2.09776C5.72064 1.81645 6.10218 1.65842 6.5 1.65842H9.5C9.89782 1.65842 10.2794 1.81645 10.5607 2.09776C10.842 2.37906 11 2.76059 11 3.15842V4.65842M6.5 8.40842V12.9084M9.5 8.40842V12.9084" stroke="#EC1C29" stroke-width="1.5" stroke-linecap="round" stroke-linejoin="round"/>
</svg>
