<svg width="138" height="141" viewBox="0 0 138 141" fill="none" xmlns="http://www.w3.org/2000/svg">
<g clip-path="url(#clip0_2001_1263)">
<path d="M25.505 113.582C24.7704 113.032 23.7671 112.756 22.495 112.756C21.7044 112.756 20.9407 112.92 20.2083 113.25C19.4737 113.579 18.8287 113.994 18.2688 114.497C17.7492 114.966 17.3707 115.45 17.1355 115.951C16.8332 115.035 16.3494 114.304 15.6797 113.759C14.8578 113.093 13.7917 112.758 12.4793 112.758C11.785 112.758 11.1288 112.884 10.5106 113.135C9.8925 113.386 9.33259 113.725 8.83091 114.149C8.35163 114.558 7.95745 115 7.64614 115.477V114.149C7.64614 113.822 7.53864 113.546 7.32811 113.321C7.11535 113.099 6.83539 112.989 6.48825 112.989C6.15902 112.989 5.88578 113.099 5.66406 113.321C5.44234 113.543 5.33035 113.819 5.33035 114.149V126.794C5.33035 127.124 5.44234 127.402 5.66406 127.635C5.88578 127.869 6.16126 127.983 6.48825 127.983C6.81524 127.983 7.09071 127.866 7.31468 127.635C7.5364 127.404 7.64838 127.124 7.64838 126.794V118.847C7.64838 118.111 7.84099 117.452 8.22621 116.862C8.61367 116.272 9.12431 115.798 9.76036 115.442C10.3987 115.083 11.1019 114.905 11.8746 114.905C12.7234 114.905 13.3886 115.085 13.8723 115.442C14.3539 115.8 14.6965 116.274 14.9003 116.862C15.1019 117.452 15.2049 118.114 15.2049 118.847V126.794C15.2049 127.124 15.3147 127.402 15.5364 127.635C15.7604 127.866 16.0336 127.983 16.3628 127.983C16.71 127.983 16.9899 127.866 17.2005 127.635C17.411 127.404 17.5185 127.124 17.5185 126.794V118.935C17.5185 118.181 17.7111 117.499 18.0985 116.891C18.4838 116.283 19.0056 115.798 19.6618 115.442C20.318 115.083 21.0414 114.905 21.832 114.905C22.6809 114.905 23.3528 115.085 23.8432 115.442C24.336 115.8 24.6921 116.283 24.9138 116.891C25.1377 117.499 25.2475 118.181 25.2475 118.935V126.794C25.2475 127.124 25.355 127.402 25.5655 127.635C25.7783 127.866 26.0582 127.983 26.4054 127.983C26.7346 127.983 27.0078 127.866 27.2296 127.635C27.4513 127.404 27.5633 127.124 27.5633 126.794V118.876C27.5633 117.737 27.4043 116.707 27.0862 115.787C26.7682 114.869 26.2419 114.134 25.5073 113.582H25.505Z" fill="#EE3725" fill-opacity="0.05"/>
<path d="M42.3673 113.627C41.2385 112.949 39.9687 112.61 38.5599 112.61C37.1512 112.61 35.8768 112.949 34.7391 113.627C33.6014 114.304 32.6988 115.231 32.0336 116.411C31.3684 117.591 31.0347 118.935 31.0347 120.442C31.0347 121.95 31.3684 123.294 32.0336 124.474C32.6988 125.654 33.6014 126.581 34.7391 127.258C35.8768 127.936 37.1512 128.272 38.5599 128.272C39.9687 128.272 41.2385 127.934 42.3673 127.258C43.4961 126.581 44.3942 125.654 45.0594 124.474C45.7245 123.294 46.0582 121.95 46.0582 120.442C46.0582 118.935 45.7245 117.591 45.0594 116.411C44.3942 115.231 43.4961 114.304 42.3673 113.627ZM43.0616 123.37C42.607 124.221 41.9911 124.894 41.2072 125.385C40.4255 125.879 39.5431 126.125 38.5577 126.125C37.5722 126.125 36.6921 125.879 35.9082 125.385C35.1266 124.891 34.5039 124.221 34.0426 123.37C33.579 122.52 33.3483 121.542 33.3483 120.442C33.3483 119.343 33.579 118.336 34.0426 117.483C34.5062 116.633 35.1288 115.967 35.9082 115.482C36.6898 115 37.5722 114.757 38.5577 114.757C39.5431 114.757 40.4255 115 41.2072 115.482C41.9888 115.964 42.607 116.633 43.0616 117.483C43.514 118.334 43.7425 119.321 43.7425 120.442C43.7425 121.564 43.5163 122.52 43.0616 123.37Z" fill="#EE3725" fill-opacity="0.05"/>
<path d="M60.0717 113.425C59.3191 112.884 58.2867 112.612 56.9742 112.612C56.28 112.612 55.6125 112.734 54.9765 112.976C54.3404 113.218 53.7604 113.541 53.2408 113.947C52.7189 114.353 52.2844 114.813 51.9373 115.325C51.9059 115.372 51.8791 115.419 51.8499 115.466V114.151C51.8499 113.824 51.7447 113.548 51.5319 113.324C51.3191 113.102 51.0392 112.992 50.692 112.992C50.3628 112.992 50.0896 113.102 49.8679 113.324C49.6461 113.546 49.5341 113.822 49.5341 114.151V126.796C49.5341 127.126 49.6439 127.404 49.8679 127.637C50.0896 127.869 50.3651 127.985 50.692 127.985C51.019 127.985 51.2945 127.869 51.5185 127.637C51.7402 127.406 51.8522 127.126 51.8522 126.796V118.706C51.8522 117.97 52.0537 117.31 52.4591 116.72C52.8645 116.13 53.4043 115.657 54.0806 115.298C54.757 114.941 55.4983 114.762 56.3091 114.762C57.196 114.762 57.897 114.941 58.4076 115.298C58.9183 115.657 59.2856 116.13 59.5073 116.72C59.729 117.31 59.841 117.972 59.841 118.706V126.796C59.841 127.126 59.9507 127.404 60.1725 127.637C60.3942 127.869 60.6696 127.985 60.9989 127.985C61.3281 127.985 61.6013 127.869 61.8253 127.637C62.047 127.406 62.159 127.126 62.159 126.796V118.648C62.159 117.526 62 116.512 61.6797 115.603C61.3617 114.694 60.8264 113.97 60.0739 113.429L60.0717 113.425Z" fill="#EE3725" fill-opacity="0.05"/>
<path d="M77.4132 114.54C76.7771 113.911 76.0425 113.434 75.2139 113.104C74.383 112.774 73.5252 112.61 72.6383 112.61C71.4423 112.61 70.3068 112.924 69.2363 113.553C68.1657 114.181 67.2967 115.089 66.6316 116.278C65.9664 117.468 65.6327 118.903 65.6327 120.584C65.6327 122.091 65.9552 123.422 66.6025 124.571C67.2497 125.721 68.15 126.626 69.3079 127.283C70.4658 127.94 71.8163 128.268 73.3617 128.268C74.4054 128.268 75.3886 128.041 76.3158 127.586C77.2408 127.13 77.9754 126.605 78.5151 126.004C78.8242 125.753 78.9787 125.463 78.9787 125.136C78.9787 124.864 78.8869 124.633 78.7032 124.44C78.5196 124.247 78.2822 124.151 77.9933 124.151C77.7626 124.151 77.5207 124.239 77.2699 124.411C77.019 124.683 76.71 124.947 76.3427 125.21C75.9754 125.47 75.5409 125.688 75.0414 125.863C74.5397 126.036 73.9507 126.123 73.2744 126.123C72.1926 126.123 71.2475 125.876 70.4367 125.383C69.626 124.889 68.9944 124.218 68.542 123.368C68.1478 122.63 67.9261 121.789 67.8723 120.844H78.3986C78.7077 120.844 78.9765 120.739 79.2094 120.525C79.4401 120.312 79.5565 120.052 79.5565 119.742C79.5386 118.661 79.3348 117.678 78.9496 116.799C78.5621 115.919 78.0515 115.166 77.4154 114.537L77.4132 114.54ZM69.3796 116.077C69.832 115.621 70.3449 115.294 70.9138 115.089C71.4826 114.887 72.0582 114.784 72.6361 114.784C73.3505 114.784 74.0291 114.939 74.6764 115.249C75.3236 115.558 75.8723 115.998 76.327 116.568C76.7794 117.138 77.0459 117.82 77.1243 118.612V118.843H67.9955C68.0649 118.477 68.1568 118.138 68.2799 117.829C68.5599 117.113 68.9272 116.527 69.3796 116.074V116.077Z" fill="#EE3725" fill-opacity="0.05"/>
<path d="M94.0873 112.756C93.7402 112.756 93.4602 112.866 93.2475 113.09C93.0347 113.312 92.9294 113.588 92.9294 113.916V122.152C92.9294 122.888 92.7413 123.559 92.3651 124.167C91.9888 124.775 91.4871 125.255 90.86 125.603C90.2329 125.95 89.5319 126.125 88.7615 126.125C87.5453 126.125 86.6472 125.791 86.0694 125.125C85.4916 124.458 85.2004 123.467 85.2004 122.152V113.916C85.2004 113.588 85.0952 113.312 84.8824 113.09C84.6696 112.868 84.3897 112.756 84.0425 112.756C83.7133 112.756 83.4401 112.866 83.2184 113.09C82.9966 113.312 82.8846 113.588 82.8846 113.916V122.675C82.8846 123.776 83.0817 124.748 83.4782 125.589C83.8723 126.43 84.4524 127.088 85.2139 127.561C85.9754 128.035 86.907 128.272 88.0089 128.272C88.8197 128.272 89.5633 128.147 90.2374 127.896C90.9138 127.644 91.5117 127.296 92.0336 126.852C92.3807 126.554 92.6786 126.22 92.9317 125.854V126.619C92.9317 127.721 92.7391 128.645 92.3516 129.387C91.9664 130.132 91.4154 130.698 90.701 131.084C89.9866 131.469 89.1288 131.662 88.1254 131.662C87.3908 131.662 86.7324 131.541 86.1433 131.299C85.5543 131.057 85.1064 130.868 84.7973 130.734C84.5084 130.599 84.2329 130.599 83.9709 130.734C83.7111 130.868 83.5117 131.111 83.3774 131.458C83.2811 131.748 83.3035 132.024 83.449 132.286C83.5946 132.546 83.8499 132.764 84.2172 132.939C84.6607 133.19 85.2296 133.392 85.9261 133.547C86.6204 133.702 87.3438 133.778 88.0963 133.778C89.4468 133.778 90.6584 133.518 91.729 132.995C92.7995 132.472 93.6528 131.676 94.2911 130.601C94.9272 129.529 95.2475 128.18 95.2475 126.556V113.912C95.2475 113.584 95.1355 113.308 94.9138 113.086C94.692 112.864 94.4166 112.752 94.0873 112.752V112.756Z" fill="#EE3725" fill-opacity="0.05"/>
<path d="M96.049 25.5652C103.426 26.3123 108.333 31.7843 108.338 39.2733C108.34 43.702 108.338 48.1308 108.338 52.5618C108.338 63.1401 108.271 73.7161 108.365 84.2922C108.428 91.5994 114.103 97.1365 121.209 97.0714C128.192 97.0086 133.671 91.3773 133.682 84.1643C133.704 68.8275 133.724 53.4906 133.673 38.1537C133.646 30.3372 131.267 23.2297 126.896 16.7705C113.104 -3.6076 83.8027 -4.3704 68.3111 8.85754C67.4779 9.56874 66.9068 10.1924 65.6974 9.15144C56.3066 1.07468 45.1711 -1.10156 33.3211 0.504821C13.7825 3.15445 0.0266366 19.3573 0.0199177 39.1207C0.0176781 46.2597 0.0199177 53.4009 0.0199177 60.5398C0.0199177 68.6054 -0.038313 76.6709 0.0400745 84.7342C0.105024 91.5187 5.70861 96.9974 12.4723 97.0714C19.731 97.15 25.3346 91.494 25.357 83.9198C25.3995 69.0451 25.3682 54.1704 25.3704 39.2979C25.3704 31.7237 30.3872 26.2248 37.8385 25.5405C49.5272 24.4659 54.5014 32.7782 54.3044 40.5925C53.9415 54.9938 54.1968 69.413 54.2013 83.8233C54.2013 91.4401 59.6571 97.1028 66.9426 97.0692C74.1185 97.0355 79.507 91.3728 79.5093 83.8457C79.5138 69.0384 79.4578 54.2287 79.5698 39.4213C79.5854 37.3057 80.0401 35.0397 80.8934 33.1102C83.3682 27.5193 89.0054 24.8473 96.049 25.563V25.5652Z" fill="#EE3725" fill-opacity="0.05"/>
<path d="M120.482 123.704L116.654 127.736L125.487 136.152C126.598 137.211 128.356 137.166 129.413 136.053C130.47 134.94 130.426 133.179 129.315 132.12L120.482 123.707V123.704Z" fill="#EE3725" fill-opacity="0.05"/>
<path d="M96.6831 136.268C95.6081 137.363 95.6215 139.124 96.7144 140.201C97.8074 141.278 99.5655 141.265 100.641 140.17L112.929 127.669L108.972 123.767L96.6853 136.268H96.6831Z" fill="#EE3725" fill-opacity="0.05"/>
<path d="M137.153 99.2409C136.049 98.1729 134.293 98.2044 133.227 99.3104L114.833 118.396L104.979 108.711C103.884 107.634 102.125 107.652 101.053 108.749C100.515 109.299 100.251 110.012 100.258 110.726C100.264 111.437 100.542 112.148 101.088 112.686L110.791 122.217L114.941 126.296L120.853 120.157C120.853 120.157 120.853 120.157 120.851 120.157L137.223 103.172C138.289 102.065 138.258 100.307 137.153 99.2386V99.2409Z" fill="#EE3725" fill-opacity="0.05"/>
</g>
<defs>
<clipPath id="clip0_2001_1263">
<rect width="138" height="141" fill="white"/>
</clipPath>
</defs>
</svg>
