<svg viewBox="0 0 22 18" xmlns="http://www.w3.org/2000/svg" xmlns:xlink="http://www.w3.org/1999/xlink"><linearGradient id="a" gradientTransform="matrix(1 0 0 -1 0 17.73)" gradientUnits="userSpaceOnUse" x1="15.91" x2="15.91" y1="12.95" y2=".1"><stop offset="0" stop-color="#f8e5ca"/><stop offset="1" stop-color="#ddd"/></linearGradient><linearGradient id="b" gradientTransform="matrix(1 0 0 -1 0 17.73)" gradientUnits="userSpaceOnUse" x1="3.56" x2="8.58" y1="16.75" y2="4.45"><stop offset="0" stop-color="#ed1c29"/><stop offset="1" stop-color="#f14d58"/></linearGradient><path d="m13.35 7.81h6.38v6.38h-6.38z" fill="#414952"/><path d="m12.17 6.09a6 6 0 0 1 6.74-.51 6.06 6.06 0 0 1 1.8 1.58 6.16 6.16 0 0 1 1.07 2.16 6.31 6.31 0 0 1 .22 2.41 6.2 6.2 0 0 1 -1.63 3.49l.25 1.13.27 1.28-1.16-.63-1.12-.54a6 6 0 0 1 -7.51-1.73 6.28 6.28 0 0 1 -1.23-4.53 6.17 6.17 0 0 1 2.3-4.11zm5.26 6.55.41 1.14h.91l-2-5.57h-.92l-2 5.53v.1h.9l.44-1.23zm-.28-.82h-1.75l.87-2.5z" fill="url(#a)" fill-rule="evenodd"/><path d="m7 0a6.92 6.92 0 0 0 -5 2.08 7.17 7.17 0 0 0 -.7 9.18l-.41 1.29-.49 1.45 1.38-.49 1.32-.51a6.91 6.91 0 0 0 8.9-1 7.15 7.15 0 0 0 1.62-2.83 7.38 7.38 0 0 0 .2-3.27 7.19 7.19 0 0 0 -1.27-3 7 7 0 0 0 -2.45-2.14 6.82 6.82 0 0 0 -3.1-.76zm2.71 8.6a1.08 1.08 0 0 1 -.08.53 1.16 1.16 0 0 1 -.3.43 1.57 1.57 0 0 1 -1 .31 1.41 1.41 0 0 1 -.87-.23 1.49 1.49 0 0 1 -.41-.64l-.38-1.2a.72.72 0 0 0 -.27-.4.7.7 0 0 0 -.4-.12.81.81 0 0 0 -.31 0 .68.68 0 0 0 -.26.18 1.14 1.14 0 0 0 -.21.76c0 .58.22.87.69.87a.8.8 0 0 0 .37-.06l.13.72h-.7a1.42 1.42 0 0 1 -.61-.07 1.46 1.46 0 0 1 -.5-.35 1.71 1.71 0 0 1 -.35-1.13 2 2 0 0 1 .45-1.2 1.53 1.53 0 0 1 .59-.41 1.51 1.51 0 0 1 .71-.09 1.59 1.59 0 0 1 1 .28 1.66 1.66 0 0 1 .5.75l.44 1.3a.5.5 0 0 0 .16.28.53.53 0 0 0 .27.08c.25 0 .37-.14.37-.42v-2.77a1.23 1.23 0 0 0 -.12-.59 1.18 1.18 0 0 0 -.41-.41 2.55 2.55 0 0 0 -1.4-.34h-.72a4.32 4.32 0 0 0 -.78.16 2.77 2.77 0 0 0 -.67.18v-.78a2.64 2.64 0 0 1 .62-.22 5.79 5.79 0 0 1 .83-.16 6.82 6.82 0 0 1 .91-.05 4.31 4.31 0 0 1 1.38.21 2.22 2.22 0 0 1 1 .69 1.93 1.93 0 0 1 .37 1.13z" fill="url(#b)"/></svg>