<svg width="24" height="24" viewBox="0 0 24 24" fill="none" xmlns="http://www.w3.org/2000/svg">
<path d="M22.4 6.829V6.39931C22.4 4.63447 20.9648 3.19931 19.2 3.19931H3.2C1.43555 3.19931 0 4.63447 0 6.39931V20.7993C0 22.5642 1.43555 23.9993 3.2 23.9993H20.8C22.5648 23.9993 24 22.5642 24 20.7993V9.59931C24 8.41728 23.3555 7.3829 22.4 6.829Z" fill="url(#paint0_linear_871_1601)"/>
<path d="M22.4002 6.39932V6.83135C21.9283 6.55947 21.3846 6.39932 20.8002 6.39932H4.0002C3.56035 6.39932 3.2002 6.03916 3.2002 5.59932C3.2002 5.15947 3.56035 4.79932 4.0002 4.79932H20.8002C21.2322 4.79932 21.6564 4.85557 22.0564 4.96729C22.2799 5.39932 22.4002 5.8876 22.4002 6.39932Z" fill="white" fill-opacity="0.81"/>
<path d="M19.2 11.9993C17.4352 11.9993 16 13.4345 16 15.1993C16 16.9642 17.4352 18.3993 19.2 18.3993H24V11.9993H19.2Z" fill="white" fill-opacity="0.81"/>
<path d="M20.448 6.3993H6.16797L15.5602 0.135242C15.7359 0.0149292 15.9602 -0.0249145 16.168 0.0149292C16.3762 0.0633667 16.5602 0.191492 16.6801 0.375085L20.448 6.3993Z" fill="white" fill-opacity="0.81"/>
<defs>
<linearGradient id="paint0_linear_871_1601" x1="12" y1="3.19931" x2="12" y2="23.9993" gradientUnits="userSpaceOnUse">
<stop stop-color="#FFCDC6"/>
<stop offset="0.786458" stop-color="#F15244"/>
</linearGradient>
</defs>
</svg>
